<svg width="20" height="20" viewBox="0 0 20 20" fill="none" xmlns="http://www.w3.org/2000/svg">
<path d="M19.8284 0.171679C19.6627 0.00585826 19.4139 -0.0451574 19.1964 0.0419911L0.36834 7.57316C0.152872 7.6593 0.00861399 7.86449 0.000371811 8.09637C-0.00787037 8.32824 0.121505 8.54316 0.330215 8.64437L7.7547 12.2452L11.3556 19.6698C11.4538 19.8723 11.6588 20 11.8826 20C11.8896 20 11.8966 19.9999 11.9036 19.9996C12.1354 19.9914 12.3406 19.8471 12.4268 19.6317L19.9581 0.803632C20.0451 0.586015 19.9941 0.337421 19.8284 0.171679Z" fill="#FF4200"/>
<path d="M19.8275 0.172119L7.75391 12.2456L11.3548 19.6702C11.453 19.8727 11.658 20.0004 11.8818 20.0004C11.8888 20.0004 11.8958 20.0003 11.9028 20C12.1346 19.9918 12.3398 19.8475 12.426 19.6321L19.9572 0.804072C20.0443 0.586455 19.9933 0.337861 19.8275 0.172119Z" fill="#FF4200"/>
</svg>
