<svg width="20" height="19" viewBox="0 0 20 19" fill="none" xmlns="http://www.w3.org/2000/svg">
<path d="M20 2.74963V11.6238C20 13.1398 18.7665 14.3734 17.2504 14.3734H8.52686L2.73987 18.4004V14.3734C1.22815 14.3683 0 13.1367 0 11.6238V2.74963C0 1.23352 1.23352 0 2.74963 0H17.2504C18.7665 0 20 1.23352 20 2.74963Z" fill="#FF4200"/>
<path d="M20 2.74963V11.6238C20 13.1398 18.7665 14.3734 17.2504 14.3734H9.99695V0H17.2504C18.7665 0 20 1.23352 20 2.74963Z" fill="#FF4200"/>
<path d="M5.35303 4.14062H14.647V5.3125H5.35303V4.14062Z" fill="white"/>
<path d="M5.35303 6.64062H14.647V7.8125H5.35303V6.64062Z" fill="white"/>
<path d="M5.35303 9.14062H14.647V10.3125H5.35303V9.14062Z" fill="white"/>
<path d="M9.99695 4.14062H14.647V5.3125H9.99695V4.14062Z" fill="white"/>
<path d="M9.99695 6.64062H14.647V7.8125H9.99695V6.64062Z" fill="white"/>
<path d="M9.99695 9.14062H14.647V10.3125H9.99695V9.14062Z" fill="white"/>
</svg>
