<svg width="20" height="13" viewBox="0 0 20 13" fill="none" xmlns="http://www.w3.org/2000/svg">
<path d="M20 6.07843V10.1541C20 11.2584 19.1016 12.1569 17.9973 12.1569H2.00275C0.898431 12.1569 0 11.2584 0 10.1541V6.07843H20Z" fill="#FF4200"/>
<path d="M20 2.00275V6.07843H0V2.00275C0 0.898432 0.898431 0 2.00275 0H17.9973C19.1016 0 20 0.898432 20 2.00275Z" fill="#FF4200"/>
<path d="M10 3.13727H17.6471V4.31374H10V3.13727Z" fill="white"/>
<path d="M10 6.07843H15.2941V6.66667H10V6.07843Z" fill="white"/>
<path d="M10 5.49017H15.2941V6.07841H10V5.49017Z" fill="white"/>
<path d="M10 7.84314H13.5294V9.01961H10V7.84314Z" fill="white"/>
<path d="M8.2353 6.07843V12.1569H2.00275C0.898432 12.1569 0 11.2584 0 10.1541V6.07843H8.2353Z" fill="#FF4200"/>
<path d="M8.2353 0V6.07843H0V2.00275C0 0.898432 0.898432 0 2.00275 0H8.2353Z" fill="#FF4200"/>
<path d="M4.68196 6.07843L4.41176 6.22863V7.45098H3.23529V6.07843H4.68196Z" fill="white"/>
<path d="M6.17649 4.10314C6.17649 4.80941 5.79296 5.46118 5.17531 5.80431L4.68198 6.07843H3.23531V5.53608L4.60394 4.77568C4.84825 4.64 5.00002 4.38235 5.00002 4.10314C5.00002 3.67843 4.65492 3.33333 4.23021 3.33333H4.00511C3.58041 3.33333 3.23531 3.67843 3.23531 4.10314V4.5098H2.05884V4.10314C2.05884 3.0298 2.93178 2.15686 4.00511 2.15686H4.23021C5.30355 2.15686 6.17649 3.0298 6.17649 4.10314Z" fill="white"/>
<path d="M3.23529 8.62744H4.41176V9.80391H3.23529V8.62744Z" fill="white"/>
</svg>
