<svg width="20" height="13" viewBox="0 0 20 13" fill="none" xmlns="http://www.w3.org/2000/svg">
<path d="M4.52444 2.15686H4.29902C3.22592 2.15686 2.35291 3.02988 2.35291 4.10298V4.5098H3.52938V4.10298C3.52938 3.67859 3.87463 3.33333 4.29902 3.33333H4.52444C4.94883 3.33333 5.29408 3.67859 5.29408 4.10298C5.29408 4.38231 5.1424 4.64008 4.89816 4.77576L3.52938 5.53623V7.45098H4.70585V6.22847L5.46957 5.80419C6.08698 5.46117 6.47055 4.80929 6.47055 4.10298C6.47055 3.02988 5.59753 2.15686 4.52444 2.15686Z" fill="white"/>
<path d="M3.52942 8.62744H4.70589V9.80391H3.52942V8.62744Z" fill="white"/>
<path d="M17.9974 0H2.00259C0.898353 0 0 0.898353 0 2.00259V10.1542C0 11.2585 0.898353 12.1569 2.00259 12.1569H17.9974C19.1016 12.1569 20 11.2585 20 10.1543V2.00259C20 0.898353 19.1016 0 17.9974 0ZM1.17647 10.1543V2.00259C1.17647 1.54706 1.54706 1.17647 2.00259 1.17647H7.64706V10.9804H2.00259C1.54706 10.9804 1.17647 10.6098 1.17647 10.1543ZM18.8235 10.1543C18.8235 10.6098 18.4529 10.9804 17.9974 10.9804H8.82353V1.17647H17.9974C18.4529 1.17647 18.8235 1.54706 18.8235 2.00259V10.1543Z" fill="white"/>
<path d="M10 3.13721H17.6471V4.31368H10V3.13721Z" fill="white"/>
<path d="M10 5.49023H15.2941V6.66671H10V5.49023Z" fill="white"/>
<path d="M10 7.84314H13.5294V9.01961H10V7.84314Z" fill="white"/>
</svg>
