<svg width="20" height="20" viewBox="0 0 20 20" fill="none" xmlns="http://www.w3.org/2000/svg">
<path d="M18.2414 11.1761L11.3707 18.6539C11.0153 19.0406 10.5192 19.26 9.99992 19.26C9.4807 19.2599 8.98465 19.0406 8.62938 18.6539L1.75859 11.1761L1.75855 11.176C0.667969 9.98906 3.90417e-10 8.3922 3.90417e-10 6.63603C-3.90621e-05 2.97169 2.93117 -0.0119309 6.51891 3.80656e-05C7.80027 0.004307 8.9943 0.387394 9.99926 1.04545L9.99973 1.04617C11.0047 0.387833 12.1989 0.00442669 13.4805 3.80656e-05C17.0684 -0.01229 20 2.97141 20 6.63603C20 8.39224 19.332 9.9891 18.2414 11.1761Z" fill="#FF4200"/>
<path d="M9.99992 19.26C9.4807 19.26 8.98465 19.0406 8.62938 18.654L1.75859 11.1761L1.75855 11.176C0.667969 9.98912 3.90417e-10 8.39226 3.90417e-10 6.63609C-3.90621e-05 2.97175 2.93117 -0.011872 6.51891 9.69204e-05C7.80027 0.00436585 8.9943 0.387453 9.99926 1.04551L9.99973 1.04622L9.99992 19.26Z" fill="#FF4200"/>
<path d="M14.935 4.58108C14.542 4.17968 13.9049 4.17968 13.5118 4.58108L11.4997 6.63619L8.47509 9.72538L7.40547 8.63289L7.15383 8.37588C6.76083 7.97452 6.12368 7.97452 5.73067 8.37588C5.33766 8.77728 5.33766 9.42807 5.73067 9.82947L7.76352 11.9057C7.96001 12.1064 8.21758 12.2067 8.47512 12.2067C8.73266 12.2067 8.9902 12.1064 9.18673 11.9057L14.9351 6.03463C15.328 5.63327 15.328 4.98248 14.935 4.58108Z" fill="#14FF00"/>
<path d="M10 8.16795L8.47508 9.72547L7.40547 8.63298L7.15383 8.37597C6.76082 7.97461 6.12368 7.97461 5.73067 8.37597C5.33766 8.77737 5.33766 9.42816 5.73067 9.82956L7.76352 11.9058C7.96 12.1065 8.21758 12.2068 8.47512 12.2068C8.73266 12.2068 8.9902 12.1065 9.18672 11.9058L9.99988 11.0753L10 8.16795Z" fill="#14FF00"/>
</svg>
