<svg width="20" height="20" viewBox="0 0 20 20" fill="none" xmlns="http://www.w3.org/2000/svg">
<path d="M15.3493 4.27038C15.0486 3.96964 14.6487 3.80402 14.2234 3.80402C13.7981 3.80402 13.3983 3.96964 13.0976 4.27038L8.47505 8.89284L7.56806 7.98585C6.94728 7.36511 5.93712 7.36511 5.31626 7.98585C4.69544 8.60671 4.69544 9.61687 5.31626 10.2376L7.34915 12.2706C7.6499 12.5713 8.04974 12.7369 8.47501 12.7369C8.90025 12.7369 9.30009 12.5713 9.60091 12.2706L15.3493 6.52218C15.6501 6.22144 15.8157 5.82159 15.8157 5.39628C15.8157 4.97097 15.6501 4.57109 15.3493 4.27038ZM14.5207 5.69359L8.7724 11.4419C8.69294 11.5213 8.58736 11.565 8.47505 11.565C8.36275 11.565 8.25716 11.5213 8.17779 11.4419L6.1449 9.40905C5.98099 9.24515 5.98099 8.97843 6.1449 8.81452C6.22689 8.73257 6.3345 8.69159 6.4422 8.69159C6.54986 8.69159 6.65751 8.73257 6.73943 8.81448L8.06072 10.1358C8.2895 10.3646 8.66052 10.3646 8.88935 10.1358L13.9261 5.09902C14.0901 4.93511 14.3568 4.93507 14.5207 5.09902C14.6846 5.26296 14.6846 5.52964 14.5207 5.69359Z" fill="white"/>
<path d="M13.2975 0C12.1353 0 11.0029 0.298359 10 0.866055C8.99707 0.298359 7.86469 0 6.7025 0C3.00672 0 0 3.00672 0 6.7025C0 8.41168 0.643438 10.0391 1.81168 11.2855C1.8125 11.2864 1.81336 11.2873 1.81422 11.2882L8.8048 18.7374C8.80539 18.738 8.80598 18.7386 8.80652 18.7392C9.11469 19.0677 9.54969 19.2561 9.99996 19.2561C10.4502 19.2561 10.8851 19.0678 11.1933 18.7393C11.1934 18.7393 11.1934 18.7392 11.1935 18.7391C11.2195 18.7114 18.1857 11.2882 18.1857 11.2882C19.3557 10.0415 20 8.41293 20 6.7025C20 3.00672 16.9933 0 13.2975 0ZM17.3312 10.4862L10.3589 17.9161C10.3521 17.9234 10.3455 17.9306 10.3392 17.9378L10.3388 17.9375C10.25 18.0321 10.1297 18.0843 10 18.0843C9.87059 18.0843 9.75043 18.0323 9.66168 17.9379C9.66156 17.9378 9.66141 17.9376 9.66125 17.9375L2.67109 10.4888C2.67027 10.4879 2.66949 10.4871 2.66867 10.4862C1.70344 9.45762 1.17188 8.11387 1.17188 6.7025C1.17188 3.65289 3.65289 1.17187 6.7025 1.17187C7.75754 1.17187 8.78246 1.46961 9.66773 2.03305C9.72891 2.07512 9.79813 2.10559 9.87203 2.12207C10.0246 2.15613 10.1845 2.12781 10.3161 2.0434C11.205 1.47324 12.236 1.17184 13.2975 1.17184C16.3471 1.17184 18.8282 3.65285 18.8282 6.70246C18.8281 8.11387 18.2965 9.45765 17.3312 10.4862Z" fill="white"/>
</svg>
