<svg width="20" height="20" viewBox="0 0 20 20" fill="none" xmlns="http://www.w3.org/2000/svg">
<path d="M16.2761 0H3.72395C1.67055 0 0 1.67059 0 3.72398V16.276C0 18.3294 1.67055 20 3.72395 20H16.2761C18.3295 20 20 18.3294 20 16.276V3.72398C20 1.67059 18.3295 0 16.2761 0Z" fill="#FF4200"/>
<path d="M16.2761 0H10V20H16.2761C18.3295 20 20 18.3294 20 16.276V3.72398C20 1.67059 18.3295 0 16.2761 0Z" fill="#FF4200"/>
<path d="M15.6484 5.87891H4.35156C4.02797 5.87891 3.76562 5.61656 3.76562 5.29297C3.76562 4.96937 4.02797 4.70703 4.35156 4.70703H15.6484C15.972 4.70703 16.2344 4.96937 16.2344 5.29297C16.2344 5.61656 15.972 5.87891 15.6484 5.87891Z" fill="white"/>
<path d="M15.6484 10.5859H4.35156C4.02797 10.5859 3.76562 10.3236 3.76562 10C3.76562 9.67641 4.02797 9.41406 4.35156 9.41406H15.6484C15.972 9.41406 16.2344 9.67641 16.2344 10C16.2344 10.3236 15.972 10.5859 15.6484 10.5859Z" fill="white"/>
<path d="M15.6484 15.293H4.35156C4.02797 15.293 3.76562 15.0306 3.76562 14.707C3.76562 14.3834 4.02797 14.1211 4.35156 14.1211H15.6484C15.972 14.1211 16.2344 14.3834 16.2344 14.707C16.2344 15.0306 15.972 15.293 15.6484 15.293Z" fill="white"/>
<path d="M16.2344 5.29297C16.2344 4.96937 15.972 4.70703 15.6484 4.70703H10V5.87891H15.6484C15.972 5.87891 16.2344 5.61656 16.2344 5.29297Z" fill="white"/>
<path d="M16.2344 10C16.2344 9.67641 15.972 9.41406 15.6484 9.41406H10V10.5859H15.6484C15.972 10.5859 16.2344 10.3236 16.2344 10Z" fill="white"/>
<path d="M15.6484 15.293C15.972 15.293 16.2344 15.0306 16.2344 14.707C16.2344 14.3834 15.972 14.1211 15.6484 14.1211H10V15.293H15.6484Z" fill="white"/>
</svg>
