<svg width="20" height="20" viewBox="0 0 20 20" fill="none" xmlns="http://www.w3.org/2000/svg">
<path d="M16.2761 0H3.72395C1.67055 0 0 1.67059 0 3.72398V16.276C0 18.3294 1.67055 20 3.72395 20H16.2761C18.3295 20 20 18.3294 20 16.276V3.72398C20 1.67059 18.3295 0 16.2761 0ZM18.8281 16.276C18.8281 17.6832 17.6833 18.8281 16.2761 18.8281H3.72395C2.31672 18.8281 1.17188 17.6832 1.17188 16.276V3.72398C1.17188 2.31676 2.31672 1.17188 3.72395 1.17188H16.2761C17.6833 1.17188 18.8281 2.31676 18.8281 3.72398V16.276Z" fill="white"/>
<path d="M15.6484 4.70703H4.35156C4.02797 4.70703 3.76562 4.96937 3.76562 5.29297C3.76562 5.61656 4.02797 5.87891 4.35156 5.87891H15.6484C15.972 5.87891 16.2344 5.61656 16.2344 5.29297C16.2344 4.96937 15.972 4.70703 15.6484 4.70703Z" fill="white"/>
<path d="M15.6484 9.41406H4.35156C4.02797 9.41406 3.76562 9.67641 3.76562 10C3.76562 10.3236 4.02797 10.5859 4.35156 10.5859H15.6484C15.972 10.5859 16.2344 10.3236 16.2344 10C16.2344 9.67641 15.972 9.41406 15.6484 9.41406Z" fill="white"/>
<path d="M15.6484 14.1211H4.35156C4.02797 14.1211 3.76562 14.3834 3.76562 14.707C3.76562 15.0306 4.02797 15.293 4.35156 15.293H15.6484C15.972 15.293 16.2344 15.0306 16.2344 14.707C16.2344 14.3834 15.972 14.1211 15.6484 14.1211Z" fill="white"/>
</svg>
