<svg width="387" height="34" viewBox="0 0 387 34" fill="none" xmlns="http://www.w3.org/2000/svg">
<path d="M2.62793 6.14795C1.9043 5.93994 1.37695 5.68506 1.0459 5.3833C0.717773 5.07861 0.553711 4.70361 0.553711 4.2583C0.553711 3.75439 0.754395 3.33838 1.15576 3.01025C1.56006 2.6792 2.08447 2.51367 2.729 2.51367C3.16846 2.51367 3.55957 2.59863 3.90234 2.76855C4.24805 2.93848 4.51465 3.17285 4.70215 3.47168C4.89258 3.77051 4.98779 4.09717 4.98779 4.45166H4.13965C4.13965 4.06494 4.0166 3.76172 3.77051 3.54199C3.52441 3.31934 3.17725 3.20801 2.729 3.20801C2.31299 3.20801 1.98779 3.30029 1.75342 3.48486C1.52197 3.6665 1.40625 3.91992 1.40625 4.24512C1.40625 4.50586 1.51611 4.72705 1.73584 4.90869C1.9585 5.0874 2.33496 5.25146 2.86523 5.40088C3.39844 5.55029 3.81445 5.71582 4.11328 5.89746C4.41504 6.07617 4.6377 6.28564 4.78125 6.52588C4.92773 6.76611 5.00098 7.04883 5.00098 7.37402C5.00098 7.89258 4.79883 8.30859 4.39453 8.62207C3.99023 8.93262 3.44971 9.08789 2.77295 9.08789C2.3335 9.08789 1.92334 9.00439 1.54248 8.8374C1.16162 8.66748 0.867188 8.43604 0.65918 8.14307C0.454102 7.8501 0.351562 7.51758 0.351562 7.14551H1.19971C1.19971 7.53223 1.3418 7.83838 1.62598 8.06396C1.91309 8.28662 2.29541 8.39795 2.77295 8.39795C3.21826 8.39795 3.55957 8.30713 3.79688 8.12549C4.03418 7.94385 4.15283 7.69629 4.15283 7.38281C4.15283 7.06934 4.04297 6.82764 3.82324 6.65771C3.60352 6.48486 3.20508 6.31494 2.62793 6.14795ZM6.84229 9H6.0293V4.24512H6.84229V9ZM5.96338 2.98389C5.96338 2.85205 6.00293 2.74072 6.08203 2.6499C6.16406 2.55908 6.28418 2.51367 6.44238 2.51367C6.60059 2.51367 6.7207 2.55908 6.80273 2.6499C6.88477 2.74072 6.92578 2.85205 6.92578 2.98389C6.92578 3.11572 6.88477 3.22559 6.80273 3.31348C6.7207 3.40137 6.60059 3.44531 6.44238 3.44531C6.28418 3.44531 6.16406 3.40137 6.08203 3.31348C6.00293 3.22559 5.96338 3.11572 5.96338 2.98389ZM9.25049 3.09375V4.24512H10.1382V4.87354H9.25049V7.82227C9.25049 8.0127 9.29004 8.15625 9.36914 8.25293C9.44824 8.34668 9.58301 8.39355 9.77344 8.39355C9.86719 8.39355 9.99609 8.37598 10.1602 8.34082V9C9.94629 9.05859 9.73828 9.08789 9.53613 9.08789C9.17285 9.08789 8.89893 8.97803 8.71436 8.7583C8.52979 8.53857 8.4375 8.22656 8.4375 7.82227V4.87354H7.57178V4.24512H8.4375V3.09375H9.25049ZM14.0273 8.52979C13.7109 8.90186 13.2466 9.08789 12.6343 9.08789C12.1274 9.08789 11.7407 8.94141 11.4741 8.64844C11.2104 8.35254 11.0771 7.91602 11.0742 7.33887V4.24512H11.8872V7.31689C11.8872 8.0376 12.1802 8.39795 12.7661 8.39795C13.3872 8.39795 13.8003 8.1665 14.0054 7.70361V4.24512H14.8184V9H14.0449L14.0273 8.52979ZM18.8262 7.73877C18.8262 7.51904 18.7427 7.34912 18.5757 7.229C18.4116 7.10596 18.123 7.00049 17.71 6.9126C17.2998 6.82471 16.9731 6.71924 16.73 6.59619C16.4897 6.47314 16.311 6.32666 16.1938 6.15674C16.0796 5.98682 16.0225 5.78467 16.0225 5.55029C16.0225 5.16064 16.1865 4.83105 16.5146 4.56152C16.8457 4.29199 17.2676 4.15723 17.7803 4.15723C18.3193 4.15723 18.7559 4.29639 19.0898 4.57471C19.4268 4.85303 19.5952 5.20898 19.5952 5.64258H18.7778C18.7778 5.41992 18.6826 5.22803 18.4922 5.06689C18.3047 4.90576 18.0674 4.8252 17.7803 4.8252C17.4844 4.8252 17.2529 4.88965 17.0859 5.01855C16.9189 5.14746 16.8354 5.31592 16.8354 5.52393C16.8354 5.72021 16.9131 5.86816 17.0684 5.96777C17.2236 6.06738 17.5034 6.1626 17.9077 6.25342C18.3149 6.34424 18.6445 6.45264 18.8965 6.57861C19.1484 6.70459 19.3345 6.85693 19.4546 7.03564C19.5776 7.21143 19.6392 7.42676 19.6392 7.68164C19.6392 8.10645 19.4692 8.44775 19.1294 8.70557C18.7896 8.96045 18.3486 9.08789 17.8066 9.08789C17.4258 9.08789 17.0889 9.02051 16.7959 8.88574C16.5029 8.75098 16.2729 8.56348 16.106 8.32324C15.9419 8.08008 15.8599 7.81787 15.8599 7.53662H16.6729C16.6875 7.80908 16.7959 8.02588 16.998 8.18701C17.2031 8.34521 17.4727 8.42432 17.8066 8.42432C18.1143 8.42432 18.3604 8.36279 18.5449 8.23975C18.7324 8.11377 18.8262 7.94678 18.8262 7.73877ZM26.9473 6.67529C26.9473 7.39893 26.7817 7.98193 26.4507 8.42432C26.1196 8.8667 25.6714 9.08789 25.106 9.08789C24.5288 9.08789 24.0747 8.90479 23.7437 8.53857V10.8281H22.9307V4.24512H23.6733L23.7129 4.77246C24.0439 4.3623 24.5039 4.15723 25.0928 4.15723C25.6641 4.15723 26.1152 4.37256 26.4463 4.80322C26.7803 5.23389 26.9473 5.83301 26.9473 6.60059V6.67529ZM26.1343 6.58301C26.1343 6.04688 26.02 5.62354 25.7915 5.31299C25.563 5.00244 25.2495 4.84717 24.8511 4.84717C24.3589 4.84717 23.9897 5.06543 23.7437 5.50195V7.77393C23.9868 8.20752 24.3589 8.42432 24.8599 8.42432C25.2495 8.42432 25.5586 8.27051 25.7871 7.96289C26.0186 7.65234 26.1343 7.19238 26.1343 6.58301ZM29.9575 9.08789C29.313 9.08789 28.7886 8.87695 28.3843 8.45508C27.98 8.03027 27.7778 7.46338 27.7778 6.75439V6.60498C27.7778 6.1333 27.8672 5.71289 28.0459 5.34375C28.2275 4.97168 28.4795 4.68164 28.8018 4.47363C29.127 4.2627 29.4785 4.15723 29.8564 4.15723C30.4746 4.15723 30.9551 4.36084 31.2979 4.76807C31.6406 5.17529 31.812 5.7583 31.812 6.51709V6.85547H28.5908C28.6025 7.32422 28.7388 7.70361 28.9995 7.99365C29.2632 8.28076 29.5972 8.42432 30.0015 8.42432C30.2886 8.42432 30.5317 8.36572 30.731 8.24854C30.9302 8.13135 31.1045 7.97607 31.2539 7.78271L31.7505 8.16943C31.3521 8.78174 30.7544 9.08789 29.9575 9.08789ZM29.8564 4.8252C29.5283 4.8252 29.2529 4.94531 29.0303 5.18555C28.8076 5.42285 28.6699 5.75684 28.6172 6.1875H30.999V6.12598C30.9756 5.71289 30.8643 5.39355 30.665 5.16797C30.4658 4.93945 30.1963 4.8252 29.8564 4.8252ZM36.9668 7.87939L37.8809 4.24512H38.6938L37.3096 9H36.6504L35.4946 5.39648L34.3696 9H33.7104L32.3306 4.24512H33.1392L34.0752 7.80469L35.1826 4.24512H35.8374L36.9668 7.87939ZM41.4976 9.08789C40.853 9.08789 40.3286 8.87695 39.9243 8.45508C39.52 8.03027 39.3179 7.46338 39.3179 6.75439V6.60498C39.3179 6.1333 39.4072 5.71289 39.5859 5.34375C39.7676 4.97168 40.0195 4.68164 40.3418 4.47363C40.667 4.2627 41.0186 4.15723 41.3965 4.15723C42.0146 4.15723 42.4951 4.36084 42.8379 4.76807C43.1807 5.17529 43.3521 5.7583 43.3521 6.51709V6.85547H40.1309C40.1426 7.32422 40.2788 7.70361 40.5396 7.99365C40.8032 8.28076 41.1372 8.42432 41.5415 8.42432C41.8286 8.42432 42.0718 8.36572 42.271 8.24854C42.4702 8.13135 42.6445 7.97607 42.7939 7.78271L43.2905 8.16943C42.8921 8.78174 42.2944 9.08789 41.4976 9.08789ZM41.3965 4.8252C41.0684 4.8252 40.793 4.94531 40.5703 5.18555C40.3477 5.42285 40.21 5.75684 40.1572 6.1875H42.5391V6.12598C42.5156 5.71289 42.4043 5.39355 42.2051 5.16797C42.0059 4.93945 41.7363 4.8252 41.3965 4.8252ZM44.6968 9V4.87354H43.9453V4.24512H44.6968V3.75732C44.6968 3.24756 44.833 2.85352 45.1055 2.5752C45.3779 2.29688 45.7632 2.15771 46.2612 2.15771C46.4487 2.15771 46.6348 2.18262 46.8193 2.23242L46.7754 2.8916C46.6377 2.86523 46.4912 2.85205 46.3359 2.85205C46.0723 2.85205 45.8687 2.92969 45.7251 3.08496C45.5815 3.2373 45.5098 3.45703 45.5098 3.74414V4.24512H46.5249V4.87354H45.5098V9H44.6968ZM49.2935 9.08789C48.6489 9.08789 48.1245 8.87695 47.7202 8.45508C47.3159 8.03027 47.1138 7.46338 47.1138 6.75439V6.60498C47.1138 6.1333 47.2031 5.71289 47.3818 5.34375C47.5635 4.97168 47.8154 4.68164 48.1377 4.47363C48.4629 4.2627 48.8145 4.15723 49.1924 4.15723C49.8105 4.15723 50.291 4.36084 50.6338 4.76807C50.9766 5.17529 51.1479 5.7583 51.1479 6.51709V6.85547H47.9268C47.9385 7.32422 48.0747 7.70361 48.3354 7.99365C48.5991 8.28076 48.9331 8.42432 49.3374 8.42432C49.6245 8.42432 49.8677 8.36572 50.0669 8.24854C50.2661 8.13135 50.4404 7.97607 50.5898 7.78271L51.0864 8.16943C50.688 8.78174 50.0903 9.08789 49.2935 9.08789ZM49.1924 4.8252C48.8643 4.8252 48.5889 4.94531 48.3662 5.18555C48.1436 5.42285 48.0059 5.75684 47.9531 6.1875H50.335V6.12598C50.3115 5.71289 50.2002 5.39355 50.001 5.16797C49.8018 4.93945 49.5322 4.8252 49.1924 4.8252ZM54.0659 9.08789C53.4214 9.08789 52.897 8.87695 52.4927 8.45508C52.0884 8.03027 51.8862 7.46338 51.8862 6.75439V6.60498C51.8862 6.1333 51.9756 5.71289 52.1543 5.34375C52.3359 4.97168 52.5879 4.68164 52.9102 4.47363C53.2354 4.2627 53.5869 4.15723 53.9648 4.15723C54.583 4.15723 55.0635 4.36084 55.4062 4.76807C55.749 5.17529 55.9204 5.7583 55.9204 6.51709V6.85547H52.6992C52.7109 7.32422 52.8472 7.70361 53.1079 7.99365C53.3716 8.28076 53.7056 8.42432 54.1099 8.42432C54.397 8.42432 54.6401 8.36572 54.8394 8.24854C55.0386 8.13135 55.2129 7.97607 55.3623 7.78271L55.8589 8.16943C55.4604 8.78174 54.8628 9.08789 54.0659 9.08789ZM53.9648 4.8252C53.6367 4.8252 53.3613 4.94531 53.1387 5.18555C52.916 5.42285 52.7783 5.75684 52.7256 6.1875H55.1074V6.12598C55.084 5.71289 54.9727 5.39355 54.7734 5.16797C54.5742 4.93945 54.3047 4.8252 53.9648 4.8252ZM56.6675 6.58301C56.6675 5.85352 56.8403 5.26758 57.186 4.8252C57.5317 4.37988 57.9844 4.15723 58.5439 4.15723C59.1006 4.15723 59.5415 4.34766 59.8667 4.72852V2.25H60.6797V9H59.9326L59.8931 8.49023C59.5679 8.88867 59.1152 9.08789 58.5352 9.08789C57.9844 9.08789 57.5347 8.8623 57.186 8.41113C56.8403 7.95996 56.6675 7.37109 56.6675 6.64453V6.58301ZM57.4805 6.67529C57.4805 7.21436 57.5918 7.63623 57.8145 7.94092C58.0371 8.24561 58.3447 8.39795 58.7373 8.39795C59.2529 8.39795 59.6294 8.1665 59.8667 7.70361V5.51953C59.6235 5.07129 59.25 4.84717 58.7461 4.84717C58.3477 4.84717 58.0371 5.00098 57.8145 5.30859C57.5918 5.61621 57.4805 6.07178 57.4805 6.67529ZM61.9629 8.57373C61.9629 8.43311 62.0039 8.31592 62.0859 8.22217C62.1709 8.12842 62.2969 8.08154 62.4639 8.08154C62.6309 8.08154 62.7568 8.12842 62.8418 8.22217C62.9297 8.31592 62.9736 8.43311 62.9736 8.57373C62.9736 8.7085 62.9297 8.82129 62.8418 8.91211C62.7568 9.00293 62.6309 9.04834 62.4639 9.04834C62.2969 9.04834 62.1709 9.00293 62.0859 8.91211C62.0039 8.82129 61.9629 8.7085 61.9629 8.57373ZM66.2256 8.42432C66.5156 8.42432 66.769 8.33643 66.9858 8.16064C67.2026 7.98486 67.3228 7.76514 67.3462 7.50146H68.1152C68.1006 7.77393 68.0068 8.0332 67.834 8.2793C67.6611 8.52539 67.4297 8.72168 67.1396 8.86816C66.8525 9.01465 66.5479 9.08789 66.2256 9.08789C65.5781 9.08789 65.0625 8.87256 64.6787 8.44189C64.2979 8.0083 64.1074 7.4165 64.1074 6.6665V6.53027C64.1074 6.06738 64.1924 5.65576 64.3623 5.29541C64.5322 4.93506 64.7754 4.65527 65.0918 4.45605C65.4111 4.25684 65.7876 4.15723 66.2212 4.15723C66.7544 4.15723 67.1968 4.31689 67.5483 4.63623C67.9028 4.95557 68.0918 5.37012 68.1152 5.87988H67.3462C67.3228 5.57227 67.2056 5.32031 66.9946 5.12402C66.7866 4.9248 66.5288 4.8252 66.2212 4.8252C65.8081 4.8252 65.4873 4.97461 65.2588 5.27344C65.0332 5.56934 64.9204 5.99854 64.9204 6.56104V6.71484C64.9204 7.2627 65.0332 7.68457 65.2588 7.98047C65.4844 8.27637 65.8066 8.42432 66.2256 8.42432ZM68.814 6.57861C68.814 6.11279 68.9048 5.69385 69.0864 5.32178C69.271 4.94971 69.5259 4.6626 69.8511 4.46045C70.1792 4.2583 70.5527 4.15723 70.9717 4.15723C71.6191 4.15723 72.1421 4.38135 72.5405 4.82959C72.9419 5.27783 73.1426 5.87402 73.1426 6.61816V6.67529C73.1426 7.13818 73.0532 7.5542 72.8745 7.92334C72.6987 8.28955 72.4453 8.5752 72.1143 8.78027C71.7861 8.98535 71.4082 9.08789 70.9805 9.08789C70.3359 9.08789 69.813 8.86377 69.4116 8.41553C69.0132 7.96729 68.814 7.37402 68.814 6.63574V6.57861ZM69.6313 6.67529C69.6313 7.20264 69.7529 7.62598 69.9961 7.94531C70.2422 8.26465 70.5703 8.42432 70.9805 8.42432C71.3936 8.42432 71.7217 8.26318 71.9648 7.94092C72.208 7.61572 72.3296 7.16162 72.3296 6.57861C72.3296 6.05713 72.2051 5.63525 71.9561 5.31299C71.71 4.98779 71.3818 4.8252 70.9717 4.8252C70.5703 4.8252 70.2466 4.98486 70.0005 5.3042C69.7544 5.62354 69.6313 6.08057 69.6313 6.67529ZM74.9268 4.24512L74.9487 4.77246C75.2974 4.3623 75.7676 4.15723 76.3594 4.15723C77.0244 4.15723 77.4771 4.41211 77.7173 4.92188C77.8755 4.69336 78.0806 4.50879 78.3325 4.36816C78.5874 4.22754 78.8877 4.15723 79.2334 4.15723C80.2764 4.15723 80.8066 4.70947 80.8242 5.81396V9H80.0112V5.8623C80.0112 5.52246 79.9336 5.26904 79.7783 5.10205C79.623 4.93213 79.3623 4.84717 78.9961 4.84717C78.6943 4.84717 78.4438 4.93799 78.2446 5.11963C78.0454 5.29834 77.9297 5.54004 77.8975 5.84473V9H77.0801V5.88428C77.0801 5.19287 76.7417 4.84717 76.0649 4.84717C75.5317 4.84717 75.167 5.07422 74.9707 5.52832V9H74.1577V4.24512H74.9268ZM85.0518 4.24512L85.0737 4.77246C85.4224 4.3623 85.8926 4.15723 86.4844 4.15723C87.1494 4.15723 87.6021 4.41211 87.8423 4.92188C88.0005 4.69336 88.2056 4.50879 88.4575 4.36816C88.7124 4.22754 89.0127 4.15723 89.3584 4.15723C90.4014 4.15723 90.9316 4.70947 90.9492 5.81396V9H90.1362V5.8623C90.1362 5.52246 90.0586 5.26904 89.9033 5.10205C89.748 4.93213 89.4873 4.84717 89.1211 4.84717C88.8193 4.84717 88.5688 4.93799 88.3696 5.11963C88.1704 5.29834 88.0547 5.54004 88.0225 5.84473V9H87.2051V5.88428C87.2051 5.19287 86.8667 4.84717 86.1899 4.84717C85.6567 4.84717 85.292 5.07422 85.0957 5.52832V9H84.2827V4.24512H85.0518ZM94.1528 9.08789C93.5083 9.08789 92.9839 8.87695 92.5796 8.45508C92.1753 8.03027 91.9731 7.46338 91.9731 6.75439V6.60498C91.9731 6.1333 92.0625 5.71289 92.2412 5.34375C92.4229 4.97168 92.6748 4.68164 92.9971 4.47363C93.3223 4.2627 93.6738 4.15723 94.0518 4.15723C94.6699 4.15723 95.1504 4.36084 95.4932 4.76807C95.8359 5.17529 96.0073 5.7583 96.0073 6.51709V6.85547H92.7861C92.7979 7.32422 92.9341 7.70361 93.1948 7.99365C93.4585 8.28076 93.7925 8.42432 94.1968 8.42432C94.4839 8.42432 94.7271 8.36572 94.9263 8.24854C95.1255 8.13135 95.2998 7.97607 95.4492 7.78271L95.9458 8.16943C95.5474 8.78174 94.9497 9.08789 94.1528 9.08789ZM94.0518 4.8252C93.7236 4.8252 93.4482 4.94531 93.2256 5.18555C93.0029 5.42285 92.8652 5.75684 92.8125 6.1875H95.1943V6.12598C95.1709 5.71289 95.0596 5.39355 94.8604 5.16797C94.6611 4.93945 94.3916 4.8252 94.0518 4.8252ZM99.2505 4.97461C99.1274 4.9541 98.9941 4.94385 98.8506 4.94385C98.3174 4.94385 97.9556 5.1709 97.7651 5.625V9H96.9521V4.24512H97.7432L97.7563 4.79443C98.0229 4.36963 98.4009 4.15723 98.8901 4.15723C99.0483 4.15723 99.1685 4.17773 99.2505 4.21875V4.97461ZM102.938 8.52979C102.621 8.90186 102.157 9.08789 101.544 9.08789C101.038 9.08789 100.651 8.94141 100.384 8.64844C100.121 8.35254 99.9873 7.91602 99.9844 7.33887V4.24512H100.797V7.31689C100.797 8.0376 101.09 8.39795 101.676 8.39795C102.297 8.39795 102.71 8.1665 102.916 7.70361V4.24512H103.729V9H102.955L102.938 8.52979ZM108.984 6.67529C108.984 7.39893 108.819 7.98193 108.488 8.42432C108.157 8.8667 107.708 9.08789 107.143 9.08789C106.566 9.08789 106.112 8.90479 105.781 8.53857V10.8281H104.968V4.24512H105.71L105.75 4.77246C106.081 4.3623 106.541 4.15723 107.13 4.15723C107.701 4.15723 108.152 4.37256 108.483 4.80322C108.817 5.23389 108.984 5.83301 108.984 6.60059V6.67529ZM108.171 6.58301C108.171 6.04688 108.057 5.62354 107.829 5.31299C107.6 5.00244 107.287 4.84717 106.888 4.84717C106.396 4.84717 106.027 5.06543 105.781 5.50195V7.77393C106.024 8.20752 106.396 8.42432 106.897 8.42432C107.287 8.42432 107.596 8.27051 107.824 7.96289C108.056 7.65234 108.171 7.19238 108.171 6.58301ZM112.957 9C112.91 8.90625 112.872 8.73926 112.843 8.49902C112.465 8.8916 112.014 9.08789 111.489 9.08789C111.021 9.08789 110.635 8.95605 110.333 8.69238C110.035 8.42578 109.885 8.08887 109.885 7.68164C109.885 7.18652 110.073 6.80273 110.448 6.53027C110.826 6.25488 111.356 6.11719 112.039 6.11719H112.83V5.74365C112.83 5.45947 112.745 5.23389 112.575 5.06689C112.405 4.89697 112.154 4.81201 111.823 4.81201C111.533 4.81201 111.29 4.88525 111.094 5.03174C110.897 5.17822 110.799 5.35547 110.799 5.56348H109.982C109.982 5.32617 110.065 5.09766 110.232 4.87793C110.402 4.65527 110.631 4.47949 110.918 4.35059C111.208 4.22168 111.526 4.15723 111.872 4.15723C112.419 4.15723 112.849 4.29492 113.159 4.57031C113.47 4.84277 113.631 5.21924 113.643 5.69971V7.88818C113.643 8.32471 113.698 8.67188 113.81 8.92969V9H112.957ZM111.608 8.38037C111.863 8.38037 112.104 8.31445 112.333 8.18262C112.562 8.05078 112.727 7.87939 112.83 7.66846V6.69287H112.192C111.196 6.69287 110.698 6.98438 110.698 7.56738C110.698 7.82227 110.783 8.02148 110.953 8.16504C111.123 8.30859 111.341 8.38037 111.608 8.38037ZM116.244 6.79834L115.734 7.33008V9H114.921V2.25H115.734V6.33252L116.169 5.80957L117.65 4.24512H118.639L116.789 6.23145L118.854 9H117.901L116.244 6.79834ZM122.414 9C122.367 8.90625 122.329 8.73926 122.3 8.49902C121.922 8.8916 121.471 9.08789 120.946 9.08789C120.478 9.08789 120.092 8.95605 119.791 8.69238C119.492 8.42578 119.342 8.08887 119.342 7.68164C119.342 7.18652 119.53 6.80273 119.905 6.53027C120.283 6.25488 120.813 6.11719 121.496 6.11719H122.287V5.74365C122.287 5.45947 122.202 5.23389 122.032 5.06689C121.862 4.89697 121.611 4.81201 121.28 4.81201C120.99 4.81201 120.747 4.88525 120.551 5.03174C120.354 5.17822 120.256 5.35547 120.256 5.56348H119.439C119.439 5.32617 119.522 5.09766 119.689 4.87793C119.859 4.65527 120.088 4.47949 120.375 4.35059C120.665 4.22168 120.983 4.15723 121.329 4.15723C121.876 4.15723 122.306 4.29492 122.616 4.57031C122.927 4.84277 123.088 5.21924 123.1 5.69971V7.88818C123.1 8.32471 123.155 8.67188 123.267 8.92969V9H122.414ZM121.065 8.38037C121.32 8.38037 121.562 8.31445 121.79 8.18262C122.019 8.05078 122.184 7.87939 122.287 7.66846V6.69287H121.649C120.653 6.69287 120.155 6.98438 120.155 7.56738C120.155 7.82227 120.24 8.02148 120.41 8.16504C120.58 8.30859 120.798 8.38037 121.065 8.38037ZM125.143 4.24512L125.169 4.84277C125.533 4.38574 126.007 4.15723 126.593 4.15723C127.598 4.15723 128.105 4.72412 128.114 5.85791V9H127.301V5.85352C127.298 5.51074 127.219 5.25732 127.063 5.09326C126.911 4.9292 126.672 4.84717 126.347 4.84717C126.083 4.84717 125.852 4.91748 125.653 5.05811C125.454 5.19873 125.298 5.3833 125.187 5.61182V9H124.374V4.24512H125.143ZM132.456 9H131.643V2.25H132.456V9ZM136.696 9C136.649 8.90625 136.611 8.73926 136.582 8.49902C136.204 8.8916 135.753 9.08789 135.229 9.08789C134.76 9.08789 134.375 8.95605 134.073 8.69238C133.774 8.42578 133.625 8.08887 133.625 7.68164C133.625 7.18652 133.812 6.80273 134.187 6.53027C134.565 6.25488 135.095 6.11719 135.778 6.11719H136.569V5.74365C136.569 5.45947 136.484 5.23389 136.314 5.06689C136.144 4.89697 135.894 4.81201 135.562 4.81201C135.272 4.81201 135.029 4.88525 134.833 5.03174C134.637 5.17822 134.539 5.35547 134.539 5.56348H133.721C133.721 5.32617 133.805 5.09766 133.972 4.87793C134.142 4.65527 134.37 4.47949 134.657 4.35059C134.947 4.22168 135.265 4.15723 135.611 4.15723C136.159 4.15723 136.588 4.29492 136.898 4.57031C137.209 4.84277 137.37 5.21924 137.382 5.69971V7.88818C137.382 8.32471 137.438 8.67188 137.549 8.92969V9H136.696ZM135.347 8.38037C135.602 8.38037 135.844 8.31445 136.072 8.18262C136.301 8.05078 136.466 7.87939 136.569 7.66846V6.69287H135.932C134.936 6.69287 134.438 6.98438 134.438 7.56738C134.438 7.82227 134.522 8.02148 134.692 8.16504C134.862 8.30859 135.081 8.38037 135.347 8.38037ZM140.142 7.80908L141.249 4.24512H142.119L140.208 9.73389C139.912 10.5249 139.441 10.9204 138.797 10.9204L138.643 10.9072L138.34 10.8501V10.1909L138.56 10.2085C138.835 10.2085 139.049 10.1528 139.201 10.0415C139.356 9.93018 139.484 9.72656 139.583 9.43066L139.764 8.94727L138.067 4.24512H138.955L140.142 7.80908ZM145.714 9C145.667 8.90625 145.629 8.73926 145.6 8.49902C145.222 8.8916 144.771 9.08789 144.246 9.08789C143.777 9.08789 143.392 8.95605 143.09 8.69238C142.792 8.42578 142.642 8.08887 142.642 7.68164C142.642 7.18652 142.83 6.80273 143.205 6.53027C143.583 6.25488 144.113 6.11719 144.795 6.11719H145.586V5.74365C145.586 5.45947 145.501 5.23389 145.332 5.06689C145.162 4.89697 144.911 4.81201 144.58 4.81201C144.29 4.81201 144.047 4.88525 143.851 5.03174C143.654 5.17822 143.556 5.35547 143.556 5.56348H142.739C142.739 5.32617 142.822 5.09766 142.989 4.87793C143.159 4.65527 143.388 4.47949 143.675 4.35059C143.965 4.22168 144.283 4.15723 144.628 4.15723C145.176 4.15723 145.605 4.29492 145.916 4.57031C146.227 4.84277 146.388 5.21924 146.399 5.69971V7.88818C146.399 8.32471 146.455 8.67188 146.566 8.92969V9H145.714ZM144.365 8.38037C144.62 8.38037 144.861 8.31445 145.09 8.18262C145.318 8.05078 145.484 7.87939 145.586 7.66846V6.69287H144.949C143.953 6.69287 143.455 6.98438 143.455 7.56738C143.455 7.82227 143.54 8.02148 143.71 8.16504C143.88 8.30859 144.098 8.38037 144.365 8.38037ZM148.443 4.24512L148.469 4.84277C148.833 4.38574 149.307 4.15723 149.893 4.15723C150.898 4.15723 151.405 4.72412 151.414 5.85791V9H150.601V5.85352C150.598 5.51074 150.519 5.25732 150.363 5.09326C150.211 4.9292 149.972 4.84717 149.647 4.84717C149.383 4.84717 149.152 4.91748 148.953 5.05811C148.753 5.19873 148.598 5.3833 148.487 5.61182V9H147.674V4.24512H148.443ZM155.575 9C155.528 8.90625 155.49 8.73926 155.461 8.49902C155.083 8.8916 154.632 9.08789 154.107 9.08789C153.639 9.08789 153.253 8.95605 152.952 8.69238C152.653 8.42578 152.503 8.08887 152.503 7.68164C152.503 7.18652 152.691 6.80273 153.066 6.53027C153.444 6.25488 153.974 6.11719 154.657 6.11719H155.448V5.74365C155.448 5.45947 155.363 5.23389 155.193 5.06689C155.023 4.89697 154.772 4.81201 154.441 4.81201C154.151 4.81201 153.908 4.88525 153.712 5.03174C153.516 5.17822 153.417 5.35547 153.417 5.56348H152.6C152.6 5.32617 152.684 5.09766 152.851 4.87793C153.021 4.65527 153.249 4.47949 153.536 4.35059C153.826 4.22168 154.144 4.15723 154.49 4.15723C155.038 4.15723 155.467 4.29492 155.777 4.57031C156.088 4.84277 156.249 5.21924 156.261 5.69971V7.88818C156.261 8.32471 156.316 8.67188 156.428 8.92969V9H155.575ZM154.226 8.38037C154.481 8.38037 154.723 8.31445 154.951 8.18262C155.18 8.05078 155.345 7.87939 155.448 7.66846V6.69287H154.811C153.814 6.69287 153.316 6.98438 153.316 7.56738C153.316 7.82227 153.401 8.02148 153.571 8.16504C153.741 8.30859 153.959 8.38037 154.226 8.38037ZM158.304 4.24512L158.331 4.84277C158.694 4.38574 159.168 4.15723 159.754 4.15723C160.759 4.15723 161.266 4.72412 161.275 5.85791V9H160.462V5.85352C160.459 5.51074 160.38 5.25732 160.225 5.09326C160.072 4.9292 159.833 4.84717 159.508 4.84717C159.245 4.84717 159.013 4.91748 158.814 5.05811C158.615 5.19873 158.459 5.3833 158.348 5.61182V9H157.535V4.24512H158.304ZM167.032 4.97461C166.909 4.9541 166.775 4.94385 166.632 4.94385C166.099 4.94385 165.737 5.1709 165.546 5.625V9H164.733V4.24512H165.524L165.538 4.79443C165.804 4.36963 166.182 4.15723 166.671 4.15723C166.83 4.15723 166.95 4.17773 167.032 4.21875V4.97461ZM169.668 9.08789C169.024 9.08789 168.5 8.87695 168.095 8.45508C167.691 8.03027 167.489 7.46338 167.489 6.75439V6.60498C167.489 6.1333 167.578 5.71289 167.757 5.34375C167.938 4.97168 168.19 4.68164 168.513 4.47363C168.838 4.2627 169.189 4.15723 169.567 4.15723C170.186 4.15723 170.666 4.36084 171.009 4.76807C171.352 5.17529 171.523 5.7583 171.523 6.51709V6.85547H168.302C168.313 7.32422 168.45 7.70361 168.71 7.99365C168.974 8.28076 169.308 8.42432 169.712 8.42432C170 8.42432 170.243 8.36572 170.442 8.24854C170.641 8.13135 170.815 7.97607 170.965 7.78271L171.461 8.16943C171.063 8.78174 170.465 9.08789 169.668 9.08789ZM169.567 4.8252C169.239 4.8252 168.964 4.94531 168.741 5.18555C168.519 5.42285 168.381 5.75684 168.328 6.1875H170.71V6.12598C170.687 5.71289 170.575 5.39355 170.376 5.16797C170.177 4.93945 169.907 4.8252 169.567 4.8252ZM175.236 7.73877C175.236 7.51904 175.153 7.34912 174.986 7.229C174.822 7.10596 174.533 7.00049 174.12 6.9126C173.71 6.82471 173.383 6.71924 173.14 6.59619C172.9 6.47314 172.721 6.32666 172.604 6.15674C172.49 5.98682 172.433 5.78467 172.433 5.55029C172.433 5.16064 172.597 4.83105 172.925 4.56152C173.256 4.29199 173.678 4.15723 174.19 4.15723C174.729 4.15723 175.166 4.29639 175.5 4.57471C175.837 4.85303 176.005 5.20898 176.005 5.64258H175.188C175.188 5.41992 175.093 5.22803 174.902 5.06689C174.715 4.90576 174.478 4.8252 174.19 4.8252C173.895 4.8252 173.663 4.88965 173.496 5.01855C173.329 5.14746 173.246 5.31592 173.246 5.52393C173.246 5.72021 173.323 5.86816 173.479 5.96777C173.634 6.06738 173.914 6.1626 174.318 6.25342C174.725 6.34424 175.055 6.45264 175.307 6.57861C175.559 6.70459 175.745 6.85693 175.865 7.03564C175.988 7.21143 176.049 7.42676 176.049 7.68164C176.049 8.10645 175.879 8.44775 175.54 8.70557C175.2 8.96045 174.759 9.08789 174.217 9.08789C173.836 9.08789 173.499 9.02051 173.206 8.88574C172.913 8.75098 172.683 8.56348 172.516 8.32324C172.352 8.08008 172.27 7.81787 172.27 7.53662H173.083C173.098 7.80908 173.206 8.02588 173.408 8.18701C173.613 8.34521 173.883 8.42432 174.217 8.42432C174.524 8.42432 174.771 8.36279 174.955 8.23975C175.143 8.11377 175.236 7.94678 175.236 7.73877ZM177.873 4.24512L177.895 4.77246C178.244 4.3623 178.714 4.15723 179.306 4.15723C179.971 4.15723 180.423 4.41211 180.664 4.92188C180.822 4.69336 181.027 4.50879 181.279 4.36816C181.534 4.22754 181.834 4.15723 182.18 4.15723C183.223 4.15723 183.753 4.70947 183.771 5.81396V9H182.958V5.8623C182.958 5.52246 182.88 5.26904 182.725 5.10205C182.569 4.93213 182.309 4.84717 181.942 4.84717C181.641 4.84717 181.39 4.93799 181.191 5.11963C180.992 5.29834 180.876 5.54004 180.844 5.84473V9H180.026V5.88428C180.026 5.19287 179.688 4.84717 179.011 4.84717C178.478 4.84717 178.113 5.07422 177.917 5.52832V9H177.104V4.24512H177.873ZM185.884 9H185.071V4.24512H185.884V9ZM185.005 2.98389C185.005 2.85205 185.045 2.74072 185.124 2.6499C185.206 2.55908 185.326 2.51367 185.484 2.51367C185.643 2.51367 185.763 2.55908 185.845 2.6499C185.927 2.74072 185.968 2.85205 185.968 2.98389C185.968 3.11572 185.927 3.22559 185.845 3.31348C185.763 3.40137 185.643 3.44531 185.484 3.44531C185.326 3.44531 185.206 3.40137 185.124 3.31348C185.045 3.22559 185.005 3.11572 185.005 2.98389ZM189.224 6.58301C189.224 5.85352 189.397 5.26758 189.743 4.8252C190.088 4.37988 190.541 4.15723 191.101 4.15723C191.657 4.15723 192.098 4.34766 192.423 4.72852V2.25H193.236V9H192.489L192.45 8.49023C192.125 8.88867 191.672 9.08789 191.092 9.08789C190.541 9.08789 190.091 8.8623 189.743 8.41113C189.397 7.95996 189.224 7.37109 189.224 6.64453V6.58301ZM190.037 6.67529C190.037 7.21436 190.148 7.63623 190.371 7.94092C190.594 8.24561 190.901 8.39795 191.294 8.39795C191.81 8.39795 192.186 8.1665 192.423 7.70361V5.51953C192.18 5.07129 191.807 4.84717 191.303 4.84717C190.904 4.84717 190.594 5.00098 190.371 5.30859C190.148 5.61621 190.037 6.07178 190.037 6.67529ZM197.438 9C197.391 8.90625 197.353 8.73926 197.323 8.49902C196.945 8.8916 196.494 9.08789 195.97 9.08789C195.501 9.08789 195.116 8.95605 194.814 8.69238C194.515 8.42578 194.366 8.08887 194.366 7.68164C194.366 7.18652 194.553 6.80273 194.928 6.53027C195.306 6.25488 195.836 6.11719 196.519 6.11719H197.31V5.74365C197.31 5.45947 197.225 5.23389 197.055 5.06689C196.885 4.89697 196.635 4.81201 196.304 4.81201C196.014 4.81201 195.771 4.88525 195.574 5.03174C195.378 5.17822 195.28 5.35547 195.28 5.56348H194.462C194.462 5.32617 194.546 5.09766 194.713 4.87793C194.883 4.65527 195.111 4.47949 195.398 4.35059C195.688 4.22168 196.006 4.15723 196.352 4.15723C196.9 4.15723 197.329 4.29492 197.64 4.57031C197.95 4.84277 198.111 5.21924 198.123 5.69971V7.88818C198.123 8.32471 198.179 8.67188 198.29 8.92969V9H197.438ZM196.088 8.38037C196.343 8.38037 196.585 8.31445 196.813 8.18262C197.042 8.05078 197.208 7.87939 197.31 7.66846V6.69287H196.673C195.677 6.69287 195.179 6.98438 195.179 7.56738C195.179 7.82227 195.264 8.02148 195.434 8.16504C195.604 8.30859 195.822 8.38037 196.088 8.38037ZM201.696 4.97461C201.573 4.9541 201.439 4.94385 201.296 4.94385C200.763 4.94385 200.401 5.1709 200.21 5.625V9H199.397V4.24512H200.188L200.202 4.79443C200.468 4.36963 200.846 4.15723 201.335 4.15723C201.494 4.15723 201.614 4.17773 201.696 4.21875V4.97461ZM203.331 9H202.518V4.24512H203.331V9ZM202.452 2.98389C202.452 2.85205 202.491 2.74072 202.57 2.6499C202.652 2.55908 202.772 2.51367 202.931 2.51367C203.089 2.51367 203.209 2.55908 203.291 2.6499C203.373 2.74072 203.414 2.85205 203.414 2.98389C203.414 3.11572 203.373 3.22559 203.291 3.31348C203.209 3.40137 203.089 3.44531 202.931 3.44531C202.772 3.44531 202.652 3.40137 202.57 3.31348C202.491 3.22559 202.452 3.11572 202.452 2.98389ZM208.143 6.74561V9H206.824V2.60156H209.32C209.801 2.60156 210.223 2.68945 210.586 2.86523C210.952 3.04102 211.233 3.2915 211.43 3.6167C211.626 3.93896 211.724 4.30664 211.724 4.71973C211.724 5.34668 211.509 5.8418 211.078 6.20508C210.65 6.56543 210.057 6.74561 209.298 6.74561H208.143ZM208.143 5.67773H209.32C209.669 5.67773 209.934 5.5957 210.116 5.43164C210.3 5.26758 210.393 5.0332 210.393 4.72852C210.393 4.41504 210.3 4.16162 210.116 3.96826C209.931 3.7749 209.676 3.67529 209.351 3.66943H208.143V5.67773ZM217.45 3.66943H215.49V9H214.172V3.66943H212.238V2.60156H217.45V3.66943ZM217.055 8.37598C217.055 8.17383 217.122 8.00977 217.257 7.88379C217.395 7.75781 217.566 7.69482 217.771 7.69482C217.979 7.69482 218.15 7.75781 218.285 7.88379C218.423 8.00977 218.492 8.17383 218.492 8.37598C218.492 8.5752 218.424 8.73779 218.29 8.86377C218.155 8.98682 217.982 9.04834 217.771 9.04834C217.563 9.04834 217.392 8.98682 217.257 8.86377C217.122 8.73779 217.055 8.5752 217.055 8.37598ZM224.512 2.60156H225.831V7.03125C225.831 7.43848 225.74 7.79883 225.558 8.1123C225.379 8.42285 225.126 8.66309 224.798 8.83301C224.47 9.00293 224.099 9.08789 223.686 9.08789C223.009 9.08789 222.482 8.9165 222.104 8.57373C221.726 8.22803 221.537 7.74023 221.537 7.11035H222.864C222.864 7.42383 222.93 7.65527 223.062 7.80469C223.194 7.9541 223.402 8.02881 223.686 8.02881C223.938 8.02881 224.139 7.94238 224.288 7.76953C224.438 7.59668 224.512 7.35059 224.512 7.03125V2.60156ZM229.632 9C229.573 8.88574 229.531 8.74365 229.504 8.57373C229.197 8.9165 228.797 9.08789 228.305 9.08789C227.839 9.08789 227.452 8.95312 227.145 8.68359C226.84 8.41406 226.688 8.07422 226.688 7.66406C226.688 7.16016 226.874 6.77344 227.246 6.50391C227.621 6.23438 228.161 6.09814 228.867 6.09521H229.452V5.82275C229.452 5.60303 229.395 5.42725 229.28 5.29541C229.169 5.16357 228.992 5.09766 228.749 5.09766C228.535 5.09766 228.366 5.14893 228.243 5.25146C228.123 5.354 228.063 5.49463 228.063 5.67334H226.793C226.793 5.39795 226.878 5.14307 227.048 4.90869C227.218 4.67432 227.458 4.49121 227.769 4.35938C228.079 4.22461 228.428 4.15723 228.814 4.15723C229.4 4.15723 229.865 4.30518 230.208 4.60107C230.553 4.89404 230.726 5.30713 230.726 5.84033V7.90137C230.729 8.35254 230.792 8.69385 230.915 8.92529V9H229.632ZM228.582 8.1167C228.769 8.1167 228.942 8.07568 229.1 7.99365C229.258 7.90869 229.375 7.7959 229.452 7.65527V6.83789H228.977C228.341 6.83789 228.003 7.05762 227.962 7.49707L227.958 7.57178C227.958 7.72998 228.013 7.86035 228.125 7.96289C228.236 8.06543 228.388 8.1167 228.582 8.1167ZM233.407 7.20264L234.286 4.24512H235.648L233.736 9.73828L233.631 9.98877C233.347 10.6099 232.878 10.9204 232.225 10.9204C232.04 10.9204 231.853 10.8926 231.662 10.8369V9.87451L231.855 9.87891C232.096 9.87891 232.274 9.84229 232.392 9.76904C232.512 9.6958 232.605 9.57422 232.673 9.4043L232.822 9.01318L231.157 4.24512H232.523L233.407 7.20264ZM238.834 9C238.775 8.88574 238.733 8.74365 238.707 8.57373C238.399 8.9165 237.999 9.08789 237.507 9.08789C237.041 9.08789 236.654 8.95312 236.347 8.68359C236.042 8.41406 235.89 8.07422 235.89 7.66406C235.89 7.16016 236.076 6.77344 236.448 6.50391C236.823 6.23438 237.363 6.09814 238.069 6.09521H238.654V5.82275C238.654 5.60303 238.597 5.42725 238.482 5.29541C238.371 5.16357 238.194 5.09766 237.951 5.09766C237.737 5.09766 237.568 5.14893 237.445 5.25146C237.325 5.354 237.265 5.49463 237.265 5.67334H235.995C235.995 5.39795 236.08 5.14307 236.25 4.90869C236.42 4.67432 236.66 4.49121 236.971 4.35938C237.281 4.22461 237.63 4.15723 238.017 4.15723C238.603 4.15723 239.067 4.30518 239.41 4.60107C239.755 4.89404 239.928 5.30713 239.928 5.84033V7.90137C239.931 8.35254 239.994 8.69385 240.117 8.92529V9H238.834ZM237.784 8.1167C237.971 8.1167 238.144 8.07568 238.302 7.99365C238.46 7.90869 238.578 7.7959 238.654 7.65527V6.83789H238.179C237.543 6.83789 237.205 7.05762 237.164 7.49707L237.16 7.57178C237.16 7.72998 237.215 7.86035 237.327 7.96289C237.438 8.06543 237.59 8.1167 237.784 8.1167ZM240.706 6.5874C240.706 5.84619 240.872 5.25586 241.203 4.81641C241.537 4.37695 241.992 4.15723 242.569 4.15723C243.032 4.15723 243.415 4.33008 243.716 4.67578V2.25H244.991V9H243.844L243.782 8.49463C243.466 8.89014 243.059 9.08789 242.561 9.08789C242.001 9.08789 241.551 8.86816 241.211 8.42871C240.875 7.98633 240.706 7.37256 240.706 6.5874ZM241.976 6.67969C241.976 7.125 242.054 7.46631 242.209 7.70361C242.364 7.94092 242.59 8.05957 242.886 8.05957C243.278 8.05957 243.555 7.89404 243.716 7.56299V5.68652C243.558 5.35547 243.284 5.18994 242.895 5.18994C242.282 5.18994 241.976 5.68652 241.976 6.67969ZM248.73 9C248.672 8.88574 248.629 8.74365 248.603 8.57373C248.295 8.9165 247.896 9.08789 247.403 9.08789C246.938 9.08789 246.551 8.95312 246.243 8.68359C245.938 8.41406 245.786 8.07422 245.786 7.66406C245.786 7.16016 245.972 6.77344 246.344 6.50391C246.719 6.23438 247.26 6.09814 247.966 6.09521H248.55V5.82275C248.55 5.60303 248.493 5.42725 248.379 5.29541C248.268 5.16357 248.09 5.09766 247.847 5.09766C247.633 5.09766 247.465 5.14893 247.342 5.25146C247.222 5.354 247.162 5.49463 247.162 5.67334H245.892C245.892 5.39795 245.977 5.14307 246.146 4.90869C246.316 4.67432 246.557 4.49121 246.867 4.35938C247.178 4.22461 247.526 4.15723 247.913 4.15723C248.499 4.15723 248.963 4.30518 249.306 4.60107C249.652 4.89404 249.825 5.30713 249.825 5.84033V7.90137C249.828 8.35254 249.891 8.69385 250.014 8.92529V9H248.73ZM247.68 8.1167C247.868 8.1167 248.041 8.07568 248.199 7.99365C248.357 7.90869 248.474 7.7959 248.55 7.65527V6.83789H248.076C247.44 6.83789 247.102 7.05762 247.061 7.49707L247.056 7.57178C247.056 7.72998 247.112 7.86035 247.223 7.96289C247.334 8.06543 247.487 8.1167 247.68 8.1167ZM252.321 3.07617V4.24512H253.134V5.17676H252.321V7.5498C252.321 7.72559 252.354 7.85156 252.422 7.92773C252.489 8.00391 252.618 8.04199 252.809 8.04199C252.949 8.04199 253.074 8.03174 253.182 8.01123V8.97363C252.933 9.0498 252.677 9.08789 252.413 9.08789C251.522 9.08789 251.068 8.63818 251.051 7.73877V5.17676H250.356V4.24512H251.051V3.07617H252.321ZM256.597 9C256.538 8.88574 256.496 8.74365 256.469 8.57373C256.162 8.9165 255.762 9.08789 255.27 9.08789C254.804 9.08789 254.417 8.95312 254.109 8.68359C253.805 8.41406 253.652 8.07422 253.652 7.66406C253.652 7.16016 253.838 6.77344 254.21 6.50391C254.585 6.23438 255.126 6.09814 255.832 6.09521H256.417V5.82275C256.417 5.60303 256.359 5.42725 256.245 5.29541C256.134 5.16357 255.957 5.09766 255.713 5.09766C255.5 5.09766 255.331 5.14893 255.208 5.25146C255.088 5.354 255.028 5.49463 255.028 5.67334H253.758C253.758 5.39795 253.843 5.14307 254.013 4.90869C254.183 4.67432 254.423 4.49121 254.733 4.35938C255.044 4.22461 255.393 4.15723 255.779 4.15723C256.365 4.15723 256.83 4.30518 257.172 4.60107C257.518 4.89404 257.691 5.30713 257.691 5.84033V7.90137C257.694 8.35254 257.757 8.69385 257.88 8.92529V9H256.597ZM255.546 8.1167C255.734 8.1167 255.907 8.07568 256.065 7.99365C256.223 7.90869 256.34 7.7959 256.417 7.65527V6.83789H255.942C255.306 6.83789 254.968 7.05762 254.927 7.49707L254.922 7.57178C254.922 7.72998 254.978 7.86035 255.089 7.96289C255.201 8.06543 255.353 8.1167 255.546 8.1167ZM262.393 9H261.075V2.60156H262.393V9ZM264.705 4.24512L264.744 4.79443C265.084 4.36963 265.54 4.15723 266.111 4.15723C266.615 4.15723 266.99 4.30518 267.236 4.60107C267.482 4.89697 267.608 5.33936 267.614 5.92822V9H266.344V5.95898C266.344 5.68945 266.285 5.49463 266.168 5.37451C266.051 5.25146 265.856 5.18994 265.583 5.18994C265.226 5.18994 264.958 5.34229 264.779 5.64697V9H263.509V4.24512H264.705ZM268.383 6.5874C268.383 5.84619 268.548 5.25586 268.879 4.81641C269.213 4.37695 269.669 4.15723 270.246 4.15723C270.709 4.15723 271.091 4.33008 271.393 4.67578V2.25H272.667V9H271.521L271.459 8.49463C271.143 8.89014 270.735 9.08789 270.237 9.08789C269.678 9.08789 269.228 8.86816 268.888 8.42871C268.551 7.98633 268.383 7.37256 268.383 6.5874ZM269.653 6.67969C269.653 7.125 269.73 7.46631 269.886 7.70361C270.041 7.94092 270.267 8.05957 270.562 8.05957C270.955 8.05957 271.232 7.89404 271.393 7.56299V5.68652C271.235 5.35547 270.961 5.18994 270.571 5.18994C269.959 5.18994 269.653 5.68652 269.653 6.67969ZM273.454 6.57861C273.454 6.10693 273.545 5.68652 273.727 5.31738C273.908 4.94824 274.169 4.6626 274.509 4.46045C274.852 4.2583 275.249 4.15723 275.7 4.15723C276.341 4.15723 276.864 4.35352 277.269 4.74609C277.676 5.13867 277.903 5.67188 277.95 6.3457L277.958 6.6709C277.958 7.40039 277.755 7.98633 277.348 8.42871C276.94 8.86816 276.394 9.08789 275.708 9.08789C275.023 9.08789 274.475 8.86816 274.065 8.42871C273.658 7.98926 273.454 7.3916 273.454 6.63574V6.57861ZM274.724 6.6709C274.724 7.12207 274.809 7.46777 274.979 7.70801C275.149 7.94531 275.392 8.06396 275.708 8.06396C276.016 8.06396 276.256 7.94678 276.429 7.7124C276.602 7.4751 276.688 7.09717 276.688 6.57861C276.688 6.13623 276.602 5.79346 276.429 5.55029C276.256 5.30713 276.013 5.18555 275.7 5.18555C275.389 5.18555 275.149 5.30713 274.979 5.55029C274.809 5.79053 274.724 6.16406 274.724 6.6709ZM279.91 4.24512L279.949 4.79443C280.289 4.36963 280.745 4.15723 281.316 4.15723C281.82 4.15723 282.195 4.30518 282.441 4.60107C282.687 4.89697 282.813 5.33936 282.819 5.92822V9H281.549V5.95898C281.549 5.68945 281.49 5.49463 281.373 5.37451C281.256 5.25146 281.061 5.18994 280.789 5.18994C280.431 5.18994 280.163 5.34229 279.984 5.64697V9H278.714V4.24512H279.91ZM285.974 9.08789C285.277 9.08789 284.708 8.87402 284.269 8.44629C283.833 8.01855 283.614 7.44873 283.614 6.73682V6.61377C283.614 6.13623 283.707 5.70996 283.891 5.33496C284.076 4.95703 284.336 4.66699 284.673 4.46484C285.013 4.25977 285.4 4.15723 285.833 4.15723C286.484 4.15723 286.995 4.3623 287.367 4.77246C287.742 5.18262 287.93 5.76416 287.93 6.51709V7.03564H284.902C284.943 7.34619 285.066 7.59521 285.271 7.78271C285.479 7.97021 285.741 8.06396 286.058 8.06396C286.547 8.06396 286.929 7.88672 287.205 7.53223L287.829 8.23096C287.638 8.50049 287.38 8.71143 287.055 8.86377C286.73 9.01318 286.37 9.08789 285.974 9.08789ZM285.829 5.18555C285.577 5.18555 285.372 5.27051 285.214 5.44043C285.059 5.61035 284.959 5.85352 284.915 6.16992H286.682V6.06885C286.676 5.7876 286.6 5.5708 286.453 5.41846C286.307 5.26318 286.099 5.18555 285.829 5.18555ZM291.23 7.68604C291.23 7.53076 291.152 7.40918 290.997 7.32129C290.845 7.23047 290.599 7.1499 290.259 7.07959C289.128 6.84229 288.562 6.36182 288.562 5.63818C288.562 5.21631 288.737 4.86475 289.085 4.5835C289.437 4.29932 289.896 4.15723 290.461 4.15723C291.064 4.15723 291.546 4.29932 291.907 4.5835C292.27 4.86768 292.452 5.23682 292.452 5.69092H291.182C291.182 5.50928 291.123 5.35986 291.006 5.24268C290.889 5.12256 290.706 5.0625 290.457 5.0625C290.243 5.0625 290.077 5.11084 289.96 5.20752C289.843 5.3042 289.784 5.42725 289.784 5.57666C289.784 5.71729 289.85 5.83154 289.982 5.91943C290.117 6.00439 290.342 6.0791 290.659 6.14355C290.975 6.20508 291.242 6.27539 291.458 6.35449C292.129 6.60059 292.465 7.02686 292.465 7.6333C292.465 8.06689 292.279 8.41846 291.907 8.68799C291.535 8.95459 291.054 9.08789 290.465 9.08789C290.067 9.08789 289.712 9.01758 289.402 8.87695C289.094 8.7334 288.853 8.53857 288.677 8.29248C288.501 8.04346 288.413 7.77539 288.413 7.48828H289.617C289.629 7.71387 289.712 7.88672 289.868 8.00684C290.023 8.12695 290.231 8.18701 290.492 8.18701C290.735 8.18701 290.918 8.1416 291.041 8.05078C291.167 7.95703 291.23 7.83545 291.23 7.68604ZM294.627 9H293.353V4.24512H294.627V9ZM293.278 3.01465C293.278 2.82422 293.341 2.66748 293.467 2.54443C293.596 2.42139 293.77 2.35986 293.99 2.35986C294.207 2.35986 294.379 2.42139 294.508 2.54443C294.637 2.66748 294.702 2.82422 294.702 3.01465C294.702 3.20801 294.636 3.36621 294.504 3.48926C294.375 3.6123 294.204 3.67383 293.99 3.67383C293.776 3.67383 293.603 3.6123 293.471 3.48926C293.342 3.36621 293.278 3.20801 293.278 3.01465ZM298.433 9C298.374 8.88574 298.332 8.74365 298.305 8.57373C297.998 8.9165 297.598 9.08789 297.105 9.08789C296.64 9.08789 296.253 8.95312 295.945 8.68359C295.641 8.41406 295.488 8.07422 295.488 7.66406C295.488 7.16016 295.674 6.77344 296.046 6.50391C296.421 6.23438 296.962 6.09814 297.668 6.09521H298.252V5.82275C298.252 5.60303 298.195 5.42725 298.081 5.29541C297.97 5.16357 297.792 5.09766 297.549 5.09766C297.335 5.09766 297.167 5.14893 297.044 5.25146C296.924 5.354 296.864 5.49463 296.864 5.67334H295.594C295.594 5.39795 295.679 5.14307 295.849 4.90869C296.019 4.67432 296.259 4.49121 296.569 4.35938C296.88 4.22461 297.229 4.15723 297.615 4.15723C298.201 4.15723 298.666 4.30518 299.008 4.60107C299.354 4.89404 299.527 5.30713 299.527 5.84033V7.90137C299.53 8.35254 299.593 8.69385 299.716 8.92529V9H298.433ZM297.382 8.1167C297.57 8.1167 297.743 8.07568 297.901 7.99365C298.059 7.90869 298.176 7.7959 298.252 7.65527V6.83789H297.778C297.142 6.83789 296.804 7.05762 296.763 7.49707L296.758 7.57178C296.758 7.72998 296.814 7.86035 296.925 7.96289C297.037 8.06543 297.189 8.1167 297.382 8.1167ZM2.62793 23.1479C1.9043 22.9399 1.37695 22.6851 1.0459 22.3833C0.717773 22.0786 0.553711 21.7036 0.553711 21.2583C0.553711 20.7544 0.754395 20.3384 1.15576 20.0103C1.56006 19.6792 2.08447 19.5137 2.729 19.5137C3.16846 19.5137 3.55957 19.5986 3.90234 19.7686C4.24805 19.9385 4.51465 20.1729 4.70215 20.4717C4.89258 20.7705 4.98779 21.0972 4.98779 21.4517H4.13965C4.13965 21.0649 4.0166 20.7617 3.77051 20.542C3.52441 20.3193 3.17725 20.208 2.729 20.208C2.31299 20.208 1.98779 20.3003 1.75342 20.4849C1.52197 20.6665 1.40625 20.9199 1.40625 21.2451C1.40625 21.5059 1.51611 21.7271 1.73584 21.9087C1.9585 22.0874 2.33496 22.2515 2.86523 22.4009C3.39844 22.5503 3.81445 22.7158 4.11328 22.8975C4.41504 23.0762 4.6377 23.2856 4.78125 23.5259C4.92773 23.7661 5.00098 24.0488 5.00098 24.374C5.00098 24.8926 4.79883 25.3086 4.39453 25.6221C3.99023 25.9326 3.44971 26.0879 2.77295 26.0879C2.3335 26.0879 1.92334 26.0044 1.54248 25.8374C1.16162 25.6675 0.867188 25.436 0.65918 25.1431C0.454102 24.8501 0.351562 24.5176 0.351562 24.1455H1.19971C1.19971 24.5322 1.3418 24.8384 1.62598 25.064C1.91309 25.2866 2.29541 25.3979 2.77295 25.3979C3.21826 25.3979 3.55957 25.3071 3.79688 25.1255C4.03418 24.9438 4.15283 24.6963 4.15283 24.3828C4.15283 24.0693 4.04297 23.8276 3.82324 23.6577C3.60352 23.4849 3.20508 23.3149 2.62793 23.1479ZM6.84229 26H6.0293V21.2451H6.84229V26ZM5.96338 19.9839C5.96338 19.8521 6.00293 19.7407 6.08203 19.6499C6.16406 19.5591 6.28418 19.5137 6.44238 19.5137C6.60059 19.5137 6.7207 19.5591 6.80273 19.6499C6.88477 19.7407 6.92578 19.8521 6.92578 19.9839C6.92578 20.1157 6.88477 20.2256 6.80273 20.3135C6.7207 20.4014 6.60059 20.4453 6.44238 20.4453C6.28418 20.4453 6.16406 20.4014 6.08203 20.3135C6.00293 20.2256 5.96338 20.1157 5.96338 19.9839ZM9.03076 26H8.21777V19.25H9.03076V26ZM13.2715 26C13.2246 25.9062 13.1865 25.7393 13.1572 25.499C12.7793 25.8916 12.3281 26.0879 11.8037 26.0879C11.335 26.0879 10.9497 25.9561 10.6479 25.6924C10.3491 25.4258 10.1997 25.0889 10.1997 24.6816C10.1997 24.1865 10.3872 23.8027 10.7622 23.5303C11.1401 23.2549 11.6704 23.1172 12.353 23.1172H13.144V22.7437C13.144 22.4595 13.0591 22.2339 12.8892 22.0669C12.7192 21.897 12.4688 21.812 12.1377 21.812C11.8477 21.812 11.6045 21.8853 11.4082 22.0317C11.2119 22.1782 11.1138 22.3555 11.1138 22.5635H10.2964C10.2964 22.3262 10.3799 22.0977 10.5469 21.8779C10.7168 21.6553 10.9453 21.4795 11.2324 21.3506C11.5225 21.2217 11.8403 21.1572 12.186 21.1572C12.7339 21.1572 13.1631 21.2949 13.4736 21.5703C13.7842 21.8428 13.9453 22.2192 13.957 22.6997V24.8882C13.957 25.3247 14.0127 25.6719 14.124 25.9297V26H13.2715ZM11.9224 25.3804C12.1772 25.3804 12.4189 25.3145 12.6475 25.1826C12.876 25.0508 13.0415 24.8794 13.144 24.6685V23.6929H12.5068C11.5107 23.6929 11.0127 23.9844 11.0127 24.5674C11.0127 24.8223 11.0977 25.0215 11.2676 25.165C11.4375 25.3086 11.6558 25.3804 11.9224 25.3804ZM16.0444 21.8208C16.4048 21.3784 16.8735 21.1572 17.4507 21.1572C18.4556 21.1572 18.9624 21.7241 18.9712 22.8579V26H18.1582V22.8535C18.1553 22.5107 18.0762 22.2573 17.9209 22.0933C17.7686 21.9292 17.5298 21.8472 17.2046 21.8472C16.9409 21.8472 16.7095 21.9175 16.5103 22.0581C16.311 22.1987 16.1558 22.3833 16.0444 22.6118V26H15.2314V19.25H16.0444V21.8208ZM21.5156 23.7983L21.0059 24.3301V26H20.1929V19.25H21.0059V23.3325L21.4409 22.8096L22.9219 21.2451H23.9106L22.0605 23.2314L24.126 26H23.1724L21.5156 23.7983ZM27.6855 26C27.6387 25.9062 27.6006 25.7393 27.5713 25.499C27.1934 25.8916 26.7422 26.0879 26.2178 26.0879C25.749 26.0879 25.3638 25.9561 25.062 25.6924C24.7632 25.4258 24.6138 25.0889 24.6138 24.6816C24.6138 24.1865 24.8013 23.8027 25.1763 23.5303C25.5542 23.2549 26.0845 23.1172 26.7671 23.1172H27.5581V22.7437C27.5581 22.4595 27.4731 22.2339 27.3032 22.0669C27.1333 21.897 26.8828 21.812 26.5518 21.812C26.2617 21.812 26.0186 21.8853 25.8223 22.0317C25.626 22.1782 25.5278 22.3555 25.5278 22.5635H24.7104C24.7104 22.3262 24.7939 22.0977 24.9609 21.8779C25.1309 21.6553 25.3594 21.4795 25.6465 21.3506C25.9365 21.2217 26.2544 21.1572 26.6001 21.1572C27.1479 21.1572 27.5771 21.2949 27.8877 21.5703C28.1982 21.8428 28.3594 22.2192 28.3711 22.6997V24.8882C28.3711 25.3247 28.4268 25.6719 28.5381 25.9297V26H27.6855ZM26.3364 25.3804C26.5913 25.3804 26.833 25.3145 27.0615 25.1826C27.29 25.0508 27.4556 24.8794 27.5581 24.6685V23.6929H26.9209C25.9248 23.6929 25.4268 23.9844 25.4268 24.5674C25.4268 24.8223 25.5117 25.0215 25.6816 25.165C25.8516 25.3086 26.0698 25.3804 26.3364 25.3804ZM30.4146 21.2451L30.4409 21.8428C30.8042 21.3857 31.2788 21.1572 31.8647 21.1572C32.8696 21.1572 33.3765 21.7241 33.3853 22.8579V26H32.5723V22.8535C32.5693 22.5107 32.4902 22.2573 32.335 22.0933C32.1826 21.9292 31.9438 21.8472 31.6187 21.8472C31.355 21.8472 31.1235 21.9175 30.9243 22.0581C30.7251 22.1987 30.5698 22.3833 30.4585 22.6118V26H29.6455V21.2451H30.4146ZM38.1709 23.7983L37.6611 24.3301V26H36.8481V19.25H37.6611V23.3325L38.0962 22.8096L39.5771 21.2451H40.5659L38.7158 23.2314L40.7812 26H39.8276L38.1709 23.7983ZM42.2886 26H41.4756V19.25H42.2886V26ZM44.4771 26H43.6641V21.2451H44.4771V26ZM43.5981 19.9839C43.5981 19.8521 43.6377 19.7407 43.7168 19.6499C43.7988 19.5591 43.9189 19.5137 44.0771 19.5137C44.2354 19.5137 44.3555 19.5591 44.4375 19.6499C44.5195 19.7407 44.5605 19.8521 44.5605 19.9839C44.5605 20.1157 44.5195 20.2256 44.4375 20.3135C44.3555 20.4014 44.2354 20.4453 44.0771 20.4453C43.9189 20.4453 43.7988 20.4014 43.7168 20.3135C43.6377 20.2256 43.5981 20.1157 43.5981 19.9839ZM47.1094 23.7983L46.5996 24.3301V26H45.7866V19.25H46.5996V23.3325L47.0347 22.8096L48.5156 21.2451H49.5044L47.6543 23.2314L49.7197 26H48.7661L47.1094 23.7983ZM55.5117 25.5298C55.1953 25.9019 54.731 26.0879 54.1187 26.0879C53.6118 26.0879 53.2251 25.9414 52.9585 25.6484C52.6948 25.3525 52.5615 24.916 52.5586 24.3389V21.2451H53.3716V24.3169C53.3716 25.0376 53.6646 25.3979 54.2505 25.3979C54.8716 25.3979 55.2847 25.1665 55.4897 24.7036V21.2451H56.3027V26H55.5293L55.5117 25.5298ZM58.311 21.2451L58.3374 21.8428C58.7007 21.3857 59.1753 21.1572 59.7612 21.1572C60.7661 21.1572 61.2729 21.7241 61.2817 22.8579V26H60.4688V22.8535C60.4658 22.5107 60.3867 22.2573 60.2314 22.0933C60.0791 21.9292 59.8403 21.8472 59.5151 21.8472C59.2515 21.8472 59.02 21.9175 58.8208 22.0581C58.6216 22.1987 58.4663 22.3833 58.355 22.6118V26H57.542V21.2451H58.311ZM63.6108 20.0938V21.2451H64.4985V21.8735H63.6108V24.8223C63.6108 25.0127 63.6504 25.1562 63.7295 25.2529C63.8086 25.3467 63.9434 25.3936 64.1338 25.3936C64.2275 25.3936 64.3564 25.376 64.5205 25.3408V26C64.3066 26.0586 64.0986 26.0879 63.8965 26.0879C63.5332 26.0879 63.2593 25.978 63.0747 25.7583C62.8901 25.5386 62.7979 25.2266 62.7979 24.8223V21.8735H61.9321V21.2451H62.7979V20.0938H63.6108ZM68.3877 25.5298C68.0713 25.9019 67.6069 26.0879 66.9946 26.0879C66.4878 26.0879 66.1011 25.9414 65.8345 25.6484C65.5708 25.3525 65.4375 24.916 65.4346 24.3389V21.2451H66.2476V24.3169C66.2476 25.0376 66.5405 25.3979 67.1265 25.3979C67.7476 25.3979 68.1606 25.1665 68.3657 24.7036V21.2451H69.1787V26H68.4053L68.3877 25.5298ZM71.7451 23.7983L71.2354 24.3301V26H70.4224V19.25H71.2354V23.3325L71.6704 22.8096L73.1514 21.2451H74.1401L72.29 23.2314L74.3555 26H73.4019L71.7451 23.7983ZM79.1719 23.4336L78.4863 24.1719V26H77.168V19.6016H78.4863V22.502L79.0664 21.7065L80.6968 19.6016H82.3184L80.0464 22.4448L82.3843 26H80.8154L79.1719 23.4336ZM84.8716 26.0879C84.1743 26.0879 83.606 25.874 83.1665 25.4463C82.73 25.0186 82.5117 24.4487 82.5117 23.7368V23.6138C82.5117 23.1362 82.604 22.71 82.7886 22.335C82.9731 21.957 83.2339 21.667 83.5708 21.4648C83.9106 21.2598 84.2974 21.1572 84.731 21.1572C85.3813 21.1572 85.8926 21.3623 86.2646 21.7725C86.6396 22.1826 86.8271 22.7642 86.8271 23.5171V24.0356H83.7993C83.8403 24.3462 83.9634 24.5952 84.1685 24.7827C84.3765 24.9702 84.6387 25.064 84.9551 25.064C85.4443 25.064 85.8267 24.8867 86.1021 24.5322L86.7261 25.231C86.5356 25.5005 86.2778 25.7114 85.9526 25.8638C85.6274 26.0132 85.2671 26.0879 84.8716 26.0879ZM84.7266 22.1855C84.4746 22.1855 84.2695 22.2705 84.1113 22.4404C83.9561 22.6104 83.8564 22.8535 83.8125 23.1699H85.5791V23.0688C85.5732 22.7876 85.4971 22.5708 85.3506 22.4185C85.2041 22.2632 84.9961 22.1855 84.7266 22.1855ZM91.8369 23.6665C91.8369 24.4282 91.6743 25.0229 91.3491 25.4507C91.0239 25.8755 90.5698 26.0879 89.9868 26.0879C89.4712 26.0879 89.0596 25.8901 88.752 25.4946L88.6948 26H87.5522V19.25H88.8223V21.6714C89.1152 21.3286 89.5005 21.1572 89.978 21.1572C90.5581 21.1572 91.0122 21.3711 91.3403 21.7988C91.6714 22.2236 91.8369 22.8228 91.8369 23.5962V23.6665ZM90.5669 23.5742C90.5669 23.0938 90.4907 22.7437 90.3384 22.5239C90.186 22.3013 89.959 22.1899 89.6572 22.1899C89.2529 22.1899 88.9746 22.3555 88.8223 22.6865V24.563C88.9775 24.897 89.2588 25.064 89.666 25.064C90.0762 25.064 90.3457 24.8618 90.4746 24.4575C90.5361 24.2642 90.5669 23.9697 90.5669 23.5742ZM93.9639 26H92.6895V21.2451H93.9639V26ZM92.6147 20.0146C92.6147 19.8242 92.6777 19.6675 92.8037 19.5444C92.9326 19.4214 93.1069 19.3599 93.3267 19.3599C93.5435 19.3599 93.7163 19.4214 93.8452 19.5444C93.9741 19.6675 94.0386 19.8242 94.0386 20.0146C94.0386 20.208 93.9727 20.3662 93.8408 20.4893C93.7119 20.6123 93.5405 20.6738 93.3267 20.6738C93.1128 20.6738 92.9399 20.6123 92.8081 20.4893C92.6792 20.3662 92.6147 20.208 92.6147 20.0146ZM96.3589 21.2451V26.2593C96.3589 26.7837 96.2197 27.1909 95.9414 27.481C95.6631 27.7739 95.2617 27.9204 94.7373 27.9204C94.5176 27.9204 94.3081 27.8955 94.1089 27.8457V26.8394C94.2612 26.8657 94.3945 26.8789 94.5088 26.8789C94.8926 26.8789 95.0845 26.6753 95.0845 26.2681V21.2451H96.3589ZM94.9834 20.0146C94.9834 19.8242 95.0464 19.6675 95.1724 19.5444C95.3013 19.4214 95.4756 19.3599 95.6953 19.3599C95.915 19.3599 96.0879 19.4214 96.2139 19.5444C96.3428 19.6675 96.4072 19.8242 96.4072 20.0146C96.4072 20.208 96.3413 20.3662 96.2095 20.4893C96.0806 20.6123 95.9092 20.6738 95.6953 20.6738C95.4814 20.6738 95.3086 20.6123 95.1768 20.4893C95.0479 20.3662 94.9834 20.208 94.9834 20.0146ZM100.107 26C100.049 25.8857 100.006 25.7437 99.98 25.5737C99.6724 25.9165 99.2725 26.0879 98.7803 26.0879C98.3145 26.0879 97.9277 25.9531 97.6201 25.6836C97.3154 25.4141 97.1631 25.0742 97.1631 24.6641C97.1631 24.1602 97.3491 23.7734 97.7212 23.5039C98.0962 23.2344 98.6367 23.0981 99.3428 23.0952H99.9272V22.8228C99.9272 22.603 99.8701 22.4272 99.7559 22.2954C99.6445 22.1636 99.4673 22.0977 99.2241 22.0977C99.0103 22.0977 98.8418 22.1489 98.7188 22.2515C98.5986 22.354 98.5386 22.4946 98.5386 22.6733H97.2686C97.2686 22.3979 97.3535 22.1431 97.5234 21.9087C97.6934 21.6743 97.9336 21.4912 98.2441 21.3594C98.5547 21.2246 98.9033 21.1572 99.29 21.1572C99.876 21.1572 100.34 21.3052 100.683 21.6011C101.029 21.894 101.202 22.3071 101.202 22.8403V24.9014C101.205 25.3525 101.268 25.6938 101.391 25.9253V26H100.107ZM99.0571 25.1167C99.2446 25.1167 99.4175 25.0757 99.5757 24.9937C99.7339 24.9087 99.8511 24.7959 99.9272 24.6553V23.8379H99.4526C98.8169 23.8379 98.4785 24.0576 98.4375 24.4971L98.4331 24.5718C98.4331 24.73 98.4888 24.8604 98.6001 24.9629C98.7114 25.0654 98.8638 25.1167 99.0571 25.1167ZM103.904 24.0928L103.447 24.5498V26H102.177V19.25H103.447V22.9897L103.693 22.6733L104.911 21.2451H106.436L104.717 23.2271L106.585 26H105.126L103.904 24.0928ZM109.74 26C109.682 25.8857 109.639 25.7437 109.613 25.5737C109.305 25.9165 108.905 26.0879 108.413 26.0879C107.947 26.0879 107.561 25.9531 107.253 25.6836C106.948 25.4141 106.796 25.0742 106.796 24.6641C106.796 24.1602 106.982 23.7734 107.354 23.5039C107.729 23.2344 108.27 23.0981 108.976 23.0952H109.56V22.8228C109.56 22.603 109.503 22.4272 109.389 22.2954C109.277 22.1636 109.1 22.0977 108.857 22.0977C108.643 22.0977 108.475 22.1489 108.352 22.2515C108.231 22.354 108.171 22.4946 108.171 22.6733H106.901C106.901 22.3979 106.986 22.1431 107.156 21.9087C107.326 21.6743 107.566 21.4912 107.877 21.3594C108.188 21.2246 108.536 21.1572 108.923 21.1572C109.509 21.1572 109.973 21.3052 110.316 21.6011C110.662 21.894 110.834 22.3071 110.834 22.8403V24.9014C110.837 25.3525 110.9 25.6938 111.023 25.9253V26H109.74ZM108.69 25.1167C108.877 25.1167 109.05 25.0757 109.208 24.9937C109.367 24.9087 109.484 24.7959 109.56 24.6553V23.8379H109.085C108.45 23.8379 108.111 24.0576 108.07 24.4971L108.066 24.5718C108.066 24.73 108.122 24.8604 108.233 24.9629C108.344 25.0654 108.497 25.1167 108.69 25.1167ZM114.565 26C114.507 25.8857 114.464 25.7437 114.438 25.5737C114.13 25.9165 113.73 26.0879 113.238 26.0879C112.772 26.0879 112.386 25.9531 112.078 25.6836C111.773 25.4141 111.621 25.0742 111.621 24.6641C111.621 24.1602 111.807 23.7734 112.179 23.5039C112.554 23.2344 113.095 23.0981 113.801 23.0952H114.385V22.8228C114.385 22.603 114.328 22.4272 114.214 22.2954C114.103 22.1636 113.925 22.0977 113.682 22.0977C113.468 22.0977 113.3 22.1489 113.177 22.2515C113.057 22.354 112.997 22.4946 112.997 22.6733H111.727C111.727 22.3979 111.812 22.1431 111.981 21.9087C112.151 21.6743 112.392 21.4912 112.702 21.3594C113.013 21.2246 113.361 21.1572 113.748 21.1572C114.334 21.1572 114.798 21.3052 115.141 21.6011C115.487 21.894 115.66 22.3071 115.66 22.8403V24.9014C115.663 25.3525 115.726 25.6938 115.849 25.9253V26H114.565ZM113.515 25.1167C113.703 25.1167 113.875 25.0757 114.034 24.9937C114.192 24.9087 114.309 24.7959 114.385 24.6553V23.8379H113.911C113.275 23.8379 112.937 24.0576 112.896 24.4971L112.891 24.5718C112.891 24.73 112.947 24.8604 113.058 24.9629C113.169 25.0654 113.322 25.1167 113.515 25.1167ZM117.804 21.2451L117.844 21.7944C118.184 21.3696 118.639 21.1572 119.21 21.1572C119.714 21.1572 120.089 21.3052 120.335 21.6011C120.582 21.897 120.708 22.3394 120.713 22.9282V26H119.443V22.959C119.443 22.6895 119.385 22.4946 119.268 22.3745C119.15 22.2515 118.956 22.1899 118.683 22.1899C118.326 22.1899 118.058 22.3423 117.879 22.647V26H116.609V21.2451H117.804ZM126.009 23.4336L125.323 24.1719V26H124.005V19.6016H125.323V22.502L125.903 21.7065L127.534 19.6016H129.155L126.883 22.4448L129.221 26H127.652L126.009 23.4336ZM131.708 26.0879C131.011 26.0879 130.443 25.874 130.003 25.4463C129.567 25.0186 129.349 24.4487 129.349 23.7368V23.6138C129.349 23.1362 129.441 22.71 129.625 22.335C129.81 21.957 130.071 21.667 130.408 21.4648C130.748 21.2598 131.134 21.1572 131.568 21.1572C132.218 21.1572 132.729 21.3623 133.102 21.7725C133.477 22.1826 133.664 22.7642 133.664 23.5171V24.0356H130.636C130.677 24.3462 130.8 24.5952 131.005 24.7827C131.213 24.9702 131.476 25.064 131.792 25.064C132.281 25.064 132.664 24.8867 132.939 24.5322L133.563 25.231C133.373 25.5005 133.115 25.7114 132.79 25.8638C132.464 26.0132 132.104 26.0879 131.708 26.0879ZM131.563 22.1855C131.312 22.1855 131.106 22.2705 130.948 22.4404C130.793 22.6104 130.693 22.8535 130.649 23.1699H132.416V23.0688C132.41 22.7876 132.334 22.5708 132.188 22.4185C132.041 22.2632 131.833 22.1855 131.563 22.1855ZM137.061 22.436C136.888 22.4126 136.736 22.4009 136.604 22.4009C136.124 22.4009 135.809 22.5635 135.659 22.8887V26H134.389V21.2451H135.589L135.624 21.812C135.879 21.3755 136.232 21.1572 136.683 21.1572C136.824 21.1572 136.956 21.1763 137.079 21.2144L137.061 22.436ZM140.3 26C140.241 25.8857 140.199 25.7437 140.172 25.5737C139.865 25.9165 139.465 26.0879 138.973 26.0879C138.507 26.0879 138.12 25.9531 137.812 25.6836C137.508 25.4141 137.355 25.0742 137.355 24.6641C137.355 24.1602 137.542 23.7734 137.914 23.5039C138.289 23.2344 138.829 23.0981 139.535 23.0952H140.12V22.8228C140.12 22.603 140.062 22.4272 139.948 22.2954C139.837 22.1636 139.66 22.0977 139.417 22.0977C139.203 22.0977 139.034 22.1489 138.911 22.2515C138.791 22.354 138.731 22.4946 138.731 22.6733H137.461C137.461 22.3979 137.546 22.1431 137.716 21.9087C137.886 21.6743 138.126 21.4912 138.437 21.3594C138.747 21.2246 139.096 21.1572 139.482 21.1572C140.068 21.1572 140.533 21.3052 140.875 21.6011C141.221 21.894 141.394 22.3071 141.394 22.8403V24.9014C141.397 25.3525 141.46 25.6938 141.583 25.9253V26H140.3ZM139.25 25.1167C139.437 25.1167 139.61 25.0757 139.768 24.9937C139.926 24.9087 140.043 24.7959 140.12 24.6553V23.8379H139.645C139.009 23.8379 138.671 24.0576 138.63 24.4971L138.625 24.5718C138.625 24.73 138.681 24.8604 138.792 24.9629C138.904 25.0654 139.056 25.1167 139.25 25.1167ZM143.609 21.7637C143.946 21.3594 144.369 21.1572 144.879 21.1572C145.91 21.1572 146.433 21.7563 146.448 22.9546V26H145.178V22.9897C145.178 22.7173 145.119 22.5166 145.002 22.3877C144.885 22.2559 144.69 22.1899 144.417 22.1899C144.045 22.1899 143.776 22.3335 143.609 22.6206V26H142.339V19.25H143.609V21.7637ZM150.161 26C150.103 25.8857 150.06 25.7437 150.034 25.5737C149.726 25.9165 149.326 26.0879 148.834 26.0879C148.368 26.0879 147.981 25.9531 147.674 25.6836C147.369 25.4141 147.217 25.0742 147.217 24.6641C147.217 24.1602 147.403 23.7734 147.775 23.5039C148.15 23.2344 148.69 23.0981 149.396 23.0952H149.981V22.8228C149.981 22.603 149.924 22.4272 149.81 22.2954C149.698 22.1636 149.521 22.0977 149.278 22.0977C149.064 22.0977 148.896 22.1489 148.772 22.2515C148.652 22.354 148.592 22.4946 148.592 22.6733H147.322C147.322 22.3979 147.407 22.1431 147.577 21.9087C147.747 21.6743 147.987 21.4912 148.298 21.3594C148.608 21.2246 148.957 21.1572 149.344 21.1572C149.93 21.1572 150.394 21.3052 150.737 21.6011C151.083 21.894 151.255 22.3071 151.255 22.8403V24.9014C151.258 25.3525 151.321 25.6938 151.444 25.9253V26H150.161ZM149.111 25.1167C149.298 25.1167 149.471 25.0757 149.629 24.9937C149.788 24.9087 149.905 24.7959 149.981 24.6553V23.8379H149.506C148.871 23.8379 148.532 24.0576 148.491 24.4971L148.487 24.5718C148.487 24.73 148.542 24.8604 148.654 24.9629C148.765 25.0654 148.917 25.1167 149.111 25.1167ZM154.806 24.686C154.806 24.5308 154.729 24.4092 154.573 24.3213C154.421 24.2305 154.175 24.1499 153.835 24.0796C152.704 23.8423 152.139 23.3618 152.139 22.6382C152.139 22.2163 152.313 21.8647 152.662 21.5835C153.013 21.2993 153.472 21.1572 154.037 21.1572C154.641 21.1572 155.123 21.2993 155.483 21.5835C155.846 21.8677 156.028 22.2368 156.028 22.6909H154.758C154.758 22.5093 154.699 22.3599 154.582 22.2427C154.465 22.1226 154.282 22.0625 154.033 22.0625C153.819 22.0625 153.653 22.1108 153.536 22.2075C153.419 22.3042 153.36 22.4272 153.36 22.5767C153.36 22.7173 153.426 22.8315 153.558 22.9194C153.693 23.0044 153.918 23.0791 154.235 23.1436C154.551 23.2051 154.818 23.2754 155.035 23.3545C155.706 23.6006 156.041 24.0269 156.041 24.6333C156.041 25.0669 155.855 25.4185 155.483 25.688C155.111 25.9546 154.63 26.0879 154.042 26.0879C153.643 26.0879 153.289 26.0176 152.978 25.877C152.67 25.7334 152.429 25.5386 152.253 25.2925C152.077 25.0435 151.989 24.7754 151.989 24.4883H153.193C153.205 24.7139 153.289 24.8867 153.444 25.0068C153.599 25.127 153.807 25.187 154.068 25.187C154.311 25.187 154.494 25.1416 154.617 25.0508C154.743 24.957 154.806 24.8354 154.806 24.686ZM158.203 26H156.929V21.2451H158.203V26ZM156.854 20.0146C156.854 19.8242 156.917 19.6675 157.043 19.5444C157.172 19.4214 157.346 19.3599 157.566 19.3599C157.783 19.3599 157.956 19.4214 158.084 19.5444C158.213 19.6675 158.278 19.8242 158.278 20.0146C158.278 20.208 158.212 20.3662 158.08 20.4893C157.951 20.6123 157.78 20.6738 157.566 20.6738C157.352 20.6738 157.179 20.6123 157.047 20.4893C156.918 20.3662 156.854 20.208 156.854 20.0146ZM162.009 26C161.95 25.8857 161.908 25.7437 161.881 25.5737C161.574 25.9165 161.174 26.0879 160.682 26.0879C160.216 26.0879 159.829 25.9531 159.521 25.6836C159.217 25.4141 159.064 25.0742 159.064 24.6641C159.064 24.1602 159.25 23.7734 159.623 23.5039C159.998 23.2344 160.538 23.0981 161.244 23.0952H161.829V22.8228C161.829 22.603 161.771 22.4272 161.657 22.2954C161.546 22.1636 161.369 22.0977 161.125 22.0977C160.912 22.0977 160.743 22.1489 160.62 22.2515C160.5 22.354 160.44 22.4946 160.44 22.6733H159.17C159.17 22.3979 159.255 22.1431 159.425 21.9087C159.595 21.6743 159.835 21.4912 160.146 21.3594C160.456 21.2246 160.805 21.1572 161.191 21.1572C161.777 21.1572 162.242 21.3052 162.584 21.6011C162.93 21.894 163.103 22.3071 163.103 22.8403V24.9014C163.106 25.3525 163.169 25.6938 163.292 25.9253V26H162.009ZM160.958 25.1167C161.146 25.1167 161.319 25.0757 161.477 24.9937C161.635 24.9087 161.752 24.7959 161.829 24.6553V23.8379H161.354C160.718 23.8379 160.38 24.0576 160.339 24.4971L160.334 24.5718C160.334 24.73 160.39 24.8604 160.501 24.9629C160.613 25.0654 160.765 25.1167 160.958 25.1167ZM166.834 26C166.775 25.8857 166.733 25.7437 166.707 25.5737C166.399 25.9165 165.999 26.0879 165.507 26.0879C165.041 26.0879 164.654 25.9531 164.347 25.6836C164.042 25.4141 163.89 25.0742 163.89 24.6641C163.89 24.1602 164.076 23.7734 164.448 23.5039C164.823 23.2344 165.363 23.0981 166.069 23.0952H166.654V22.8228C166.654 22.603 166.597 22.4272 166.482 22.2954C166.371 22.1636 166.194 22.0977 165.951 22.0977C165.737 22.0977 165.568 22.1489 165.445 22.2515C165.325 22.354 165.265 22.4946 165.265 22.6733H163.995C163.995 22.3979 164.08 22.1431 164.25 21.9087C164.42 21.6743 164.66 21.4912 164.971 21.3594C165.281 21.2246 165.63 21.1572 166.017 21.1572C166.603 21.1572 167.067 21.3052 167.41 21.6011C167.755 21.894 167.928 22.3071 167.928 22.8403V24.9014C167.931 25.3525 167.994 25.6938 168.117 25.9253V26H166.834ZM165.784 25.1167C165.971 25.1167 166.144 25.0757 166.302 24.9937C166.46 24.9087 166.578 24.7959 166.654 24.6553V23.8379H166.179C165.543 23.8379 165.205 24.0576 165.164 24.4971L165.16 24.5718C165.16 24.73 165.215 24.8604 165.327 24.9629C165.438 25.0654 165.59 25.1167 165.784 25.1167ZM170.073 21.2451L170.112 21.7944C170.452 21.3696 170.908 21.1572 171.479 21.1572C171.983 21.1572 172.358 21.3052 172.604 21.6011C172.85 21.897 172.976 22.3394 172.982 22.9282V26H171.712V22.959C171.712 22.6895 171.653 22.4946 171.536 22.3745C171.419 22.2515 171.224 22.1899 170.952 22.1899C170.594 22.1899 170.326 22.3423 170.147 22.647V26H168.877V21.2451H170.073ZM179.244 26C179.197 25.9062 179.159 25.7393 179.13 25.499C178.752 25.8916 178.301 26.0879 177.776 26.0879C177.308 26.0879 176.922 25.9561 176.621 25.6924C176.322 25.4258 176.172 25.0889 176.172 24.6816C176.172 24.1865 176.36 23.8027 176.735 23.5303C177.113 23.2549 177.643 23.1172 178.326 23.1172H179.117V22.7437C179.117 22.4595 179.032 22.2339 178.862 22.0669C178.692 21.897 178.441 21.812 178.11 21.812C177.82 21.812 177.577 21.8853 177.381 22.0317C177.185 22.1782 177.086 22.3555 177.086 22.5635H176.269C176.269 22.3262 176.353 22.0977 176.52 21.8779C176.689 21.6553 176.918 21.4795 177.205 21.3506C177.495 21.2217 177.813 21.1572 178.159 21.1572C178.707 21.1572 179.136 21.2949 179.446 21.5703C179.757 21.8428 179.918 22.2192 179.93 22.6997V24.8882C179.93 25.3247 179.985 25.6719 180.097 25.9297V26H179.244ZM177.895 25.3804C178.15 25.3804 178.392 25.3145 178.62 25.1826C178.849 25.0508 179.014 24.8794 179.117 24.6685V23.6929H178.479C177.483 23.6929 176.985 23.9844 176.985 24.5674C176.985 24.8223 177.07 25.0215 177.24 25.165C177.41 25.3086 177.628 25.3804 177.895 25.3804ZM182.307 20.0938V21.2451H183.195V21.8735H182.307V24.8223C182.307 25.0127 182.347 25.1562 182.426 25.2529C182.505 25.3467 182.64 25.3936 182.83 25.3936C182.924 25.3936 183.053 25.376 183.217 25.3408V26C183.003 26.0586 182.795 26.0879 182.593 26.0879C182.229 26.0879 181.956 25.978 181.771 25.7583C181.586 25.5386 181.494 25.2266 181.494 24.8223V21.8735H180.628V21.2451H181.494V20.0938H182.307ZM187.084 26C187.037 25.9062 186.999 25.7393 186.97 25.499C186.592 25.8916 186.141 26.0879 185.616 26.0879C185.147 26.0879 184.762 25.9561 184.46 25.6924C184.162 25.4258 184.012 25.0889 184.012 24.6816C184.012 24.1865 184.2 23.8027 184.575 23.5303C184.953 23.2549 185.483 23.1172 186.166 23.1172H186.957V22.7437C186.957 22.4595 186.872 22.2339 186.702 22.0669C186.532 21.897 186.281 21.812 185.95 21.812C185.66 21.812 185.417 21.8853 185.221 22.0317C185.024 22.1782 184.926 22.3555 184.926 22.5635H184.109C184.109 22.3262 184.192 22.0977 184.359 21.8779C184.529 21.6553 184.758 21.4795 185.045 21.3506C185.335 21.2217 185.653 21.1572 185.999 21.1572C186.546 21.1572 186.976 21.2949 187.286 21.5703C187.597 21.8428 187.758 22.2192 187.77 22.6997V24.8882C187.77 25.3247 187.825 25.6719 187.937 25.9297V26H187.084ZM185.735 25.3804C185.99 25.3804 186.231 25.3145 186.46 25.1826C186.688 25.0508 186.854 24.8794 186.957 24.6685V23.6929H186.319C185.323 23.6929 184.825 23.9844 184.825 24.5674C184.825 24.8223 184.91 25.0215 185.08 25.165C185.25 25.3086 185.468 25.3804 185.735 25.3804ZM191.979 25.5298C191.663 25.9019 191.199 26.0879 190.586 26.0879C190.08 26.0879 189.693 25.9414 189.426 25.6484C189.163 25.3525 189.029 24.916 189.026 24.3389V21.2451H189.839V24.3169C189.839 25.0376 190.132 25.3979 190.718 25.3979C191.339 25.3979 191.752 25.1665 191.958 24.7036V21.2451H192.771V26H191.997L191.979 25.5298ZM197.517 23.7456V26H196.198V19.6016H198.694C199.175 19.6016 199.597 19.6895 199.96 19.8652C200.326 20.041 200.607 20.2915 200.804 20.6167C201 20.939 201.098 21.3066 201.098 21.7197C201.098 22.3467 200.883 22.8418 200.452 23.2051C200.024 23.5654 199.431 23.7456 198.672 23.7456H197.517ZM197.517 22.6777H198.694C199.043 22.6777 199.308 22.5957 199.49 22.4316C199.674 22.2676 199.767 22.0332 199.767 21.7285C199.767 21.415 199.674 21.1616 199.49 20.9683C199.305 20.7749 199.05 20.6753 198.725 20.6694H197.517V22.6777ZM204.051 26.0879C203.354 26.0879 202.786 25.874 202.346 25.4463C201.91 25.0186 201.691 24.4487 201.691 23.7368V23.6138C201.691 23.1362 201.784 22.71 201.968 22.335C202.153 21.957 202.414 21.667 202.75 21.4648C203.09 21.2598 203.477 21.1572 203.911 21.1572C204.561 21.1572 205.072 21.3623 205.444 21.7725C205.819 22.1826 206.007 22.7642 206.007 23.5171V24.0356H202.979C203.02 24.3462 203.143 24.5952 203.348 24.7827C203.556 24.9702 203.818 25.064 204.135 25.064C204.624 25.064 205.006 24.8867 205.282 24.5322L205.906 25.231C205.715 25.5005 205.458 25.7114 205.132 25.8638C204.807 26.0132 204.447 26.0879 204.051 26.0879ZM203.906 22.1855C203.654 22.1855 203.449 22.2705 203.291 22.4404C203.136 22.6104 203.036 22.8535 202.992 23.1699H204.759V23.0688C204.753 22.7876 204.677 22.5708 204.53 22.4185C204.384 22.2632 204.176 22.1855 203.906 22.1855ZM207.901 21.2451L207.94 21.7944C208.28 21.3696 208.736 21.1572 209.307 21.1572C209.811 21.1572 210.186 21.3052 210.432 21.6011C210.678 21.897 210.804 22.3394 210.81 22.9282V26H209.54V22.959C209.54 22.6895 209.481 22.4946 209.364 22.3745C209.247 22.2515 209.052 22.1899 208.78 22.1899C208.422 22.1899 208.154 22.3423 207.976 22.647V26H206.706V21.2451H207.901ZM214.532 26C214.474 25.8857 214.431 25.7437 214.405 25.5737C214.097 25.9165 213.697 26.0879 213.205 26.0879C212.739 26.0879 212.353 25.9531 212.045 25.6836C211.74 25.4141 211.588 25.0742 211.588 24.6641C211.588 24.1602 211.774 23.7734 212.146 23.5039C212.521 23.2344 213.062 23.0981 213.768 23.0952H214.352V22.8228C214.352 22.603 214.295 22.4272 214.181 22.2954C214.069 22.1636 213.892 22.0977 213.649 22.0977C213.435 22.0977 213.267 22.1489 213.144 22.2515C213.023 22.354 212.963 22.4946 212.963 22.6733H211.693C211.693 22.3979 211.778 22.1431 211.948 21.9087C212.118 21.6743 212.358 21.4912 212.669 21.3594C212.979 21.2246 213.328 21.1572 213.715 21.1572C214.301 21.1572 214.765 21.3052 215.108 21.6011C215.454 21.894 215.626 22.3071 215.626 22.8403V24.9014C215.629 25.3525 215.692 25.6938 215.815 25.9253V26H214.532ZM213.482 25.1167C213.669 25.1167 213.842 25.0757 214 24.9937C214.159 24.9087 214.276 24.7959 214.352 24.6553V23.8379H213.877C213.242 23.8379 212.903 24.0576 212.862 24.4971L212.858 24.5718C212.858 24.73 212.914 24.8604 213.025 24.9629C213.136 25.0654 213.289 25.1167 213.482 25.1167ZM216.91 26V22.1768H216.202V21.2451H216.91V21.0254C216.916 20.4277 217.099 19.9678 217.459 19.6455C217.822 19.3203 218.333 19.1577 218.993 19.1577C219.388 19.1577 219.869 19.2441 220.434 19.417L220.25 20.4673C219.962 20.3823 219.74 20.3281 219.582 20.3047C219.423 20.2783 219.253 20.2651 219.072 20.2651C218.48 20.2651 218.184 20.5273 218.184 21.0518V21.2451H219.12V22.1768H218.184V26H216.91ZM221.027 26H219.753V21.2451H221.027V26ZM224.833 26C224.774 25.8857 224.732 25.7437 224.706 25.5737C224.398 25.9165 223.998 26.0879 223.506 26.0879C223.04 26.0879 222.653 25.9531 222.346 25.6836C222.041 25.4141 221.889 25.0742 221.889 24.6641C221.889 24.1602 222.075 23.7734 222.447 23.5039C222.822 23.2344 223.362 23.0981 224.068 23.0952H224.653V22.8228C224.653 22.603 224.596 22.4272 224.481 22.2954C224.37 22.1636 224.193 22.0977 223.95 22.0977C223.736 22.0977 223.567 22.1489 223.444 22.2515C223.324 22.354 223.264 22.4946 223.264 22.6733H221.994C221.994 22.3979 222.079 22.1431 222.249 21.9087C222.419 21.6743 222.659 21.4912 222.97 21.3594C223.28 21.2246 223.629 21.1572 224.016 21.1572C224.602 21.1572 225.066 21.3052 225.409 21.6011C225.754 21.894 225.927 22.3071 225.927 22.8403V24.9014C225.93 25.3525 225.993 25.6938 226.116 25.9253V26H224.833ZM223.783 25.1167C223.97 25.1167 224.143 25.0757 224.301 24.9937C224.459 24.9087 224.577 24.7959 224.653 24.6553V23.8379H224.178C223.542 23.8379 223.204 24.0576 223.163 24.4971L223.159 24.5718C223.159 24.73 223.214 24.8604 223.326 24.9629C223.437 25.0654 223.589 25.1167 223.783 25.1167ZM228.072 21.2451L228.111 21.7944C228.451 21.3696 228.907 21.1572 229.478 21.1572C229.982 21.1572 230.357 21.3052 230.603 21.6011C230.849 21.897 230.975 22.3394 230.981 22.9282V26H229.711V22.959C229.711 22.6895 229.652 22.4946 229.535 22.3745C229.418 22.2515 229.223 22.1899 228.951 22.1899C228.593 22.1899 228.325 22.3423 228.146 22.647V26H226.876V21.2451H228.072ZM238.61 23.3765C238.61 23.8247 238.482 24.1675 238.228 24.4048C237.976 24.6392 237.618 24.7563 237.155 24.7563C236.695 24.7563 236.326 24.6025 236.048 24.2949C235.772 23.9844 235.635 23.5625 235.635 23.0293V22.5459C235.635 22.0303 235.774 21.6187 236.052 21.311C236.333 21.0005 236.701 20.8452 237.155 20.8452C237.624 20.8452 237.984 20.9653 238.236 21.2056C238.488 21.4458 238.614 21.7842 238.614 22.2207H237.973C237.973 21.9307 237.902 21.7241 237.762 21.6011C237.624 21.4751 237.422 21.4121 237.155 21.4121C236.88 21.4121 236.663 21.5132 236.505 21.7153C236.347 21.9175 236.268 22.1987 236.268 22.5591V23.0557C236.268 23.4072 236.347 23.6841 236.505 23.8862C236.663 24.0884 236.88 24.1895 237.155 24.1895C237.425 24.1895 237.627 24.1279 237.762 24.0049C237.899 23.8818 237.968 23.6724 237.968 23.3765H238.61ZM234.598 22.7964C234.598 23.3003 234.715 23.7676 234.949 24.1982C235.184 24.626 235.501 24.9614 235.903 25.2046C236.307 25.4478 236.744 25.5693 237.212 25.5693C237.681 25.5693 238.116 25.4478 238.518 25.2046C238.919 24.9614 239.237 24.626 239.471 24.1982C239.706 23.7676 239.823 23.3003 239.823 22.7964C239.823 22.2983 239.707 21.8369 239.476 21.4121C239.244 20.9873 238.926 20.6533 238.522 20.4102C238.121 20.1641 237.684 20.041 237.212 20.041C236.744 20.041 236.307 20.1626 235.903 20.4058C235.499 20.646 235.179 20.98 234.945 21.4077C234.713 21.8354 234.598 22.2983 234.598 22.7964ZM234.092 22.7964C234.092 22.2046 234.229 21.6553 234.501 21.1484C234.776 20.6416 235.156 20.2432 235.639 19.9531C236.125 19.6602 236.65 19.5137 237.212 19.5137C237.775 19.5137 238.298 19.6602 238.781 19.9531C239.265 20.2432 239.643 20.6416 239.915 21.1484C240.19 21.6553 240.328 22.2046 240.328 22.7964C240.328 23.3735 240.196 23.9141 239.933 24.418C239.669 24.9219 239.294 25.3276 238.808 25.6353C238.324 25.9399 237.792 26.0923 237.212 26.0923C236.635 26.0923 236.104 25.9414 235.617 25.6396C235.134 25.335 234.759 24.9307 234.492 24.4268C234.226 23.9229 234.092 23.3794 234.092 22.7964ZM247.724 26H243.532V25.4155L245.747 22.9546C246.075 22.5825 246.3 22.2808 246.423 22.0493C246.549 21.8149 246.612 21.5732 246.612 21.3242C246.612 20.9902 246.511 20.7163 246.309 20.5024C246.107 20.2886 245.837 20.1816 245.5 20.1816C245.096 20.1816 244.781 20.2974 244.556 20.5288C244.333 20.7573 244.222 21.0767 244.222 21.4868H243.409C243.409 20.8979 243.598 20.4219 243.976 20.0586C244.356 19.6953 244.865 19.5137 245.5 19.5137C246.095 19.5137 246.565 19.6704 246.911 19.9839C247.257 20.2944 247.43 20.709 247.43 21.2275C247.43 21.8574 247.028 22.6074 246.226 23.4775L244.512 25.3364H247.724V26ZM252.598 23.271C252.598 24.2231 252.435 24.9307 252.11 25.3936C251.785 25.8564 251.276 26.0879 250.585 26.0879C249.902 26.0879 249.397 25.8623 249.069 25.4111C248.741 24.957 248.571 24.2803 248.559 23.3809V22.2954C248.559 21.355 248.722 20.6562 249.047 20.1992C249.372 19.7422 249.882 19.5137 250.576 19.5137C251.265 19.5137 251.771 19.7349 252.097 20.1772C252.422 20.6167 252.589 21.2964 252.598 22.2163V23.271ZM251.785 22.1592C251.785 21.4707 251.688 20.9697 251.495 20.6562C251.301 20.3398 250.995 20.1816 250.576 20.1816C250.16 20.1816 249.857 20.3384 249.667 20.6519C249.476 20.9653 249.378 21.4473 249.372 22.0977V23.3984C249.372 24.0898 249.472 24.6011 249.671 24.9321C249.873 25.2603 250.178 25.4243 250.585 25.4243C250.986 25.4243 251.284 25.269 251.477 24.9585C251.673 24.6479 251.776 24.1587 251.785 23.4907V22.1592ZM257.832 26H253.639V25.4155L255.854 22.9546C256.182 22.5825 256.408 22.2808 256.531 22.0493C256.657 21.8149 256.72 21.5732 256.72 21.3242C256.72 20.9902 256.619 20.7163 256.417 20.5024C256.214 20.2886 255.945 20.1816 255.608 20.1816C255.204 20.1816 254.889 20.2974 254.663 20.5288C254.44 20.7573 254.329 21.0767 254.329 21.4868H253.516C253.516 20.8979 253.705 20.4219 254.083 20.0586C254.464 19.6953 254.972 19.5137 255.608 19.5137C256.203 19.5137 256.673 19.6704 257.019 19.9839C257.364 20.2944 257.537 20.709 257.537 21.2275C257.537 21.8574 257.136 22.6074 256.333 23.4775L254.619 25.3364H257.832V26ZM262.705 23.271C262.705 24.2231 262.542 24.9307 262.217 25.3936C261.892 25.8564 261.384 26.0879 260.692 26.0879C260.01 26.0879 259.504 25.8623 259.176 25.4111C258.848 24.957 258.678 24.2803 258.667 23.3809V22.2954C258.667 21.355 258.829 20.6562 259.154 20.1992C259.479 19.7422 259.989 19.5137 260.684 19.5137C261.372 19.5137 261.879 19.7349 262.204 20.1772C262.529 20.6167 262.696 21.2964 262.705 22.2163V23.271ZM261.892 22.1592C261.892 21.4707 261.795 20.9697 261.602 20.6562C261.409 20.3398 261.103 20.1816 260.684 20.1816C260.268 20.1816 259.964 20.3384 259.774 20.6519C259.583 20.9653 259.485 21.4473 259.479 22.0977V23.3984C259.479 24.0898 259.579 24.6011 259.778 24.9321C259.98 25.2603 260.285 25.4243 260.692 25.4243C261.094 25.4243 261.391 25.269 261.584 24.9585C261.781 24.6479 261.883 24.1587 261.892 23.4907V22.1592Z" fill="white"/>
<path d="M206.253 9.87891H300.015V10.3184H206.253V9.87891Z" fill="white"/>
<path d="M76.5967 26.8789H173.457V27.3184H76.5967V26.8789ZM195.627 26.8789H231.456V27.3184H195.627V26.8789Z" fill="white"/>
<path fill-rule="evenodd" clip-rule="evenodd" d="M366.508 14.423C366.15 14.4833 365.901 14.61 365.636 14.8672L365.514 14.9854V14.7455V14.5056H364.844H364.175L364.178 17.4023L364.181 20.2989L364.847 20.3021L365.514 20.3054V19.2578V18.2102L365.598 18.3012C366.151 18.8997 367.148 18.9761 367.816 18.4713C368.886 17.6635 368.855 15.4239 367.765 14.7038C367.405 14.4662 366.91 14.3555 366.508 14.423ZM370.98 14.4193C369.669 14.5668 368.835 15.7093 369.061 17.0463C369.295 18.4343 370.78 19.159 372.337 18.6459C372.64 18.546 373.07 18.306 373.054 18.2454C373.049 18.2274 372.507 17.4242 372.499 17.4242C372.496 17.4242 372.461 17.4485 372.42 17.4782C371.705 18.0056 370.609 17.7917 370.424 17.0885L370.407 17.0233H371.902H373.398L373.39 16.7321C373.352 15.2043 372.37 14.2627 370.98 14.4193ZM382.555 14.4183C381.26 14.5814 380.442 15.6718 380.631 16.9795C380.831 18.3543 382.164 19.096 383.725 18.7005C384.104 18.6044 384.665 18.3224 384.634 18.243C384.628 18.2261 384.108 17.4539 384.089 17.4325C384.084 17.4268 384.044 17.4485 384 17.4809C383.276 18.015 382.162 17.78 381.995 17.0578L381.987 17.0233H383.484H384.981L384.973 16.7384C384.948 15.8574 384.673 15.2395 384.116 14.8138C383.718 14.51 383.09 14.3508 382.555 14.4183ZM373.524 14.5337C373.528 14.5493 373.807 15.4921 374.143 16.6288L374.754 18.6956L375.474 18.6988L376.194 18.702L376.232 18.5798C376.252 18.5125 376.425 17.939 376.615 17.3052C377.017 15.9626 376.971 16.1102 376.983 16.134C376.988 16.1443 377.167 16.7264 377.379 17.4273L377.766 18.7018H378.485H379.205L379.715 16.9764C379.995 16.0274 380.274 15.0832 380.335 14.8783L380.446 14.5056L379.756 14.5057L379.067 14.5058L378.736 15.7833C378.553 16.486 378.401 17.0609 378.398 17.0609C378.394 17.0609 378.208 16.4874 377.983 15.7864L377.575 14.5119L376.982 14.5086L376.388 14.5054L375.984 15.7675C375.762 16.4617 375.576 17.0378 375.57 17.0478C375.558 17.0714 375.583 17.1642 375.209 15.7394L374.887 14.5119L374.201 14.5086L373.516 14.5055L373.524 14.5337ZM371.497 15.4644C371.807 15.5274 372.118 15.8671 372.118 16.1417C372.118 16.1563 371.982 16.1591 371.254 16.1591H370.39L370.399 16.1184C370.504 15.6173 370.948 15.3528 371.497 15.4644ZM383.082 15.4665C383.403 15.5377 383.636 15.787 383.694 16.1184L383.701 16.1591H382.838C382.108 16.1591 381.975 16.1564 381.975 16.1416C381.975 16.132 381.987 16.0855 382.001 16.0382C382.141 15.5802 382.571 15.353 383.082 15.4665ZM366.554 15.6144C367.146 15.7656 367.422 16.537 367.105 17.154C366.824 17.7022 366.06 17.784 365.579 17.3174L365.514 17.2536V16.6111V15.9685L365.552 15.9204C365.748 15.6722 366.218 15.5287 366.554 15.6144Z" fill="#FCFBFB"/>
<path fill-rule="evenodd" clip-rule="evenodd" d="M374.023 4.01058C368.216 4.22352 363.299 8.46722 362.218 14.1979C361.184 19.6774 363.896 25.1809 368.872 27.7019C370.193 28.3709 371.459 28.7532 373.05 28.963C373.304 28.9965 375.408 29.0147 375.721 28.9861C381.33 28.4731 386.001 24.0715 386.859 18.4893C387.02 17.4398 387.046 16.0221 386.922 15.0134C386.128 8.53348 380.545 3.7714 374.023 4.01058ZM367.077 14.4271C368.031 14.5806 368.596 15.3911 368.596 16.6042C368.596 17.8788 367.982 18.696 366.944 18.8032C366.438 18.8555 365.983 18.6961 365.63 18.343L365.513 18.226V19.2658V20.3056H364.844H364.175V17.4059V14.5061H364.844H365.513L365.513 14.741L365.513 14.9758L365.636 14.8568C366.024 14.4799 366.508 14.3355 367.077 14.4271ZM371.418 14.4064C372.639 14.4996 373.394 15.4065 373.394 16.7791V17.0363H371.905H370.416L370.424 17.0708C370.597 17.8096 371.704 18.0014 372.481 17.4273C372.5 17.4129 372.531 17.4528 372.787 17.8327L373.072 18.254L373.036 18.2842C372.522 18.7146 371.55 18.9172 370.761 18.7586C369.7 18.5455 369.016 17.7032 369.016 16.6105C369.016 15.4133 369.876 14.4918 371.074 14.406C371.142 14.4012 371.21 14.3963 371.224 14.3953C371.237 14.3943 371.325 14.3993 371.418 14.4064ZM382.993 14.4062C384.215 14.4943 384.977 15.4102 384.977 16.7889V17.0363H383.487H381.997L382.005 17.0682C382.184 17.7792 383.294 18.0058 383.996 17.4742C384.042 17.4392 384.084 17.4151 384.089 17.4207C384.094 17.4263 384.223 17.6157 384.375 17.8417L384.653 18.2525L384.613 18.2864C384.185 18.6526 383.361 18.8679 382.638 18.8018C381.405 18.689 380.599 17.8205 380.599 16.604C380.599 15.3851 381.462 14.4858 382.713 14.4015C382.744 14.3995 382.781 14.3968 382.794 14.3957C382.808 14.3945 382.898 14.3993 382.993 14.4062ZM374.895 14.5128C374.895 14.5241 375.558 17.0408 375.562 17.0449C375.564 17.0469 375.749 16.478 375.973 15.7806L376.379 14.5124L376.979 14.5091L377.58 14.5059L377.985 15.7711C378.208 16.467 378.394 17.0363 378.397 17.0363C378.401 17.0363 378.55 16.4741 378.728 15.7869C378.906 15.0997 379.054 14.5304 379.057 14.5218C379.063 14.5067 380.449 14.4965 380.449 14.5115C380.449 14.5153 379.364 18.1922 379.215 18.6929C379.209 18.7134 379.164 18.7148 378.485 18.7148H377.761L377.744 18.6553C377.574 18.077 376.977 16.1377 376.972 16.1496C376.969 16.1585 376.794 16.7379 376.583 17.4372L376.2 18.7085L375.483 18.7118C375.088 18.7136 374.761 18.7107 374.756 18.7055C374.751 18.7003 374.473 17.7688 374.139 16.6355C373.804 15.5022 373.525 14.5595 373.519 14.5406L373.508 14.5061H374.201C374.583 14.5061 374.895 14.5091 374.895 14.5128ZM371.036 15.465C370.728 15.5323 370.407 15.8687 370.405 16.1251C370.404 16.1458 370.453 16.147 371.255 16.147C372.23 16.147 372.125 16.1639 372.079 16.0137C371.952 15.5966 371.506 15.3623 371.036 15.465ZM382.626 15.4635C382.312 15.5299 382.079 15.7563 381.996 16.0754L381.977 16.147H382.834H383.692L383.683 16.1C383.599 15.6415 383.127 15.3571 382.626 15.4635ZM366.084 15.6211C365.891 15.6701 365.672 15.7951 365.565 15.9167L365.513 15.9752V16.6063V17.2373L365.566 17.2949C365.856 17.6089 366.376 17.7069 366.743 17.5164C367.356 17.1986 367.396 16.1292 366.81 15.7367C366.618 15.6082 366.321 15.5609 366.084 15.6211Z" fill="#FC4404"/>
<path fill-rule="evenodd" clip-rule="evenodd" d="M374.123 4.00574C374.156 4.00837 374.207 4.00831 374.236 4.00568C374.265 4.00304 374.238 4.00092 374.176 4.00098C374.114 4.00104 374.09 4.00317 374.123 4.00574ZM374.786 4.00574C374.819 4.00837 374.87 4.00831 374.899 4.00568C374.928 4.00304 374.901 4.00092 374.839 4.00098C374.777 4.00104 374.753 4.00317 374.786 4.00574ZM373.829 4.01789C373.845 4.02089 373.867 4.02077 373.879 4.01764C373.891 4.01451 373.878 4.01206 373.851 4.01219C373.823 4.01238 373.814 4.01494 373.829 4.01789ZM375.142 4.01789C375.158 4.02089 375.181 4.02077 375.192 4.01764C375.204 4.01451 375.192 4.01206 375.164 4.01219C375.137 4.01238 375.127 4.01494 375.142 4.01789ZM366.007 7.33154L365.97 7.37225L366.011 7.33549C366.049 7.30117 366.057 7.29083 366.048 7.29083C366.045 7.29083 366.027 7.30912 366.007 7.33154ZM382.963 7.29478C382.963 7.29691 382.982 7.31526 383.004 7.33549L383.045 7.37225L383.008 7.33154C382.974 7.29359 382.963 7.28507 382.963 7.29478ZM365.695 7.62765C365.612 7.70957 365.531 7.79274 365.514 7.81241C365.497 7.83214 365.566 7.76656 365.667 7.6668C365.769 7.56696 365.851 7.48386 365.851 7.48204C365.851 7.47283 365.833 7.48999 365.695 7.62765ZM383.339 7.65809C383.438 7.75924 383.522 7.84197 383.525 7.84197C383.537 7.84197 383.279 7.57993 383.201 7.51229C383.177 7.49137 383.239 7.55701 383.339 7.65809ZM365.319 8.02046L365.282 8.06117L365.323 8.02441C365.361 7.99009 365.369 7.97975 365.36 7.97975C365.357 7.97975 365.339 7.99804 365.319 8.02046ZM383.651 7.9837C383.651 7.98583 383.67 8.00418 383.692 8.02441L383.733 8.06117L383.696 8.02046C383.662 7.98251 383.651 7.97399 383.651 7.9837ZM366.737 14.4018C366.752 14.4048 366.775 14.4047 366.787 14.4016C366.799 14.3984 366.786 14.396 366.758 14.3961C366.731 14.3963 366.721 14.3989 366.737 14.4018ZM371.221 14.4019C371.24 14.4048 371.271 14.4048 371.29 14.4019C371.309 14.3991 371.293 14.3968 371.255 14.3968C371.217 14.3968 371.202 14.3991 371.221 14.4019ZM382.791 14.4019C382.81 14.4048 382.841 14.4048 382.86 14.4019C382.879 14.3991 382.864 14.3968 382.826 14.3968C382.788 14.3968 382.773 14.3991 382.791 14.4019ZM366.292 15.5916C366.304 15.5947 366.324 15.5947 366.336 15.5916C366.348 15.5885 366.338 15.5858 366.314 15.5858C366.29 15.5858 366.28 15.5885 366.292 15.5916ZM362.015 15.8585C362.015 15.8895 362.017 15.9022 362.02 15.8867C362.023 15.8712 362.023 15.8459 362.02 15.8303C362.017 15.8149 362.015 15.8275 362.015 15.8585ZM362.003 16.1842C362.003 16.2427 362.005 16.2667 362.008 16.2374C362.01 16.2082 362.01 16.1603 362.008 16.131C362.005 16.1017 362.003 16.1256 362.003 16.1842ZM370.403 16.1498C370.408 16.1551 370.795 16.1579 371.262 16.1561L372.112 16.1529L371.253 16.1466C370.78 16.1432 370.398 16.1446 370.403 16.1498ZM382.405 16.156C382.644 16.1579 383.033 16.1579 383.268 16.156C383.503 16.1541 383.307 16.1526 382.832 16.1526C382.357 16.1526 382.165 16.1541 382.405 16.156ZM362.003 16.8606C362.003 16.9191 362.005 16.9431 362.008 16.9138C362.01 16.8845 362.01 16.8367 362.008 16.8074C362.005 16.778 362.003 16.802 362.003 16.8606ZM371.158 17.0328C371.569 17.0346 372.242 17.0346 372.653 17.0328C373.064 17.031 372.728 17.0295 371.906 17.0295C371.084 17.0295 370.747 17.031 371.158 17.0328ZM382.741 17.0328C383.152 17.0346 383.825 17.0346 384.236 17.0328C384.647 17.031 384.311 17.0295 383.489 17.0295C382.667 17.0295 382.33 17.031 382.741 17.0328ZM362.015 17.1863C362.015 17.2173 362.017 17.2299 362.02 17.2144C362.023 17.199 362.023 17.1735 362.02 17.1581C362.017 17.1426 362.015 17.1553 362.015 17.1863ZM371.427 17.7715C371.449 17.7743 371.489 17.7743 371.515 17.7716C371.54 17.7689 371.522 17.7666 371.474 17.7666C371.426 17.7665 371.405 17.7687 371.427 17.7715ZM383.01 17.7715C383.033 17.7743 383.069 17.7743 383.092 17.7715C383.114 17.7687 383.096 17.7665 383.051 17.7665C383.006 17.7665 382.988 17.7687 383.01 17.7715ZM365.626 18.3418C365.656 18.3745 365.683 18.4013 365.685 18.4013C365.695 18.4013 365.685 18.39 365.629 18.3381L365.57 18.2823L365.626 18.3418ZM375.477 18.7019L374.751 18.7085L375.473 18.7114C375.944 18.7134 376.197 18.71 376.202 18.7019C376.207 18.695 376.208 18.6907 376.206 18.6924C376.204 18.694 375.876 18.6983 375.477 18.7019ZM378.119 18.7113C378.321 18.7132 378.65 18.7132 378.851 18.7113C379.052 18.7093 378.888 18.7078 378.485 18.7078C378.083 18.7078 377.918 18.7093 378.119 18.7113ZM371.433 18.8107C371.445 18.8139 371.465 18.8139 371.477 18.8107C371.489 18.8076 371.479 18.805 371.455 18.805C371.431 18.805 371.421 18.8076 371.433 18.8107ZM383.017 18.8107C383.029 18.8139 383.048 18.8139 383.06 18.8107C383.072 18.8076 383.063 18.805 383.039 18.805C383.014 18.805 383.005 18.8076 383.017 18.8107ZM365.288 24.9938C365.288 24.9959 365.307 25.0143 365.329 25.0345L365.37 25.0713L365.333 25.0306C365.299 24.9926 365.288 24.9841 365.288 24.9938ZM383.682 25.0306L383.645 25.0713L383.686 25.0345C383.724 25.0002 383.732 24.9899 383.723 24.9899C383.72 24.9899 383.702 25.0082 383.682 25.0306ZM365.51 25.231C365.567 25.2941 365.765 25.4907 365.814 25.5327C365.838 25.5535 365.773 25.485 365.67 25.3804C365.493 25.2006 365.428 25.1404 365.51 25.231ZM383.345 25.3804C383.242 25.485 383.177 25.5535 383.201 25.5327C383.282 25.4628 383.549 25.1903 383.537 25.1903C383.534 25.1903 383.448 25.2758 383.345 25.3804ZM365.976 25.6827C365.976 25.6849 365.995 25.7032 366.017 25.7234L366.058 25.7602L366.021 25.7195C365.987 25.6815 365.976 25.673 365.976 25.6827ZM382.994 25.7195L382.957 25.7602L382.998 25.7234C383.036 25.6891 383.044 25.6788 383.035 25.6788C383.032 25.6788 383.014 25.6971 382.994 25.7195Z" fill="#FC7C4F"/>
<path fill-rule="evenodd" clip-rule="evenodd" d="M373.991 4.00545C374.007 4.00845 374.032 4.00845 374.047 4.00545C374.063 4.00244 374.05 4 374.019 4C373.988 4 373.976 4.00244 373.991 4.00545ZM374.967 4.00545C374.982 4.00845 375.008 4.00845 375.023 4.00545C375.039 4.00244 375.026 4 374.995 4C374.964 4 374.951 4.00244 374.967 4.00545ZM373.741 4.01797C373.757 4.02098 373.779 4.02086 373.791 4.01772C373.803 4.01459 373.79 4.01215 373.763 4.01228C373.735 4.01246 373.726 4.01503 373.741 4.01797ZM375.23 4.01797C375.245 4.02098 375.268 4.02086 375.28 4.01772C375.292 4.01459 375.279 4.01215 375.251 4.01228C375.224 4.01246 375.214 4.01503 375.23 4.01797ZM366.082 7.25647L366.045 7.29718L366.086 7.26042C366.123 7.2261 366.132 7.21576 366.122 7.21576C366.12 7.21576 366.102 7.23405 366.082 7.25647ZM382.888 7.21971C382.888 7.22184 382.906 7.24019 382.929 7.26042L382.969 7.29718L382.933 7.25647C382.898 7.21852 382.888 7.21 382.888 7.21971ZM365.907 7.41931L365.845 7.48507L365.91 7.42294C365.972 7.36513 365.982 7.35355 365.973 7.35355C365.971 7.35355 365.941 7.38317 365.907 7.41931ZM383.094 7.41618C383.128 7.45062 383.159 7.47881 383.162 7.47881C383.166 7.47881 383.141 7.45062 383.107 7.41618C383.073 7.38173 383.043 7.35355 383.039 7.35355C383.036 7.35355 383.061 7.38173 383.094 7.41618ZM365.419 7.90782L365.357 7.97358L365.423 7.91145C365.459 7.87725 365.488 7.84763 365.488 7.84569C365.488 7.83629 365.477 7.84669 365.419 7.90782ZM383.582 7.90469C383.616 7.93913 383.647 7.96731 383.65 7.96731C383.654 7.96731 383.629 7.93913 383.595 7.90469C383.561 7.87024 383.53 7.84206 383.527 7.84206C383.524 7.84206 383.548 7.87024 383.582 7.90469ZM381.224 15.0382C381.194 15.0692 381.172 15.0945 381.175 15.0945C381.179 15.0945 381.206 15.0692 381.237 15.0382C381.267 15.0072 381.289 14.9818 381.286 14.9818C381.282 14.9818 381.255 15.0072 381.224 15.0382ZM362.014 15.7709C362.014 15.795 362.016 15.8049 362.019 15.7928C362.023 15.7808 362.023 15.7611 362.019 15.749C362.016 15.737 362.014 15.7468 362.014 15.7709ZM362.002 16.034C362.002 16.065 362.004 16.0776 362.007 16.0622C362.01 16.0467 362.01 16.0213 362.007 16.0058C362.004 15.9903 362.002 16.003 362.002 16.034ZM362.002 17.011C362.002 17.042 362.004 17.0547 362.007 17.0392C362.01 17.0237 362.01 16.9983 362.007 16.9828C362.004 16.9673 362.002 16.98 362.002 17.011ZM362.014 17.274C362.014 17.2981 362.016 17.308 362.019 17.2959C362.023 17.2839 362.023 17.2642 362.019 17.2521C362.016 17.24 362.014 17.2499 362.014 17.274ZM365.213 24.9187C365.213 24.9209 365.231 24.9392 365.254 24.9595L365.294 24.9962L365.258 24.9555C365.223 24.9176 365.213 24.909 365.213 24.9187ZM365.413 25.1309C365.443 25.1636 365.47 25.1904 365.472 25.1904C365.482 25.1904 365.472 25.1791 365.416 25.1272L365.357 25.0714L365.413 25.1309ZM383.589 25.134C383.558 25.165 383.536 25.1904 383.54 25.1904C383.543 25.1904 383.571 25.165 383.601 25.134C383.631 25.103 383.653 25.0776 383.65 25.0776C383.647 25.0776 383.619 25.103 383.589 25.134ZM365.914 25.635C365.951 25.6729 365.984 25.7039 365.988 25.7039C365.991 25.7039 365.963 25.6729 365.926 25.635C365.889 25.5971 365.855 25.5661 365.852 25.5661C365.848 25.5661 365.876 25.5971 365.914 25.635ZM383.088 25.6382L383.019 25.7102L383.091 25.6417C383.131 25.6041 383.163 25.5717 383.163 25.5697C383.163 25.5604 383.151 25.5713 383.088 25.6382Z" fill="#FC9470"/>
<path fill-rule="evenodd" clip-rule="evenodd" d="M365.619 14.8718L365.582 14.9125L365.623 14.8757C365.661 14.8414 365.669 14.8311 365.659 14.8311C365.657 14.8311 365.639 14.8494 365.619 14.8718ZM384.289 14.9603C384.289 14.9624 384.307 14.9807 384.33 15.001L384.37 15.0377L384.334 14.997C384.299 14.9591 384.289 14.9506 384.289 14.9603ZM371.221 15.4413C371.24 15.4441 371.268 15.4441 371.283 15.4411C371.299 15.4381 371.283 15.4358 371.249 15.4359C371.214 15.436 371.202 15.4384 371.221 15.4413ZM382.804 15.4413C382.823 15.4441 382.851 15.4441 382.866 15.4411C382.882 15.4381 382.866 15.4358 382.832 15.4359C382.797 15.436 382.785 15.4384 382.804 15.4413ZM383.426 15.6367C383.426 15.6388 383.444 15.6571 383.467 15.6774L383.507 15.7141L383.471 15.6734C383.436 15.6355 383.426 15.6269 383.426 15.6367ZM365.581 15.8864L365.545 15.9271L365.585 15.8903C365.623 15.856 365.632 15.8456 365.622 15.8456C365.62 15.8456 365.601 15.864 365.581 15.8864ZM368.595 16.6035C368.595 16.6861 368.597 16.7183 368.6 16.675C368.602 16.6316 368.602 16.564 368.6 16.5247C368.597 16.4853 368.595 16.5208 368.595 16.6035ZM369.019 16.5095C369.019 16.5336 369.021 16.5435 369.024 16.5314C369.028 16.5194 369.028 16.4996 369.024 16.4876C369.021 16.4756 369.019 16.4854 369.019 16.5095ZM367.23 16.5972C367.23 16.6282 367.233 16.6409 367.236 16.6254C367.239 16.6099 367.239 16.5845 367.236 16.569C367.233 16.5535 367.23 16.5662 367.23 16.5972ZM369.019 16.7037C369.019 16.7312 369.022 16.741 369.025 16.7255C369.028 16.7099 369.027 16.6873 369.024 16.6754C369.021 16.6633 369.019 16.6761 369.019 16.7037ZM382.225 17.4677C382.248 17.4919 382.27 17.5116 382.274 17.5116C382.277 17.5116 382.261 17.4919 382.238 17.4677C382.214 17.4436 382.192 17.4239 382.189 17.4239C382.185 17.4239 382.202 17.4436 382.225 17.4677ZM366.724 18.8108C366.746 18.8136 366.78 18.8136 366.799 18.8107C366.818 18.8078 366.799 18.8056 366.758 18.8056C366.717 18.8057 366.701 18.808 366.724 18.8108ZM371.264 18.8109C371.293 18.8136 371.341 18.8136 371.371 18.8109C371.4 18.8083 371.376 18.8061 371.317 18.8061C371.259 18.8061 371.235 18.8083 371.264 18.8109ZM382.847 18.8109C382.877 18.8136 382.924 18.8136 382.954 18.8109C382.983 18.8083 382.959 18.8061 382.901 18.8061C382.842 18.8061 382.818 18.8083 382.847 18.8109Z" fill="#FCA484"/>
</svg>
