<svg width="30" height="30" viewBox="0 0 30 30" fill="none" xmlns="http://www.w3.org/2000/svg">
<path d="M15.0586 0C6.81445 0 0 6.69727 0 14.9414C0 23.1855 6.81445 30 15.0586 30C23.3027 30 30 23.1855 30 14.9414C30 6.69727 23.3027 0 15.0586 0Z" fill="#FF4200"/>
<path d="M30 14.9414C30 23.1855 23.3027 30 15.0586 30V0C23.3027 0 30 6.69727 30 14.9414Z" fill="#FF4200"/>
<path d="M26.4844 14.9414C26.4844 17.9824 25.2891 20.9824 23.127 23.1269C22.8105 23.4609 22.2305 23.4609 21.8965 23.1269L20.6484 21.8965C19.8223 21.0703 21.0703 19.8398 21.8965 20.6484L22.4941 21.246C23.7422 19.7343 24.4805 17.7714 24.6563 15.8203H23.8477C23.3554 15.8203 22.9688 15.4335 22.9688 14.9413C22.9688 14.4491 23.3554 14.0624 23.8477 14.0624H24.6738C24.2695 9.43945 20.5605 5.73047 15.9375 5.32611V6.15234C15.9375 6.64447 15.5508 7.03125 15.0586 7.03125C14.5663 7.03125 14.1797 6.64447 14.1797 6.15234V5.32611C12.1758 5.50195 10.2305 6.29291 8.75385 7.52338L9.35156 8.10352C9.68555 8.45508 9.68555 9 9.35156 9.35162C9 9.70312 8.45508 9.70312 8.10346 9.35162L7.52344 8.75391C6.29297 10.2305 5.50189 12.0586 5.32617 14.0626H6.15234C6.64459 14.0626 7.03125 14.4492 7.03125 14.9415C7.03125 15.4336 6.64459 15.8204 6.15234 15.8204H5.34369C5.51953 17.7715 6.25781 19.7344 7.50586 21.2461L8.10352 20.6484C8.45508 20.2969 9 20.3145 9.35162 20.6484C9.68561 21 9.68561 21.5449 9.35162 21.8965L8.10352 23.1445C7.76953 23.4785 7.20703 23.4785 6.85553 23.1445C4.71094 20.9824 3.51562 18 3.51562 14.9414C3.51562 8.6308 8.7832 3.51562 15.0586 3.51562C21.3516 3.51562 26.4844 8.64838 26.4844 14.9414Z" fill="#FFEEE8"/>
<path d="M26.4844 14.9414C26.4844 17.9824 25.2891 20.9824 23.127 23.1269C22.8105 23.4609 22.2305 23.4609 21.8965 23.1269L20.6484 21.8965C19.8223 21.0703 21.0703 19.8398 21.8965 20.6484L22.4941 21.246C23.7422 19.7343 24.4805 17.7714 24.6563 15.8203H23.8477C23.3554 15.8203 22.9688 15.4335 22.9688 14.9413C22.9688 14.4491 23.3554 14.0624 23.8477 14.0624H24.6738C24.2695 9.43945 20.5605 5.73047 15.9375 5.32611V6.15234C15.9375 6.64447 15.5508 7.03125 15.0586 7.03125V3.51562C21.3516 3.51562 26.4844 8.64838 26.4844 14.9414Z" fill="#FFEEE8"/>
<path d="M16.8164 21.2109H13.3008C11.8417 21.2109 10.5469 22.3886 10.5469 23.8477C10.5469 25.3066 11.8417 26.4844 13.3008 26.4844H16.8164C18.2754 26.4844 19.4531 25.3066 19.4531 23.8477C19.4531 22.3886 18.2754 21.2109 16.8164 21.2109Z" fill="#FFEEE8"/>
<path d="M23.1261 6.873C22.8272 6.55659 22.3527 6.52144 22.0011 6.76753L15.0577 11.707L13.5109 12.7968C11.1202 14.6074 12.9307 17.5606 15.0577 17.6132C15.796 17.6484 16.5695 17.3145 17.2198 16.4707L23.2316 7.99806C23.4775 7.64644 23.4425 7.17183 23.1261 6.873Z" fill="#FFA281"/>
<path d="M19.4531 23.8477C19.4531 25.3066 18.2754 26.4844 16.8164 26.4844H15.0586V21.2109H16.8164C18.2754 21.2109 19.4531 22.3886 19.4531 23.8477Z" fill="#FFEEE8"/>
<path d="M23.2325 7.99806L17.2206 16.4707C16.5703 17.3144 15.7968 17.6484 15.0586 17.6132V11.707L22.002 6.76753C22.3535 6.52144 22.8281 6.55659 23.127 6.873C23.4434 7.17183 23.4785 7.64644 23.2325 7.99806Z" fill="#FFA281"/>
</svg>
