<svg width="30" height="30" viewBox="0 0 30 30" fill="none" xmlns="http://www.w3.org/2000/svg">
<circle cx="15" cy="15" r="15" fill="#F09020"/>
<path fill-rule="evenodd" clip-rule="evenodd" d="M19.4015 9.40144C19.6587 9.14521 20.0059 9.00101 20.368 9.00001C20.7301 8.999 21.0781 9.14128 21.3366 9.39608C21.5952 9.65088 21.7436 9.99773 21.7498 10.3616C21.756 10.7255 21.6194 11.0773 21.3696 11.3408L14.0338 20.5573C13.9077 20.6938 13.7556 20.8033 13.5864 20.8793C13.4172 20.9553 13.2346 20.9963 13.0493 20.9998C12.864 21.0032 12.68 20.9691 12.5081 20.8994C12.3363 20.8297 12.1802 20.7259 12.0492 20.5942L7.18866 15.7071C7.05325 15.5803 6.94464 15.4273 6.86931 15.2574C6.79398 15.0875 6.75348 14.904 6.75021 14.718C6.74695 14.5321 6.78099 14.3473 6.85031 14.1748C6.91963 14.0023 7.0228 13.8456 7.15367 13.7141C7.28454 13.5826 7.44044 13.4789 7.61205 13.4092C7.78366 13.3395 7.96748 13.3053 8.15253 13.3086C8.33759 13.3119 8.52009 13.3526 8.68915 13.4283C8.85821 13.504 9.01036 13.6132 9.13654 13.7493L12.9845 17.615L19.3666 9.44208C19.378 9.42777 19.3903 9.4142 19.4034 9.40144H19.4015Z" fill="white"/>
</svg>
