<svg width="50" height="50" viewBox="0 0 50 50" fill="none" xmlns="http://www.w3.org/2000/svg">
<path d="M42.6777 7.32236C37.9557 2.60049 31.6777 0 25.0001 0C18.3223 0 12.0442 2.60049 7.32233 7.32236C2.60058 12.0442 9.76559e-05 18.3223 0 25C9.76559e-05 31.6778 2.60058 37.9559 7.32233 42.6777C12.0441 47.3996 18.3221 50 24.9998 50C31.6776 50 37.9557 47.3995 42.6776 42.6777C47.3994 37.956 49.9999 31.6778 49.9999 25C50 18.3223 47.3995 12.0442 42.6777 7.32236V7.32236Z" fill="#FF0059"/>
<path d="M49.9999 25C49.9999 18.3223 47.3994 12.0442 42.6776 7.32236C37.9556 2.60049 31.6776 0 25 0V50C31.6777 49.9999 37.9557 47.3994 42.6776 42.6777C47.3994 37.9559 49.9999 31.6778 49.9999 25Z" fill="#FF0059"/>
<path d="M31.5112 24.9998L36.0225 20.4884C36.8919 19.6193 37.3708 18.4634 37.3708 17.2338C37.3708 16.0042 36.8921 14.8483 36.0227 13.979C35.1532 13.1097 33.9975 12.6309 32.768 12.6309C31.5384 12.6309 30.3825 13.1096 29.5135 13.979L25.002 18.4906L20.4904 13.979C19.6211 13.1097 18.4652 12.6309 17.2357 12.6309C16.0063 12.6309 14.8504 13.1096 13.9809 13.979C13.1116 14.8483 12.6328 16.0043 12.6328 17.2338C12.6329 18.4634 13.1117 19.6192 13.9811 20.488L18.4928 24.9998L13.9809 29.5115C12.1864 31.3064 12.1865 34.2266 13.981 36.0209C14.8503 36.8902 16.0061 37.369 17.2355 37.369C18.4653 37.369 19.6214 36.89 20.4903 36.0205L25.0018 31.5091L29.5134 36.0208C30.3826 36.8902 31.5385 37.369 32.7681 37.369C33.9976 37.369 35.1534 36.8903 36.0226 36.021C37.8174 34.2265 37.8176 31.3062 36.0229 29.5113L31.5112 24.9998Z" fill="white"/>
<path d="M32.7661 37.3689C33.9956 37.3689 35.1515 36.8902 36.0206 36.0209C37.8154 34.2263 37.8156 31.3061 36.0209 29.5112L31.5093 24.9996L36.0205 20.4883C36.8899 19.6191 37.3688 18.4633 37.3688 17.2337C37.3688 16.0041 36.8901 14.8482 36.0207 13.9789C35.1513 13.1095 33.9955 12.6307 32.766 12.6307C31.5364 12.6307 30.3806 13.1095 29.5115 13.9789L25 18.4904V31.5092L29.5114 36.0208C30.3808 36.8902 31.5366 37.3689 32.7661 37.3689V37.3689Z" fill="white"/>
</svg>
