<svg width="50" height="50" viewBox="0 0 50 50" fill="none" xmlns="http://www.w3.org/2000/svg">
<path d="M42.6777 7.32236C37.9557 2.60049 31.6777 0 25.0001 0C18.3223 0 12.0442 2.60049 7.32233 7.32236C2.60058 12.0442 9.76559e-05 18.3223 0 25C9.76559e-05 31.6778 2.60058 37.9559 7.32233 42.6777C12.0441 47.3996 18.3221 50 24.9998 50C31.6776 50 37.9557 47.3995 42.6776 42.6777C47.3994 37.956 49.9999 31.6778 49.9999 25C50 18.3223 47.3995 12.0442 42.6777 7.32236Z" fill="#FF5B5B"/>
<path d="M49.9999 25C49.9999 18.3223 47.3994 12.0442 42.6776 7.32236C37.9556 2.60049 31.6776 0 25 0V50C31.6777 49.9999 37.9557 47.3994 42.6776 42.6777C47.3994 37.9559 49.9999 31.6778 49.9999 25Z" fill="#FF0059"/>
<path d="M31.5103 24.9998L36.0215 20.4884C36.8909 19.6193 37.3698 18.4634 37.3698 17.2338C37.3698 16.0042 36.8911 14.8483 36.0217 13.979C35.1523 13.1097 33.9965 12.6309 32.767 12.6309C31.5374 12.6309 30.3815 13.1096 29.5125 13.979L25.001 18.4906L20.4895 13.979C19.6201 13.1097 18.4643 12.6309 17.2348 12.6309C16.0053 12.6309 14.8494 13.1096 13.9799 13.979C13.1106 14.8483 12.6318 16.0043 12.6318 17.2338C12.6319 18.4634 13.1107 19.6192 13.9801 20.488L18.4918 24.9998L13.9799 29.5115C12.1854 31.3064 12.1855 34.2266 13.98 36.0209C14.8493 36.8902 16.0051 37.369 17.2346 37.369C18.4644 37.369 19.6204 36.89 20.4894 36.0205L25.0008 31.5091L29.5124 36.0208C30.3816 36.8902 31.5375 37.369 32.7671 37.369C33.9966 37.369 35.1524 36.8903 36.0216 36.021C37.8164 34.2265 37.8166 31.3062 36.0219 29.5113L31.5103 24.9998Z" fill="#E7F0EF"/>
<path d="M32.7661 37.369C33.9956 37.369 35.1515 36.8903 36.0206 36.021C37.8154 34.2265 37.8156 31.3062 36.0209 29.5113L31.5093 24.9998L36.0205 20.4884C36.8899 19.6193 37.3688 18.4634 37.3688 17.2338C37.3688 16.0042 36.8901 14.8483 36.0207 13.979C35.1513 13.1097 33.9955 12.6309 32.766 12.6309C31.5364 12.6309 30.3806 13.1096 29.5115 13.979L25 18.4906V31.5094L29.5114 36.0209C30.3808 36.8903 31.5366 37.369 32.7661 37.369Z" fill="#C5E1E6"/>
</svg>
