<svg width="189" height="90" viewBox="0 0 189 90" fill="none" xmlns="http://www.w3.org/2000/svg">
<rect x="0.25" y="0.25" width="188.5" height="89.5" rx="4.75" fill="#303030" stroke="#BABABA" stroke-width="0.5"/>
<path d="M0.25 5C0.25 2.37665 2.37665 0.25 5 0.25H184C186.623 0.25 188.75 2.37665 188.75 5V39.75H0.25V5Z" fill="#404040" stroke="#BABABA" stroke-width="0.5"/>
<path d="M45.7266 20.5312C45.7266 19.6367 45.8457 18.7852 46.084 17.9766C46.3223 17.168 46.6738 16.4531 47.1387 15.832C47.6035 15.207 48.1074 14.7734 48.6504 14.5312L48.9785 15.4453C48.4082 15.8672 47.9629 16.5195 47.6426 17.4023C47.3223 18.2852 47.1621 19.3164 47.1621 20.4961V20.6777C47.1621 21.8613 47.3203 22.8965 47.6367 23.7832C47.9531 24.6699 48.4004 25.332 48.9785 25.7695L48.6504 26.666C48.1191 26.4277 47.623 26.0059 47.1621 25.4004C46.7051 24.7988 46.3555 24.1035 46.1133 23.3145C45.8711 22.5254 45.7422 21.7012 45.7266 20.8418V20.5312ZM55.541 20.4727C55.541 21.6523 55.2969 22.5547 54.8086 23.1797C54.3203 23.8047 53.6055 24.1172 52.6641 24.1172C51.7344 24.1172 51.0234 23.8105 50.5312 23.1973C50.0391 22.584 49.7871 21.7051 49.7754 20.5605V18.9902C49.7754 17.7988 50.0215 16.8945 50.5137 16.2773C51.0098 15.6602 51.7227 15.3516 52.6523 15.3516C53.582 15.3516 54.293 15.6582 54.7852 16.2715C55.2773 16.8809 55.5293 17.7578 55.541 18.9023V20.4727ZM53.8477 18.75C53.8477 18.043 53.75 17.5293 53.5547 17.209C53.3633 16.8848 53.0625 16.7227 52.6523 16.7227C52.2539 16.7227 51.959 16.877 51.7676 17.1855C51.5801 17.4902 51.4805 17.9688 51.4688 18.6211V20.6953C51.4688 21.3906 51.5625 21.9082 51.75 22.248C51.9414 22.584 52.2461 22.752 52.6641 22.752C53.0781 22.752 53.377 22.5898 53.5605 22.2656C53.7441 21.9414 53.8398 21.4453 53.8477 20.7773V18.75ZM62.5371 24H56.6895V22.8398L59.4492 19.8984C59.8281 19.4844 60.1074 19.123 60.2871 18.8145C60.4707 18.5059 60.5625 18.2129 60.5625 17.9355C60.5625 17.5566 60.4668 17.2598 60.2754 17.0449C60.084 16.8262 59.8105 16.7168 59.4551 16.7168C59.0723 16.7168 58.7695 16.8496 58.5469 17.1152C58.3281 17.377 58.2188 17.7227 58.2188 18.1523H56.5195C56.5195 17.6328 56.6426 17.1582 56.8887 16.7285C57.1387 16.2988 57.4902 15.9629 57.9434 15.7207C58.3965 15.4746 58.9102 15.3516 59.4844 15.3516C60.3633 15.3516 61.0449 15.5625 61.5293 15.9844C62.0176 16.4062 62.2617 17.002 62.2617 17.7715C62.2617 18.1934 62.1523 18.623 61.9336 19.0605C61.7148 19.498 61.3398 20.0078 60.8086 20.5898L58.8691 22.6348H62.5371V24ZM67.6934 24H66V17.4727L63.9785 18.0996V16.7227L67.5117 15.457H67.6934V24ZM73.459 20.666C73.459 21.5488 73.332 22.3984 73.0781 23.2148C72.8242 24.0312 72.459 24.752 71.9824 25.377C71.5059 26.002 70.9961 26.4316 70.4531 26.666L70.125 25.7695C70.6797 25.3516 71.1172 24.707 71.4375 23.8359C71.7578 22.9648 71.9238 21.9629 71.9355 20.8301V20.5195C71.9355 19.3516 71.7754 18.3223 71.4551 17.4316C71.1387 16.541 70.6953 15.873 70.125 15.4277L70.4531 14.5312C70.9844 14.7617 71.4844 15.1797 71.9531 15.7852C72.4258 16.3906 72.791 17.0957 73.0488 17.9004C73.3105 18.7051 73.4473 19.5391 73.459 20.4023V20.666ZM83.5371 24H77.6895V22.8398L80.4492 19.8984C80.8281 19.4844 81.1074 19.123 81.2871 18.8145C81.4707 18.5059 81.5625 18.2129 81.5625 17.9355C81.5625 17.5566 81.4668 17.2598 81.2754 17.0449C81.084 16.8262 80.8105 16.7168 80.4551 16.7168C80.0723 16.7168 79.7695 16.8496 79.5469 17.1152C79.3281 17.377 79.2188 17.7227 79.2188 18.1523H77.5195C77.5195 17.6328 77.6426 17.1582 77.8887 16.7285C78.1387 16.2988 78.4902 15.9629 78.9434 15.7207C79.3965 15.4746 79.9102 15.3516 80.4844 15.3516C81.3633 15.3516 82.0449 15.5625 82.5293 15.9844C83.0176 16.4062 83.2617 17.002 83.2617 17.7715C83.2617 18.1934 83.1523 18.623 82.9336 19.0605C82.7148 19.498 82.3398 20.0078 81.8086 20.5898L79.8691 22.6348H83.5371V24ZM88.541 20.5898C88.0996 21.0234 87.584 21.2402 86.9941 21.2402C86.2402 21.2402 85.6367 20.9824 85.1836 20.4668C84.7305 19.9473 84.5039 19.248 84.5039 18.3691C84.5039 17.8105 84.625 17.2988 84.8672 16.834C85.1133 16.3652 85.4551 16.002 85.8926 15.7441C86.3301 15.4824 86.8223 15.3516 87.3691 15.3516C87.9316 15.3516 88.4316 15.4922 88.8691 15.7734C89.3066 16.0547 89.6465 16.459 89.8887 16.9863C90.1309 17.5137 90.2539 18.1172 90.2578 18.7969V19.4238C90.2578 20.8457 89.9043 21.9629 89.1973 22.7754C88.4902 23.5879 87.4883 24.0215 86.1914 24.0762L85.7754 24.082V22.6699L86.1504 22.6641C87.623 22.5977 88.4199 21.9062 88.541 20.5898ZM87.4102 19.9453C87.6836 19.9453 87.918 19.875 88.1133 19.7344C88.3125 19.5938 88.4629 19.4238 88.5645 19.2246V18.5273C88.5645 17.9531 88.4551 17.5078 88.2363 17.1914C88.0176 16.875 87.7246 16.7168 87.3574 16.7168C87.0176 16.7168 86.7383 16.873 86.5195 17.1855C86.3008 17.4941 86.1914 17.8828 86.1914 18.3516C86.1914 18.8164 86.2969 19.1992 86.5078 19.5C86.7227 19.7969 87.0234 19.9453 87.4102 19.9453ZM93.1934 18.9844H94.0957C94.5254 18.9844 94.8438 18.877 95.0508 18.6621C95.2578 18.4473 95.3613 18.1621 95.3613 17.8066C95.3613 17.4629 95.2578 17.1953 95.0508 17.0039C94.8477 16.8125 94.5664 16.7168 94.207 16.7168C93.8828 16.7168 93.6113 16.8066 93.3926 16.9863C93.1738 17.1621 93.0645 17.3926 93.0645 17.6777H91.3711C91.3711 17.2324 91.4902 16.834 91.7285 16.4824C91.9707 16.127 92.3066 15.8496 92.7363 15.6504C93.1699 15.4512 93.6465 15.3516 94.166 15.3516C95.0684 15.3516 95.7754 15.5684 96.2871 16.002C96.7988 16.4316 97.0547 17.0254 97.0547 17.7832C97.0547 18.1738 96.9355 18.5332 96.6973 18.8613C96.459 19.1895 96.1465 19.4414 95.7598 19.6172C96.2402 19.7891 96.5977 20.0469 96.832 20.3906C97.0703 20.7344 97.1895 21.1406 97.1895 21.6094C97.1895 22.3672 96.9121 22.9746 96.3574 23.4316C95.8066 23.8887 95.0762 24.1172 94.166 24.1172C93.3145 24.1172 92.6172 23.8926 92.0742 23.4434C91.5352 22.9941 91.2656 22.4004 91.2656 21.6621H92.959C92.959 21.9824 93.0781 22.2441 93.3164 22.4473C93.5586 22.6504 93.8555 22.752 94.207 22.752C94.6094 22.752 94.9238 22.6465 95.1504 22.4355C95.3809 22.2207 95.4961 21.9375 95.4961 21.5859C95.4961 20.7344 95.0273 20.3086 94.0898 20.3086H93.1934V18.9844ZM103.922 17.7363C103.922 18.1504 103.818 18.5176 103.611 18.8379C103.404 19.1582 103.119 19.4141 102.756 19.6055C103.17 19.8047 103.498 20.0801 103.74 20.4316C103.982 20.7793 104.104 21.1895 104.104 21.6621C104.104 22.4199 103.846 23.0195 103.33 23.4609C102.814 23.8984 102.113 24.1172 101.227 24.1172C100.34 24.1172 99.6367 23.8965 99.1172 23.4551C98.5977 23.0137 98.3379 22.416 98.3379 21.6621C98.3379 21.1895 98.459 20.7773 98.7012 20.4258C98.9434 20.0742 99.2695 19.8008 99.6797 19.6055C99.3164 19.4141 99.0312 19.1582 98.8242 18.8379C98.6211 18.5176 98.5195 18.1504 98.5195 17.7363C98.5195 17.0098 98.7617 16.4316 99.2461 16.002C99.7305 15.5684 100.389 15.3516 101.221 15.3516C102.049 15.3516 102.705 15.5664 103.189 15.9961C103.678 16.4219 103.922 17.002 103.922 17.7363ZM102.404 21.5391C102.404 21.168 102.297 20.8711 102.082 20.6484C101.867 20.4258 101.578 20.3145 101.215 20.3145C100.855 20.3145 100.568 20.4258 100.354 20.6484C100.139 20.8672 100.031 21.1641 100.031 21.5391C100.031 21.9023 100.137 22.1953 100.348 22.418C100.559 22.6406 100.852 22.752 101.227 22.752C101.594 22.752 101.881 22.6445 102.088 22.4297C102.299 22.2148 102.404 21.918 102.404 21.5391ZM102.229 17.8184C102.229 17.4863 102.141 17.2207 101.965 17.0215C101.789 16.8184 101.541 16.7168 101.221 16.7168C100.904 16.7168 100.658 16.8145 100.482 17.0098C100.307 17.2051 100.219 17.4746 100.219 17.8184C100.219 18.1582 100.307 18.4316 100.482 18.6387C100.658 18.8457 100.906 18.9492 101.227 18.9492C101.547 18.9492 101.793 18.8457 101.965 18.6387C102.141 18.4316 102.229 18.1582 102.229 17.8184ZM105.504 19.8047L105.996 15.4688H110.777V16.8809H107.385L107.174 18.7148C107.576 18.5 108.004 18.3926 108.457 18.3926C109.27 18.3926 109.906 18.6445 110.367 19.1484C110.828 19.6523 111.059 20.3574 111.059 21.2637C111.059 21.8145 110.941 22.3086 110.707 22.7461C110.477 23.1797 110.145 23.5176 109.711 23.7598C109.277 23.998 108.766 24.1172 108.176 24.1172C107.66 24.1172 107.182 24.0137 106.74 23.8066C106.299 23.5957 105.949 23.3008 105.691 22.9219C105.438 22.543 105.303 22.1113 105.287 21.627H106.963C106.998 21.9824 107.121 22.2598 107.332 22.459C107.547 22.6543 107.826 22.752 108.17 22.752C108.553 22.752 108.848 22.6152 109.055 22.3418C109.262 22.0645 109.365 21.6738 109.365 21.1699C109.365 20.6855 109.246 20.3145 109.008 20.0566C108.77 19.7988 108.432 19.6699 107.994 19.6699C107.592 19.6699 107.266 19.7754 107.016 19.9863L106.852 20.1387L105.504 19.8047ZM113.865 18.9844H114.768C115.197 18.9844 115.516 18.877 115.723 18.6621C115.93 18.4473 116.033 18.1621 116.033 17.8066C116.033 17.4629 115.93 17.1953 115.723 17.0039C115.52 16.8125 115.238 16.7168 114.879 16.7168C114.555 16.7168 114.283 16.8066 114.064 16.9863C113.846 17.1621 113.736 17.3926 113.736 17.6777H112.043C112.043 17.2324 112.162 16.834 112.4 16.4824C112.643 16.127 112.979 15.8496 113.408 15.6504C113.842 15.4512 114.318 15.3516 114.838 15.3516C115.74 15.3516 116.447 15.5684 116.959 16.002C117.471 16.4316 117.727 17.0254 117.727 17.7832C117.727 18.1738 117.607 18.5332 117.369 18.8613C117.131 19.1895 116.818 19.4414 116.432 19.6172C116.912 19.7891 117.27 20.0469 117.504 20.3906C117.742 20.7344 117.861 21.1406 117.861 21.6094C117.861 22.3672 117.584 22.9746 117.029 23.4316C116.479 23.8887 115.748 24.1172 114.838 24.1172C113.986 24.1172 113.289 23.8926 112.746 23.4434C112.207 22.9941 111.938 22.4004 111.938 21.6621H113.631C113.631 21.9824 113.75 22.2441 113.988 22.4473C114.23 22.6504 114.527 22.752 114.879 22.752C115.281 22.752 115.596 22.6465 115.822 22.4355C116.053 22.2207 116.168 21.9375 116.168 21.5859C116.168 20.7344 115.699 20.3086 114.762 20.3086H113.865V18.9844ZM124.594 17.7363C124.594 18.1504 124.49 18.5176 124.283 18.8379C124.076 19.1582 123.791 19.4141 123.428 19.6055C123.842 19.8047 124.17 20.0801 124.412 20.4316C124.654 20.7793 124.775 21.1895 124.775 21.6621C124.775 22.4199 124.518 23.0195 124.002 23.4609C123.486 23.8984 122.785 24.1172 121.898 24.1172C121.012 24.1172 120.309 23.8965 119.789 23.4551C119.27 23.0137 119.01 22.416 119.01 21.6621C119.01 21.1895 119.131 20.7773 119.373 20.4258C119.615 20.0742 119.941 19.8008 120.352 19.6055C119.988 19.4141 119.703 19.1582 119.496 18.8379C119.293 18.5176 119.191 18.1504 119.191 17.7363C119.191 17.0098 119.434 16.4316 119.918 16.002C120.402 15.5684 121.061 15.3516 121.893 15.3516C122.721 15.3516 123.377 15.5664 123.861 15.9961C124.35 16.4219 124.594 17.002 124.594 17.7363ZM123.076 21.5391C123.076 21.168 122.969 20.8711 122.754 20.6484C122.539 20.4258 122.25 20.3145 121.887 20.3145C121.527 20.3145 121.24 20.4258 121.025 20.6484C120.811 20.8672 120.703 21.1641 120.703 21.5391C120.703 21.9023 120.809 22.1953 121.02 22.418C121.23 22.6406 121.523 22.752 121.898 22.752C122.266 22.752 122.553 22.6445 122.76 22.4297C122.971 22.2148 123.076 21.918 123.076 21.5391ZM122.9 17.8184C122.9 17.4863 122.812 17.2207 122.637 17.0215C122.461 16.8184 122.213 16.7168 121.893 16.7168C121.576 16.7168 121.33 16.8145 121.154 17.0098C120.979 17.2051 120.891 17.4746 120.891 17.8184C120.891 18.1582 120.979 18.4316 121.154 18.6387C121.33 18.8457 121.578 18.9492 121.898 18.9492C122.219 18.9492 122.465 18.8457 122.637 18.6387C122.812 18.4316 122.9 18.1582 122.9 17.8184ZM130.037 24H128.344V17.4727L126.322 18.0996V16.7227L129.855 15.457H130.037V24Z" fill="white"/>
<path d="M29.5501 21.1413C28.9456 21.0112 28.4674 21.2919 28.0439 21.537C27.6102 21.7896 26.7856 22.4586 26.313 22.2874C23.893 21.291 21.6169 19.1728 20.6316 16.7431C20.458 16.2604 21.1238 15.4305 21.3745 14.9917C21.6178 14.567 21.8927 14.0842 21.7674 13.4752C21.6541 12.9279 20.1887 11.0632 19.6705 10.5534C19.3288 10.2166 18.9787 10.0313 18.6193 10.0014C17.2682 9.94336 15.7592 11.7462 15.4945 12.1775C14.8315 13.0972 14.8352 14.3209 15.5057 15.8048C17.1215 19.7903 23.2327 25.8051 27.2332 27.4817C27.9715 27.8269 28.6466 28 29.253 28C29.8464 28 30.3748 27.8344 30.8289 27.506C31.1715 27.3086 33.0483 25.7247 32.999 24.3372C32.9693 23.9836 32.7845 23.6299 32.4521 23.2875C31.946 22.7645 30.0934 21.2554 29.5501 21.1413Z" fill="white"/>
<path d="M17.1211 60.0801H21.1641V61H15.9902V52.4688H17.1211V60.0801ZM26.1914 61C26.1289 60.875 26.0781 60.6523 26.0391 60.332C25.5352 60.8555 24.9336 61.1172 24.2344 61.1172C23.6094 61.1172 23.0957 60.9414 22.6934 60.5898C22.2949 60.2344 22.0957 59.7852 22.0957 59.2422C22.0957 58.582 22.3457 58.0703 22.8457 57.707C23.3496 57.3398 24.0566 57.1562 24.9668 57.1562H26.0215V56.6582C26.0215 56.2793 25.9082 55.9785 25.6816 55.7559C25.4551 55.5293 25.1211 55.416 24.6797 55.416C24.293 55.416 23.9688 55.5137 23.707 55.709C23.4453 55.9043 23.3145 56.1406 23.3145 56.418H22.2246C22.2246 56.1016 22.3359 55.7969 22.5586 55.5039C22.7852 55.207 23.0898 54.9727 23.4727 54.8008C23.8594 54.6289 24.2832 54.543 24.7441 54.543C25.4746 54.543 26.0469 54.7266 26.4609 55.0938C26.875 55.457 27.0898 55.959 27.1055 56.5996V59.5176C27.1055 60.0996 27.1797 60.5625 27.3281 60.9062V61H26.1914ZM24.3926 60.1738C24.7324 60.1738 25.0547 60.0859 25.3594 59.9102C25.6641 59.7344 25.8848 59.5059 26.0215 59.2246V57.9238H25.1719C23.8438 57.9238 23.1797 58.3125 23.1797 59.0898C23.1797 59.4297 23.293 59.6953 23.5195 59.8867C23.7461 60.0781 24.0371 60.1738 24.3926 60.1738ZM30.7852 59.4121L32.2617 54.6602H33.4219L30.873 61.9785C30.4785 63.0332 29.8516 63.5605 28.9922 63.5605L28.7871 63.543L28.3828 63.4668V62.5879L28.6758 62.6113C29.043 62.6113 29.3281 62.5371 29.5312 62.3887C29.7383 62.2402 29.9082 61.9688 30.041 61.5742L30.2812 60.9297L28.0195 54.6602H29.2031L30.7852 59.4121ZM38.2148 61C38.1523 60.875 38.1016 60.6523 38.0625 60.332C37.5586 60.8555 36.957 61.1172 36.2578 61.1172C35.6328 61.1172 35.1191 60.9414 34.7168 60.5898C34.3184 60.2344 34.1191 59.7852 34.1191 59.2422C34.1191 58.582 34.3691 58.0703 34.8691 57.707C35.373 57.3398 36.0801 57.1562 36.9902 57.1562H38.0449V56.6582C38.0449 56.2793 37.9316 55.9785 37.7051 55.7559C37.4785 55.5293 37.1445 55.416 36.7031 55.416C36.3164 55.416 35.9922 55.5137 35.7305 55.709C35.4688 55.9043 35.3379 56.1406 35.3379 56.418H34.248C34.248 56.1016 34.3594 55.7969 34.582 55.5039C34.8086 55.207 35.1133 54.9727 35.4961 54.8008C35.8828 54.6289 36.3066 54.543 36.7676 54.543C37.498 54.543 38.0703 54.7266 38.4844 55.0938C38.8984 55.457 39.1133 55.959 39.1289 56.5996V59.5176C39.1289 60.0996 39.2031 60.5625 39.3516 60.9062V61H38.2148ZM36.416 60.1738C36.7559 60.1738 37.0781 60.0859 37.3828 59.9102C37.6875 59.7344 37.9082 59.5059 38.0449 59.2246V57.9238H37.1953C35.8672 57.9238 35.2031 58.3125 35.2031 59.0898C35.2031 59.4297 35.3164 59.6953 35.543 59.8867C35.7695 60.0781 36.0605 60.1738 36.416 60.1738ZM41.8535 54.6602L41.8887 55.457C42.373 54.8477 43.0059 54.543 43.7871 54.543C45.127 54.543 45.8027 55.2988 45.8145 56.8105V61H44.7305V56.8047C44.7266 56.3477 44.6211 56.0098 44.4141 55.791C44.2109 55.5723 43.8926 55.4629 43.459 55.4629C43.1074 55.4629 42.7988 55.5566 42.5332 55.7441C42.2676 55.9316 42.0605 56.1777 41.9121 56.4824V61H40.8281V54.6602H41.8535ZM51.3633 61C51.3008 60.875 51.25 60.6523 51.2109 60.332C50.707 60.8555 50.1055 61.1172 49.4062 61.1172C48.7812 61.1172 48.2676 60.9414 47.8652 60.5898C47.4668 60.2344 47.2676 59.7852 47.2676 59.2422C47.2676 58.582 47.5176 58.0703 48.0176 57.707C48.5215 57.3398 49.2285 57.1562 50.1387 57.1562H51.1934V56.6582C51.1934 56.2793 51.0801 55.9785 50.8535 55.7559C50.627 55.5293 50.293 55.416 49.8516 55.416C49.4648 55.416 49.1406 55.5137 48.8789 55.709C48.6172 55.9043 48.4863 56.1406 48.4863 56.418H47.3965C47.3965 56.1016 47.5078 55.7969 47.7305 55.5039C47.957 55.207 48.2617 54.9727 48.6445 54.8008C49.0312 54.6289 49.4551 54.543 49.916 54.543C50.6465 54.543 51.2188 54.7266 51.6328 55.0938C52.0469 55.457 52.2617 55.959 52.2773 56.5996V59.5176C52.2773 60.0996 52.3516 60.5625 52.5 60.9062V61H51.3633ZM49.5645 60.1738C49.9043 60.1738 50.2266 60.0859 50.5312 59.9102C50.8359 59.7344 51.0566 59.5059 51.1934 59.2246V57.9238H50.3438C49.0156 57.9238 48.3516 58.3125 48.3516 59.0898C48.3516 59.4297 48.4648 59.6953 48.6914 59.8867C48.918 60.0781 49.209 60.1738 49.5645 60.1738ZM55.002 54.6602L55.0371 55.457C55.5215 54.8477 56.1543 54.543 56.9355 54.543C58.2754 54.543 58.9512 55.2988 58.9629 56.8105V61H57.8789V56.8047C57.875 56.3477 57.7695 56.0098 57.5625 55.791C57.3594 55.5723 57.041 55.4629 56.6074 55.4629C56.2559 55.4629 55.9473 55.5566 55.6816 55.7441C55.416 55.9316 55.209 56.1777 55.0605 56.4824V61H53.9766V54.6602H55.002ZM69.4043 53.3945H66.6621V61H65.543V53.3945H62.8066V52.4688H69.4043V53.3945ZM72.5449 61.1172C71.6855 61.1172 70.9863 60.8359 70.4473 60.2734C69.9082 59.707 69.6387 58.9512 69.6387 58.0059V57.8066C69.6387 57.1777 69.7578 56.6172 69.9961 56.125C70.2383 55.6289 70.5742 55.2422 71.0039 54.9648C71.4375 54.6836 71.9062 54.543 72.4102 54.543C73.2344 54.543 73.875 54.8145 74.332 55.3574C74.7891 55.9004 75.0176 56.6777 75.0176 57.6895V58.1406H70.7227C70.7383 58.7656 70.9199 59.2715 71.2676 59.6582C71.6191 60.041 72.0645 60.2324 72.6035 60.2324C72.9863 60.2324 73.3105 60.1543 73.5762 59.998C73.8418 59.8418 74.0742 59.6348 74.2734 59.377L74.9355 59.8926C74.4043 60.709 73.6074 61.1172 72.5449 61.1172ZM72.4102 55.4336C71.9727 55.4336 71.6055 55.5938 71.3086 55.9141C71.0117 56.2305 70.8281 56.6758 70.7578 57.25H73.9336V57.168C73.9023 56.6172 73.7539 56.1914 73.4883 55.8906C73.2227 55.5859 72.8633 55.4336 72.4102 55.4336ZM77.4551 61H76.3711V52H77.4551V61ZM81.8262 61.1172C80.9668 61.1172 80.2676 60.8359 79.7285 60.2734C79.1895 59.707 78.9199 58.9512 78.9199 58.0059V57.8066C78.9199 57.1777 79.0391 56.6172 79.2773 56.125C79.5195 55.6289 79.8555 55.2422 80.2852 54.9648C80.7188 54.6836 81.1875 54.543 81.6914 54.543C82.5156 54.543 83.1562 54.8145 83.6133 55.3574C84.0703 55.9004 84.2988 56.6777 84.2988 57.6895V58.1406H80.0039C80.0195 58.7656 80.2012 59.2715 80.5488 59.6582C80.9004 60.041 81.3457 60.2324 81.8848 60.2324C82.2676 60.2324 82.5918 60.1543 82.8574 59.998C83.123 59.8418 83.3555 59.6348 83.5547 59.377L84.2168 59.8926C83.6855 60.709 82.8887 61.1172 81.8262 61.1172ZM81.6914 55.4336C81.2539 55.4336 80.8867 55.5938 80.5898 55.9141C80.293 56.2305 80.1094 56.6758 80.0391 57.25H83.2148V57.168C83.1836 56.6172 83.0352 56.1914 82.7695 55.8906C82.5039 55.5859 82.1445 55.4336 81.6914 55.4336ZM90.9141 57.9004C90.9141 58.8652 90.6934 59.6426 90.252 60.2324C89.8105 60.8223 89.2129 61.1172 88.459 61.1172C87.6895 61.1172 87.084 60.873 86.6426 60.3848V63.4375H85.5586V54.6602H86.5488L86.6016 55.3633C87.043 54.8164 87.6562 54.543 88.4414 54.543C89.2031 54.543 89.8047 54.8301 90.2461 55.4043C90.6914 55.9785 90.9141 56.7773 90.9141 57.8008V57.9004ZM89.8301 57.7773C89.8301 57.0625 89.6777 56.498 89.373 56.084C89.0684 55.6699 88.6504 55.4629 88.1191 55.4629C87.4629 55.4629 86.9707 55.7539 86.6426 56.3359V59.3652C86.9668 59.9434 87.4629 60.2324 88.1309 60.2324C88.6504 60.2324 89.0625 60.0273 89.3672 59.6172C89.6758 59.2031 89.8301 58.5898 89.8301 57.7773ZM92.0098 57.7715C92.0098 57.1504 92.1309 56.5918 92.373 56.0957C92.6191 55.5996 92.959 55.2168 93.3926 54.9473C93.8301 54.6777 94.3281 54.543 94.8867 54.543C95.75 54.543 96.4473 54.8418 96.9785 55.4395C97.5137 56.0371 97.7812 56.832 97.7812 57.8242V57.9004C97.7812 58.5176 97.6621 59.0723 97.4238 59.5645C97.1895 60.0527 96.8516 60.4336 96.4102 60.707C95.9727 60.9805 95.4688 61.1172 94.8984 61.1172C94.0391 61.1172 93.3418 60.8184 92.8066 60.2207C92.2754 59.623 92.0098 58.832 92.0098 57.8477V57.7715ZM93.0996 57.9004C93.0996 58.6035 93.2617 59.168 93.5859 59.5938C93.9141 60.0195 94.3516 60.2324 94.8984 60.2324C95.4492 60.2324 95.8867 60.0176 96.2109 59.5879C96.5352 59.1543 96.6973 58.5488 96.6973 57.7715C96.6973 57.0762 96.5312 56.5137 96.1992 56.084C95.8711 55.6504 95.4336 55.4336 94.8867 55.4336C94.3516 55.4336 93.9199 55.6465 93.5918 56.0723C93.2637 56.498 93.0996 57.1074 93.0996 57.9004ZM100.166 54.6602L100.201 55.457C100.686 54.8477 101.318 54.543 102.1 54.543C103.439 54.543 104.115 55.2988 104.127 56.8105V61H103.043V56.8047C103.039 56.3477 102.934 56.0098 102.727 55.791C102.523 55.5723 102.205 55.4629 101.771 55.4629C101.42 55.4629 101.111 55.5566 100.846 55.7441C100.58 55.9316 100.373 56.1777 100.225 56.4824V61H99.1406V54.6602H100.166ZM18.5039 74.1973C17.5391 73.9199 16.8359 73.5801 16.3945 73.1777C15.957 72.7715 15.7383 72.2715 15.7383 71.6777C15.7383 71.0059 16.0059 70.4512 16.541 70.0137C17.0801 69.5723 17.7793 69.3516 18.6387 69.3516C19.2246 69.3516 19.7461 69.4648 20.2031 69.6914C20.6641 69.918 21.0195 70.2305 21.2695 70.6289C21.5234 71.0273 21.6504 71.4629 21.6504 71.9355H20.5195C20.5195 71.4199 20.3555 71.0156 20.0273 70.7227C19.6992 70.4258 19.2363 70.2773 18.6387 70.2773C18.084 70.2773 17.6504 70.4004 17.3379 70.6465C17.0293 70.8887 16.875 71.2266 16.875 71.6602C16.875 72.0078 17.0215 72.3027 17.3145 72.5449C17.6113 72.7832 18.1133 73.002 18.8203 73.2012C19.5312 73.4004 20.0859 73.6211 20.4844 73.8633C20.8867 74.1016 21.1836 74.3809 21.375 74.7012C21.5703 75.0215 21.668 75.3984 21.668 75.832C21.668 76.5234 21.3984 77.0781 20.8594 77.4961C20.3203 77.9102 19.5996 78.1172 18.6973 78.1172C18.1113 78.1172 17.5645 78.0059 17.0566 77.7832C16.5488 77.5566 16.1562 77.248 15.8789 76.8574C15.6055 76.4668 15.4688 76.0234 15.4688 75.5273H16.5996C16.5996 76.043 16.7891 76.4512 17.168 76.752C17.5508 77.0488 18.0605 77.1973 18.6973 77.1973C19.291 77.1973 19.7461 77.0762 20.0625 76.834C20.3789 76.5918 20.5371 76.2617 20.5371 75.8438C20.5371 75.4258 20.3906 75.1035 20.0977 74.877C19.8047 74.6465 19.2734 74.4199 18.5039 74.1973ZM25.5762 78.1172C24.7168 78.1172 24.0176 77.8359 23.4785 77.2734C22.9395 76.707 22.6699 75.9512 22.6699 75.0059V74.8066C22.6699 74.1777 22.7891 73.6172 23.0273 73.125C23.2695 72.6289 23.6055 72.2422 24.0352 71.9648C24.4688 71.6836 24.9375 71.543 25.4414 71.543C26.2656 71.543 26.9062 71.8145 27.3633 72.3574C27.8203 72.9004 28.0488 73.6777 28.0488 74.6895V75.1406H23.7539C23.7695 75.7656 23.9512 76.2715 24.2988 76.6582C24.6504 77.041 25.0957 77.2324 25.6348 77.2324C26.0176 77.2324 26.3418 77.1543 26.6074 76.998C26.873 76.8418 27.1055 76.6348 27.3047 76.377L27.9668 76.8926C27.4355 77.709 26.6387 78.1172 25.5762 78.1172ZM25.4414 72.4336C25.0039 72.4336 24.6367 72.5938 24.3398 72.9141C24.043 73.2305 23.8594 73.6758 23.7891 74.25H26.9648V74.168C26.9336 73.6172 26.7852 73.1914 26.5195 72.8906C26.2539 72.5859 25.8945 72.4336 25.4414 72.4336ZM30.334 71.6602L30.3691 72.457C30.8535 71.8477 31.4863 71.543 32.2676 71.543C33.6074 71.543 34.2832 72.2988 34.2949 73.8105V78H33.2109V73.8047C33.207 73.3477 33.1016 73.0098 32.8945 72.791C32.6914 72.5723 32.373 72.4629 31.9395 72.4629C31.5879 72.4629 31.2793 72.5566 31.0137 72.7441C30.748 72.9316 30.541 73.1777 30.3926 73.4824V78H29.3086V71.6602H30.334ZM37.1074 78H36.0234V71.6602H37.1074V78ZM35.9355 69.9785C35.9355 69.8027 35.9883 69.6543 36.0938 69.5332C36.2031 69.4121 36.3633 69.3516 36.5742 69.3516C36.7852 69.3516 36.9453 69.4121 37.0547 69.5332C37.1641 69.6543 37.2188 69.8027 37.2188 69.9785C37.2188 70.1543 37.1641 70.3008 37.0547 70.418C36.9453 70.5352 36.7852 70.5938 36.5742 70.5938C36.3633 70.5938 36.2031 70.5352 36.0938 70.418C35.9883 70.3008 35.9355 70.1543 35.9355 69.9785ZM39.873 71.6602L39.9082 72.457C40.3926 71.8477 41.0254 71.543 41.8066 71.543C43.1465 71.543 43.8223 72.2988 43.834 73.8105V78H42.75V73.8047C42.7461 73.3477 42.6406 73.0098 42.4336 72.791C42.2305 72.5723 41.9121 72.4629 41.4785 72.4629C41.127 72.4629 40.8184 72.5566 40.5527 72.7441C40.2871 72.9316 40.0801 73.1777 39.9316 73.4824V78H38.8477V71.6602H39.873ZM47.7246 74.8184H44.8652V73.9336H47.7246V74.8184ZM52.5293 69.4688H53.6602V75.5098C53.6602 76.3262 53.4141 76.9648 52.9219 77.4258C52.4336 77.8867 51.7812 78.1172 50.9648 78.1172C50.1172 78.1172 49.457 77.9004 48.9844 77.4668C48.5117 77.0332 48.2754 76.4258 48.2754 75.6445H49.4004C49.4004 76.1328 49.5332 76.5137 49.7988 76.7871C50.0684 77.0605 50.457 77.1973 50.9648 77.1973C51.4297 77.1973 51.8047 77.0508 52.0898 76.7578C52.3789 76.4648 52.5254 76.0547 52.5293 75.5273V69.4688ZM59.3203 77.373C58.8984 77.8691 58.2793 78.1172 57.4629 78.1172C56.7871 78.1172 56.2715 77.9219 55.916 77.5312C55.5645 77.1367 55.3867 76.5547 55.3828 75.7852V71.6602H56.4668V75.7559C56.4668 76.7168 56.8574 77.1973 57.6387 77.1973C58.4668 77.1973 59.0176 76.8887 59.291 76.2715V71.6602H60.375V78H59.3438L59.3203 77.373ZM63.0469 71.6602L63.0762 72.3633C63.541 71.8164 64.168 71.543 64.957 71.543C65.8438 71.543 66.4473 71.8828 66.7676 72.5625C66.9785 72.2578 67.252 72.0117 67.5879 71.8242C67.9277 71.6367 68.3281 71.543 68.7891 71.543C70.1797 71.543 70.8867 72.2793 70.9102 73.752V78H69.8262V73.8164C69.8262 73.3633 69.7227 73.0254 69.5156 72.8027C69.3086 72.5762 68.9609 72.4629 68.4727 72.4629C68.0703 72.4629 67.7363 72.584 67.4707 72.8262C67.2051 73.0645 67.0508 73.3867 67.0078 73.793V78H65.918V73.8457C65.918 72.9238 65.4668 72.4629 64.5645 72.4629C63.8535 72.4629 63.3672 72.7656 63.1055 73.3711V78H62.0215V71.6602H63.0469ZM76.4648 78C76.4023 77.875 76.3516 77.6523 76.3125 77.332C75.8086 77.8555 75.207 78.1172 74.5078 78.1172C73.8828 78.1172 73.3691 77.9414 72.9668 77.5898C72.5684 77.2344 72.3691 76.7852 72.3691 76.2422C72.3691 75.582 72.6191 75.0703 73.1191 74.707C73.623 74.3398 74.3301 74.1562 75.2402 74.1562H76.2949V73.6582C76.2949 73.2793 76.1816 72.9785 75.9551 72.7559C75.7285 72.5293 75.3945 72.416 74.9531 72.416C74.5664 72.416 74.2422 72.5137 73.9805 72.709C73.7188 72.9043 73.5879 73.1406 73.5879 73.418H72.498C72.498 73.1016 72.6094 72.7969 72.832 72.5039C73.0586 72.207 73.3633 71.9727 73.7461 71.8008C74.1328 71.6289 74.5566 71.543 75.0176 71.543C75.748 71.543 76.3203 71.7266 76.7344 72.0938C77.1484 72.457 77.3633 72.959 77.3789 73.5996V76.5176C77.3789 77.0996 77.4531 77.5625 77.6016 77.9062V78H76.4648ZM74.666 77.1738C75.0059 77.1738 75.3281 77.0859 75.6328 76.9102C75.9375 76.7344 76.1582 76.5059 76.2949 76.2246V74.9238H75.4453C74.1172 74.9238 73.4531 75.3125 73.4531 76.0898C73.4531 76.4297 73.5664 76.6953 73.793 76.8867C74.0195 77.0781 74.3105 77.1738 74.666 77.1738ZM80.5488 70.125V71.6602H81.7324V72.498H80.5488V76.4297C80.5488 76.6836 80.6016 76.875 80.707 77.0039C80.8125 77.1289 80.9922 77.1914 81.2461 77.1914C81.3711 77.1914 81.543 77.168 81.7617 77.1211V78C81.4766 78.0781 81.1992 78.1172 80.9297 78.1172C80.4453 78.1172 80.0801 77.9707 79.834 77.6777C79.5879 77.3848 79.4648 76.9688 79.4648 76.4297V72.498H78.3105V71.6602H79.4648V70.125H80.5488ZM86.1973 78.7324H85.2656L88.8281 69.4688H89.7539L86.1973 78.7324ZM99.1406 74.3613C99.1406 75.6309 98.9238 76.5742 98.4902 77.1914C98.0566 77.8086 97.3789 78.1172 96.457 78.1172C95.5469 78.1172 94.873 77.8164 94.4355 77.2148C93.998 76.6094 93.7715 75.707 93.7559 74.5078V73.0605C93.7559 71.8066 93.9727 70.875 94.4062 70.2656C94.8398 69.6562 95.5195 69.3516 96.4453 69.3516C97.3633 69.3516 98.0391 69.6465 98.4727 70.2363C98.9062 70.8223 99.1289 71.7285 99.1406 72.9551V74.3613ZM98.0566 72.8789C98.0566 71.9609 97.9277 71.293 97.6699 70.875C97.4121 70.4531 97.0039 70.2422 96.4453 70.2422C95.8906 70.2422 95.4863 70.4512 95.2324 70.8691C94.9785 71.2871 94.8477 71.9297 94.8398 72.7969V74.5312C94.8398 75.4531 94.9727 76.1348 95.2383 76.5762C95.5078 77.0137 95.9141 77.2324 96.457 77.2324C96.9922 77.2324 97.3887 77.0254 97.6465 76.6113C97.9082 76.1973 98.0449 75.5449 98.0566 74.6543V72.8789ZM104.684 74.25C104.457 74.5195 104.186 74.7363 103.869 74.9004C103.557 75.0645 103.213 75.1465 102.838 75.1465C102.346 75.1465 101.916 75.0254 101.549 74.7832C101.186 74.541 100.904 74.2012 100.705 73.7637C100.506 73.3223 100.406 72.8359 100.406 72.3047C100.406 71.7344 100.514 71.2207 100.729 70.7637C100.947 70.3066 101.256 69.957 101.654 69.7148C102.053 69.4727 102.518 69.3516 103.049 69.3516C103.893 69.3516 104.557 69.668 105.041 70.3008C105.529 70.9297 105.773 71.7891 105.773 72.8789V73.1953C105.773 74.8555 105.445 76.0684 104.789 76.834C104.133 77.5957 103.143 77.9863 101.818 78.0059H101.607V77.0918H101.836C102.73 77.0762 103.418 76.8438 103.898 76.3945C104.379 75.9414 104.641 75.2266 104.684 74.25ZM103.014 74.25C103.377 74.25 103.711 74.1387 104.016 73.916C104.324 73.6934 104.549 73.418 104.689 73.0898V72.6562C104.689 71.9453 104.535 71.3672 104.227 70.9219C103.918 70.4766 103.527 70.2539 103.055 70.2539C102.578 70.2539 102.195 70.4375 101.906 70.8047C101.617 71.168 101.473 71.6484 101.473 72.2461C101.473 72.8281 101.611 73.3086 101.889 73.6875C102.17 74.0625 102.545 74.25 103.014 74.25ZM107.344 77.4316C107.344 77.2441 107.398 77.0879 107.508 76.9629C107.621 76.8379 107.789 76.7754 108.012 76.7754C108.234 76.7754 108.402 76.8379 108.516 76.9629C108.633 77.0879 108.691 77.2441 108.691 77.4316C108.691 77.6113 108.633 77.7617 108.516 77.8828C108.402 78.0039 108.234 78.0645 108.012 78.0645C107.789 78.0645 107.621 78.0039 107.508 77.8828C107.398 77.7617 107.344 77.6113 107.344 77.4316ZM107.35 72.2578C107.35 72.0703 107.404 71.9141 107.514 71.7891C107.627 71.6641 107.795 71.6016 108.018 71.6016C108.24 71.6016 108.408 71.6641 108.521 71.7891C108.639 71.9141 108.697 72.0703 108.697 72.2578C108.697 72.4375 108.639 72.5879 108.521 72.709C108.408 72.8301 108.24 72.8906 108.018 72.8906C107.795 72.8906 107.627 72.8301 107.514 72.709C107.404 72.5879 107.35 72.4375 107.35 72.2578ZM115.523 74.3613C115.523 75.6309 115.307 76.5742 114.873 77.1914C114.439 77.8086 113.762 78.1172 112.84 78.1172C111.93 78.1172 111.256 77.8164 110.818 77.2148C110.381 76.6094 110.154 75.707 110.139 74.5078V73.0605C110.139 71.8066 110.355 70.875 110.789 70.2656C111.223 69.6562 111.902 69.3516 112.828 69.3516C113.746 69.3516 114.422 69.6465 114.855 70.2363C115.289 70.8223 115.512 71.7285 115.523 72.9551V74.3613ZM114.439 72.8789C114.439 71.9609 114.311 71.293 114.053 70.875C113.795 70.4531 113.387 70.2422 112.828 70.2422C112.273 70.2422 111.869 70.4512 111.615 70.8691C111.361 71.2871 111.23 71.9297 111.223 72.7969V74.5312C111.223 75.4531 111.355 76.1348 111.621 76.5762C111.891 77.0137 112.297 77.2324 112.84 77.2324C113.375 77.2324 113.771 77.0254 114.029 76.6113C114.291 76.1973 114.428 75.5449 114.439 74.6543V72.8789ZM122.262 74.3613C122.262 75.6309 122.045 76.5742 121.611 77.1914C121.178 77.8086 120.5 78.1172 119.578 78.1172C118.668 78.1172 117.994 77.8164 117.557 77.2148C117.119 76.6094 116.893 75.707 116.877 74.5078V73.0605C116.877 71.8066 117.094 70.875 117.527 70.2656C117.961 69.6562 118.641 69.3516 119.566 69.3516C120.484 69.3516 121.16 69.6465 121.594 70.2363C122.027 70.8223 122.25 71.7285 122.262 72.9551V74.3613ZM121.178 72.8789C121.178 71.9609 121.049 71.293 120.791 70.875C120.533 70.4531 120.125 70.2422 119.566 70.2422C119.012 70.2422 118.607 70.4512 118.354 70.8691C118.1 71.2871 117.969 71.9297 117.961 72.7969V74.5312C117.961 75.4531 118.094 76.1348 118.359 76.5762C118.629 77.0137 119.035 77.2324 119.578 77.2324C120.113 77.2324 120.51 77.0254 120.768 76.6113C121.029 76.1973 121.166 75.5449 121.178 74.6543V72.8789ZM126.018 74.8184H123.158V73.9336H126.018V74.8184ZM130.529 78H129.439V70.7754L127.254 71.5781V70.5938L130.359 69.4277H130.529V78ZM138.879 71.6953C138.879 72.1211 138.766 72.5 138.539 72.832C138.316 73.1641 138.014 73.4238 137.631 73.6113C138.076 73.8027 138.428 74.082 138.686 74.4492C138.947 74.8164 139.078 75.2324 139.078 75.6973C139.078 76.4355 138.828 77.0234 138.328 77.4609C137.832 77.8984 137.178 78.1172 136.365 78.1172C135.545 78.1172 134.887 77.8984 134.391 77.4609C133.898 77.0195 133.652 76.4316 133.652 75.6973C133.652 75.2363 133.777 74.8203 134.027 74.4492C134.281 74.0781 134.631 73.7969 135.076 73.6055C134.697 73.418 134.398 73.1582 134.18 72.8262C133.961 72.4941 133.852 72.1172 133.852 71.6953C133.852 70.9766 134.082 70.4062 134.543 69.9844C135.004 69.5625 135.611 69.3516 136.365 69.3516C137.115 69.3516 137.721 69.5625 138.182 69.9844C138.646 70.4062 138.879 70.9766 138.879 71.6953ZM137.994 75.6738C137.994 75.1973 137.842 74.8086 137.537 74.5078C137.236 74.207 136.842 74.0566 136.354 74.0566C135.865 74.0566 135.473 74.2051 135.176 74.502C134.883 74.7988 134.736 75.1895 134.736 75.6738C134.736 76.1582 134.879 76.5391 135.164 76.8164C135.453 77.0938 135.854 77.2324 136.365 77.2324C136.873 77.2324 137.271 77.0938 137.561 76.8164C137.85 76.5352 137.994 76.1543 137.994 75.6738ZM136.365 70.2422C135.939 70.2422 135.594 70.375 135.328 70.6406C135.066 70.9023 134.936 71.2598 134.936 71.7129C134.936 72.1465 135.064 72.498 135.322 72.7676C135.584 73.0332 135.932 73.166 136.365 73.166C136.799 73.166 137.145 73.0332 137.402 72.7676C137.664 72.498 137.795 72.1465 137.795 71.7129C137.795 71.2793 137.66 70.9258 137.391 70.6523C137.121 70.3789 136.779 70.2422 136.365 70.2422ZM140.52 77.4316C140.52 77.2441 140.574 77.0879 140.684 76.9629C140.797 76.8379 140.965 76.7754 141.188 76.7754C141.41 76.7754 141.578 76.8379 141.691 76.9629C141.809 77.0879 141.867 77.2441 141.867 77.4316C141.867 77.6113 141.809 77.7617 141.691 77.8828C141.578 78.0039 141.41 78.0645 141.188 78.0645C140.965 78.0645 140.797 78.0039 140.684 77.8828C140.574 77.7617 140.52 77.6113 140.52 77.4316ZM140.525 72.2578C140.525 72.0703 140.58 71.9141 140.689 71.7891C140.803 71.6641 140.971 71.6016 141.193 71.6016C141.416 71.6016 141.584 71.6641 141.697 71.7891C141.814 71.9141 141.873 72.0703 141.873 72.2578C141.873 72.4375 141.814 72.5879 141.697 72.709C141.584 72.8301 141.416 72.8906 141.193 72.8906C140.971 72.8906 140.803 72.8301 140.689 72.709C140.58 72.5879 140.525 72.4375 140.525 72.2578ZM148.699 74.3613C148.699 75.6309 148.482 76.5742 148.049 77.1914C147.615 77.8086 146.938 78.1172 146.016 78.1172C145.105 78.1172 144.432 77.8164 143.994 77.2148C143.557 76.6094 143.33 75.707 143.314 74.5078V73.0605C143.314 71.8066 143.531 70.875 143.965 70.2656C144.398 69.6562 145.078 69.3516 146.004 69.3516C146.922 69.3516 147.598 69.6465 148.031 70.2363C148.465 70.8223 148.688 71.7285 148.699 72.9551V74.3613ZM147.615 72.8789C147.615 71.9609 147.486 71.293 147.229 70.875C146.971 70.4531 146.562 70.2422 146.004 70.2422C145.449 70.2422 145.045 70.4512 144.791 70.8691C144.537 71.2871 144.406 71.9297 144.398 72.7969V74.5312C144.398 75.4531 144.531 76.1348 144.797 76.5762C145.066 77.0137 145.473 77.2324 146.016 77.2324C146.551 77.2324 146.947 77.0254 147.205 76.6113C147.467 76.1973 147.604 75.5449 147.615 74.6543V72.8789ZM155.438 74.3613C155.438 75.6309 155.221 76.5742 154.787 77.1914C154.354 77.8086 153.676 78.1172 152.754 78.1172C151.844 78.1172 151.17 77.8164 150.732 77.2148C150.295 76.6094 150.068 75.707 150.053 74.5078V73.0605C150.053 71.8066 150.27 70.875 150.703 70.2656C151.137 69.6562 151.816 69.3516 152.742 69.3516C153.66 69.3516 154.336 69.6465 154.77 70.2363C155.203 70.8223 155.426 71.7285 155.438 72.9551V74.3613ZM154.354 72.8789C154.354 71.9609 154.225 71.293 153.967 70.875C153.709 70.4531 153.301 70.2422 152.742 70.2422C152.188 70.2422 151.783 70.4512 151.529 70.8691C151.275 71.2871 151.145 71.9297 151.137 72.7969V74.5312C151.137 75.4531 151.27 76.1348 151.535 76.5762C151.805 77.0137 152.211 77.2324 152.754 77.2324C153.289 77.2324 153.686 77.0254 153.943 76.6113C154.205 76.1973 154.342 75.5449 154.354 74.6543V72.8789Z" fill="white"/>
</svg>
