<svg width="387" height="65" viewBox="0 0 387 65" fill="none" xmlns="http://www.w3.org/2000/svg">
<rect width="387" height="65" rx="5" fill="#262626"/>
<rect width="387" height="65" rx="5" stroke="#BABABA"/>
<path d="M0.25 5C0.25 2.37665 2.37665 0.25 5 0.25H188.75V64.75H5C2.37665 64.75 0.25 62.6234 0.25 60V5Z" fill="#383838" stroke="#2E2E2E" stroke-width="0.5"/>
<path d="M208.164 29V20.432H209.244V28.04H212.988V29H208.164ZM216.749 22.46C217.533 22.46 218.113 22.632 218.489 22.976C218.865 23.32 219.053 23.868 219.053 24.62V29H218.285L218.081 28.088H218.033C217.753 28.44 217.457 28.7 217.145 28.868C216.841 29.036 216.417 29.12 215.873 29.12C215.289 29.12 214.805 28.968 214.421 28.664C214.037 28.352 213.845 27.868 213.845 27.212C213.845 26.572 214.097 26.08 214.601 25.736C215.105 25.384 215.881 25.192 216.929 25.16L218.021 25.124V24.74C218.021 24.204 217.905 23.832 217.673 23.624C217.441 23.416 217.113 23.312 216.689 23.312C216.353 23.312 216.033 23.364 215.729 23.468C215.425 23.564 215.141 23.676 214.877 23.804L214.553 23.012C214.833 22.86 215.165 22.732 215.549 22.628C215.933 22.516 216.333 22.46 216.749 22.46ZM217.061 25.892C216.261 25.924 215.705 26.052 215.393 26.276C215.089 26.5 214.937 26.816 214.937 27.224C214.937 27.584 215.045 27.848 215.261 28.016C215.485 28.184 215.769 28.268 216.113 28.268C216.657 28.268 217.109 28.12 217.469 27.824C217.829 27.52 218.009 27.056 218.009 26.432V25.856L217.061 25.892ZM220.032 22.568H221.16L222.552 26.228C222.672 26.548 222.78 26.856 222.876 27.152C222.972 27.44 223.044 27.716 223.092 27.98H223.14C223.188 27.78 223.264 27.52 223.368 27.2C223.472 26.872 223.58 26.544 223.692 26.216L225 22.568H226.14L223.368 29.888C223.144 30.496 222.852 30.98 222.492 31.34C222.14 31.7 221.652 31.88 221.028 31.88C220.836 31.88 220.668 31.868 220.524 31.844C220.38 31.828 220.256 31.808 220.152 31.784V30.944C220.24 30.96 220.344 30.976 220.464 30.992C220.592 31.008 220.724 31.016 220.86 31.016C221.228 31.016 221.524 30.912 221.748 30.704C221.98 30.496 222.16 30.22 222.288 29.876L222.624 29.024L220.032 22.568ZM229.593 22.46C230.377 22.46 230.957 22.632 231.333 22.976C231.709 23.32 231.897 23.868 231.897 24.62V29H231.129L230.925 28.088H230.877C230.597 28.44 230.301 28.7 229.989 28.868C229.685 29.036 229.261 29.12 228.717 29.12C228.133 29.12 227.649 28.968 227.265 28.664C226.881 28.352 226.689 27.868 226.689 27.212C226.689 26.572 226.941 26.08 227.445 25.736C227.949 25.384 228.725 25.192 229.773 25.16L230.865 25.124V24.74C230.865 24.204 230.749 23.832 230.517 23.624C230.285 23.416 229.957 23.312 229.533 23.312C229.197 23.312 228.877 23.364 228.573 23.468C228.269 23.564 227.985 23.676 227.721 23.804L227.397 23.012C227.677 22.86 228.009 22.732 228.393 22.628C228.777 22.516 229.177 22.46 229.593 22.46ZM229.905 25.892C229.105 25.924 228.549 26.052 228.237 26.276C227.933 26.5 227.781 26.816 227.781 27.224C227.781 27.584 227.889 27.848 228.105 28.016C228.329 28.184 228.613 28.268 228.957 28.268C229.501 28.268 229.953 28.12 230.313 27.824C230.673 27.52 230.853 27.056 230.853 26.432V25.856L229.905 25.892ZM236.979 22.448C237.747 22.448 238.327 22.636 238.719 23.012C239.111 23.38 239.307 23.98 239.307 24.812V29H238.263V24.884C238.263 23.852 237.783 23.336 236.823 23.336C236.111 23.336 235.619 23.536 235.347 23.936C235.075 24.336 234.939 24.912 234.939 25.664V29H233.883V22.568H234.735L234.891 23.444H234.951C235.159 23.108 235.447 22.86 235.815 22.7C236.183 22.532 236.571 22.448 236.979 22.448ZM243.737 22.46C244.521 22.46 245.101 22.632 245.477 22.976C245.853 23.32 246.041 23.868 246.041 24.62V29H245.273L245.069 28.088H245.021C244.741 28.44 244.445 28.7 244.133 28.868C243.829 29.036 243.405 29.12 242.861 29.12C242.277 29.12 241.793 28.968 241.409 28.664C241.025 28.352 240.833 27.868 240.833 27.212C240.833 26.572 241.085 26.08 241.589 25.736C242.093 25.384 242.869 25.192 243.917 25.16L245.009 25.124V24.74C245.009 24.204 244.893 23.832 244.661 23.624C244.429 23.416 244.101 23.312 243.677 23.312C243.341 23.312 243.021 23.364 242.717 23.468C242.413 23.564 242.129 23.676 241.865 23.804L241.541 23.012C241.821 22.86 242.153 22.732 242.537 22.628C242.921 22.516 243.321 22.46 243.737 22.46ZM244.049 25.892C243.249 25.924 242.693 26.052 242.381 26.276C242.077 26.5 241.925 26.816 241.925 27.224C241.925 27.584 242.033 27.848 242.249 28.016C242.473 28.184 242.757 28.268 243.101 28.268C243.645 28.268 244.097 28.12 244.457 27.824C244.817 27.52 244.997 27.056 244.997 26.432V25.856L244.049 25.892ZM251.124 22.448C251.892 22.448 252.472 22.636 252.864 23.012C253.256 23.38 253.452 23.98 253.452 24.812V29H252.408V24.884C252.408 23.852 251.928 23.336 250.968 23.336C250.256 23.336 249.764 23.536 249.492 23.936C249.22 24.336 249.084 24.912 249.084 25.664V29H248.028V22.568H248.88L249.036 23.444H249.096C249.304 23.108 249.592 22.86 249.96 22.7C250.328 22.532 250.716 22.448 251.124 22.448ZM268.547 20.432L266.267 29H265.175L263.507 23.384C263.443 23.152 263.379 22.92 263.315 22.688C263.251 22.456 263.199 22.252 263.159 22.076C263.119 21.892 263.091 21.764 263.075 21.692C263.067 21.796 263.023 22.02 262.943 22.364C262.871 22.7 262.779 23.052 262.667 23.42L261.047 29H259.955L257.687 20.432H258.815L260.147 25.664C260.243 26.032 260.323 26.388 260.387 26.732C260.459 27.076 260.515 27.4 260.555 27.704C260.595 27.392 260.655 27.052 260.735 26.684C260.815 26.316 260.907 25.956 261.011 25.604L262.523 20.432H263.639L265.211 25.64C265.323 26.008 265.419 26.376 265.499 26.744C265.579 27.104 265.639 27.424 265.679 27.704C265.719 27.408 265.775 27.088 265.847 26.744C265.919 26.392 266.003 26.028 266.099 25.652L267.419 20.432H268.547ZM270.775 22.556C270.775 22.876 270.755 23.176 270.715 23.456H270.787C270.995 23.128 271.275 22.88 271.627 22.712C271.987 22.544 272.375 22.46 272.791 22.46C273.575 22.46 274.163 22.648 274.555 23.024C274.947 23.392 275.143 23.988 275.143 24.812V29H274.099V24.884C274.099 23.852 273.619 23.336 272.659 23.336C271.939 23.336 271.443 23.54 271.171 23.948C270.907 24.348 270.775 24.924 270.775 25.676V29H269.719V19.88H270.775V22.556ZM279.573 22.46C280.357 22.46 280.937 22.632 281.313 22.976C281.689 23.32 281.877 23.868 281.877 24.62V29H281.109L280.905 28.088H280.857C280.577 28.44 280.281 28.7 279.969 28.868C279.665 29.036 279.241 29.12 278.697 29.12C278.113 29.12 277.629 28.968 277.245 28.664C276.861 28.352 276.669 27.868 276.669 27.212C276.669 26.572 276.921 26.08 277.425 25.736C277.929 25.384 278.705 25.192 279.753 25.16L280.845 25.124V24.74C280.845 24.204 280.729 23.832 280.497 23.624C280.265 23.416 279.937 23.312 279.513 23.312C279.177 23.312 278.857 23.364 278.553 23.468C278.249 23.564 277.965 23.676 277.701 23.804L277.377 23.012C277.657 22.86 277.989 22.732 278.373 22.628C278.757 22.516 279.157 22.46 279.573 22.46ZM279.885 25.892C279.085 25.924 278.529 26.052 278.217 26.276C277.913 26.5 277.761 26.816 277.761 27.224C277.761 27.584 277.869 27.848 278.085 28.016C278.309 28.184 278.593 28.268 278.937 28.268C279.481 28.268 279.933 28.12 280.293 27.824C280.653 27.52 280.833 27.056 280.833 26.432V25.856L279.885 25.892ZM286.012 28.256C286.172 28.256 286.336 28.244 286.504 28.22C286.672 28.188 286.808 28.156 286.912 28.124V28.928C286.8 28.984 286.64 29.028 286.432 29.06C286.224 29.1 286.024 29.12 285.832 29.12C285.496 29.12 285.184 29.064 284.896 28.952C284.616 28.832 284.388 28.628 284.212 28.34C284.036 28.052 283.948 27.648 283.948 27.128V23.384H283.036V22.88L283.96 22.46L284.38 21.092H285.004V22.568H286.864V23.384H285.004V27.104C285.004 27.496 285.096 27.788 285.28 27.98C285.472 28.164 285.716 28.256 286.012 28.256ZM292.388 27.224C292.388 27.848 292.156 28.32 291.692 28.64C291.228 28.96 290.604 29.12 289.82 29.12C289.372 29.12 288.984 29.084 288.656 29.012C288.336 28.94 288.052 28.84 287.804 28.712V27.752C288.06 27.88 288.368 28 288.728 28.112C289.096 28.216 289.468 28.268 289.844 28.268C290.38 28.268 290.768 28.184 291.008 28.016C291.248 27.84 291.368 27.608 291.368 27.32C291.368 27.16 291.324 27.016 291.236 26.888C291.148 26.76 290.988 26.632 290.756 26.504C290.532 26.376 290.208 26.232 289.784 26.072C289.368 25.912 289.012 25.752 288.716 25.592C288.42 25.432 288.192 25.24 288.032 25.016C287.872 24.792 287.792 24.504 287.792 24.152C287.792 23.608 288.012 23.188 288.452 22.892C288.9 22.596 289.484 22.448 290.204 22.448C290.596 22.448 290.96 22.488 291.296 22.568C291.64 22.64 291.96 22.744 292.256 22.88L291.896 23.72C291.624 23.608 291.34 23.512 291.044 23.432C290.748 23.352 290.444 23.312 290.132 23.312C289.7 23.312 289.368 23.384 289.136 23.528C288.912 23.664 288.8 23.852 288.8 24.092C288.8 24.268 288.852 24.42 288.956 24.548C289.06 24.668 289.232 24.788 289.472 24.908C289.72 25.02 290.048 25.156 290.456 25.316C290.864 25.468 291.212 25.624 291.5 25.784C291.788 25.944 292.008 26.14 292.16 26.372C292.312 26.596 292.388 26.88 292.388 27.224ZM296.378 22.46C297.162 22.46 297.742 22.632 298.118 22.976C298.494 23.32 298.682 23.868 298.682 24.62V29H297.914L297.71 28.088H297.662C297.382 28.44 297.086 28.7 296.774 28.868C296.47 29.036 296.046 29.12 295.502 29.12C294.918 29.12 294.434 28.968 294.05 28.664C293.666 28.352 293.474 27.868 293.474 27.212C293.474 26.572 293.726 26.08 294.23 25.736C294.734 25.384 295.51 25.192 296.558 25.16L297.65 25.124V24.74C297.65 24.204 297.534 23.832 297.302 23.624C297.07 23.416 296.742 23.312 296.318 23.312C295.982 23.312 295.662 23.364 295.358 23.468C295.054 23.564 294.77 23.676 294.506 23.804L294.182 23.012C294.462 22.86 294.794 22.732 295.178 22.628C295.562 22.516 295.962 22.46 296.378 22.46ZM296.69 25.892C295.89 25.924 295.334 26.052 295.022 26.276C294.718 26.5 294.566 26.816 294.566 27.224C294.566 27.584 294.674 27.848 294.89 28.016C295.114 28.184 295.398 28.268 295.742 28.268C296.286 28.268 296.738 28.12 297.098 27.824C297.458 27.52 297.638 27.056 297.638 26.432V25.856L296.69 25.892ZM303.728 22.448C304.52 22.448 305.156 22.724 305.636 23.276C306.124 23.828 306.368 24.66 306.368 25.772C306.368 26.868 306.124 27.7 305.636 28.268C305.156 28.836 304.516 29.12 303.716 29.12C303.22 29.12 302.808 29.028 302.48 28.844C302.16 28.652 301.908 28.432 301.724 28.184H301.652C301.668 28.32 301.684 28.492 301.7 28.7C301.716 28.908 301.724 29.088 301.724 29.24V31.88H300.668V22.568H301.532L301.676 23.444H301.724C301.916 23.164 302.168 22.928 302.48 22.736C302.792 22.544 303.208 22.448 303.728 22.448ZM303.536 23.336C302.88 23.336 302.416 23.52 302.144 23.888C301.88 24.256 301.74 24.816 301.724 25.568V25.772C301.724 26.564 301.852 27.176 302.108 27.608C302.372 28.032 302.856 28.244 303.56 28.244C303.952 28.244 304.272 28.136 304.52 27.92C304.776 27.704 304.964 27.412 305.084 27.044C305.212 26.668 305.276 26.24 305.276 25.76C305.276 25.024 305.132 24.436 304.844 23.996C304.564 23.556 304.128 23.336 303.536 23.336ZM311.111 22.448C311.903 22.448 312.539 22.724 313.019 23.276C313.507 23.828 313.751 24.66 313.751 25.772C313.751 26.868 313.507 27.7 313.019 28.268C312.539 28.836 311.899 29.12 311.099 29.12C310.603 29.12 310.191 29.028 309.863 28.844C309.543 28.652 309.291 28.432 309.107 28.184H309.035C309.051 28.32 309.067 28.492 309.083 28.7C309.099 28.908 309.107 29.088 309.107 29.24V31.88H308.051V22.568H308.915L309.059 23.444H309.107C309.299 23.164 309.551 22.928 309.863 22.736C310.175 22.544 310.591 22.448 311.111 22.448ZM310.919 23.336C310.263 23.336 309.799 23.52 309.527 23.888C309.263 24.256 309.123 24.816 309.107 25.568V25.772C309.107 26.564 309.235 27.176 309.491 27.608C309.755 28.032 310.239 28.244 310.943 28.244C311.335 28.244 311.655 28.136 311.903 27.92C312.159 27.704 312.347 27.412 312.467 27.044C312.595 26.668 312.659 26.24 312.659 25.76C312.659 25.024 312.515 24.436 312.227 23.996C311.947 23.556 311.511 23.336 310.919 23.336ZM213.024 43.708C213.024 44.468 212.748 45.06 212.196 45.484C211.644 45.908 210.9 46.12 209.964 46.12C209.484 46.12 209.04 46.084 208.632 46.012C208.224 45.94 207.884 45.84 207.612 45.712V44.68C207.9 44.808 208.256 44.924 208.68 45.028C209.112 45.132 209.556 45.184 210.012 45.184C210.652 45.184 211.132 45.06 211.452 44.812C211.78 44.564 211.944 44.228 211.944 43.804C211.944 43.524 211.884 43.288 211.764 43.096C211.644 42.904 211.436 42.728 211.14 42.568C210.852 42.4 210.448 42.224 209.928 42.04C209.2 41.776 208.648 41.452 208.272 41.068C207.904 40.684 207.72 40.16 207.72 39.496C207.72 39.04 207.836 38.652 208.068 38.332C208.3 38.004 208.62 37.752 209.028 37.576C209.444 37.4 209.92 37.312 210.456 37.312C210.928 37.312 211.36 37.356 211.752 37.444C212.144 37.532 212.5 37.648 212.82 37.792L212.484 38.716C212.188 38.588 211.864 38.48 211.512 38.392C211.168 38.304 210.808 38.26 210.432 38.26C209.896 38.26 209.492 38.376 209.22 38.608C208.948 38.832 208.812 39.132 208.812 39.508C208.812 39.796 208.872 40.036 208.992 40.228C209.112 40.42 209.308 40.592 209.58 40.744C209.852 40.896 210.22 41.06 210.684 41.236C211.188 41.42 211.612 41.62 211.956 41.836C212.308 42.044 212.572 42.296 212.748 42.592C212.932 42.888 213.024 43.26 213.024 43.708ZM217.09 39.448C217.642 39.448 218.114 39.568 218.506 39.808C218.906 40.048 219.21 40.388 219.418 40.828C219.634 41.26 219.742 41.768 219.742 42.352V42.988H215.338C215.354 43.716 215.538 44.272 215.89 44.656C216.25 45.032 216.75 45.22 217.39 45.22C217.798 45.22 218.158 45.184 218.47 45.112C218.79 45.032 219.118 44.92 219.454 44.776V45.7C219.126 45.844 218.802 45.948 218.482 46.012C218.162 46.084 217.782 46.12 217.342 46.12C216.734 46.12 216.194 45.996 215.722 45.748C215.258 45.5 214.894 45.132 214.63 44.644C214.374 44.148 214.246 43.544 214.246 42.832C214.246 42.128 214.362 41.524 214.594 41.02C214.834 40.516 215.166 40.128 215.59 39.856C216.022 39.584 216.522 39.448 217.09 39.448ZM217.078 40.312C216.574 40.312 216.174 40.476 215.878 40.804C215.59 41.124 215.418 41.572 215.362 42.148H218.638C218.63 41.604 218.502 41.164 218.254 40.828C218.006 40.484 217.614 40.312 217.078 40.312ZM224.475 39.448C225.243 39.448 225.823 39.636 226.215 40.012C226.607 40.38 226.803 40.98 226.803 41.812V46H225.759V41.884C225.759 40.852 225.279 40.336 224.319 40.336C223.607 40.336 223.115 40.536 222.843 40.936C222.571 41.336 222.435 41.912 222.435 42.664V46H221.379V39.568H222.231L222.387 40.444H222.447C222.655 40.108 222.943 39.86 223.311 39.7C223.679 39.532 224.067 39.448 224.475 39.448ZM229.337 37.156C229.497 37.156 229.637 37.212 229.757 37.324C229.885 37.428 229.949 37.596 229.949 37.828C229.949 38.052 229.885 38.22 229.757 38.332C229.637 38.444 229.497 38.5 229.337 38.5C229.161 38.5 229.013 38.444 228.893 38.332C228.773 38.22 228.713 38.052 228.713 37.828C228.713 37.596 228.773 37.428 228.893 37.324C229.013 37.212 229.161 37.156 229.337 37.156ZM229.853 39.568V46H228.797V39.568H229.853ZM234.987 39.448C235.755 39.448 236.335 39.636 236.727 40.012C237.119 40.38 237.315 40.98 237.315 41.812V46H236.271V41.884C236.271 40.852 235.791 40.336 234.831 40.336C234.119 40.336 233.627 40.536 233.355 40.936C233.083 41.336 232.947 41.912 232.947 42.664V46H231.891V39.568H232.743L232.899 40.444H232.959C233.167 40.108 233.455 39.86 233.823 39.7C234.191 39.532 234.579 39.448 234.987 39.448ZM238.769 43.252V42.316H241.673V43.252H238.769ZM247.1 46L244.28 38.488H244.232C244.256 38.736 244.276 39.072 244.292 39.496C244.308 39.912 244.316 40.348 244.316 40.804V46H243.32V37.432H244.916L247.556 44.452H247.604L250.292 37.432H251.876V46H250.808V40.732C250.808 40.316 250.816 39.904 250.832 39.496C250.856 39.088 250.876 38.756 250.892 38.5H250.844L247.988 46H247.1ZM254.603 37.156C254.763 37.156 254.903 37.212 255.023 37.324C255.151 37.428 255.215 37.596 255.215 37.828C255.215 38.052 255.151 38.22 255.023 38.332C254.903 38.444 254.763 38.5 254.603 38.5C254.427 38.5 254.279 38.444 254.159 38.332C254.039 38.22 253.979 38.052 253.979 37.828C253.979 37.596 254.039 37.428 254.159 37.324C254.279 37.212 254.427 37.156 254.603 37.156ZM255.119 39.568V46H254.063V39.568H255.119ZM260.253 39.448C261.021 39.448 261.601 39.636 261.993 40.012C262.385 40.38 262.581 40.98 262.581 41.812V46H261.537V41.884C261.537 40.852 261.057 40.336 260.097 40.336C259.385 40.336 258.893 40.536 258.621 40.936C258.349 41.336 258.213 41.912 258.213 42.664V46H257.157V39.568H258.009L258.165 40.444H258.225C258.433 40.108 258.721 39.86 259.089 39.7C259.457 39.532 259.845 39.448 260.253 39.448ZM266.855 39.448C267.279 39.448 267.659 39.528 267.995 39.688C268.339 39.848 268.631 40.092 268.871 40.42H268.931L269.075 39.568H269.915V46.108C269.915 47.028 269.679 47.72 269.207 48.184C268.743 48.648 268.019 48.88 267.035 48.88C266.091 48.88 265.319 48.744 264.719 48.472V47.5C265.351 47.836 266.143 48.004 267.095 48.004C267.647 48.004 268.079 47.84 268.391 47.512C268.711 47.192 268.871 46.752 268.871 46.192V45.94C268.871 45.844 268.875 45.708 268.883 45.532C268.891 45.348 268.899 45.22 268.907 45.148H268.859C268.427 45.796 267.763 46.12 266.867 46.12C266.035 46.12 265.383 45.828 264.911 45.244C264.447 44.66 264.215 43.844 264.215 42.796C264.215 41.772 264.447 40.96 264.911 40.36C265.383 39.752 266.031 39.448 266.855 39.448ZM266.999 40.336C266.463 40.336 266.047 40.552 265.751 40.984C265.455 41.408 265.307 42.016 265.307 42.808C265.307 43.6 265.451 44.208 265.739 44.632C266.035 45.048 266.463 45.256 267.023 45.256C267.671 45.256 268.143 45.084 268.439 44.74C268.735 44.388 268.883 43.824 268.883 43.048V42.796C268.883 41.916 268.731 41.288 268.427 40.912C268.123 40.528 267.647 40.336 266.999 40.336ZM274.238 39.448C274.662 39.448 275.042 39.528 275.378 39.688C275.722 39.848 276.014 40.092 276.254 40.42H276.314L276.458 39.568H277.298V46.108C277.298 47.028 277.062 47.72 276.59 48.184C276.126 48.648 275.402 48.88 274.418 48.88C273.474 48.88 272.702 48.744 272.102 48.472V47.5C272.734 47.836 273.526 48.004 274.478 48.004C275.03 48.004 275.462 47.84 275.774 47.512C276.094 47.192 276.254 46.752 276.254 46.192V45.94C276.254 45.844 276.258 45.708 276.266 45.532C276.274 45.348 276.282 45.22 276.29 45.148H276.242C275.81 45.796 275.146 46.12 274.25 46.12C273.418 46.12 272.766 45.828 272.294 45.244C271.83 44.66 271.598 43.844 271.598 42.796C271.598 41.772 271.83 40.96 272.294 40.36C272.766 39.752 273.414 39.448 274.238 39.448ZM274.382 40.336C273.846 40.336 273.43 40.552 273.134 40.984C272.838 41.408 272.69 42.016 272.69 42.808C272.69 43.6 272.834 44.208 273.122 44.632C273.418 45.048 273.846 45.256 274.406 45.256C275.054 45.256 275.526 45.084 275.822 44.74C276.118 44.388 276.266 43.824 276.266 43.048V42.796C276.266 41.916 276.114 41.288 275.81 40.912C275.506 40.528 275.03 40.336 274.382 40.336ZM284.716 39.568V46H283.852L283.696 45.148H283.648C283.44 45.484 283.152 45.732 282.784 45.892C282.416 46.044 282.024 46.12 281.608 46.12C280.832 46.12 280.248 45.936 279.856 45.568C279.464 45.192 279.268 44.596 279.268 43.78V39.568H280.336V43.708C280.336 44.732 280.812 45.244 281.764 45.244C282.476 45.244 282.968 45.044 283.24 44.644C283.52 44.244 283.66 43.668 283.66 42.916V39.568H284.716ZM293.199 37.432L290.007 46H288.975L292.167 37.432H293.199ZM302.714 41.704C302.714 42.624 302.618 43.416 302.426 44.08C302.234 44.736 301.93 45.24 301.514 45.592C301.098 45.944 300.546 46.12 299.858 46.12C298.89 46.12 298.174 45.732 297.71 44.956C297.254 44.172 297.026 43.088 297.026 41.704C297.026 40.776 297.118 39.984 297.302 39.328C297.494 38.672 297.798 38.172 298.214 37.828C298.63 37.476 299.178 37.3 299.858 37.3C300.818 37.3 301.534 37.688 302.006 38.464C302.478 39.232 302.714 40.312 302.714 41.704ZM298.082 41.704C298.082 42.88 298.214 43.76 298.478 44.344C298.75 44.928 299.21 45.22 299.858 45.22C300.498 45.22 300.954 44.932 301.226 44.356C301.506 43.772 301.646 42.888 301.646 41.704C301.646 40.536 301.506 39.66 301.226 39.076C300.954 38.492 300.498 38.2 299.858 38.2C299.21 38.2 298.75 38.492 298.478 39.076C298.214 39.66 298.082 40.536 298.082 41.704ZM309.545 41.092C309.545 41.708 309.489 42.316 309.377 42.916C309.273 43.508 309.077 44.048 308.789 44.536C308.509 45.016 308.109 45.4 307.589 45.688C307.077 45.976 306.417 46.12 305.609 46.12C305.449 46.12 305.261 46.108 305.045 46.084C304.837 46.068 304.665 46.04 304.529 46V45.1C304.841 45.204 305.193 45.256 305.585 45.256C306.145 45.256 306.605 45.164 306.965 44.98C307.333 44.796 307.625 44.548 307.841 44.236C308.057 43.916 308.213 43.548 308.309 43.132C308.405 42.708 308.461 42.264 308.477 41.8H308.405C308.229 42.072 307.973 42.308 307.637 42.508C307.309 42.7 306.885 42.796 306.365 42.796C305.629 42.796 305.033 42.572 304.577 42.124C304.129 41.668 303.905 41.028 303.905 40.204C303.905 39.604 304.017 39.088 304.241 38.656C304.473 38.224 304.793 37.892 305.201 37.66C305.609 37.428 306.089 37.312 306.641 37.312C307.185 37.312 307.677 37.452 308.117 37.732C308.557 38.004 308.905 38.42 309.161 38.98C309.417 39.532 309.545 40.236 309.545 41.092ZM306.641 38.2C306.145 38.2 305.737 38.364 305.417 38.692C305.105 39.02 304.949 39.52 304.949 40.192C304.949 40.744 305.081 41.18 305.345 41.5C305.617 41.812 306.033 41.968 306.593 41.968C306.977 41.968 307.309 41.892 307.589 41.74C307.869 41.58 308.085 41.38 308.237 41.14C308.397 40.9 308.477 40.652 308.477 40.396C308.477 40.052 308.409 39.712 308.273 39.376C308.137 39.04 307.933 38.76 307.661 38.536C307.389 38.312 307.049 38.2 306.641 38.2ZM311.036 40.216C311.036 39.912 311.108 39.7 311.252 39.58C311.396 39.46 311.568 39.4 311.768 39.4C311.976 39.4 312.152 39.46 312.296 39.58C312.448 39.7 312.524 39.912 312.524 40.216C312.524 40.504 312.448 40.712 312.296 40.84C312.152 40.968 311.976 41.032 311.768 41.032C311.568 41.032 311.396 40.968 311.252 40.84C311.108 40.712 311.036 40.504 311.036 40.216ZM311.036 45.352C311.036 45.056 311.108 44.848 311.252 44.728C311.396 44.608 311.568 44.548 311.768 44.548C311.976 44.548 312.152 44.608 312.296 44.728C312.448 44.848 312.524 45.056 312.524 45.352C312.524 45.64 312.448 45.848 312.296 45.976C312.152 46.104 311.976 46.168 311.768 46.168C311.568 46.168 311.396 46.104 311.252 45.976C311.108 45.848 311.036 45.64 311.036 45.352ZM319.659 41.704C319.659 42.624 319.563 43.416 319.371 44.08C319.179 44.736 318.875 45.24 318.459 45.592C318.043 45.944 317.491 46.12 316.803 46.12C315.835 46.12 315.119 45.732 314.655 44.956C314.199 44.172 313.971 43.088 313.971 41.704C313.971 40.776 314.063 39.984 314.247 39.328C314.439 38.672 314.743 38.172 315.159 37.828C315.575 37.476 316.123 37.3 316.803 37.3C317.763 37.3 318.479 37.688 318.951 38.464C319.423 39.232 319.659 40.312 319.659 41.704ZM315.027 41.704C315.027 42.88 315.159 43.76 315.423 44.344C315.695 44.928 316.155 45.22 316.803 45.22C317.443 45.22 317.899 44.932 318.171 44.356C318.451 43.772 318.591 42.888 318.591 41.704C318.591 40.536 318.451 39.66 318.171 39.076C317.899 38.492 317.443 38.2 316.803 38.2C316.155 38.2 315.695 38.492 315.423 39.076C315.159 39.66 315.027 40.536 315.027 41.704ZM326.526 41.704C326.526 42.624 326.43 43.416 326.238 44.08C326.046 44.736 325.742 45.24 325.326 45.592C324.91 45.944 324.358 46.12 323.67 46.12C322.702 46.12 321.986 45.732 321.522 44.956C321.066 44.172 320.838 43.088 320.838 41.704C320.838 40.776 320.93 39.984 321.114 39.328C321.306 38.672 321.61 38.172 322.026 37.828C322.442 37.476 322.99 37.3 323.67 37.3C324.63 37.3 325.346 37.688 325.818 38.464C326.29 39.232 326.526 40.312 326.526 41.704ZM321.894 41.704C321.894 42.88 322.026 43.76 322.29 44.344C322.562 44.928 323.022 45.22 323.67 45.22C324.31 45.22 324.766 44.932 325.038 44.356C325.318 43.772 325.458 42.888 325.458 41.704C325.458 40.536 325.318 39.66 325.038 39.076C324.766 38.492 324.31 38.2 323.67 38.2C323.022 38.2 322.562 38.492 322.29 39.076C322.026 39.66 321.894 40.536 321.894 41.704ZM327.597 43.252V42.316H330.501V43.252H327.597ZM335.244 46H334.212V40.012C334.212 39.668 334.216 39.392 334.224 39.184C334.232 38.976 334.244 38.76 334.26 38.536C334.132 38.664 334.016 38.772 333.912 38.86C333.808 38.948 333.676 39.06 333.516 39.196L332.604 39.94L332.052 39.232L334.368 37.432H335.244V46ZM341.272 37.312C342.024 37.312 342.64 37.488 343.12 37.84C343.6 38.192 343.84 38.7 343.84 39.364C343.84 39.708 343.764 40.008 343.612 40.264C343.468 40.52 343.272 40.748 343.024 40.948C342.776 41.14 342.504 41.312 342.208 41.464C342.56 41.632 342.88 41.824 343.168 42.04C343.456 42.248 343.684 42.492 343.852 42.772C344.028 43.052 344.116 43.388 344.116 43.78C344.116 44.5 343.86 45.072 343.348 45.496C342.844 45.912 342.164 46.12 341.308 46.12C340.388 46.12 339.68 45.92 339.184 45.52C338.688 45.112 338.44 44.544 338.44 43.816C338.44 43.424 338.52 43.084 338.68 42.796C338.848 42.508 339.068 42.26 339.34 42.052C339.612 41.844 339.904 41.668 340.216 41.524C339.8 41.284 339.444 40.996 339.148 40.66C338.86 40.316 338.716 39.88 338.716 39.352C338.716 38.912 338.828 38.544 339.052 38.248C339.276 37.944 339.58 37.712 339.964 37.552C340.348 37.392 340.784 37.312 341.272 37.312ZM341.26 38.164C340.82 38.164 340.456 38.272 340.168 38.488C339.888 38.696 339.748 39 339.748 39.4C339.748 39.696 339.816 39.944 339.952 40.144C340.096 40.344 340.288 40.516 340.528 40.66C340.768 40.796 341.032 40.928 341.32 41.056C341.736 40.88 342.084 40.668 342.364 40.42C342.652 40.172 342.796 39.832 342.796 39.4C342.796 39 342.656 38.696 342.376 38.488C342.096 38.272 341.724 38.164 341.26 38.164ZM339.472 43.828C339.472 44.244 339.62 44.592 339.916 44.872C340.212 45.144 340.668 45.28 341.284 45.28C341.868 45.28 342.312 45.144 342.616 44.872C342.928 44.592 343.084 44.232 343.084 43.792C343.084 43.376 342.92 43.032 342.592 42.76C342.264 42.48 341.828 42.236 341.284 42.028L341.092 41.956C340.564 42.18 340.16 42.44 339.88 42.736C339.608 43.024 339.472 43.388 339.472 43.828ZM345.583 40.216C345.583 39.912 345.655 39.7 345.799 39.58C345.943 39.46 346.115 39.4 346.315 39.4C346.523 39.4 346.699 39.46 346.843 39.58C346.995 39.7 347.071 39.912 347.071 40.216C347.071 40.504 346.995 40.712 346.843 40.84C346.699 40.968 346.523 41.032 346.315 41.032C346.115 41.032 345.943 40.968 345.799 40.84C345.655 40.712 345.583 40.504 345.583 40.216ZM345.583 45.352C345.583 45.056 345.655 44.848 345.799 44.728C345.943 44.608 346.115 44.548 346.315 44.548C346.523 44.548 346.699 44.608 346.843 44.728C346.995 44.848 347.071 45.056 347.071 45.352C347.071 45.64 346.995 45.848 346.843 45.976C346.699 46.104 346.523 46.168 346.315 46.168C346.115 46.168 345.943 46.104 345.799 45.976C345.655 45.848 345.583 45.64 345.583 45.352ZM354.206 41.704C354.206 42.624 354.11 43.416 353.918 44.08C353.726 44.736 353.422 45.24 353.006 45.592C352.59 45.944 352.038 46.12 351.35 46.12C350.382 46.12 349.666 45.732 349.202 44.956C348.746 44.172 348.518 43.088 348.518 41.704C348.518 40.776 348.61 39.984 348.794 39.328C348.986 38.672 349.29 38.172 349.706 37.828C350.122 37.476 350.67 37.3 351.35 37.3C352.31 37.3 353.026 37.688 353.498 38.464C353.97 39.232 354.206 40.312 354.206 41.704ZM349.574 41.704C349.574 42.88 349.706 43.76 349.97 44.344C350.242 44.928 350.702 45.22 351.35 45.22C351.99 45.22 352.446 44.932 352.718 44.356C352.998 43.772 353.138 42.888 353.138 41.704C353.138 40.536 352.998 39.66 352.718 39.076C352.446 38.492 351.99 38.2 351.35 38.2C350.702 38.2 350.242 38.492 349.97 39.076C349.706 39.66 349.574 40.536 349.574 41.704ZM361.073 41.704C361.073 42.624 360.977 43.416 360.785 44.08C360.593 44.736 360.289 45.24 359.873 45.592C359.457 45.944 358.905 46.12 358.217 46.12C357.249 46.12 356.533 45.732 356.069 44.956C355.613 44.172 355.385 43.088 355.385 41.704C355.385 40.776 355.477 39.984 355.661 39.328C355.853 38.672 356.157 38.172 356.573 37.828C356.989 37.476 357.537 37.3 358.217 37.3C359.177 37.3 359.893 37.688 360.365 38.464C360.837 39.232 361.073 40.312 361.073 41.704ZM356.441 41.704C356.441 42.88 356.573 43.76 356.837 44.344C357.109 44.928 357.569 45.22 358.217 45.22C358.857 45.22 359.313 44.932 359.585 44.356C359.865 43.772 360.005 42.888 360.005 41.704C360.005 40.536 359.865 39.66 359.585 39.076C359.313 38.492 358.857 38.2 358.217 38.2C357.569 38.2 357.109 38.492 356.837 39.076C356.573 39.66 356.441 40.536 356.441 41.704Z" fill="#DDDDDD"/>
<path d="M51.42 33.716C51.42 34.636 51.32 35.424 51.12 36.08C50.928 36.736 50.612 37.24 50.172 37.592C49.74 37.944 49.156 38.12 48.42 38.12C47.388 38.12 46.632 37.732 46.152 36.956C45.672 36.172 45.432 35.092 45.432 33.716C45.432 32.788 45.528 31.996 45.72 31.34C45.912 30.684 46.228 30.18 46.668 29.828C47.108 29.476 47.692 29.3 48.42 29.3C49.444 29.3 50.2 29.688 50.688 30.464C51.176 31.24 51.42 32.324 51.42 33.716ZM47.232 33.716C47.232 34.692 47.316 35.428 47.484 35.924C47.652 36.412 47.964 36.656 48.42 36.656C48.868 36.656 49.18 36.412 49.356 35.924C49.532 35.436 49.62 34.7 49.62 33.716C49.62 32.74 49.532 32.004 49.356 31.508C49.18 31.012 48.868 30.764 48.42 30.764C47.964 30.764 47.652 31.012 47.484 31.508C47.316 32.004 47.232 32.74 47.232 33.716ZM55.2992 29.324C55.7952 29.324 56.2472 29.4 56.6552 29.552C57.0712 29.704 57.4032 29.932 57.6512 30.236C57.9072 30.54 58.0352 30.924 58.0352 31.388C58.0352 31.9 57.8872 32.324 57.5912 32.66C57.3032 32.988 56.9392 33.26 56.4992 33.476C56.8032 33.636 57.0912 33.824 57.3632 34.04C57.6432 34.248 57.8672 34.496 58.0352 34.784C58.2112 35.064 58.2992 35.396 58.2992 35.78C58.2992 36.252 58.1712 36.664 57.9152 37.016C57.6672 37.368 57.3152 37.64 56.8592 37.832C56.4112 38.024 55.8912 38.12 55.2992 38.12C54.3392 38.12 53.5952 37.916 53.0672 37.508C52.5472 37.1 52.2872 36.54 52.2872 35.828C52.2872 35.236 52.4472 34.76 52.7672 34.4C53.0872 34.04 53.4752 33.748 53.9312 33.524C53.5472 33.284 53.2192 32.996 52.9472 32.66C52.6832 32.316 52.5512 31.888 52.5512 31.376C52.5512 30.92 52.6792 30.54 52.9352 30.236C53.1912 29.932 53.5272 29.704 53.9432 29.552C54.3672 29.4 54.8192 29.324 55.2992 29.324ZM55.2872 30.644C54.9912 30.644 54.7432 30.72 54.5432 30.872C54.3512 31.024 54.2552 31.24 54.2552 31.52C54.2552 31.816 54.3592 32.056 54.5672 32.24C54.7752 32.424 55.0192 32.584 55.2992 32.72C55.5712 32.592 55.8112 32.44 56.0192 32.264C56.2272 32.08 56.3312 31.832 56.3312 31.52C56.3312 31.24 56.2312 31.024 56.0312 30.872C55.8392 30.72 55.5912 30.644 55.2872 30.644ZM53.9672 35.72C53.9672 36.032 54.0752 36.288 54.2912 36.488C54.5152 36.688 54.8432 36.788 55.2752 36.788C55.7232 36.788 56.0592 36.692 56.2832 36.5C56.5072 36.308 56.6192 36.052 56.6192 35.732C56.6192 35.516 56.5552 35.328 56.4272 35.168C56.2992 35 56.1392 34.852 55.9472 34.724C55.7632 34.588 55.5712 34.464 55.3712 34.352L55.2152 34.268C54.8472 34.444 54.5472 34.648 54.3152 34.88C54.0832 35.112 53.9672 35.392 53.9672 35.72ZM63.6904 38H61.8784V33.044C61.8784 32.836 61.8824 32.564 61.8904 32.228C61.9064 31.892 61.9184 31.596 61.9264 31.34C61.8864 31.388 61.7984 31.476 61.6624 31.604C61.5344 31.724 61.4144 31.832 61.3024 31.928L60.3184 32.72L59.4424 31.628L62.2024 29.432H63.6904V38ZM69.2016 32.528C69.7216 32.528 70.1856 32.628 70.5936 32.828C71.0016 33.028 71.3216 33.32 71.5536 33.704C71.7936 34.088 71.9136 34.564 71.9136 35.132C71.9136 36.06 71.6256 36.792 71.0496 37.328C70.4736 37.856 69.6216 38.12 68.4936 38.12C68.0456 38.12 67.6216 38.08 67.2216 38C66.8296 37.92 66.4856 37.804 66.1896 37.652V36.092C66.4856 36.244 66.8416 36.376 67.2576 36.488C67.6736 36.592 68.0656 36.644 68.4336 36.644C68.9696 36.644 69.3776 36.536 69.6576 36.32C69.9456 36.096 70.0896 35.752 70.0896 35.288C70.0896 34.424 69.5176 33.992 68.3736 33.992C68.1496 33.992 67.9176 34.016 67.6776 34.064C67.4376 34.104 67.2376 34.144 67.0776 34.184L66.3576 33.8L66.6816 29.432H71.3256V30.968H68.2656L68.1096 32.648C68.2456 32.624 68.3896 32.6 68.5416 32.576C68.7016 32.544 68.9216 32.528 69.2016 32.528ZM72.8288 35.516V34.052H75.9728V35.516H72.8288ZM81.2919 38H79.4799V33.044C79.4799 32.836 79.4839 32.564 79.4919 32.228C79.5079 31.892 79.5199 31.596 79.5279 31.34C79.4879 31.388 79.3999 31.476 79.2639 31.604C79.1359 31.724 79.0159 31.832 78.9039 31.928L77.9199 32.72L77.0439 31.628L79.8039 29.432H81.2919V38ZM89.6351 33.092C89.6351 33.58 89.5991 34.068 89.5271 34.556C89.4551 35.036 89.3271 35.492 89.1431 35.924C88.9671 36.348 88.7151 36.728 88.3871 37.064C88.0671 37.392 87.6551 37.652 87.1511 37.844C86.6551 38.028 86.0511 38.12 85.3391 38.12C85.1711 38.12 84.9751 38.112 84.7511 38.096C84.5271 38.088 84.3391 38.068 84.1871 38.036V36.584C84.3471 36.616 84.5151 36.644 84.6911 36.668C84.8671 36.692 85.0431 36.704 85.2191 36.704C85.9311 36.704 86.4791 36.592 86.8631 36.368C87.2551 36.136 87.5311 35.82 87.6911 35.42C87.8511 35.02 87.9431 34.556 87.9671 34.028H87.8951C87.7271 34.308 87.5031 34.544 87.2231 34.736C86.9511 34.928 86.5431 35.024 85.9991 35.024C85.2711 35.024 84.6871 34.788 84.2471 34.316C83.8071 33.844 83.5871 33.176 83.5871 32.312C83.5871 31.384 83.8471 30.656 84.3671 30.128C84.8951 29.6 85.6071 29.336 86.5031 29.336C87.0871 29.336 87.6151 29.472 88.0871 29.744C88.5591 30.008 88.9351 30.42 89.2151 30.98C89.4951 31.532 89.6351 32.236 89.6351 33.092ZM86.5391 30.788C86.1871 30.788 85.8991 30.908 85.6751 31.148C85.4511 31.388 85.3391 31.768 85.3391 32.288C85.3391 32.704 85.4351 33.032 85.6271 33.272C85.8191 33.512 86.1111 33.632 86.5031 33.632C86.7751 33.632 87.0071 33.572 87.1991 33.452C87.3991 33.332 87.5551 33.184 87.6671 33.008C87.7791 32.824 87.8351 32.636 87.8351 32.444C87.8351 32.18 87.7871 31.92 87.6911 31.664C87.5951 31.408 87.4511 31.2 87.2591 31.04C87.0671 30.872 86.8271 30.788 86.5391 30.788ZM96.4903 33.716C96.4903 34.636 96.3903 35.424 96.1903 36.08C95.9983 36.736 95.6823 37.24 95.2423 37.592C94.8103 37.944 94.2263 38.12 93.4903 38.12C92.4583 38.12 91.7023 37.732 91.2223 36.956C90.7423 36.172 90.5023 35.092 90.5023 33.716C90.5023 32.788 90.5983 31.996 90.7903 31.34C90.9823 30.684 91.2983 30.18 91.7383 29.828C92.1783 29.476 92.7623 29.3 93.4903 29.3C94.5143 29.3 95.2703 29.688 95.7583 30.464C96.2463 31.24 96.4903 32.324 96.4903 33.716ZM92.3023 33.716C92.3023 34.692 92.3863 35.428 92.5543 35.924C92.7223 36.412 93.0343 36.656 93.4903 36.656C93.9383 36.656 94.2503 36.412 94.4263 35.924C94.6023 35.436 94.6903 34.7 94.6903 33.716C94.6903 32.74 94.6023 32.004 94.4263 31.508C94.2503 31.012 93.9383 30.764 93.4903 30.764C93.0343 30.764 92.7223 31.012 92.5543 31.508C92.3863 32.004 92.3023 32.74 92.3023 33.716ZM97.3575 34.364C97.3575 33.868 97.3935 33.38 97.4655 32.9C97.5375 32.42 97.6615 31.968 97.8375 31.544C98.0215 31.112 98.2735 30.732 98.5935 30.404C98.9215 30.068 99.3335 29.808 99.8295 29.624C100.334 29.432 100.942 29.336 101.654 29.336C101.822 29.336 102.018 29.344 102.242 29.36C102.466 29.368 102.654 29.388 102.806 29.42V30.872C102.654 30.832 102.486 30.804 102.302 30.788C102.126 30.764 101.95 30.752 101.774 30.752C101.062 30.752 100.51 30.864 100.118 31.088C99.7335 31.312 99.4615 31.628 99.3015 32.036C99.1415 32.436 99.0495 32.9 99.0255 33.428H99.0975C99.2575 33.148 99.4855 32.912 99.7815 32.72C100.086 32.528 100.478 32.432 100.958 32.432C101.71 32.432 102.306 32.668 102.746 33.14C103.186 33.612 103.406 34.28 103.406 35.144C103.406 36.072 103.142 36.8 102.614 37.328C102.094 37.856 101.386 38.12 100.49 38.12C99.9055 38.12 99.3775 37.988 98.9055 37.724C98.4335 37.452 98.0575 37.04 97.7775 36.488C97.4975 35.928 97.3575 35.22 97.3575 34.364ZM100.454 36.668C100.806 36.668 101.094 36.548 101.318 36.308C101.542 36.06 101.654 35.68 101.654 35.168C101.654 34.752 101.558 34.424 101.366 34.184C101.174 33.944 100.882 33.824 100.49 33.824C100.226 33.824 99.9935 33.884 99.7935 34.004C99.5935 34.116 99.4375 34.264 99.3255 34.448C99.2135 34.632 99.1575 34.82 99.1575 35.012C99.1575 35.276 99.2055 35.536 99.3015 35.792C99.3975 36.04 99.5415 36.248 99.7335 36.416C99.9335 36.584 100.174 36.668 100.454 36.668ZM104.165 35.516V34.052H107.309V35.516H104.165ZM114.092 33.716C114.092 34.636 113.992 35.424 113.792 36.08C113.6 36.736 113.284 37.24 112.844 37.592C112.412 37.944 111.828 38.12 111.092 38.12C110.06 38.12 109.304 37.732 108.824 36.956C108.344 36.172 108.104 35.092 108.104 33.716C108.104 32.788 108.2 31.996 108.392 31.34C108.584 30.684 108.9 30.18 109.34 29.828C109.78 29.476 110.364 29.3 111.092 29.3C112.116 29.3 112.872 29.688 113.36 30.464C113.848 31.24 114.092 32.324 114.092 33.716ZM109.904 33.716C109.904 34.692 109.988 35.428 110.156 35.924C110.324 36.412 110.636 36.656 111.092 36.656C111.54 36.656 111.852 36.412 112.028 35.924C112.204 35.436 112.292 34.7 112.292 33.716C112.292 32.74 112.204 32.004 112.028 31.508C111.852 31.012 111.54 30.764 111.092 30.764C110.636 30.764 110.324 31.012 110.156 31.508C109.988 32.004 109.904 32.74 109.904 33.716ZM120.971 33.092C120.971 33.58 120.935 34.068 120.863 34.556C120.791 35.036 120.663 35.492 120.479 35.924C120.303 36.348 120.051 36.728 119.723 37.064C119.403 37.392 118.991 37.652 118.487 37.844C117.991 38.028 117.387 38.12 116.675 38.12C116.507 38.12 116.311 38.112 116.087 38.096C115.863 38.088 115.675 38.068 115.523 38.036V36.584C115.683 36.616 115.851 36.644 116.027 36.668C116.203 36.692 116.379 36.704 116.555 36.704C117.267 36.704 117.815 36.592 118.199 36.368C118.591 36.136 118.867 35.82 119.027 35.42C119.187 35.02 119.279 34.556 119.303 34.028H119.231C119.063 34.308 118.839 34.544 118.559 34.736C118.287 34.928 117.879 35.024 117.335 35.024C116.607 35.024 116.023 34.788 115.583 34.316C115.143 33.844 114.923 33.176 114.923 32.312C114.923 31.384 115.183 30.656 115.703 30.128C116.231 29.6 116.943 29.336 117.839 29.336C118.423 29.336 118.951 29.472 119.423 29.744C119.895 30.008 120.271 30.42 120.551 30.98C120.831 31.532 120.971 32.236 120.971 33.092ZM117.875 30.788C117.523 30.788 117.235 30.908 117.011 31.148C116.787 31.388 116.675 31.768 116.675 32.288C116.675 32.704 116.771 33.032 116.963 33.272C117.155 33.512 117.447 33.632 117.839 33.632C118.111 33.632 118.343 33.572 118.535 33.452C118.735 33.332 118.891 33.184 119.003 33.008C119.115 32.824 119.171 32.636 119.171 32.444C119.171 32.18 119.123 31.92 119.027 31.664C118.931 31.408 118.787 31.2 118.595 31.04C118.403 30.872 118.163 30.788 117.875 30.788ZM127.874 38H121.886V36.74L124.034 34.568C124.466 34.12 124.814 33.748 125.078 33.452C125.342 33.148 125.534 32.876 125.654 32.636C125.774 32.388 125.834 32.124 125.834 31.844C125.834 31.5 125.738 31.244 125.546 31.076C125.362 30.908 125.11 30.824 124.79 30.824C124.462 30.824 124.142 30.9 123.83 31.052C123.518 31.204 123.19 31.42 122.846 31.7L121.862 30.536C122.11 30.32 122.37 30.12 122.642 29.936C122.922 29.752 123.242 29.604 123.602 29.492C123.97 29.372 124.41 29.312 124.922 29.312C125.482 29.312 125.962 29.416 126.362 29.624C126.77 29.824 127.082 30.1 127.298 30.452C127.522 30.796 127.634 31.188 127.634 31.628C127.634 32.1 127.538 32.532 127.346 32.924C127.162 33.316 126.89 33.704 126.53 34.088C126.178 34.472 125.75 34.896 125.246 35.36L124.142 36.392V36.476H127.874V38ZM134.705 33.092C134.705 33.58 134.669 34.068 134.597 34.556C134.525 35.036 134.397 35.492 134.213 35.924C134.037 36.348 133.785 36.728 133.457 37.064C133.137 37.392 132.725 37.652 132.221 37.844C131.725 38.028 131.121 38.12 130.409 38.12C130.241 38.12 130.045 38.112 129.821 38.096C129.597 38.088 129.409 38.068 129.257 38.036V36.584C129.417 36.616 129.585 36.644 129.761 36.668C129.937 36.692 130.113 36.704 130.289 36.704C131.001 36.704 131.549 36.592 131.933 36.368C132.325 36.136 132.601 35.82 132.761 35.42C132.921 35.02 133.013 34.556 133.037 34.028H132.965C132.797 34.308 132.573 34.544 132.293 34.736C132.021 34.928 131.613 35.024 131.069 35.024C130.341 35.024 129.757 34.788 129.317 34.316C128.877 33.844 128.657 33.176 128.657 32.312C128.657 31.384 128.917 30.656 129.437 30.128C129.965 29.6 130.677 29.336 131.573 29.336C132.157 29.336 132.685 29.472 133.157 29.744C133.629 30.008 134.005 30.42 134.285 30.98C134.565 31.532 134.705 32.236 134.705 33.092ZM131.609 30.788C131.257 30.788 130.969 30.908 130.745 31.148C130.521 31.388 130.409 31.768 130.409 32.288C130.409 32.704 130.505 33.032 130.697 33.272C130.889 33.512 131.181 33.632 131.573 33.632C131.845 33.632 132.077 33.572 132.269 33.452C132.469 33.332 132.625 33.184 132.737 33.008C132.849 32.824 132.905 32.636 132.905 32.444C132.905 32.18 132.857 31.92 132.761 31.664C132.665 31.408 132.521 31.2 132.329 31.04C132.137 30.872 131.897 30.788 131.609 30.788Z" fill="#DDDDDD"/>
<path fill-rule="evenodd" clip-rule="evenodd" d="M19.81 23H28.191C31.28 23 33 24.78 33 27.83V38.16C33 41.26 31.28 43 28.191 43H19.81C16.77 43 15 41.26 15 38.16V27.83C15 24.78 16.77 23 19.81 23ZM20.0799 27.6594V27.6494H23.0689C23.4999 27.6494 23.8499 27.9994 23.8499 28.4284C23.8499 28.8694 23.4999 29.2194 23.0689 29.2194H20.0799C19.6489 29.2194 19.2999 28.8694 19.2999 28.4394C19.2999 28.0094 19.6489 27.6594 20.0799 27.6594ZM20.0799 33.7394H27.9199C28.3499 33.7394 28.6999 33.3894 28.6999 32.9594C28.6999 32.5294 28.3499 32.1784 27.9199 32.1784H20.0799C19.6489 32.1784 19.2999 32.5294 19.2999 32.9594C19.2999 33.3894 19.6489 33.7394 20.0799 33.7394ZM20.08 38.3096H27.92C28.319 38.2696 28.62 37.9286 28.62 37.5296C28.62 37.1196 28.319 36.7796 27.92 36.7396H20.08C19.78 36.7096 19.49 36.8496 19.33 37.1096C19.17 37.3596 19.17 37.6896 19.33 37.9496C19.49 38.1996 19.78 38.3496 20.08 38.3096Z" fill="#DDDDDD"/>
</svg>
