<svg width="387" height="52" viewBox="0 0 387 52" fill="none" xmlns="http://www.w3.org/2000/svg">
<path d="M0.25 5C0.25 2.37665 2.37665 0.25 5 0.25H382C384.623 0.25 386.75 2.37665 386.75 5V47C386.75 49.6234 384.623 51.75 382 51.75H5C2.37665 51.75 0.25 49.6234 0.25 47V5Z" fill="#303030" stroke="#BABABA" stroke-width="0.5"/>
<path d="M0.25 5C0.25 2.37665 2.37665 0.25 5 0.25H193.75V51.75H4.99999C2.37664 51.75 0.25 49.6234 0.25 47V5Z" fill="#404040" stroke="#BABABA" stroke-width="0.5"/>
<path d="M47.3027 24.3516C47.752 23.8125 48.3164 23.543 48.9961 23.543C50.3711 23.543 51.0684 24.3418 51.0879 25.9395V30H49.3945V25.9863C49.3945 25.623 49.3164 25.3555 49.1602 25.1836C49.0039 25.0078 48.7441 24.9199 48.3809 24.9199C47.8848 24.9199 47.5254 25.1113 47.3027 25.4941V30H45.6094V21H47.3027V24.3516ZM56.0391 30C55.9609 29.8477 55.9043 29.6582 55.8691 29.4316C55.459 29.8887 54.9258 30.1172 54.2695 30.1172C53.6484 30.1172 53.1328 29.9375 52.7227 29.5781C52.3164 29.2188 52.1133 28.7656 52.1133 28.2188C52.1133 27.5469 52.3613 27.0312 52.8574 26.6719C53.3574 26.3125 54.0781 26.1309 55.0195 26.127H55.7988V25.7637C55.7988 25.4707 55.7227 25.2363 55.5703 25.0605C55.4219 24.8848 55.1855 24.7969 54.8613 24.7969C54.5762 24.7969 54.3516 24.8652 54.1875 25.002C54.0273 25.1387 53.9473 25.3262 53.9473 25.5645H52.2539C52.2539 25.1973 52.3672 24.8574 52.5938 24.5449C52.8203 24.2324 53.1406 23.9883 53.5547 23.8125C53.9688 23.6328 54.4336 23.543 54.9492 23.543C55.7305 23.543 56.3496 23.7402 56.8066 24.1348C57.2676 24.5254 57.498 25.0762 57.498 25.7871V28.5352C57.502 29.1367 57.5859 29.5918 57.75 29.9004V30H56.0391ZM54.6387 28.8223C54.8887 28.8223 55.1191 28.7676 55.3301 28.6582C55.541 28.5449 55.6973 28.3945 55.7988 28.207V27.1172H55.166C54.3184 27.1172 53.8672 27.4102 53.8125 27.9961L53.8066 28.0957C53.8066 28.3066 53.8809 28.4805 54.0293 28.6172C54.1777 28.7539 54.3809 28.8223 54.6387 28.8223ZM60.5859 30H58.8867V21H60.5859V30ZM61.7227 26.7715C61.7227 26.1426 61.8438 25.582 62.0859 25.0898C62.3281 24.5977 62.6758 24.2168 63.1289 23.9473C63.5859 23.6777 64.1152 23.543 64.7168 23.543C65.5723 23.543 66.2695 23.8047 66.8086 24.3281C67.3516 24.8516 67.6543 25.5625 67.7168 26.4609L67.7285 26.8945C67.7285 27.8672 67.457 28.6484 66.9141 29.2383C66.3711 29.8242 65.6426 30.1172 64.7285 30.1172C63.8145 30.1172 63.084 29.8242 62.5371 29.2383C61.9941 28.6523 61.7227 27.8555 61.7227 26.8477V26.7715ZM63.416 26.8945C63.416 27.4961 63.5293 27.957 63.7559 28.2773C63.9824 28.5938 64.3066 28.752 64.7285 28.752C65.1387 28.752 65.459 28.5957 65.6895 28.2832C65.9199 27.9668 66.0352 27.4629 66.0352 26.7715C66.0352 26.1816 65.9199 25.7246 65.6895 25.4004C65.459 25.0762 65.1348 24.9141 64.7168 24.9141C64.3027 24.9141 63.9824 25.0762 63.7559 25.4004C63.5293 25.7207 63.416 26.2188 63.416 26.8945ZM78.3691 26.8594C78.3262 27.8594 78.0781 28.6543 77.625 29.2441C77.1758 29.8301 76.5703 30.123 75.8086 30.123C75.4727 30.123 75.1816 30.0508 74.9355 29.9062C74.6934 29.7617 74.5098 29.5547 74.3848 29.2852C73.9941 29.832 73.4844 30.1055 72.8555 30.1055C72.2852 30.1055 71.8438 29.8652 71.5312 29.3848C71.2188 28.9043 71.1016 28.2695 71.1797 27.4805C71.25 26.8359 71.4121 26.2637 71.666 25.7637C71.9238 25.2598 72.248 24.873 72.6387 24.6035C73.0293 24.334 73.4512 24.1992 73.9043 24.1992C74.4629 24.1992 74.9395 24.3281 75.334 24.5859L75.7031 24.8379L75.4043 28.2246C75.3652 28.5332 75.3984 28.7695 75.5039 28.9336C75.6133 29.0977 75.7852 29.1797 76.0195 29.1797C76.3789 29.1797 76.6797 28.9707 76.9219 28.5527C77.1641 28.1309 77.2969 27.5801 77.3203 26.9004C77.3867 25.5371 77.1113 24.4902 76.4941 23.7598C75.8809 23.0254 74.9707 22.6582 73.7637 22.6582C73.0098 22.6582 72.3379 22.8496 71.748 23.2324C71.1582 23.6152 70.6934 24.1602 70.3535 24.8672C70.0137 25.5703 69.8223 26.377 69.7793 27.2871C69.7168 28.6699 69.9941 29.7383 70.6113 30.4922C71.2285 31.25 72.1523 31.6289 73.3828 31.6289C73.707 31.6289 74.0469 31.5918 74.4023 31.5176C74.7578 31.4473 75.0645 31.3516 75.3223 31.2305L75.5449 32.1328C75.3066 32.2891 74.9844 32.4141 74.5781 32.5078C74.1758 32.6055 73.7695 32.6543 73.3594 32.6543C72.3281 32.6543 71.4492 32.4453 70.7227 32.0273C69.9961 31.6133 69.4531 31 69.0938 30.1875C68.7383 29.3789 68.584 28.4121 68.6309 27.2871C68.6777 26.209 68.9238 25.2422 69.3691 24.3867C69.8145 23.5312 70.4199 22.8711 71.1855 22.4062C71.9551 21.9375 72.8223 21.7031 73.7871 21.7031C74.7676 21.7031 75.6113 21.9141 76.3184 22.3359C77.0254 22.7539 77.5547 23.3535 77.9062 24.1348C78.2578 24.916 78.4121 25.8242 78.3691 26.8594ZM72.4805 27.4805C72.4375 27.9961 72.4824 28.3887 72.6152 28.6582C72.748 28.9238 72.9629 29.0566 73.2598 29.0566C73.4512 29.0566 73.6328 28.9727 73.8047 28.8047C73.9766 28.6367 74.1191 28.3945 74.2324 28.0781L74.4785 25.3066C74.3262 25.2559 74.1699 25.2305 74.0098 25.2305C73.5605 25.2305 73.2109 25.4219 72.9609 25.8047C72.7148 26.1875 72.5547 26.7461 72.4805 27.4805ZM85.2246 26.8887C85.2246 27.8652 85.002 28.6484 84.5566 29.2383C84.1152 29.8242 83.5176 30.1172 82.7637 30.1172C82.123 30.1172 81.6055 29.8945 81.2109 29.4492V32.4375H79.5176V23.6602H81.0879L81.1465 24.2812C81.5566 23.7891 82.0918 23.543 82.752 23.543C83.5332 23.543 84.1406 23.832 84.5742 24.4102C85.0078 24.9883 85.2246 25.7852 85.2246 26.8008V26.8887ZM83.5312 26.7656C83.5312 26.1758 83.4258 25.7207 83.2148 25.4004C83.0078 25.0801 82.7051 24.9199 82.3066 24.9199C81.7754 24.9199 81.4102 25.123 81.2109 25.5293V28.125C81.418 28.543 81.7871 28.752 82.3184 28.752C83.127 28.752 83.5312 28.0898 83.5312 26.7656ZM89.1973 30.1172C88.2676 30.1172 87.5098 29.832 86.9238 29.2617C86.3418 28.6914 86.0508 27.9316 86.0508 26.9824V26.8184C86.0508 26.1816 86.1738 25.6133 86.4199 25.1133C86.666 24.6094 87.0137 24.2227 87.4629 23.9531C87.916 23.6797 88.4316 23.543 89.0098 23.543C89.877 23.543 90.5586 23.8164 91.0547 24.3633C91.5547 24.9102 91.8047 25.6855 91.8047 26.6895V27.3809H87.7676C87.8223 27.7949 87.9863 28.127 88.2598 28.377C88.5371 28.627 88.8867 28.752 89.3086 28.752C89.9609 28.752 90.4707 28.5156 90.8379 28.043L91.6699 28.9746C91.416 29.334 91.0723 29.6152 90.6387 29.8184C90.2051 30.0176 89.7246 30.1172 89.1973 30.1172ZM89.0039 24.9141C88.668 24.9141 88.3945 25.0273 88.1836 25.2539C87.9766 25.4805 87.8438 25.8047 87.7852 26.2266H90.1406V26.0918C90.1328 25.7168 90.0312 25.4277 89.8359 25.2246C89.6406 25.0176 89.3633 24.9141 89.0039 24.9141ZM98.2852 27.6973L99.1172 23.6602H100.752L99.1348 30H97.7168L96.5156 26.0098L95.3145 30H93.9023L92.2852 23.6602H93.9199L94.7461 27.6914L95.9062 23.6602H97.1309L98.2852 27.6973ZM104.514 30.1172C103.584 30.1172 102.826 29.832 102.24 29.2617C101.658 28.6914 101.367 27.9316 101.367 26.9824V26.8184C101.367 26.1816 101.49 25.6133 101.736 25.1133C101.982 24.6094 102.33 24.2227 102.779 23.9531C103.232 23.6797 103.748 23.543 104.326 23.543C105.193 23.543 105.875 23.8164 106.371 24.3633C106.871 24.9102 107.121 25.6855 107.121 26.6895V27.3809H103.084C103.139 27.7949 103.303 28.127 103.576 28.377C103.854 28.627 104.203 28.752 104.625 28.752C105.277 28.752 105.787 28.5156 106.154 28.043L106.986 28.9746C106.732 29.334 106.389 29.6152 105.955 29.8184C105.521 30.0176 105.041 30.1172 104.514 30.1172ZM104.32 24.9141C103.984 24.9141 103.711 25.0273 103.5 25.2539C103.293 25.4805 103.16 25.8047 103.102 26.2266H105.457V26.0918C105.449 25.7168 105.348 25.4277 105.152 25.2246C104.957 25.0176 104.68 24.9141 104.32 24.9141ZM108.551 30V24.9023H107.607V23.6602H108.551V23.1211C108.551 22.4102 108.754 21.8594 109.16 21.4688C109.57 21.0742 110.143 20.877 110.877 20.877C111.111 20.877 111.398 20.916 111.738 20.9941L111.721 22.3066C111.58 22.2715 111.408 22.2539 111.205 22.2539C110.568 22.2539 110.25 22.5527 110.25 23.1504V23.6602H111.51V24.9023H110.25V30H108.551ZM115.166 30.1172C114.236 30.1172 113.479 29.832 112.893 29.2617C112.311 28.6914 112.02 27.9316 112.02 26.9824V26.8184C112.02 26.1816 112.143 25.6133 112.389 25.1133C112.635 24.6094 112.982 24.2227 113.432 23.9531C113.885 23.6797 114.4 23.543 114.979 23.543C115.846 23.543 116.527 23.8164 117.023 24.3633C117.523 24.9102 117.773 25.6855 117.773 26.6895V27.3809H113.736C113.791 27.7949 113.955 28.127 114.229 28.377C114.506 28.627 114.855 28.752 115.277 28.752C115.93 28.752 116.439 28.5156 116.807 28.043L117.639 28.9746C117.385 29.334 117.041 29.6152 116.607 29.8184C116.174 30.0176 115.693 30.1172 115.166 30.1172ZM114.973 24.9141C114.637 24.9141 114.363 25.0273 114.152 25.2539C113.945 25.4805 113.812 25.8047 113.754 26.2266H116.109V26.0918C116.102 25.7168 116 25.4277 115.805 25.2246C115.609 25.0176 115.332 24.9141 114.973 24.9141ZM121.658 30.1172C120.729 30.1172 119.971 29.832 119.385 29.2617C118.803 28.6914 118.512 27.9316 118.512 26.9824V26.8184C118.512 26.1816 118.635 25.6133 118.881 25.1133C119.127 24.6094 119.475 24.2227 119.924 23.9531C120.377 23.6797 120.893 23.543 121.471 23.543C122.338 23.543 123.02 23.8164 123.516 24.3633C124.016 24.9102 124.266 25.6855 124.266 26.6895V27.3809H120.229C120.283 27.7949 120.447 28.127 120.721 28.377C120.998 28.627 121.348 28.752 121.77 28.752C122.422 28.752 122.932 28.5156 123.299 28.043L124.131 28.9746C123.877 29.334 123.533 29.6152 123.1 29.8184C122.666 30.0176 122.186 30.1172 121.658 30.1172ZM121.465 24.9141C121.129 24.9141 120.855 25.0273 120.645 25.2539C120.438 25.4805 120.305 25.8047 120.246 26.2266H122.602V26.0918C122.594 25.7168 122.492 25.4277 122.297 25.2246C122.102 25.0176 121.824 24.9141 121.465 24.9141ZM124.969 26.7832C124.969 25.7949 125.189 25.0078 125.631 24.4219C126.076 23.8359 126.684 23.543 127.453 23.543C128.07 23.543 128.58 23.7734 128.982 24.2344V21H130.682V30H129.152L129.07 29.3262C128.648 29.8535 128.105 30.1172 127.441 30.1172C126.695 30.1172 126.096 29.8242 125.643 29.2383C125.193 28.6484 124.969 27.8301 124.969 26.7832ZM126.662 26.9062C126.662 27.5 126.766 27.9551 126.973 28.2715C127.18 28.5879 127.48 28.7461 127.875 28.7461C128.398 28.7461 128.768 28.5254 128.982 28.084V25.582C128.771 25.1406 128.406 24.9199 127.887 24.9199C127.07 24.9199 126.662 25.582 126.662 26.9062ZM132.082 29.168C132.082 28.8984 132.172 28.6797 132.352 28.5117C132.535 28.3438 132.764 28.2598 133.037 28.2598C133.314 28.2598 133.543 28.3438 133.723 28.5117C133.906 28.6797 133.998 28.8984 133.998 29.168C133.998 29.4336 133.908 29.6504 133.729 29.8184C133.549 29.9824 133.318 30.0645 133.037 30.0645C132.76 30.0645 132.531 29.9824 132.352 29.8184C132.172 29.6504 132.082 29.4336 132.082 29.168ZM138.123 28.752C138.436 28.752 138.689 28.666 138.885 28.4941C139.08 28.3223 139.182 28.0938 139.189 27.8086H140.777C140.773 28.2383 140.656 28.6328 140.426 28.9922C140.195 29.3477 139.879 29.625 139.477 29.8242C139.078 30.0195 138.637 30.1172 138.152 30.1172C137.246 30.1172 136.531 29.8301 136.008 29.2559C135.484 28.6777 135.223 27.8809 135.223 26.8652V26.7539C135.223 25.7773 135.482 24.998 136.002 24.416C136.521 23.834 137.234 23.543 138.141 23.543C138.934 23.543 139.568 23.7695 140.045 24.2227C140.525 24.6719 140.77 25.2715 140.777 26.0215H139.189C139.182 25.6934 139.08 25.4277 138.885 25.2246C138.689 25.0176 138.432 24.9141 138.111 24.9141C137.717 24.9141 137.418 25.0586 137.215 25.3477C137.016 25.6328 136.916 26.0977 136.916 26.7422V26.918C136.916 27.5703 137.016 28.0391 137.215 28.3242C137.414 28.6094 137.717 28.752 138.123 28.752ZM141.48 26.7715C141.48 26.1426 141.602 25.582 141.844 25.0898C142.086 24.5977 142.434 24.2168 142.887 23.9473C143.344 23.6777 143.873 23.543 144.475 23.543C145.33 23.543 146.027 23.8047 146.566 24.3281C147.109 24.8516 147.412 25.5625 147.475 26.4609L147.486 26.8945C147.486 27.8672 147.215 28.6484 146.672 29.2383C146.129 29.8242 145.4 30.1172 144.486 30.1172C143.572 30.1172 142.842 29.8242 142.295 29.2383C141.752 28.6523 141.48 27.8555 141.48 26.8477V26.7715ZM143.174 26.8945C143.174 27.4961 143.287 27.957 143.514 28.2773C143.74 28.5938 144.064 28.752 144.486 28.752C144.896 28.752 145.217 28.5957 145.447 28.2832C145.678 27.9668 145.793 27.4629 145.793 26.7715C145.793 26.1816 145.678 25.7246 145.447 25.4004C145.217 25.0762 144.893 24.9141 144.475 24.9141C144.061 24.9141 143.74 25.0762 143.514 25.4004C143.287 25.7207 143.174 26.2188 143.174 26.8945ZM150.117 23.6602L150.17 24.3691C150.619 23.8184 151.227 23.543 151.992 23.543C152.809 23.543 153.369 23.8652 153.674 24.5098C154.119 23.8652 154.754 23.543 155.578 23.543C156.266 23.543 156.777 23.7441 157.113 24.1465C157.449 24.5449 157.617 25.1465 157.617 25.9512V30H155.918V25.957C155.918 25.5977 155.848 25.3359 155.707 25.1719C155.566 25.0039 155.318 24.9199 154.963 24.9199C154.455 24.9199 154.104 25.1621 153.908 25.6465L153.914 30H152.221V25.9629C152.221 25.5957 152.148 25.3301 152.004 25.166C151.859 25.002 151.613 24.9199 151.266 24.9199C150.785 24.9199 150.438 25.1191 150.223 25.5176V30H148.529V23.6602H150.117Z" fill="white"/>
<path fill-rule="evenodd" clip-rule="evenodd" d="M28.4451 18C29.652 18 30.813 18.477 31.6671 19.3329C32.5221 20.187 33 21.339 33 22.545V29.655C33 32.166 30.957 34.2 28.4451 34.2H19.554C17.0421 34.2 15 32.166 15 29.655V22.545C15 20.034 17.0331 18 19.554 18H28.4451ZM29.8769 23.8857L29.9489 23.8137C30.164 23.5527 30.164 23.1747 29.939 22.9137C29.8139 22.7796 29.642 22.6977 29.4629 22.6797C29.2739 22.6698 29.0939 22.7337 28.958 22.8597L24.8999 26.0997C24.3779 26.5326 23.63 26.5326 23.0999 26.0997L19.0499 22.8597C18.77 22.6527 18.383 22.6797 18.1499 22.9227C17.9069 23.1657 17.8799 23.5527 18.086 23.8227L18.2039 23.9397L22.2989 27.1347C22.8029 27.5307 23.414 27.7467 24.0539 27.7467C24.692 27.7467 25.3139 27.5307 25.817 27.1347L29.8769 23.8857Z" fill="white"/>
<path d="M218.812 19.0566H215.115V22.0801H219.41V23H213.99V14.4688H219.352V15.3945H215.115V18.1367H218.812V19.0566ZM221.66 16.6602L221.689 17.3633C222.154 16.8164 222.781 16.543 223.57 16.543C224.457 16.543 225.061 16.8828 225.381 17.5625C225.592 17.2578 225.865 17.0117 226.201 16.8242C226.541 16.6367 226.941 16.543 227.402 16.543C228.793 16.543 229.5 17.2793 229.523 18.752V23H228.439V18.8164C228.439 18.3633 228.336 18.0254 228.129 17.8027C227.922 17.5762 227.574 17.4629 227.086 17.4629C226.684 17.4629 226.35 17.584 226.084 17.8262C225.818 18.0645 225.664 18.3867 225.621 18.793V23H224.531V18.8457C224.531 17.9238 224.08 17.4629 223.178 17.4629C222.467 17.4629 221.98 17.7656 221.719 18.3711V23H220.635V16.6602H221.66ZM235.078 23C235.016 22.875 234.965 22.6523 234.926 22.332C234.422 22.8555 233.82 23.1172 233.121 23.1172C232.496 23.1172 231.982 22.9414 231.58 22.5898C231.182 22.2344 230.982 21.7852 230.982 21.2422C230.982 20.582 231.232 20.0703 231.732 19.707C232.236 19.3398 232.943 19.1562 233.854 19.1562H234.908V18.6582C234.908 18.2793 234.795 17.9785 234.568 17.7559C234.342 17.5293 234.008 17.416 233.566 17.416C233.18 17.416 232.855 17.5137 232.594 17.709C232.332 17.9043 232.201 18.1406 232.201 18.418H231.111C231.111 18.1016 231.223 17.7969 231.445 17.5039C231.672 17.207 231.977 16.9727 232.359 16.8008C232.746 16.6289 233.17 16.543 233.631 16.543C234.361 16.543 234.934 16.7266 235.348 17.0938C235.762 17.457 235.977 17.959 235.992 18.5996V21.5176C235.992 22.0996 236.066 22.5625 236.215 22.9062V23H235.078ZM233.279 22.1738C233.619 22.1738 233.941 22.0859 234.246 21.9102C234.551 21.7344 234.771 21.5059 234.908 21.2246V19.9238H234.059C232.73 19.9238 232.066 20.3125 232.066 21.0898C232.066 21.4297 232.18 21.6953 232.406 21.8867C232.633 22.0781 232.924 22.1738 233.279 22.1738ZM238.869 23H237.785V16.6602H238.869V23ZM237.697 14.9785C237.697 14.8027 237.75 14.6543 237.855 14.5332C237.965 14.4121 238.125 14.3516 238.336 14.3516C238.547 14.3516 238.707 14.4121 238.816 14.5332C238.926 14.6543 238.98 14.8027 238.98 14.9785C238.98 15.1543 238.926 15.3008 238.816 15.418C238.707 15.5352 238.547 15.5938 238.336 15.5938C238.125 15.5938 237.965 15.5352 237.855 15.418C237.75 15.3008 237.697 15.1543 237.697 14.9785ZM241.787 23H240.703V14H241.787V23ZM249.803 19.5488H247.799V23H246.668V14.4688H249.492C250.453 14.4688 251.191 14.6875 251.707 15.125C252.227 15.5625 252.486 16.1992 252.486 17.0352C252.486 17.5664 252.342 18.0293 252.053 18.4238C251.768 18.8184 251.369 19.1133 250.857 19.3086L252.861 22.9297V23H251.654L249.803 19.5488ZM247.799 18.6289H249.527C250.086 18.6289 250.529 18.4844 250.857 18.1953C251.189 17.9062 251.355 17.5195 251.355 17.0352C251.355 16.5078 251.197 16.1035 250.881 15.8223C250.568 15.541 250.115 15.3984 249.521 15.3945H247.799V18.6289ZM256.529 23.1172C255.67 23.1172 254.971 22.8359 254.432 22.2734C253.893 21.707 253.623 20.9512 253.623 20.0059V19.8066C253.623 19.1777 253.742 18.6172 253.98 18.125C254.223 17.6289 254.559 17.2422 254.988 16.9648C255.422 16.6836 255.891 16.543 256.395 16.543C257.219 16.543 257.859 16.8145 258.316 17.3574C258.773 17.9004 259.002 18.6777 259.002 19.6895V20.1406H254.707C254.723 20.7656 254.904 21.2715 255.252 21.6582C255.604 22.041 256.049 22.2324 256.588 22.2324C256.971 22.2324 257.295 22.1543 257.561 21.998C257.826 21.8418 258.059 21.6348 258.258 21.377L258.92 21.8926C258.389 22.709 257.592 23.1172 256.529 23.1172ZM256.395 17.4336C255.957 17.4336 255.59 17.5938 255.293 17.9141C254.996 18.2305 254.812 18.6758 254.742 19.25H257.918V19.168C257.887 18.6172 257.738 18.1914 257.473 17.8906C257.207 17.5859 256.848 17.4336 256.395 17.4336ZM263.953 21.3184C263.953 21.0254 263.842 20.7988 263.619 20.6387C263.4 20.4746 263.016 20.334 262.465 20.2168C261.918 20.0996 261.482 19.959 261.158 19.7949C260.838 19.6309 260.6 19.4355 260.443 19.209C260.291 18.9824 260.215 18.7129 260.215 18.4004C260.215 17.8809 260.434 17.4414 260.871 17.082C261.312 16.7227 261.875 16.543 262.559 16.543C263.277 16.543 263.859 16.7285 264.305 17.0996C264.754 17.4707 264.979 17.9453 264.979 18.5234H263.889C263.889 18.2266 263.762 17.9707 263.508 17.7559C263.258 17.541 262.941 17.4336 262.559 17.4336C262.164 17.4336 261.855 17.5195 261.633 17.6914C261.41 17.8633 261.299 18.0879 261.299 18.3652C261.299 18.627 261.402 18.8242 261.609 18.957C261.816 19.0898 262.189 19.2168 262.729 19.3379C263.271 19.459 263.711 19.6035 264.047 19.7715C264.383 19.9395 264.631 20.1426 264.791 20.3809C264.955 20.6152 265.037 20.9023 265.037 21.2422C265.037 21.8086 264.811 22.2637 264.357 22.6074C263.904 22.9473 263.316 23.1172 262.594 23.1172C262.086 23.1172 261.637 23.0273 261.246 22.8477C260.855 22.668 260.549 22.418 260.326 22.0977C260.107 21.7734 259.998 21.4238 259.998 21.0488H261.082C261.102 21.4121 261.246 21.7012 261.516 21.916C261.789 22.127 262.148 22.2324 262.594 22.2324C263.004 22.2324 263.332 22.1504 263.578 21.9863C263.828 21.8184 263.953 21.5957 263.953 21.3184ZM267.469 16.6602L267.498 17.3633C267.963 16.8164 268.59 16.543 269.379 16.543C270.266 16.543 270.869 16.8828 271.189 17.5625C271.4 17.2578 271.674 17.0117 272.01 16.8242C272.35 16.6367 272.75 16.543 273.211 16.543C274.602 16.543 275.309 17.2793 275.332 18.752V23H274.248V18.8164C274.248 18.3633 274.145 18.0254 273.938 17.8027C273.73 17.5762 273.383 17.4629 272.895 17.4629C272.492 17.4629 272.158 17.584 271.893 17.8262C271.627 18.0645 271.473 18.3867 271.43 18.793V23H270.34V18.8457C270.34 17.9238 269.889 17.4629 268.986 17.4629C268.275 17.4629 267.789 17.7656 267.527 18.3711V23H266.443V16.6602H267.469ZM278.15 23H277.066V16.6602H278.15V23ZM276.979 14.9785C276.979 14.8027 277.031 14.6543 277.137 14.5332C277.246 14.4121 277.406 14.3516 277.617 14.3516C277.828 14.3516 277.988 14.4121 278.098 14.5332C278.207 14.6543 278.262 14.8027 278.262 14.9785C278.262 15.1543 278.207 15.3008 278.098 15.418C277.988 15.5352 277.828 15.5938 277.617 15.5938C277.406 15.5938 277.246 15.5352 277.137 15.418C277.031 15.3008 276.979 15.1543 276.979 14.9785ZM283.084 23.7324H282.152L285.715 14.4688H286.641L283.084 23.7324ZM296.619 15.3945H293.877V23H292.758V15.3945H290.021V14.4688H296.619V15.3945ZM299.76 23.1172C298.9 23.1172 298.201 22.8359 297.662 22.2734C297.123 21.707 296.854 20.9512 296.854 20.0059V19.8066C296.854 19.1777 296.973 18.6172 297.211 18.125C297.453 17.6289 297.789 17.2422 298.219 16.9648C298.652 16.6836 299.121 16.543 299.625 16.543C300.449 16.543 301.09 16.8145 301.547 17.3574C302.004 17.9004 302.232 18.6777 302.232 19.6895V20.1406H297.938C297.953 20.7656 298.135 21.2715 298.482 21.6582C298.834 22.041 299.279 22.2324 299.818 22.2324C300.201 22.2324 300.525 22.1543 300.791 21.998C301.057 21.8418 301.289 21.6348 301.488 21.377L302.15 21.8926C301.619 22.709 300.822 23.1172 299.76 23.1172ZM299.625 17.4336C299.188 17.4336 298.82 17.5938 298.523 17.9141C298.227 18.2305 298.043 18.6758 297.973 19.25H301.148V19.168C301.117 18.6172 300.969 18.1914 300.703 17.8906C300.438 17.5859 300.078 17.4336 299.625 17.4336ZM306.557 17.6328C306.393 17.6055 306.215 17.5918 306.023 17.5918C305.312 17.5918 304.83 17.8945 304.576 18.5V23H303.492V16.6602H304.547L304.564 17.3926C304.92 16.8262 305.424 16.543 306.076 16.543C306.287 16.543 306.447 16.5703 306.557 16.625V17.6328ZM312.926 19.9004C312.926 20.8691 312.703 21.6484 312.258 22.2383C311.812 22.8242 311.215 23.1172 310.465 23.1172C309.664 23.1172 309.045 22.834 308.607 22.2676L308.555 23H307.559V14H308.643V17.3574C309.08 16.8145 309.684 16.543 310.453 16.543C311.223 16.543 311.826 16.834 312.264 17.416C312.705 17.998 312.926 18.7949 312.926 19.8066V19.9004ZM311.842 19.7773C311.842 19.0391 311.699 18.4688 311.414 18.0664C311.129 17.6641 310.719 17.4629 310.184 17.4629C309.469 17.4629 308.955 17.7949 308.643 18.459V21.2012C308.975 21.8652 309.492 22.1973 310.195 22.1973C310.715 22.1973 311.119 21.9961 311.408 21.5938C311.697 21.1914 311.842 20.5859 311.842 19.7773ZM318.211 22.373C317.789 22.8691 317.17 23.1172 316.354 23.1172C315.678 23.1172 315.162 22.9219 314.807 22.5312C314.455 22.1367 314.277 21.5547 314.273 20.7852V16.6602H315.357V20.7559C315.357 21.7168 315.748 22.1973 316.529 22.1973C317.357 22.1973 317.908 21.8887 318.182 21.2715V16.6602H319.266V23H318.234L318.211 22.373ZM322.688 20.0645L322.008 20.7734V23H320.924V14H322.008V19.4434L322.588 18.7461L324.562 16.6602H325.881L323.414 19.3086L326.168 23H324.896L322.688 20.0645ZM330.914 23C330.852 22.875 330.801 22.6523 330.762 22.332C330.258 22.8555 329.656 23.1172 328.957 23.1172C328.332 23.1172 327.818 22.9414 327.416 22.5898C327.018 22.2344 326.818 21.7852 326.818 21.2422C326.818 20.582 327.068 20.0703 327.568 19.707C328.072 19.3398 328.779 19.1562 329.689 19.1562H330.744V18.6582C330.744 18.2793 330.631 17.9785 330.404 17.7559C330.178 17.5293 329.844 17.416 329.402 17.416C329.016 17.416 328.691 17.5137 328.43 17.709C328.168 17.9043 328.037 18.1406 328.037 18.418H326.947C326.947 18.1016 327.059 17.7969 327.281 17.5039C327.508 17.207 327.812 16.9727 328.195 16.8008C328.582 16.6289 329.006 16.543 329.467 16.543C330.197 16.543 330.77 16.7266 331.184 17.0938C331.598 17.457 331.812 17.959 331.828 18.5996V21.5176C331.828 22.0996 331.902 22.5625 332.051 22.9062V23H330.914ZM329.115 22.1738C329.455 22.1738 329.777 22.0859 330.082 21.9102C330.387 21.7344 330.607 21.5059 330.744 21.2246V19.9238H329.895C328.566 19.9238 327.902 20.3125 327.902 21.0898C327.902 21.4297 328.016 21.6953 328.242 21.8867C328.469 22.0781 328.76 22.1738 329.115 22.1738ZM340.418 22.373C339.996 22.8691 339.377 23.1172 338.561 23.1172C337.885 23.1172 337.369 22.9219 337.014 22.5312C336.662 22.1367 336.484 21.5547 336.48 20.7852V16.6602H337.564V20.7559C337.564 21.7168 337.955 22.1973 338.736 22.1973C339.564 22.1973 340.115 21.8887 340.389 21.2715V16.6602H341.473V23H340.441L340.418 22.373ZM344.15 16.6602L344.186 17.457C344.67 16.8477 345.303 16.543 346.084 16.543C347.424 16.543 348.1 17.2988 348.111 18.8105V23H347.027V18.8047C347.023 18.3477 346.918 18.0098 346.711 17.791C346.508 17.5723 346.189 17.4629 345.756 17.4629C345.404 17.4629 345.096 17.5566 344.83 17.7441C344.564 17.9316 344.357 18.1777 344.209 18.4824V23H343.125V16.6602H344.15ZM351.217 15.125V16.6602H352.4V17.498H351.217V21.4297C351.217 21.6836 351.27 21.875 351.375 22.0039C351.48 22.1289 351.66 22.1914 351.914 22.1914C352.039 22.1914 352.211 22.168 352.43 22.1211V23C352.145 23.0781 351.867 23.1172 351.598 23.1172C351.113 23.1172 350.748 22.9707 350.502 22.6777C350.256 22.3848 350.133 21.9688 350.133 21.4297V17.498H348.979V16.6602H350.133V15.125H351.217ZM357.586 22.373C357.164 22.8691 356.545 23.1172 355.729 23.1172C355.053 23.1172 354.537 22.9219 354.182 22.5312C353.83 22.1367 353.652 21.5547 353.648 20.7852V16.6602H354.732V20.7559C354.732 21.7168 355.123 22.1973 355.904 22.1973C356.732 22.1973 357.283 21.8887 357.557 21.2715V16.6602H358.641V23H357.609L357.586 22.373ZM362.062 20.0645L361.383 20.7734V23H360.299V14H361.383V19.4434L361.963 18.7461L363.938 16.6602H365.256L362.789 19.3086L365.543 23H364.271L362.062 20.0645ZM218.812 33.0566H215.115V36.0801H219.41V37H213.99V28.4688H219.352V29.3945H215.115V32.1367H218.812V33.0566ZM221.666 30.6602L221.701 31.457C222.186 30.8477 222.818 30.543 223.6 30.543C224.939 30.543 225.615 31.2988 225.627 32.8105V37H224.543V32.8047C224.539 32.3477 224.434 32.0098 224.227 31.791C224.023 31.5723 223.705 31.4629 223.271 31.4629C222.92 31.4629 222.611 31.5566 222.346 31.7441C222.08 31.9316 221.873 32.1777 221.725 32.4824V37H220.641V30.6602H221.666ZM228.732 29.125V30.6602H229.916V31.498H228.732V35.4297C228.732 35.6836 228.785 35.875 228.891 36.0039C228.996 36.1289 229.176 36.1914 229.43 36.1914C229.555 36.1914 229.727 36.168 229.945 36.1211V37C229.66 37.0781 229.383 37.1172 229.113 37.1172C228.629 37.1172 228.264 36.9707 228.018 36.6777C227.771 36.3848 227.648 35.9688 227.648 35.4297V31.498H226.494V30.6602H227.648V29.125H228.732ZM233.818 37.1172C232.959 37.1172 232.26 36.8359 231.721 36.2734C231.182 35.707 230.912 34.9512 230.912 34.0059V33.8066C230.912 33.1777 231.031 32.6172 231.27 32.125C231.512 31.6289 231.848 31.2422 232.277 30.9648C232.711 30.6836 233.18 30.543 233.684 30.543C234.508 30.543 235.148 30.8145 235.605 31.3574C236.062 31.9004 236.291 32.6777 236.291 33.6895V34.1406H231.996C232.012 34.7656 232.193 35.2715 232.541 35.6582C232.893 36.041 233.338 36.2324 233.877 36.2324C234.26 36.2324 234.584 36.1543 234.85 35.998C235.115 35.8418 235.348 35.6348 235.547 35.377L236.209 35.8926C235.678 36.709 234.881 37.1172 233.818 37.1172ZM233.684 31.4336C233.246 31.4336 232.879 31.5938 232.582 31.9141C232.285 32.2305 232.102 32.6758 232.031 33.25H235.207V33.168C235.176 32.6172 235.027 32.1914 234.762 31.8906C234.496 31.5859 234.137 31.4336 233.684 31.4336ZM240.615 31.6328C240.451 31.6055 240.273 31.5918 240.082 31.5918C239.371 31.5918 238.889 31.8945 238.635 32.5V37H237.551V30.6602H238.605L238.623 31.3926C238.979 30.8262 239.482 30.543 240.135 30.543C240.346 30.543 240.506 30.5703 240.615 30.625V31.6328ZM243.381 29.125V30.6602H244.564V31.498H243.381V35.4297C243.381 35.6836 243.434 35.875 243.539 36.0039C243.645 36.1289 243.824 36.1914 244.078 36.1914C244.203 36.1914 244.375 36.168 244.594 36.1211V37C244.309 37.0781 244.031 37.1172 243.762 37.1172C243.277 37.1172 242.912 36.9707 242.666 36.6777C242.42 36.3848 242.297 35.9688 242.297 35.4297V31.498H241.143V30.6602H242.297V29.125H243.381ZM249.75 37C249.688 36.875 249.637 36.6523 249.598 36.332C249.094 36.8555 248.492 37.1172 247.793 37.1172C247.168 37.1172 246.654 36.9414 246.252 36.5898C245.854 36.2344 245.654 35.7852 245.654 35.2422C245.654 34.582 245.904 34.0703 246.404 33.707C246.908 33.3398 247.615 33.1562 248.525 33.1562H249.58V32.6582C249.58 32.2793 249.467 31.9785 249.24 31.7559C249.014 31.5293 248.68 31.416 248.238 31.416C247.852 31.416 247.527 31.5137 247.266 31.709C247.004 31.9043 246.873 32.1406 246.873 32.418H245.783C245.783 32.1016 245.895 31.7969 246.117 31.5039C246.344 31.207 246.648 30.9727 247.031 30.8008C247.418 30.6289 247.842 30.543 248.303 30.543C249.033 30.543 249.605 30.7266 250.02 31.0938C250.434 31.457 250.648 31.959 250.664 32.5996V35.5176C250.664 36.0996 250.738 36.5625 250.887 36.9062V37H249.75ZM247.951 36.1738C248.291 36.1738 248.613 36.0859 248.918 35.9102C249.223 35.7344 249.443 35.5059 249.58 35.2246V33.9238H248.73C247.402 33.9238 246.738 34.3125 246.738 35.0898C246.738 35.4297 246.852 35.6953 247.078 35.8867C247.305 36.0781 247.596 36.1738 247.951 36.1738ZM253.541 37H252.457V30.6602H253.541V37ZM252.369 28.9785C252.369 28.8027 252.422 28.6543 252.527 28.5332C252.637 28.4121 252.797 28.3516 253.008 28.3516C253.219 28.3516 253.379 28.4121 253.488 28.5332C253.598 28.6543 253.652 28.8027 253.652 28.9785C253.652 29.1543 253.598 29.3008 253.488 29.418C253.379 29.5352 253.219 29.5938 253.008 29.5938C252.797 29.5938 252.637 29.5352 252.527 29.418C252.422 29.3008 252.369 29.1543 252.369 28.9785ZM256.307 30.6602L256.342 31.457C256.826 30.8477 257.459 30.543 258.24 30.543C259.58 30.543 260.256 31.2988 260.268 32.8105V37H259.184V32.8047C259.18 32.3477 259.074 32.0098 258.867 31.791C258.664 31.5723 258.346 31.4629 257.912 31.4629C257.561 31.4629 257.252 31.5566 256.986 31.7441C256.721 31.9316 256.514 32.1777 256.365 32.4824V37H255.281V30.6602H256.307ZM262.922 30.6602L262.951 31.3633C263.416 30.8164 264.043 30.543 264.832 30.543C265.719 30.543 266.322 30.8828 266.643 31.5625C266.854 31.2578 267.127 31.0117 267.463 30.8242C267.803 30.6367 268.203 30.543 268.664 30.543C270.055 30.543 270.762 31.2793 270.785 32.752V37H269.701V32.8164C269.701 32.3633 269.598 32.0254 269.391 31.8027C269.184 31.5762 268.836 31.4629 268.348 31.4629C267.945 31.4629 267.611 31.584 267.346 31.8262C267.08 32.0645 266.926 32.3867 266.883 32.793V37H265.793V32.8457C265.793 31.9238 265.342 31.4629 264.439 31.4629C263.729 31.4629 263.242 31.7656 262.98 32.3711V37H261.896V30.6602H262.922ZM275.057 37.1172C274.197 37.1172 273.498 36.8359 272.959 36.2734C272.42 35.707 272.15 34.9512 272.15 34.0059V33.8066C272.15 33.1777 272.27 32.6172 272.508 32.125C272.75 31.6289 273.086 31.2422 273.516 30.9648C273.949 30.6836 274.418 30.543 274.922 30.543C275.746 30.543 276.387 30.8145 276.844 31.3574C277.301 31.9004 277.529 32.6777 277.529 33.6895V34.1406H273.234C273.25 34.7656 273.432 35.2715 273.779 35.6582C274.131 36.041 274.576 36.2324 275.115 36.2324C275.498 36.2324 275.822 36.1543 276.088 35.998C276.354 35.8418 276.586 35.6348 276.785 35.377L277.447 35.8926C276.916 36.709 276.119 37.1172 275.057 37.1172ZM274.922 31.4336C274.484 31.4336 274.117 31.5938 273.82 31.9141C273.523 32.2305 273.34 32.6758 273.27 33.25H276.445V33.168C276.414 32.6172 276.266 32.1914 276 31.8906C275.734 31.5859 275.375 31.4336 274.922 31.4336ZM279.814 30.6602L279.85 31.457C280.334 30.8477 280.967 30.543 281.748 30.543C283.088 30.543 283.764 31.2988 283.775 32.8105V37H282.691V32.8047C282.688 32.3477 282.582 32.0098 282.375 31.791C282.172 31.5723 281.854 31.4629 281.42 31.4629C281.068 31.4629 280.76 31.5566 280.494 31.7441C280.229 31.9316 280.021 32.1777 279.873 32.4824V37H278.789V30.6602H279.814ZM286.881 29.125V30.6602H288.064V31.498H286.881V35.4297C286.881 35.6836 286.934 35.875 287.039 36.0039C287.145 36.1289 287.324 36.1914 287.578 36.1914C287.703 36.1914 287.875 36.168 288.094 36.1211V37C287.809 37.0781 287.531 37.1172 287.262 37.1172C286.777 37.1172 286.412 36.9707 286.166 36.6777C285.92 36.3848 285.797 35.9688 285.797 35.4297V31.498H284.643V30.6602H285.797V29.125H286.881ZM293.607 33.6602V37H292.482V28.4688H295.629C296.562 28.4688 297.293 28.707 297.82 29.1836C298.352 29.6602 298.617 30.291 298.617 31.0762C298.617 31.9043 298.357 32.543 297.838 32.9922C297.322 33.4375 296.582 33.6602 295.617 33.6602H293.607ZM293.607 32.7402H295.629C296.23 32.7402 296.691 32.5996 297.012 32.3184C297.332 32.0332 297.492 31.623 297.492 31.0879C297.492 30.5801 297.332 30.1738 297.012 29.8691C296.691 29.5645 296.252 29.4062 295.693 29.3945H293.607V32.7402ZM302.947 31.6328C302.783 31.6055 302.605 31.5918 302.414 31.5918C301.703 31.5918 301.221 31.8945 300.967 32.5V37H299.883V30.6602H300.938L300.955 31.3926C301.311 30.8262 301.814 30.543 302.467 30.543C302.678 30.543 302.838 30.5703 302.947 30.625V31.6328ZM306.463 37.1172C305.604 37.1172 304.904 36.8359 304.365 36.2734C303.826 35.707 303.557 34.9512 303.557 34.0059V33.8066C303.557 33.1777 303.676 32.6172 303.914 32.125C304.156 31.6289 304.492 31.2422 304.922 30.9648C305.355 30.6836 305.824 30.543 306.328 30.543C307.152 30.543 307.793 30.8145 308.25 31.3574C308.707 31.9004 308.936 32.6777 308.936 33.6895V34.1406H304.641C304.656 34.7656 304.838 35.2715 305.186 35.6582C305.537 36.041 305.982 36.2324 306.521 36.2324C306.904 36.2324 307.229 36.1543 307.494 35.998C307.76 35.8418 307.992 35.6348 308.191 35.377L308.854 35.8926C308.322 36.709 307.525 37.1172 306.463 37.1172ZM306.328 31.4336C305.891 31.4336 305.523 31.5938 305.227 31.9141C304.93 32.2305 304.746 32.6758 304.676 33.25H307.852V33.168C307.82 32.6172 307.672 32.1914 307.406 31.8906C307.141 31.5859 306.781 31.4336 306.328 31.4336ZM313.887 35.3184C313.887 35.0254 313.775 34.7988 313.553 34.6387C313.334 34.4746 312.949 34.334 312.398 34.2168C311.852 34.0996 311.416 33.959 311.092 33.7949C310.771 33.6309 310.533 33.4355 310.377 33.209C310.225 32.9824 310.148 32.7129 310.148 32.4004C310.148 31.8809 310.367 31.4414 310.805 31.082C311.246 30.7227 311.809 30.543 312.492 30.543C313.211 30.543 313.793 30.7285 314.238 31.0996C314.688 31.4707 314.912 31.9453 314.912 32.5234H313.822C313.822 32.2266 313.695 31.9707 313.441 31.7559C313.191 31.541 312.875 31.4336 312.492 31.4336C312.098 31.4336 311.789 31.5195 311.566 31.6914C311.344 31.8633 311.232 32.0879 311.232 32.3652C311.232 32.627 311.336 32.8242 311.543 32.957C311.75 33.0898 312.123 33.2168 312.662 33.3379C313.205 33.459 313.645 33.6035 313.98 33.7715C314.316 33.9395 314.564 34.1426 314.725 34.3809C314.889 34.6152 314.971 34.9023 314.971 35.2422C314.971 35.8086 314.744 36.2637 314.291 36.6074C313.838 36.9473 313.25 37.1172 312.527 37.1172C312.02 37.1172 311.57 37.0273 311.18 36.8477C310.789 36.668 310.482 36.418 310.26 36.0977C310.041 35.7734 309.932 35.4238 309.932 35.0488H311.016C311.035 35.4121 311.18 35.7012 311.449 35.916C311.723 36.127 312.082 36.2324 312.527 36.2324C312.938 36.2324 313.266 36.1504 313.512 35.9863C313.762 35.8184 313.887 35.5957 313.887 35.3184ZM320.074 35.3184C320.074 35.0254 319.963 34.7988 319.74 34.6387C319.521 34.4746 319.137 34.334 318.586 34.2168C318.039 34.0996 317.604 33.959 317.279 33.7949C316.959 33.6309 316.721 33.4355 316.564 33.209C316.412 32.9824 316.336 32.7129 316.336 32.4004C316.336 31.8809 316.555 31.4414 316.992 31.082C317.434 30.7227 317.996 30.543 318.68 30.543C319.398 30.543 319.98 30.7285 320.426 31.0996C320.875 31.4707 321.1 31.9453 321.1 32.5234H320.01C320.01 32.2266 319.883 31.9707 319.629 31.7559C319.379 31.541 319.062 31.4336 318.68 31.4336C318.285 31.4336 317.977 31.5195 317.754 31.6914C317.531 31.8633 317.42 32.0879 317.42 32.3652C317.42 32.627 317.523 32.8242 317.73 32.957C317.938 33.0898 318.311 33.2168 318.85 33.3379C319.393 33.459 319.832 33.6035 320.168 33.7715C320.504 33.9395 320.752 34.1426 320.912 34.3809C321.076 34.6152 321.158 34.9023 321.158 35.2422C321.158 35.8086 320.932 36.2637 320.479 36.6074C320.025 36.9473 319.438 37.1172 318.715 37.1172C318.207 37.1172 317.758 37.0273 317.367 36.8477C316.977 36.668 316.67 36.418 316.447 36.0977C316.229 35.7734 316.119 35.4238 316.119 35.0488H317.203C317.223 35.4121 317.367 35.7012 317.637 35.916C317.91 36.127 318.27 36.2324 318.715 36.2324C319.125 36.2324 319.453 36.1504 319.699 35.9863C319.949 35.8184 320.074 35.5957 320.074 35.3184ZM328.846 33.5488H326.842V37H325.711V28.4688H328.535C329.496 28.4688 330.234 28.6875 330.75 29.125C331.27 29.5625 331.529 30.1992 331.529 31.0352C331.529 31.5664 331.385 32.0293 331.096 32.4238C330.811 32.8184 330.412 33.1133 329.9 33.3086L331.904 36.9297V37H330.697L328.846 33.5488ZM326.842 32.6289H328.57C329.129 32.6289 329.572 32.4844 329.9 32.1953C330.232 31.9062 330.398 31.5195 330.398 31.0352C330.398 30.5078 330.24 30.1035 329.924 29.8223C329.611 29.541 329.158 29.3984 328.564 29.3945H326.842V32.6289ZM335.572 37.1172C334.713 37.1172 334.014 36.8359 333.475 36.2734C332.936 35.707 332.666 34.9512 332.666 34.0059V33.8066C332.666 33.1777 332.785 32.6172 333.023 32.125C333.266 31.6289 333.602 31.2422 334.031 30.9648C334.465 30.6836 334.934 30.543 335.438 30.543C336.262 30.543 336.902 30.8145 337.359 31.3574C337.816 31.9004 338.045 32.6777 338.045 33.6895V34.1406H333.75C333.766 34.7656 333.947 35.2715 334.295 35.6582C334.646 36.041 335.092 36.2324 335.631 36.2324C336.014 36.2324 336.338 36.1543 336.604 35.998C336.869 35.8418 337.102 35.6348 337.301 35.377L337.963 35.8926C337.432 36.709 336.635 37.1172 335.572 37.1172ZM335.438 31.4336C335 31.4336 334.633 31.5938 334.336 31.9141C334.039 32.2305 333.855 32.6758 333.785 33.25H336.961V33.168C336.93 32.6172 336.781 32.1914 336.516 31.8906C336.25 31.5859 335.891 31.4336 335.438 31.4336ZM340.482 37H339.398V28H340.482V37ZM344.854 37.1172C343.994 37.1172 343.295 36.8359 342.756 36.2734C342.217 35.707 341.947 34.9512 341.947 34.0059V33.8066C341.947 33.1777 342.066 32.6172 342.305 32.125C342.547 31.6289 342.883 31.2422 343.312 30.9648C343.746 30.6836 344.215 30.543 344.719 30.543C345.543 30.543 346.184 30.8145 346.641 31.3574C347.098 31.9004 347.326 32.6777 347.326 33.6895V34.1406H343.031C343.047 34.7656 343.229 35.2715 343.576 35.6582C343.928 36.041 344.373 36.2324 344.912 36.2324C345.295 36.2324 345.619 36.1543 345.885 35.998C346.15 35.8418 346.383 35.6348 346.582 35.377L347.244 35.8926C346.713 36.709 345.916 37.1172 344.854 37.1172ZM344.719 31.4336C344.281 31.4336 343.914 31.5938 343.617 31.9141C343.32 32.2305 343.137 32.6758 343.066 33.25H346.242V33.168C346.211 32.6172 346.062 32.1914 345.797 31.8906C345.531 31.5859 345.172 31.4336 344.719 31.4336ZM352.5 37C352.438 36.875 352.387 36.6523 352.348 36.332C351.844 36.8555 351.242 37.1172 350.543 37.1172C349.918 37.1172 349.404 36.9414 349.002 36.5898C348.604 36.2344 348.404 35.7852 348.404 35.2422C348.404 34.582 348.654 34.0703 349.154 33.707C349.658 33.3398 350.365 33.1562 351.275 33.1562H352.33V32.6582C352.33 32.2793 352.217 31.9785 351.99 31.7559C351.764 31.5293 351.43 31.416 350.988 31.416C350.602 31.416 350.277 31.5137 350.016 31.709C349.754 31.9043 349.623 32.1406 349.623 32.418H348.533C348.533 32.1016 348.645 31.7969 348.867 31.5039C349.094 31.207 349.398 30.9727 349.781 30.8008C350.168 30.6289 350.592 30.543 351.053 30.543C351.783 30.543 352.355 30.7266 352.77 31.0938C353.184 31.457 353.398 31.959 353.414 32.5996V35.5176C353.414 36.0996 353.488 36.5625 353.637 36.9062V37H352.5ZM350.701 36.1738C351.041 36.1738 351.363 36.0859 351.668 35.9102C351.973 35.7344 352.193 35.5059 352.33 35.2246V33.9238H351.48C350.152 33.9238 349.488 34.3125 349.488 35.0898C349.488 35.4297 349.602 35.6953 349.828 35.8867C350.055 36.0781 350.346 36.1738 350.701 36.1738ZM358.805 35.3184C358.805 35.0254 358.693 34.7988 358.471 34.6387C358.252 34.4746 357.867 34.334 357.316 34.2168C356.77 34.0996 356.334 33.959 356.01 33.7949C355.689 33.6309 355.451 33.4355 355.295 33.209C355.143 32.9824 355.066 32.7129 355.066 32.4004C355.066 31.8809 355.285 31.4414 355.723 31.082C356.164 30.7227 356.727 30.543 357.41 30.543C358.129 30.543 358.711 30.7285 359.156 31.0996C359.605 31.4707 359.83 31.9453 359.83 32.5234H358.74C358.74 32.2266 358.613 31.9707 358.359 31.7559C358.109 31.541 357.793 31.4336 357.41 31.4336C357.016 31.4336 356.707 31.5195 356.484 31.6914C356.262 31.8633 356.15 32.0879 356.15 32.3652C356.15 32.627 356.254 32.8242 356.461 32.957C356.668 33.0898 357.041 33.2168 357.58 33.3379C358.123 33.459 358.562 33.6035 358.898 33.7715C359.234 33.9395 359.482 34.1426 359.643 34.3809C359.807 34.6152 359.889 34.9023 359.889 35.2422C359.889 35.8086 359.662 36.2637 359.209 36.6074C358.756 36.9473 358.168 37.1172 357.445 37.1172C356.938 37.1172 356.488 37.0273 356.098 36.8477C355.707 36.668 355.4 36.418 355.178 36.0977C354.959 35.7734 354.85 35.4238 354.85 35.0488H355.934C355.953 35.4121 356.098 35.7012 356.367 35.916C356.641 36.127 357 36.2324 357.445 36.2324C357.855 36.2324 358.184 36.1504 358.43 35.9863C358.68 35.8184 358.805 35.5957 358.805 35.3184ZM363.932 37.1172C363.072 37.1172 362.373 36.8359 361.834 36.2734C361.295 35.707 361.025 34.9512 361.025 34.0059V33.8066C361.025 33.1777 361.145 32.6172 361.383 32.125C361.625 31.6289 361.961 31.2422 362.391 30.9648C362.824 30.6836 363.293 30.543 363.797 30.543C364.621 30.543 365.262 30.8145 365.719 31.3574C366.176 31.9004 366.404 32.6777 366.404 33.6895V34.1406H362.109C362.125 34.7656 362.307 35.2715 362.654 35.6582C363.006 36.041 363.451 36.2324 363.99 36.2324C364.373 36.2324 364.697 36.1543 364.963 35.998C365.229 35.8418 365.461 35.6348 365.66 35.377L366.322 35.8926C365.791 36.709 364.994 37.1172 363.932 37.1172ZM363.797 31.4336C363.359 31.4336 362.992 31.5938 362.695 31.9141C362.398 32.2305 362.215 32.6758 362.145 33.25H365.32V33.168C365.289 32.6172 365.141 32.1914 364.875 31.8906C364.609 31.5859 364.25 31.4336 363.797 31.4336Z" fill="white"/>
</svg>
