<svg width="387" height="65" viewBox="0 0 387 65" fill="none" xmlns="http://www.w3.org/2000/svg">
<rect width="387" height="65" rx="5" fill="#262626"/>
<rect width="387" height="65" rx="5" stroke="#BABABA"/>
<path d="M0.25 5C0.25 2.37665 2.37665 0.25 5 0.25H188.75V64.75H5C2.37665 64.75 0.25 62.6234 0.25 60V5Z" fill="#383838" stroke="#2E2E2E" stroke-width="0.5"/>
<path d="M212.952 25H208.164V16.432H212.952V17.38H209.244V20.056H212.736V20.992H209.244V24.052H212.952V25ZM221.744 18.448C222.472 18.448 223.016 18.636 223.376 19.012C223.736 19.38 223.916 19.98 223.916 20.812V25H222.872V20.86C222.872 19.844 222.436 19.336 221.564 19.336C220.94 19.336 220.492 19.516 220.22 19.876C219.956 20.236 219.824 20.76 219.824 21.448V25H218.78V20.86C218.78 19.844 218.34 19.336 217.46 19.336C216.812 19.336 216.364 19.536 216.116 19.936C215.868 20.336 215.744 20.912 215.744 21.664V25H214.688V18.568H215.54L215.696 19.444H215.756C215.956 19.108 216.224 18.86 216.56 18.7C216.904 18.532 217.268 18.448 217.652 18.448C218.66 18.448 219.316 18.808 219.62 19.528H219.68C219.896 19.16 220.188 18.888 220.556 18.712C220.932 18.536 221.328 18.448 221.744 18.448ZM228.339 18.46C229.123 18.46 229.703 18.632 230.079 18.976C230.455 19.32 230.643 19.868 230.643 20.62V25H229.875L229.671 24.088H229.623C229.343 24.44 229.047 24.7 228.735 24.868C228.431 25.036 228.007 25.12 227.463 25.12C226.879 25.12 226.395 24.968 226.011 24.664C225.627 24.352 225.435 23.868 225.435 23.212C225.435 22.572 225.687 22.08 226.191 21.736C226.695 21.384 227.471 21.192 228.519 21.16L229.611 21.124V20.74C229.611 20.204 229.495 19.832 229.263 19.624C229.031 19.416 228.703 19.312 228.279 19.312C227.943 19.312 227.623 19.364 227.319 19.468C227.015 19.564 226.731 19.676 226.467 19.804L226.143 19.012C226.423 18.86 226.755 18.732 227.139 18.628C227.523 18.516 227.923 18.46 228.339 18.46ZM228.651 21.892C227.851 21.924 227.295 22.052 226.983 22.276C226.679 22.5 226.527 22.816 226.527 23.224C226.527 23.584 226.635 23.848 226.851 24.016C227.075 24.184 227.359 24.268 227.703 24.268C228.247 24.268 228.699 24.12 229.059 23.824C229.419 23.52 229.599 23.056 229.599 22.432V21.856L228.651 21.892ZM233.169 16.156C233.329 16.156 233.469 16.212 233.589 16.324C233.717 16.428 233.781 16.596 233.781 16.828C233.781 17.052 233.717 17.22 233.589 17.332C233.469 17.444 233.329 17.5 233.169 17.5C232.993 17.5 232.845 17.444 232.725 17.332C232.605 17.22 232.545 17.052 232.545 16.828C232.545 16.596 232.605 16.428 232.725 16.324C232.845 16.212 232.993 16.156 233.169 16.156ZM233.685 18.568V25H232.629V18.568H233.685ZM236.779 25H235.723V15.88H236.779V25ZM244.442 16.432C245.506 16.432 246.29 16.636 246.794 17.044C247.306 17.444 247.562 18.052 247.562 18.868C247.562 19.324 247.478 19.704 247.31 20.008C247.142 20.312 246.926 20.556 246.662 20.74C246.406 20.916 246.134 21.056 245.846 21.16L248.198 25H246.938L244.862 21.46H243.158V25H242.078V16.432H244.442ZM244.382 17.368H243.158V20.548H244.442C245.138 20.548 245.646 20.412 245.966 20.14C246.286 19.86 246.446 19.452 246.446 18.916C246.446 18.356 246.278 17.96 245.942 17.728C245.606 17.488 245.086 17.368 244.382 17.368ZM251.883 18.448C252.435 18.448 252.907 18.568 253.299 18.808C253.699 19.048 254.003 19.388 254.211 19.828C254.427 20.26 254.535 20.768 254.535 21.352V21.988H250.131C250.147 22.716 250.331 23.272 250.683 23.656C251.043 24.032 251.543 24.22 252.183 24.22C252.591 24.22 252.951 24.184 253.263 24.112C253.583 24.032 253.911 23.92 254.247 23.776V24.7C253.919 24.844 253.595 24.948 253.275 25.012C252.955 25.084 252.575 25.12 252.135 25.12C251.527 25.12 250.987 24.996 250.515 24.748C250.051 24.5 249.687 24.132 249.423 23.644C249.167 23.148 249.039 22.544 249.039 21.832C249.039 21.128 249.155 20.524 249.387 20.02C249.627 19.516 249.959 19.128 250.383 18.856C250.815 18.584 251.315 18.448 251.883 18.448ZM251.871 19.312C251.367 19.312 250.967 19.476 250.671 19.804C250.383 20.124 250.211 20.572 250.155 21.148H253.431C253.423 20.604 253.295 20.164 253.047 19.828C252.799 19.484 252.407 19.312 251.871 19.312ZM260.36 23.224C260.36 23.848 260.128 24.32 259.664 24.64C259.2 24.96 258.576 25.12 257.792 25.12C257.344 25.12 256.956 25.084 256.628 25.012C256.308 24.94 256.024 24.84 255.776 24.712V23.752C256.032 23.88 256.34 24 256.7 24.112C257.068 24.216 257.44 24.268 257.816 24.268C258.352 24.268 258.74 24.184 258.98 24.016C259.22 23.84 259.34 23.608 259.34 23.32C259.34 23.16 259.296 23.016 259.208 22.888C259.12 22.76 258.96 22.632 258.728 22.504C258.504 22.376 258.18 22.232 257.756 22.072C257.34 21.912 256.984 21.752 256.688 21.592C256.392 21.432 256.164 21.24 256.004 21.016C255.844 20.792 255.764 20.504 255.764 20.152C255.764 19.608 255.984 19.188 256.424 18.892C256.872 18.596 257.456 18.448 258.176 18.448C258.568 18.448 258.932 18.488 259.268 18.568C259.612 18.64 259.932 18.744 260.228 18.88L259.868 19.72C259.596 19.608 259.312 19.512 259.016 19.432C258.72 19.352 258.416 19.312 258.104 19.312C257.672 19.312 257.34 19.384 257.108 19.528C256.884 19.664 256.772 19.852 256.772 20.092C256.772 20.268 256.824 20.42 256.928 20.548C257.032 20.668 257.204 20.788 257.444 20.908C257.692 21.02 258.02 21.156 258.428 21.316C258.836 21.468 259.184 21.624 259.472 21.784C259.76 21.944 259.98 22.14 260.132 22.372C260.284 22.596 260.36 22.88 260.36 23.224ZM268.971 18.448C269.699 18.448 270.243 18.636 270.603 19.012C270.963 19.38 271.143 19.98 271.143 20.812V25H270.099V20.86C270.099 19.844 269.663 19.336 268.791 19.336C268.167 19.336 267.719 19.516 267.447 19.876C267.183 20.236 267.051 20.76 267.051 21.448V25H266.007V20.86C266.007 19.844 265.567 19.336 264.687 19.336C264.039 19.336 263.591 19.536 263.343 19.936C263.095 20.336 262.971 20.912 262.971 21.664V25H261.915V18.568H262.767L262.923 19.444H262.983C263.183 19.108 263.451 18.86 263.787 18.7C264.131 18.532 264.495 18.448 264.879 18.448C265.887 18.448 266.543 18.808 266.847 19.528H266.907C267.123 19.16 267.415 18.888 267.783 18.712C268.159 18.536 268.555 18.448 268.971 18.448ZM273.669 16.156C273.829 16.156 273.969 16.212 274.089 16.324C274.217 16.428 274.281 16.596 274.281 16.828C274.281 17.052 274.217 17.22 274.089 17.332C273.969 17.444 273.829 17.5 273.669 17.5C273.493 17.5 273.345 17.444 273.225 17.332C273.105 17.22 273.045 17.052 273.045 16.828C273.045 16.596 273.105 16.428 273.225 16.324C273.345 16.212 273.493 16.156 273.669 16.156ZM274.185 18.568V25H273.129V18.568H274.185ZM281.968 16.3C282.608 16.3 283.112 16.464 283.48 16.792C283.856 17.112 284.044 17.564 284.044 18.148C284.044 18.652 283.88 19.08 283.552 19.432C283.232 19.784 282.824 20.104 282.328 20.392L284.644 22.624C284.852 22.376 285.02 22.092 285.148 21.772C285.284 21.444 285.396 21.092 285.484 20.716H286.552C286.424 21.228 286.264 21.704 286.072 22.144C285.88 22.584 285.632 22.968 285.328 23.296L287.08 25H285.652L284.608 23.992C284.232 24.328 283.812 24.6 283.348 24.808C282.884 25.016 282.32 25.12 281.656 25.12C280.832 25.12 280.176 24.916 279.688 24.508C279.2 24.1 278.956 23.52 278.956 22.768C278.956 22.152 279.12 21.66 279.448 21.292C279.784 20.916 280.236 20.568 280.804 20.248C280.548 19.96 280.308 19.652 280.084 19.324C279.868 18.996 279.76 18.612 279.76 18.172C279.76 17.58 279.956 17.12 280.348 16.792C280.748 16.464 281.288 16.3 281.968 16.3ZM281.932 17.164C281.596 17.164 281.32 17.252 281.104 17.428C280.896 17.604 280.792 17.848 280.792 18.16C280.792 18.448 280.868 18.716 281.02 18.964C281.172 19.204 281.392 19.472 281.68 19.768C282.152 19.496 282.488 19.24 282.688 19C282.896 18.752 283 18.468 283 18.148C283 17.86 282.904 17.624 282.712 17.44C282.52 17.256 282.26 17.164 281.932 17.164ZM281.44 20.908C281.008 21.164 280.668 21.424 280.42 21.688C280.18 21.952 280.06 22.3 280.06 22.732C280.06 23.172 280.208 23.524 280.504 23.788C280.8 24.052 281.196 24.184 281.692 24.184C282.204 24.184 282.644 24.1 283.012 23.932C283.38 23.764 283.688 23.564 283.936 23.332L281.44 20.908ZM294.103 25H293.023V17.38H290.347V16.432H296.767V17.38H294.103V25ZM299.555 18.448C300.107 18.448 300.579 18.568 300.971 18.808C301.371 19.048 301.675 19.388 301.883 19.828C302.099 20.26 302.207 20.768 302.207 21.352V21.988H297.803C297.819 22.716 298.003 23.272 298.355 23.656C298.715 24.032 299.215 24.22 299.855 24.22C300.263 24.22 300.623 24.184 300.935 24.112C301.255 24.032 301.583 23.92 301.919 23.776V24.7C301.591 24.844 301.267 24.948 300.947 25.012C300.627 25.084 300.247 25.12 299.807 25.12C299.199 25.12 298.659 24.996 298.187 24.748C297.723 24.5 297.359 24.132 297.095 23.644C296.839 23.148 296.711 22.544 296.711 21.832C296.711 21.128 296.827 20.524 297.059 20.02C297.299 19.516 297.631 19.128 298.055 18.856C298.487 18.584 298.987 18.448 299.555 18.448ZM299.543 19.312C299.039 19.312 298.639 19.476 298.343 19.804C298.055 20.124 297.883 20.572 297.827 21.148H301.103C301.095 20.604 300.967 20.164 300.719 19.828C300.471 19.484 300.079 19.312 299.543 19.312ZM306.844 18.448C306.964 18.448 307.092 18.456 307.228 18.472C307.372 18.48 307.496 18.496 307.6 18.52L307.468 19.492C307.364 19.468 307.248 19.448 307.12 19.432C307 19.416 306.884 19.408 306.772 19.408C306.444 19.408 306.136 19.5 305.848 19.684C305.56 19.86 305.328 20.112 305.152 20.44C304.984 20.76 304.9 21.136 304.9 21.568V25H303.844V18.568H304.708L304.828 19.744H304.876C305.084 19.392 305.352 19.088 305.68 18.832C306.008 18.576 306.396 18.448 306.844 18.448ZM309.857 18.1C309.857 18.372 309.849 18.628 309.833 18.868C309.825 19.1 309.813 19.284 309.797 19.42H309.857C310.041 19.148 310.293 18.92 310.613 18.736C310.933 18.552 311.345 18.46 311.849 18.46C312.649 18.46 313.289 18.74 313.769 19.3C314.257 19.852 314.501 20.68 314.501 21.784C314.501 22.888 314.257 23.72 313.769 24.28C313.281 24.84 312.641 25.12 311.849 25.12C311.345 25.12 310.933 25.028 310.613 24.844C310.293 24.66 310.041 24.44 309.857 24.184H309.773L309.557 25H308.801V15.88H309.857V18.1ZM311.669 19.336C310.989 19.336 310.517 19.532 310.253 19.924C309.989 20.316 309.857 20.924 309.857 21.748V21.796C309.857 22.588 309.985 23.196 310.241 23.62C310.505 24.036 310.989 24.244 311.693 24.244C312.269 24.244 312.697 24.032 312.977 23.608C313.265 23.184 313.409 22.572 313.409 21.772C313.409 20.148 312.829 19.336 311.669 19.336ZM321.56 18.568V25H320.696L320.54 24.148H320.492C320.284 24.484 319.996 24.732 319.628 24.892C319.26 25.044 318.868 25.12 318.452 25.12C317.676 25.12 317.092 24.936 316.7 24.568C316.308 24.192 316.112 23.596 316.112 22.78V18.568H317.18V22.708C317.18 23.732 317.656 24.244 318.608 24.244C319.32 24.244 319.812 24.044 320.084 23.644C320.364 23.244 320.504 22.668 320.504 21.916V18.568H321.56ZM324.646 20.644C324.646 20.772 324.638 20.94 324.622 21.148C324.614 21.356 324.606 21.536 324.598 21.688H324.646C324.694 21.624 324.766 21.532 324.862 21.412C324.958 21.292 325.054 21.172 325.15 21.052C325.254 20.924 325.342 20.82 325.414 20.74L327.466 18.568H328.702L326.098 21.316L328.882 25H327.61L325.378 22L324.646 22.636V25H323.602V15.88H324.646V20.644ZM332.448 18.46C333.232 18.46 333.812 18.632 334.188 18.976C334.564 19.32 334.752 19.868 334.752 20.62V25H333.984L333.78 24.088H333.732C333.452 24.44 333.156 24.7 332.844 24.868C332.54 25.036 332.116 25.12 331.572 25.12C330.988 25.12 330.504 24.968 330.12 24.664C329.736 24.352 329.544 23.868 329.544 23.212C329.544 22.572 329.796 22.08 330.3 21.736C330.804 21.384 331.58 21.192 332.628 21.16L333.72 21.124V20.74C333.72 20.204 333.604 19.832 333.372 19.624C333.14 19.416 332.812 19.312 332.388 19.312C332.052 19.312 331.732 19.364 331.428 19.468C331.124 19.564 330.84 19.676 330.576 19.804L330.252 19.012C330.532 18.86 330.864 18.732 331.248 18.628C331.632 18.516 332.032 18.46 332.448 18.46ZM332.76 21.892C331.96 21.924 331.404 22.052 331.092 22.276C330.788 22.5 330.636 22.816 330.636 23.224C330.636 23.584 330.744 23.848 330.96 24.016C331.184 24.184 331.468 24.268 331.812 24.268C332.356 24.268 332.808 24.12 333.168 23.824C333.528 23.52 333.708 23.056 333.708 22.432V21.856L332.76 21.892ZM345.232 18.568V25H344.368L344.212 24.148H344.164C343.956 24.484 343.668 24.732 343.3 24.892C342.932 25.044 342.54 25.12 342.124 25.12C341.348 25.12 340.764 24.936 340.372 24.568C339.98 24.192 339.784 23.596 339.784 22.78V18.568H340.852V22.708C340.852 23.732 341.328 24.244 342.28 24.244C342.992 24.244 343.484 24.044 343.756 23.644C344.036 23.244 344.176 22.668 344.176 21.916V18.568H345.232ZM350.37 18.448C351.138 18.448 351.718 18.636 352.11 19.012C352.502 19.38 352.698 19.98 352.698 20.812V25H351.654V20.884C351.654 19.852 351.174 19.336 350.214 19.336C349.502 19.336 349.01 19.536 348.738 19.936C348.466 20.336 348.33 20.912 348.33 21.664V25H347.274V18.568H348.126L348.282 19.444H348.342C348.55 19.108 348.838 18.86 349.206 18.7C349.574 18.532 349.962 18.448 350.37 18.448ZM356.84 24.256C357 24.256 357.164 24.244 357.332 24.22C357.5 24.188 357.636 24.156 357.74 24.124V24.928C357.628 24.984 357.468 25.028 357.26 25.06C357.052 25.1 356.852 25.12 356.66 25.12C356.324 25.12 356.012 25.064 355.724 24.952C355.444 24.832 355.216 24.628 355.04 24.34C354.864 24.052 354.776 23.648 354.776 23.128V19.384H353.864V18.88L354.788 18.46L355.208 17.092H355.832V18.568H357.692V19.384H355.832V23.104C355.832 23.496 355.924 23.788 356.108 23.98C356.3 24.164 356.544 24.256 356.84 24.256ZM364.404 18.568V25H363.54L363.384 24.148H363.336C363.128 24.484 362.84 24.732 362.472 24.892C362.104 25.044 361.712 25.12 361.296 25.12C360.52 25.12 359.936 24.936 359.544 24.568C359.152 24.192 358.956 23.596 358.956 22.78V18.568H360.024V22.708C360.024 23.732 360.5 24.244 361.452 24.244C362.164 24.244 362.656 24.044 362.928 23.644C363.208 23.244 363.348 22.668 363.348 21.916V18.568H364.404ZM367.49 20.644C367.49 20.772 367.482 20.94 367.466 21.148C367.458 21.356 367.45 21.536 367.442 21.688H367.49C367.538 21.624 367.61 21.532 367.706 21.412C367.802 21.292 367.898 21.172 367.994 21.052C368.098 20.924 368.186 20.82 368.258 20.74L370.31 18.568H371.546L368.942 21.316L371.726 25H370.454L368.222 22L367.49 22.636V25H366.446V15.88H367.49V20.644ZM212.952 43H208.164V34.432H212.952V35.38H209.244V38.056H212.736V38.992H209.244V42.052H212.952V43ZM217.784 36.448C218.552 36.448 219.132 36.636 219.524 37.012C219.916 37.38 220.112 37.98 220.112 38.812V43H219.068V38.884C219.068 37.852 218.588 37.336 217.628 37.336C216.916 37.336 216.424 37.536 216.152 37.936C215.88 38.336 215.744 38.912 215.744 39.664V43H214.688V36.568H215.54L215.696 37.444H215.756C215.964 37.108 216.252 36.86 216.62 36.7C216.988 36.532 217.376 36.448 217.784 36.448ZM224.254 42.256C224.414 42.256 224.578 42.244 224.746 42.22C224.914 42.188 225.05 42.156 225.154 42.124V42.928C225.042 42.984 224.882 43.028 224.674 43.06C224.466 43.1 224.266 43.12 224.074 43.12C223.738 43.12 223.426 43.064 223.138 42.952C222.858 42.832 222.63 42.628 222.454 42.34C222.278 42.052 222.19 41.648 222.19 41.128V37.384H221.278V36.88L222.202 36.46L222.622 35.092H223.246V36.568H225.106V37.384H223.246V41.104C223.246 41.496 223.338 41.788 223.522 41.98C223.714 42.164 223.958 42.256 224.254 42.256ZM228.926 36.448C229.478 36.448 229.95 36.568 230.342 36.808C230.742 37.048 231.046 37.388 231.254 37.828C231.47 38.26 231.578 38.768 231.578 39.352V39.988H227.174C227.19 40.716 227.374 41.272 227.726 41.656C228.086 42.032 228.586 42.22 229.226 42.22C229.634 42.22 229.994 42.184 230.306 42.112C230.626 42.032 230.954 41.92 231.29 41.776V42.7C230.962 42.844 230.638 42.948 230.318 43.012C229.998 43.084 229.618 43.12 229.178 43.12C228.57 43.12 228.03 42.996 227.558 42.748C227.094 42.5 226.73 42.132 226.466 41.644C226.21 41.148 226.082 40.544 226.082 39.832C226.082 39.128 226.198 38.524 226.43 38.02C226.67 37.516 227.002 37.128 227.426 36.856C227.858 36.584 228.358 36.448 228.926 36.448ZM228.914 37.312C228.41 37.312 228.01 37.476 227.714 37.804C227.426 38.124 227.254 38.572 227.198 39.148H230.474C230.466 38.604 230.338 38.164 230.09 37.828C229.842 37.484 229.45 37.312 228.914 37.312ZM236.215 36.448C236.335 36.448 236.463 36.456 236.599 36.472C236.743 36.48 236.867 36.496 236.971 36.52L236.839 37.492C236.735 37.468 236.619 37.448 236.491 37.432C236.371 37.416 236.255 37.408 236.143 37.408C235.815 37.408 235.507 37.5 235.219 37.684C234.931 37.86 234.699 38.112 234.523 38.44C234.355 38.76 234.271 39.136 234.271 39.568V43H233.215V36.568H234.079L234.199 37.744H234.247C234.455 37.392 234.723 37.088 235.051 36.832C235.379 36.576 235.767 36.448 236.215 36.448ZM240.32 42.256C240.48 42.256 240.644 42.244 240.812 42.22C240.98 42.188 241.116 42.156 241.22 42.124V42.928C241.108 42.984 240.948 43.028 240.74 43.06C240.532 43.1 240.332 43.12 240.14 43.12C239.804 43.12 239.492 43.064 239.204 42.952C238.924 42.832 238.696 42.628 238.52 42.34C238.344 42.052 238.256 41.648 238.256 41.128V37.384H237.344V36.88L238.268 36.46L238.688 35.092H239.312V36.568H241.172V37.384H239.312V41.104C239.312 41.496 239.404 41.788 239.588 41.98C239.78 42.164 240.024 42.256 240.32 42.256ZM244.944 36.46C245.728 36.46 246.308 36.632 246.684 36.976C247.06 37.32 247.248 37.868 247.248 38.62V43H246.48L246.276 42.088H246.228C245.948 42.44 245.652 42.7 245.34 42.868C245.036 43.036 244.612 43.12 244.068 43.12C243.484 43.12 243 42.968 242.616 42.664C242.232 42.352 242.04 41.868 242.04 41.212C242.04 40.572 242.292 40.08 242.796 39.736C243.3 39.384 244.076 39.192 245.124 39.16L246.216 39.124V38.74C246.216 38.204 246.1 37.832 245.868 37.624C245.636 37.416 245.308 37.312 244.884 37.312C244.548 37.312 244.228 37.364 243.924 37.468C243.62 37.564 243.336 37.676 243.072 37.804L242.748 37.012C243.028 36.86 243.36 36.732 243.744 36.628C244.128 36.516 244.528 36.46 244.944 36.46ZM245.256 39.892C244.456 39.924 243.9 40.052 243.588 40.276C243.284 40.5 243.132 40.816 243.132 41.224C243.132 41.584 243.24 41.848 243.456 42.016C243.68 42.184 243.964 42.268 244.308 42.268C244.852 42.268 245.304 42.12 245.664 41.824C246.024 41.52 246.204 41.056 246.204 40.432V39.856L245.256 39.892ZM249.775 34.156C249.935 34.156 250.075 34.212 250.195 34.324C250.323 34.428 250.387 34.596 250.387 34.828C250.387 35.052 250.323 35.22 250.195 35.332C250.075 35.444 249.935 35.5 249.775 35.5C249.599 35.5 249.451 35.444 249.331 35.332C249.211 35.22 249.151 35.052 249.151 34.828C249.151 34.596 249.211 34.428 249.331 34.324C249.451 34.212 249.599 34.156 249.775 34.156ZM250.291 36.568V43H249.235V36.568H250.291ZM255.425 36.448C256.193 36.448 256.773 36.636 257.165 37.012C257.557 37.38 257.753 37.98 257.753 38.812V43H256.709V38.884C256.709 37.852 256.229 37.336 255.269 37.336C254.557 37.336 254.065 37.536 253.793 37.936C253.521 38.336 253.385 38.912 253.385 39.664V43H252.329V36.568H253.181L253.337 37.444H253.397C253.605 37.108 253.893 36.86 254.261 36.7C254.629 36.532 255.017 36.448 255.425 36.448ZM266.803 36.448C267.531 36.448 268.075 36.636 268.435 37.012C268.795 37.38 268.975 37.98 268.975 38.812V43H267.931V38.86C267.931 37.844 267.495 37.336 266.623 37.336C265.999 37.336 265.551 37.516 265.279 37.876C265.015 38.236 264.883 38.76 264.883 39.448V43H263.839V38.86C263.839 37.844 263.399 37.336 262.519 37.336C261.871 37.336 261.423 37.536 261.175 37.936C260.927 38.336 260.803 38.912 260.803 39.664V43H259.747V36.568H260.599L260.755 37.444H260.815C261.015 37.108 261.283 36.86 261.619 36.7C261.963 36.532 262.327 36.448 262.711 36.448C263.719 36.448 264.375 36.808 264.679 37.528H264.739C264.955 37.16 265.247 36.888 265.615 36.712C265.991 36.536 266.387 36.448 266.803 36.448ZM273.445 36.448C273.997 36.448 274.469 36.568 274.861 36.808C275.261 37.048 275.565 37.388 275.773 37.828C275.989 38.26 276.097 38.768 276.097 39.352V39.988H271.693C271.709 40.716 271.893 41.272 272.245 41.656C272.605 42.032 273.105 42.22 273.745 42.22C274.153 42.22 274.513 42.184 274.825 42.112C275.145 42.032 275.473 41.92 275.809 41.776V42.7C275.481 42.844 275.157 42.948 274.837 43.012C274.517 43.084 274.137 43.12 273.697 43.12C273.089 43.12 272.549 42.996 272.077 42.748C271.613 42.5 271.249 42.132 270.985 41.644C270.729 41.148 270.601 40.544 270.601 39.832C270.601 39.128 270.717 38.524 270.949 38.02C271.189 37.516 271.521 37.128 271.945 36.856C272.377 36.584 272.877 36.448 273.445 36.448ZM273.433 37.312C272.929 37.312 272.529 37.476 272.233 37.804C271.945 38.124 271.773 38.572 271.717 39.148H274.993C274.985 38.604 274.857 38.164 274.609 37.828C274.361 37.484 273.969 37.312 273.433 37.312ZM280.831 36.448C281.599 36.448 282.179 36.636 282.571 37.012C282.963 37.38 283.159 37.98 283.159 38.812V43H282.115V38.884C282.115 37.852 281.635 37.336 280.675 37.336C279.963 37.336 279.471 37.536 279.199 37.936C278.927 38.336 278.791 38.912 278.791 39.664V43H277.735V36.568H278.587L278.743 37.444H278.803C279.011 37.108 279.299 36.86 279.667 36.7C280.035 36.532 280.423 36.448 280.831 36.448ZM287.301 42.256C287.461 42.256 287.625 42.244 287.793 42.22C287.961 42.188 288.097 42.156 288.201 42.124V42.928C288.089 42.984 287.929 43.028 287.721 43.06C287.513 43.1 287.313 43.12 287.121 43.12C286.785 43.12 286.473 43.064 286.185 42.952C285.905 42.832 285.677 42.628 285.501 42.34C285.325 42.052 285.237 41.648 285.237 41.128V37.384H284.325V36.88L285.249 36.46L285.669 35.092H286.293V36.568H288.153V37.384H286.293V41.104C286.293 41.496 286.385 41.788 286.569 41.98C286.761 42.164 287.005 42.256 287.301 42.256ZM295.018 34.432C296.138 34.432 296.954 34.652 297.466 35.092C297.978 35.532 298.234 36.152 298.234 36.952C298.234 37.424 298.126 37.868 297.91 38.284C297.702 38.692 297.346 39.024 296.842 39.28C296.346 39.536 295.67 39.664 294.814 39.664H293.83V43H292.75V34.432H295.018ZM294.922 35.356H293.83V38.74H294.694C295.51 38.74 296.118 38.608 296.518 38.344C296.918 38.08 297.118 37.632 297.118 37C297.118 36.448 296.942 36.036 296.59 35.764C296.238 35.492 295.682 35.356 294.922 35.356ZM302.872 36.448C302.992 36.448 303.12 36.456 303.256 36.472C303.4 36.48 303.524 36.496 303.628 36.52L303.496 37.492C303.392 37.468 303.276 37.448 303.148 37.432C303.028 37.416 302.912 37.408 302.8 37.408C302.472 37.408 302.164 37.5 301.876 37.684C301.588 37.86 301.356 38.112 301.18 38.44C301.012 38.76 300.928 39.136 300.928 39.568V43H299.872V36.568H300.736L300.856 37.744H300.904C301.112 37.392 301.38 37.088 301.708 36.832C302.036 36.576 302.424 36.448 302.872 36.448ZM307.078 36.448C307.63 36.448 308.102 36.568 308.494 36.808C308.894 37.048 309.198 37.388 309.406 37.828C309.622 38.26 309.73 38.768 309.73 39.352V39.988H305.326C305.342 40.716 305.526 41.272 305.878 41.656C306.238 42.032 306.738 42.22 307.378 42.22C307.786 42.22 308.146 42.184 308.458 42.112C308.778 42.032 309.106 41.92 309.442 41.776V42.7C309.114 42.844 308.79 42.948 308.47 43.012C308.15 43.084 307.77 43.12 307.33 43.12C306.722 43.12 306.182 42.996 305.71 42.748C305.246 42.5 304.882 42.132 304.618 41.644C304.362 41.148 304.234 40.544 304.234 39.832C304.234 39.128 304.35 38.524 304.582 38.02C304.822 37.516 305.154 37.128 305.578 36.856C306.01 36.584 306.51 36.448 307.078 36.448ZM307.066 37.312C306.562 37.312 306.162 37.476 305.866 37.804C305.578 38.124 305.406 38.572 305.35 39.148H308.626C308.618 38.604 308.49 38.164 308.242 37.828C307.994 37.484 307.602 37.312 307.066 37.312ZM315.556 41.224C315.556 41.848 315.324 42.32 314.86 42.64C314.396 42.96 313.772 43.12 312.988 43.12C312.54 43.12 312.152 43.084 311.824 43.012C311.504 42.94 311.22 42.84 310.972 42.712V41.752C311.228 41.88 311.536 42 311.896 42.112C312.264 42.216 312.636 42.268 313.012 42.268C313.548 42.268 313.936 42.184 314.176 42.016C314.416 41.84 314.536 41.608 314.536 41.32C314.536 41.16 314.492 41.016 314.404 40.888C314.316 40.76 314.156 40.632 313.924 40.504C313.7 40.376 313.376 40.232 312.952 40.072C312.536 39.912 312.18 39.752 311.884 39.592C311.588 39.432 311.36 39.24 311.2 39.016C311.04 38.792 310.96 38.504 310.96 38.152C310.96 37.608 311.18 37.188 311.62 36.892C312.068 36.596 312.652 36.448 313.372 36.448C313.764 36.448 314.128 36.488 314.464 36.568C314.808 36.64 315.128 36.744 315.424 36.88L315.064 37.72C314.792 37.608 314.508 37.512 314.212 37.432C313.916 37.352 313.612 37.312 313.3 37.312C312.868 37.312 312.536 37.384 312.304 37.528C312.08 37.664 311.968 37.852 311.968 38.092C311.968 38.268 312.02 38.42 312.124 38.548C312.228 38.668 312.4 38.788 312.64 38.908C312.888 39.02 313.216 39.156 313.624 39.316C314.032 39.468 314.38 39.624 314.668 39.784C314.956 39.944 315.176 40.14 315.328 40.372C315.48 40.596 315.556 40.88 315.556 41.224ZM321.298 41.224C321.298 41.848 321.066 42.32 320.602 42.64C320.138 42.96 319.514 43.12 318.73 43.12C318.282 43.12 317.894 43.084 317.566 43.012C317.246 42.94 316.962 42.84 316.714 42.712V41.752C316.97 41.88 317.278 42 317.638 42.112C318.006 42.216 318.378 42.268 318.754 42.268C319.29 42.268 319.678 42.184 319.918 42.016C320.158 41.84 320.278 41.608 320.278 41.32C320.278 41.16 320.234 41.016 320.146 40.888C320.058 40.76 319.898 40.632 319.666 40.504C319.442 40.376 319.118 40.232 318.694 40.072C318.278 39.912 317.922 39.752 317.626 39.592C317.33 39.432 317.102 39.24 316.942 39.016C316.782 38.792 316.702 38.504 316.702 38.152C316.702 37.608 316.922 37.188 317.362 36.892C317.81 36.596 318.394 36.448 319.114 36.448C319.506 36.448 319.87 36.488 320.206 36.568C320.55 36.64 320.87 36.744 321.166 36.88L320.806 37.72C320.534 37.608 320.25 37.512 319.954 37.432C319.658 37.352 319.354 37.312 319.042 37.312C318.61 37.312 318.278 37.384 318.046 37.528C317.822 37.664 317.71 37.852 317.71 38.092C317.71 38.268 317.762 38.42 317.866 38.548C317.97 38.668 318.142 38.788 318.382 38.908C318.63 39.02 318.958 39.156 319.366 39.316C319.774 39.468 320.122 39.624 320.41 39.784C320.698 39.944 320.918 40.14 321.07 40.372C321.222 40.596 321.298 40.88 321.298 41.224ZM328.477 34.432C329.541 34.432 330.325 34.636 330.829 35.044C331.341 35.444 331.597 36.052 331.597 36.868C331.597 37.324 331.513 37.704 331.345 38.008C331.177 38.312 330.961 38.556 330.697 38.74C330.441 38.916 330.169 39.056 329.881 39.16L332.233 43H330.973L328.897 39.46H327.193V43H326.113V34.432H328.477ZM328.417 35.368H327.193V38.548H328.477C329.173 38.548 329.681 38.412 330.001 38.14C330.321 37.86 330.481 37.452 330.481 36.916C330.481 36.356 330.313 35.96 329.977 35.728C329.641 35.488 329.121 35.368 328.417 35.368ZM335.918 36.448C336.47 36.448 336.942 36.568 337.334 36.808C337.734 37.048 338.038 37.388 338.246 37.828C338.462 38.26 338.57 38.768 338.57 39.352V39.988H334.166C334.182 40.716 334.366 41.272 334.718 41.656C335.078 42.032 335.578 42.22 336.218 42.22C336.626 42.22 336.986 42.184 337.298 42.112C337.618 42.032 337.946 41.92 338.282 41.776V42.7C337.954 42.844 337.63 42.948 337.31 43.012C336.99 43.084 336.61 43.12 336.17 43.12C335.562 43.12 335.022 42.996 334.55 42.748C334.086 42.5 333.722 42.132 333.458 41.644C333.202 41.148 333.074 40.544 333.074 39.832C333.074 39.128 333.19 38.524 333.422 38.02C333.662 37.516 333.994 37.128 334.418 36.856C334.85 36.584 335.35 36.448 335.918 36.448ZM335.906 37.312C335.402 37.312 335.002 37.476 334.706 37.804C334.418 38.124 334.246 38.572 334.19 39.148H337.466C337.458 38.604 337.33 38.164 337.082 37.828C336.834 37.484 336.442 37.312 335.906 37.312ZM341.264 43H340.208V33.88H341.264V43ZM345.785 36.448C346.337 36.448 346.809 36.568 347.201 36.808C347.601 37.048 347.905 37.388 348.113 37.828C348.329 38.26 348.437 38.768 348.437 39.352V39.988H344.033C344.049 40.716 344.233 41.272 344.585 41.656C344.945 42.032 345.445 42.22 346.085 42.22C346.493 42.22 346.853 42.184 347.165 42.112C347.485 42.032 347.813 41.92 348.149 41.776V42.7C347.821 42.844 347.497 42.948 347.177 43.012C346.857 43.084 346.477 43.12 346.037 43.12C345.429 43.12 344.889 42.996 344.417 42.748C343.953 42.5 343.589 42.132 343.325 41.644C343.069 41.148 342.941 40.544 342.941 39.832C342.941 39.128 343.057 38.524 343.289 38.02C343.529 37.516 343.861 37.128 344.285 36.856C344.717 36.584 345.217 36.448 345.785 36.448ZM345.773 37.312C345.269 37.312 344.869 37.476 344.573 37.804C344.285 38.124 344.113 38.572 344.057 39.148H347.333C347.325 38.604 347.197 38.164 346.949 37.828C346.701 37.484 346.309 37.312 345.773 37.312ZM352.511 36.46C353.295 36.46 353.875 36.632 354.251 36.976C354.627 37.32 354.815 37.868 354.815 38.62V43H354.047L353.843 42.088H353.795C353.515 42.44 353.219 42.7 352.907 42.868C352.603 43.036 352.179 43.12 351.635 43.12C351.051 43.12 350.567 42.968 350.183 42.664C349.799 42.352 349.607 41.868 349.607 41.212C349.607 40.572 349.859 40.08 350.363 39.736C350.867 39.384 351.643 39.192 352.691 39.16L353.783 39.124V38.74C353.783 38.204 353.667 37.832 353.435 37.624C353.203 37.416 352.875 37.312 352.451 37.312C352.115 37.312 351.795 37.364 351.491 37.468C351.187 37.564 350.903 37.676 350.639 37.804L350.315 37.012C350.595 36.86 350.927 36.732 351.311 36.628C351.695 36.516 352.095 36.46 352.511 36.46ZM352.823 39.892C352.023 39.924 351.467 40.052 351.155 40.276C350.851 40.5 350.699 40.816 350.699 41.224C350.699 41.584 350.807 41.848 351.023 42.016C351.247 42.184 351.531 42.268 351.875 42.268C352.419 42.268 352.871 42.12 353.231 41.824C353.591 41.52 353.771 41.056 353.771 40.432V39.856L352.823 39.892ZM360.989 41.224C360.989 41.848 360.757 42.32 360.293 42.64C359.829 42.96 359.205 43.12 358.421 43.12C357.973 43.12 357.585 43.084 357.257 43.012C356.937 42.94 356.653 42.84 356.405 42.712V41.752C356.661 41.88 356.969 42 357.329 42.112C357.697 42.216 358.069 42.268 358.445 42.268C358.981 42.268 359.369 42.184 359.609 42.016C359.849 41.84 359.969 41.608 359.969 41.32C359.969 41.16 359.925 41.016 359.837 40.888C359.749 40.76 359.589 40.632 359.357 40.504C359.133 40.376 358.809 40.232 358.385 40.072C357.969 39.912 357.613 39.752 357.317 39.592C357.021 39.432 356.793 39.24 356.633 39.016C356.473 38.792 356.393 38.504 356.393 38.152C356.393 37.608 356.613 37.188 357.053 36.892C357.501 36.596 358.085 36.448 358.805 36.448C359.197 36.448 359.561 36.488 359.897 36.568C360.241 36.64 360.561 36.744 360.857 36.88L360.497 37.72C360.225 37.608 359.941 37.512 359.645 37.432C359.349 37.352 359.045 37.312 358.733 37.312C358.301 37.312 357.969 37.384 357.737 37.528C357.513 37.664 357.401 37.852 357.401 38.092C357.401 38.268 357.453 38.42 357.557 38.548C357.661 38.668 357.833 38.788 358.073 38.908C358.321 39.02 358.649 39.156 359.057 39.316C359.465 39.468 359.813 39.624 360.101 39.784C360.389 39.944 360.609 40.14 360.761 40.372C360.913 40.596 360.989 40.88 360.989 41.224ZM365.027 36.448C365.579 36.448 366.051 36.568 366.443 36.808C366.843 37.048 367.147 37.388 367.355 37.828C367.571 38.26 367.679 38.768 367.679 39.352V39.988H363.275C363.291 40.716 363.475 41.272 363.827 41.656C364.187 42.032 364.687 42.22 365.327 42.22C365.735 42.22 366.095 42.184 366.407 42.112C366.727 42.032 367.055 41.92 367.391 41.776V42.7C367.063 42.844 366.739 42.948 366.419 43.012C366.099 43.084 365.719 43.12 365.279 43.12C364.671 43.12 364.131 42.996 363.659 42.748C363.195 42.5 362.831 42.132 362.567 41.644C362.311 41.148 362.183 40.544 362.183 39.832C362.183 39.128 362.299 38.524 362.531 38.02C362.771 37.516 363.103 37.128 363.527 36.856C363.959 36.584 364.459 36.448 365.027 36.448ZM365.015 37.312C364.511 37.312 364.111 37.476 363.815 37.804C363.527 38.124 363.355 38.572 363.299 39.148H366.575C366.567 38.604 366.439 38.164 366.191 37.828C365.943 37.484 365.551 37.312 365.015 37.312Z" fill="#DDDDDD"/>
<path d="M47.724 26.74C47.724 27.06 47.712 27.368 47.688 27.664C47.672 27.96 47.656 28.168 47.64 28.288H47.736C47.944 27.952 48.212 27.708 48.54 27.556C48.868 27.404 49.232 27.328 49.632 27.328C50.344 27.328 50.912 27.52 51.336 27.904C51.768 28.28 51.984 28.888 51.984 29.728V34H50.196V30.172C50.196 29.228 49.844 28.756 49.14 28.756C48.604 28.756 48.232 28.944 48.024 29.32C47.824 29.688 47.724 30.22 47.724 30.916V34H45.936V24.88H47.724V26.74ZM56.5107 27.316C57.3907 27.316 58.0627 27.508 58.5267 27.892C58.9987 28.268 59.2347 28.848 59.2347 29.632V34H57.9867L57.6387 33.112H57.5907C57.3107 33.464 57.0147 33.72 56.7027 33.88C56.3907 34.04 55.9627 34.12 55.4187 34.12C54.8347 34.12 54.3507 33.952 53.9667 33.616C53.5827 33.272 53.3907 32.748 53.3907 32.044C53.3907 31.348 53.6347 30.836 54.1227 30.508C54.6107 30.172 55.3427 29.988 56.3187 29.956L57.4587 29.92V29.632C57.4587 29.288 57.3667 29.036 57.1827 28.876C57.0067 28.716 56.7587 28.636 56.4387 28.636C56.1187 28.636 55.8067 28.684 55.5027 28.78C55.1987 28.868 54.8947 28.98 54.5907 29.116L54.0027 27.904C54.3547 27.72 54.7427 27.576 55.1667 27.472C55.5987 27.368 56.0467 27.316 56.5107 27.316ZM56.7627 30.988C56.1867 31.004 55.7867 31.108 55.5627 31.3C55.3387 31.492 55.2267 31.744 55.2267 32.056C55.2267 32.328 55.3067 32.524 55.4667 32.644C55.6267 32.756 55.8347 32.812 56.0907 32.812C56.4747 32.812 56.7987 32.7 57.0627 32.476C57.3267 32.244 57.4587 31.92 57.4587 31.504V30.964L56.7627 30.988ZM62.8529 34H61.0649V24.88H62.8529V34ZM70.6732 30.712C70.6732 31.8 70.3852 32.64 69.8092 33.232C69.2412 33.824 68.4652 34.12 67.4812 34.12C66.8732 34.12 66.3292 33.988 65.8492 33.724C65.3772 33.46 65.0052 33.076 64.7332 32.572C64.4612 32.06 64.3252 31.44 64.3252 30.712C64.3252 29.624 64.6092 28.788 65.1772 28.204C65.7452 27.62 66.5252 27.328 67.5172 27.328C68.1332 27.328 68.6772 27.46 69.1492 27.724C69.6212 27.988 69.9932 28.372 70.2652 28.876C70.5372 29.372 70.6732 29.984 70.6732 30.712ZM66.1492 30.712C66.1492 31.36 66.2532 31.852 66.4612 32.188C66.6772 32.516 67.0252 32.68 67.5052 32.68C67.9772 32.68 68.3172 32.516 68.5252 32.188C68.7412 31.852 68.8492 31.36 68.8492 30.712C68.8492 30.064 68.7412 29.58 68.5252 29.26C68.3172 28.932 67.9732 28.768 67.4932 28.768C67.0212 28.768 66.6772 28.932 66.4612 29.26C66.2532 29.58 66.1492 30.064 66.1492 30.712ZM81.3788 29.704C81.3788 30.072 81.3348 30.436 81.2468 30.796C81.1588 31.156 81.0228 31.484 80.8388 31.78C80.6628 32.076 80.4388 32.312 80.1668 32.488C79.8948 32.656 79.5748 32.74 79.2068 32.74C78.9108 32.74 78.6508 32.672 78.4268 32.536C78.2028 32.392 78.0468 32.208 77.9588 31.984H77.8628C77.7028 32.184 77.4868 32.36 77.2148 32.512C76.9508 32.664 76.6308 32.74 76.2548 32.74C75.5428 32.74 74.9908 32.528 74.5988 32.104C74.2148 31.672 74.0228 31.108 74.0228 30.412C74.0228 29.876 74.1388 29.404 74.3708 28.996C74.6028 28.58 74.9308 28.256 75.3548 28.024C75.7788 27.784 76.2788 27.664 76.8548 27.664C77.2308 27.664 77.6188 27.7 78.0188 27.772C78.4268 27.836 78.7428 27.908 78.9668 27.988L78.8468 30.448C78.8388 30.528 78.8348 30.612 78.8348 30.7C78.8348 30.78 78.8348 30.832 78.8348 30.856C78.8348 31.184 78.8788 31.404 78.9668 31.516C79.0628 31.62 79.1668 31.672 79.2788 31.672C79.4628 31.672 79.6148 31.584 79.7348 31.408C79.8548 31.224 79.9428 30.984 79.9988 30.688C80.0628 30.384 80.0948 30.052 80.0948 29.692C80.0948 29.02 79.9588 28.452 79.6868 27.988C79.4148 27.516 79.0428 27.156 78.5708 26.908C78.1068 26.66 77.5748 26.536 76.9748 26.536C76.1348 26.536 75.4268 26.712 74.8508 27.064C74.2828 27.408 73.8508 27.88 73.5548 28.48C73.2588 29.08 73.1108 29.768 73.1108 30.544C73.1108 31.624 73.3988 32.452 73.9748 33.028C74.5588 33.604 75.3948 33.892 76.4828 33.892C76.9468 33.892 77.4308 33.84 77.9348 33.736C78.4388 33.632 78.8988 33.504 79.3148 33.352V34.48C78.9308 34.64 78.5028 34.768 78.0308 34.864C77.5588 34.96 77.0588 35.008 76.5308 35.008C75.5388 35.008 74.6908 34.832 73.9868 34.48C73.2828 34.128 72.7428 33.624 72.3668 32.968C71.9988 32.304 71.8148 31.508 71.8148 30.58C71.8148 29.852 71.9348 29.176 72.1748 28.552C72.4148 27.928 72.7588 27.384 73.2068 26.92C73.6628 26.448 74.2068 26.084 74.8388 25.828C75.4708 25.564 76.1788 25.432 76.9628 25.432C77.8188 25.432 78.5788 25.604 79.2428 25.948C79.9068 26.292 80.4268 26.784 80.8028 27.424C81.1868 28.064 81.3788 28.824 81.3788 29.704ZM75.3788 30.436C75.3788 30.876 75.4708 31.192 75.6548 31.384C75.8388 31.576 76.0828 31.672 76.3868 31.672C76.7868 31.672 77.0668 31.528 77.2268 31.24C77.3948 30.944 77.4948 30.56 77.5268 30.088L77.5988 28.792C77.5108 28.776 77.4108 28.764 77.2988 28.756C77.1868 28.74 77.0628 28.732 76.9268 28.732C76.5508 28.732 76.2468 28.816 76.0148 28.984C75.7908 29.144 75.6268 29.356 75.5228 29.62C75.4268 29.876 75.3788 30.148 75.3788 30.436ZM86.5684 27.328C87.3044 27.328 87.9004 27.616 88.3564 28.192C88.8124 28.76 89.0404 29.6 89.0404 30.712C89.0404 31.824 88.8044 32.672 88.3324 33.256C87.8604 33.832 87.2564 34.12 86.5204 34.12C86.0484 34.12 85.6724 34.036 85.3924 33.868C85.1124 33.692 84.8844 33.496 84.7084 33.28H84.6124C84.6764 33.616 84.7084 33.936 84.7084 34.24V36.88H82.9204V27.448H84.3724L84.6244 28.3H84.7084C84.8844 28.036 85.1204 27.808 85.4164 27.616C85.7124 27.424 86.0964 27.328 86.5684 27.328ZM85.9924 28.756C85.5284 28.756 85.2004 28.9 85.0084 29.188C84.8244 29.476 84.7244 29.916 84.7084 30.508V30.7C84.7084 31.332 84.8004 31.82 84.9844 32.164C85.1764 32.5 85.5204 32.668 86.0164 32.668C86.4244 32.668 86.7244 32.5 86.9164 32.164C87.1164 31.82 87.2164 31.328 87.2164 30.688C87.2164 29.4 86.8084 28.756 85.9924 28.756ZM93.2141 27.328C94.1181 27.328 94.8341 27.588 95.3621 28.108C95.8901 28.62 96.1541 29.352 96.1541 30.304V31.168H91.9301C91.9461 31.672 92.0941 32.068 92.3741 32.356C92.6621 32.644 93.0581 32.788 93.5621 32.788C93.9861 32.788 94.3701 32.748 94.7141 32.668C95.0581 32.58 95.4141 32.448 95.7821 32.272V33.652C95.4621 33.812 95.1221 33.928 94.7621 34C94.4101 34.08 93.9821 34.12 93.4781 34.12C92.8221 34.12 92.2421 34 91.7381 33.76C91.2341 33.512 90.8381 33.14 90.5501 32.644C90.2621 32.148 90.1181 31.524 90.1181 30.772C90.1181 30.004 90.2461 29.368 90.5021 28.864C90.7661 28.352 91.1301 27.968 91.5941 27.712C92.0581 27.456 92.5981 27.328 93.2141 27.328ZM93.2261 28.6C92.8821 28.6 92.5941 28.712 92.3621 28.936C92.1381 29.16 92.0061 29.508 91.9661 29.98H94.4741C94.4661 29.58 94.3621 29.252 94.1621 28.996C93.9621 28.732 93.6501 28.6 93.2261 28.6ZM102.254 31.708C102.222 31.572 102.174 31.372 102.11 31.108C102.054 30.836 101.99 30.548 101.918 30.244C101.846 29.932 101.778 29.648 101.714 29.392C101.65 29.128 101.606 28.936 101.582 28.816H101.534C101.51 28.936 101.466 29.128 101.402 29.392C101.346 29.648 101.282 29.932 101.21 30.244C101.138 30.548 101.07 30.836 101.006 31.108C100.942 31.38 100.894 31.588 100.862 31.732L100.334 34H98.4136L96.5536 27.448H98.3296L99.0856 30.352C99.1416 30.552 99.1896 30.792 99.2296 31.072C99.2776 31.352 99.3216 31.624 99.3616 31.888C99.4016 32.144 99.4296 32.348 99.4456 32.5H99.4936C99.5016 32.388 99.5176 32.24 99.5416 32.056C99.5656 31.864 99.5936 31.668 99.6256 31.468C99.6656 31.268 99.6976 31.088 99.7216 30.928C99.7536 30.76 99.7776 30.648 99.7936 30.592L100.598 27.448H102.566L103.334 30.592C103.366 30.704 103.402 30.884 103.442 31.132C103.49 31.38 103.53 31.632 103.562 31.888C103.602 32.144 103.622 32.348 103.622 32.5H103.67C103.686 32.364 103.714 32.168 103.754 31.912C103.794 31.648 103.838 31.372 103.886 31.084C103.942 30.796 103.998 30.552 104.054 30.352L104.834 27.448H106.586L104.702 34H102.758L102.254 31.708ZM110.347 27.328C111.251 27.328 111.967 27.588 112.495 28.108C113.023 28.62 113.287 29.352 113.287 30.304V31.168H109.063C109.079 31.672 109.227 32.068 109.507 32.356C109.795 32.644 110.191 32.788 110.695 32.788C111.119 32.788 111.503 32.748 111.847 32.668C112.191 32.58 112.547 32.448 112.915 32.272V33.652C112.595 33.812 112.255 33.928 111.895 34C111.543 34.08 111.115 34.12 110.611 34.12C109.955 34.12 109.375 34 108.871 33.76C108.367 33.512 107.971 33.14 107.683 32.644C107.395 32.148 107.251 31.524 107.251 30.772C107.251 30.004 107.379 29.368 107.635 28.864C107.899 28.352 108.263 27.968 108.727 27.712C109.191 27.456 109.731 27.328 110.347 27.328ZM110.359 28.6C110.015 28.6 109.727 28.712 109.495 28.936C109.271 29.16 109.139 29.508 109.099 29.98H111.607C111.599 29.58 111.495 29.252 111.295 28.996C111.095 28.732 110.783 28.6 110.359 28.6ZM118.361 28.792H116.813V34H115.025V28.792H114.041V27.928L115.025 27.448V26.968C115.025 26.408 115.117 25.976 115.301 25.672C115.493 25.36 115.761 25.14 116.105 25.012C116.457 24.884 116.869 24.82 117.341 24.82C117.693 24.82 118.009 24.848 118.289 24.904C118.577 24.96 118.809 25.024 118.985 25.096L118.529 26.404C118.393 26.364 118.245 26.328 118.085 26.296C117.925 26.256 117.741 26.236 117.533 26.236C117.285 26.236 117.101 26.312 116.981 26.464C116.869 26.616 116.813 26.808 116.813 27.04V27.448H118.361V28.792ZM122.077 27.328C122.981 27.328 123.697 27.588 124.225 28.108C124.753 28.62 125.017 29.352 125.017 30.304V31.168H120.793C120.809 31.672 120.957 32.068 121.237 32.356C121.525 32.644 121.921 32.788 122.425 32.788C122.849 32.788 123.233 32.748 123.577 32.668C123.921 32.58 124.277 32.448 124.645 32.272V33.652C124.325 33.812 123.985 33.928 123.625 34C123.273 34.08 122.845 34.12 122.341 34.12C121.685 34.12 121.105 34 120.601 33.76C120.097 33.512 119.701 33.14 119.413 32.644C119.125 32.148 118.981 31.524 118.981 30.772C118.981 30.004 119.109 29.368 119.365 28.864C119.629 28.352 119.993 27.968 120.457 27.712C120.921 27.456 121.461 27.328 122.077 27.328ZM122.089 28.6C121.745 28.6 121.457 28.712 121.225 28.936C121.001 29.16 120.869 29.508 120.829 29.98H123.337C123.329 29.58 123.225 29.252 123.025 28.996C122.825 28.732 122.513 28.6 122.089 28.6ZM129.167 27.328C130.071 27.328 130.787 27.588 131.315 28.108C131.843 28.62 132.107 29.352 132.107 30.304V31.168H127.883C127.899 31.672 128.047 32.068 128.327 32.356C128.615 32.644 129.011 32.788 129.515 32.788C129.939 32.788 130.323 32.748 130.667 32.668C131.011 32.58 131.367 32.448 131.735 32.272V33.652C131.415 33.812 131.075 33.928 130.715 34C130.363 34.08 129.935 34.12 129.431 34.12C128.775 34.12 128.195 34 127.691 33.76C127.187 33.512 126.791 33.14 126.503 32.644C126.215 32.148 126.071 31.524 126.071 30.772C126.071 30.004 126.199 29.368 126.455 28.864C126.719 28.352 127.083 27.968 127.547 27.712C128.011 27.456 128.551 27.328 129.167 27.328ZM129.179 28.6C128.835 28.6 128.547 28.712 128.315 28.936C128.091 29.16 127.959 29.508 127.919 29.98H130.427C130.419 29.58 130.315 29.252 130.115 28.996C129.915 28.732 129.603 28.6 129.179 28.6ZM135.633 34.12C134.905 34.12 134.309 33.836 133.845 33.268C133.389 32.692 133.161 31.848 133.161 30.736C133.161 29.616 133.393 28.768 133.857 28.192C134.321 27.616 134.929 27.328 135.681 27.328C136.153 27.328 136.541 27.42 136.845 27.604C137.149 27.788 137.389 28.016 137.565 28.288H137.625C137.601 28.16 137.573 27.976 137.541 27.736C137.509 27.488 137.493 27.236 137.493 26.98V24.88H139.281V34H137.913L137.565 33.148H137.493C137.317 33.42 137.081 33.652 136.785 33.844C136.489 34.028 136.105 34.12 135.633 34.12ZM136.257 32.692C136.753 32.692 137.101 32.548 137.301 32.26C137.501 31.964 137.605 31.524 137.613 30.94V30.748C137.613 30.108 137.513 29.62 137.313 29.284C137.121 28.948 136.761 28.78 136.233 28.78C135.841 28.78 135.533 28.952 135.309 29.296C135.085 29.632 134.973 30.12 134.973 30.76C134.973 31.4 135.085 31.884 135.309 32.212C135.533 32.532 135.849 32.692 136.257 32.692ZM140.899 33.16C140.899 32.792 140.999 32.536 141.199 32.392C141.399 32.24 141.643 32.164 141.931 32.164C142.211 32.164 142.451 32.24 142.651 32.392C142.851 32.536 142.951 32.792 142.951 33.16C142.951 33.512 142.851 33.768 142.651 33.928C142.451 34.08 142.211 34.156 141.931 34.156C141.643 34.156 141.399 34.08 141.199 33.928C140.999 33.768 140.899 33.512 140.899 33.16ZM147.237 34.12C146.261 34.12 145.505 33.852 144.969 33.316C144.441 32.772 144.177 31.92 144.177 30.76C144.177 29.96 144.313 29.308 144.585 28.804C144.857 28.3 145.233 27.928 145.713 27.688C146.201 27.448 146.761 27.328 147.393 27.328C147.841 27.328 148.229 27.372 148.557 27.46C148.893 27.548 149.185 27.652 149.433 27.772L148.905 29.152C148.625 29.04 148.361 28.948 148.113 28.876C147.873 28.804 147.633 28.768 147.393 28.768C146.465 28.768 146.001 29.428 146.001 30.748C146.001 31.404 146.121 31.888 146.361 32.2C146.609 32.512 146.953 32.668 147.393 32.668C147.769 32.668 148.101 32.62 148.389 32.524C148.677 32.42 148.957 32.28 149.229 32.104V33.628C148.957 33.804 148.669 33.928 148.365 34C148.069 34.08 147.693 34.12 147.237 34.12ZM156.689 30.712C156.689 31.8 156.401 32.64 155.825 33.232C155.257 33.824 154.481 34.12 153.497 34.12C152.889 34.12 152.345 33.988 151.865 33.724C151.393 33.46 151.021 33.076 150.749 32.572C150.477 32.06 150.341 31.44 150.341 30.712C150.341 29.624 150.625 28.788 151.193 28.204C151.761 27.62 152.541 27.328 153.533 27.328C154.149 27.328 154.693 27.46 155.165 27.724C155.637 27.988 156.009 28.372 156.281 28.876C156.553 29.372 156.689 29.984 156.689 30.712ZM152.165 30.712C152.165 31.36 152.269 31.852 152.477 32.188C152.693 32.516 153.041 32.68 153.521 32.68C153.993 32.68 154.333 32.516 154.541 32.188C154.757 31.852 154.865 31.36 154.865 30.712C154.865 30.064 154.757 29.58 154.541 29.26C154.333 28.932 153.989 28.768 153.509 28.768C153.037 28.768 152.693 28.932 152.477 29.26C152.269 29.58 152.165 30.064 152.165 30.712ZM165.858 27.328C166.602 27.328 167.162 27.52 167.538 27.904C167.922 28.28 168.114 28.888 168.114 29.728V34H166.326V30.172C166.326 29.228 165.998 28.756 165.342 28.756C164.87 28.756 164.534 28.924 164.334 29.26C164.134 29.596 164.034 30.08 164.034 30.712V34H162.246V30.172C162.246 29.228 161.918 28.756 161.262 28.756C160.766 28.756 160.422 28.944 160.23 29.32C160.046 29.688 159.954 30.22 159.954 30.916V34H158.166V27.448H159.534L159.774 28.288H159.87C160.07 27.952 160.342 27.708 160.686 27.556C161.038 27.404 161.402 27.328 161.778 27.328C162.258 27.328 162.666 27.408 163.002 27.568C163.338 27.72 163.594 27.96 163.77 28.288H163.926C164.126 27.952 164.402 27.708 164.754 27.556C165.114 27.404 165.482 27.328 165.858 27.328Z" fill="#DDDDDD"/>
<path fill-rule="evenodd" clip-rule="evenodd" d="M28.4451 21C29.652 21 30.813 21.477 31.6671 22.3329C32.5221 23.187 33 24.339 33 25.545V32.655C33 35.166 30.957 37.2 28.4451 37.2H19.554C17.0421 37.2 15 35.166 15 32.655V25.545C15 23.034 17.0331 21 19.554 21H28.4451ZM29.8769 26.8857L29.9489 26.8137C30.164 26.5527 30.164 26.1747 29.939 25.9137C29.8139 25.7796 29.642 25.6977 29.4629 25.6797C29.2739 25.6698 29.0939 25.7337 28.958 25.8597L24.8999 29.0997C24.3779 29.5326 23.63 29.5326 23.0999 29.0997L19.0499 25.8597C18.77 25.6527 18.383 25.6797 18.1499 25.9227C17.9069 26.1657 17.8799 26.5527 18.086 26.8227L18.2039 26.9397L22.2989 30.1347C22.8029 30.5307 23.414 30.7467 24.0539 30.7467C24.692 30.7467 25.3139 30.5307 25.817 30.1347L29.8769 26.8857Z" fill="#DDDDDD"/>
</svg>
