<svg width="387" height="65" viewBox="0 0 387 65" fill="none" xmlns="http://www.w3.org/2000/svg">
<rect width="387" height="65" rx="5" fill="#262626"/>
<rect width="387" height="65" rx="5" stroke="#BABABA"/>
<path d="M0.25 5C0.25 2.37665 2.37665 0.25 5 0.25H188.75V64.75H5C2.37665 64.75 0.25 62.6234 0.25 60V5Z" fill="#383838" stroke="#2E2E2E" stroke-width="0.5"/>
<path d="M45.48 34.712C45.48 33.736 45.62 32.796 45.9 31.892C46.188 30.98 46.636 30.16 47.244 29.432H48.708C48.164 30.184 47.748 31.012 47.46 31.916C47.18 32.82 47.04 33.748 47.04 34.7C47.04 35.628 47.18 36.544 47.46 37.448C47.748 38.344 48.16 39.16 48.696 39.896H47.244C46.636 39.192 46.188 38.396 45.9 37.508C45.62 36.612 45.48 35.68 45.48 34.712ZM55.4864 33.716C55.4864 34.636 55.3864 35.424 55.1864 36.08C54.9944 36.736 54.6784 37.24 54.2384 37.592C53.8064 37.944 53.2224 38.12 52.4864 38.12C51.4544 38.12 50.6984 37.732 50.2184 36.956C49.7384 36.172 49.4984 35.092 49.4984 33.716C49.4984 32.788 49.5944 31.996 49.7864 31.34C49.9784 30.684 50.2944 30.18 50.7344 29.828C51.1744 29.476 51.7584 29.3 52.4864 29.3C53.5104 29.3 54.2664 29.688 54.7544 30.464C55.2424 31.24 55.4864 32.324 55.4864 33.716ZM51.2984 33.716C51.2984 34.692 51.3824 35.428 51.5504 35.924C51.7184 36.412 52.0304 36.656 52.4864 36.656C52.9344 36.656 53.2464 36.412 53.4224 35.924C53.5984 35.436 53.6864 34.7 53.6864 33.716C53.6864 32.74 53.5984 32.004 53.4224 31.508C53.2464 31.012 52.9344 30.764 52.4864 30.764C52.0304 30.764 51.7184 31.012 51.5504 31.508C51.3824 32.004 51.2984 32.74 51.2984 33.716ZM62.4016 38H56.4136V36.74L58.5616 34.568C58.9936 34.12 59.3416 33.748 59.6056 33.452C59.8696 33.148 60.0616 32.876 60.1816 32.636C60.3016 32.388 60.3616 32.124 60.3616 31.844C60.3616 31.5 60.2656 31.244 60.0736 31.076C59.8896 30.908 59.6376 30.824 59.3176 30.824C58.9896 30.824 58.6696 30.9 58.3576 31.052C58.0456 31.204 57.7176 31.42 57.3736 31.7L56.3896 30.536C56.6376 30.32 56.8976 30.12 57.1696 29.936C57.4496 29.752 57.7696 29.604 58.1296 29.492C58.4976 29.372 58.9376 29.312 59.4496 29.312C60.0096 29.312 60.4896 29.416 60.8896 29.624C61.2976 29.824 61.6096 30.1 61.8256 30.452C62.0496 30.796 62.1616 31.188 62.1616 31.628C62.1616 32.1 62.0656 32.532 61.8736 32.924C61.6896 33.316 61.4176 33.704 61.0576 34.088C60.7056 34.472 60.2776 34.896 59.7736 35.36L58.6696 36.392V36.476H62.4016V38ZM67.7568 38H65.9448V33.044C65.9448 32.836 65.9488 32.564 65.9568 32.228C65.9728 31.892 65.9848 31.596 65.9928 31.34C65.9528 31.388 65.8648 31.476 65.7288 31.604C65.6008 31.724 65.4808 31.832 65.3688 31.928L64.3848 32.72L63.5088 31.628L66.2688 29.432H67.7568V38ZM73.256 34.712C73.256 35.68 73.112 36.612 72.824 37.508C72.544 38.396 72.1 39.192 71.492 39.896H70.04C70.584 39.16 70.996 38.344 71.276 37.448C71.556 36.544 71.696 35.628 71.696 34.7C71.696 33.748 71.552 32.82 71.264 31.916C70.984 31.012 70.572 30.184 70.028 29.432H71.492C72.1 30.16 72.544 30.98 72.824 31.892C73.112 32.796 73.256 33.736 73.256 34.712ZM83.3196 38H77.3316V36.74L79.4796 34.568C79.9116 34.12 80.2596 33.748 80.5236 33.452C80.7876 33.148 80.9796 32.876 81.0996 32.636C81.2196 32.388 81.2796 32.124 81.2796 31.844C81.2796 31.5 81.1836 31.244 80.9916 31.076C80.8076 30.908 80.5556 30.824 80.2356 30.824C79.9076 30.824 79.5876 30.9 79.2756 31.052C78.9636 31.204 78.6356 31.42 78.2916 31.7L77.3076 30.536C77.5556 30.32 77.8156 30.12 78.0876 29.936C78.3676 29.752 78.6876 29.604 79.0476 29.492C79.4156 29.372 79.8556 29.312 80.3676 29.312C80.9276 29.312 81.4076 29.416 81.8076 29.624C82.2156 29.824 82.5276 30.1 82.7436 30.452C82.9676 30.796 83.0796 31.188 83.0796 31.628C83.0796 32.1 82.9836 32.532 82.7916 32.924C82.6076 33.316 82.3356 33.704 81.9756 34.088C81.6236 34.472 81.1956 34.896 80.6916 35.36L79.5876 36.392V36.476H83.3196V38ZM90.1508 33.092C90.1508 33.58 90.1148 34.068 90.0428 34.556C89.9708 35.036 89.8428 35.492 89.6588 35.924C89.4828 36.348 89.2308 36.728 88.9028 37.064C88.5828 37.392 88.1708 37.652 87.6668 37.844C87.1708 38.028 86.5668 38.12 85.8548 38.12C85.6868 38.12 85.4908 38.112 85.2668 38.096C85.0428 38.088 84.8548 38.068 84.7028 38.036V36.584C84.8628 36.616 85.0308 36.644 85.2068 36.668C85.3828 36.692 85.5588 36.704 85.7348 36.704C86.4468 36.704 86.9948 36.592 87.3788 36.368C87.7708 36.136 88.0468 35.82 88.2068 35.42C88.3668 35.02 88.4588 34.556 88.4828 34.028H88.4108C88.2428 34.308 88.0188 34.544 87.7388 34.736C87.4668 34.928 87.0588 35.024 86.5148 35.024C85.7868 35.024 85.2028 34.788 84.7628 34.316C84.3228 33.844 84.1028 33.176 84.1028 32.312C84.1028 31.384 84.3628 30.656 84.8828 30.128C85.4108 29.6 86.1228 29.336 87.0188 29.336C87.6028 29.336 88.1308 29.472 88.6028 29.744C89.0748 30.008 89.4508 30.42 89.7308 30.98C90.0108 31.532 90.1508 32.236 90.1508 33.092ZM87.0548 30.788C86.7028 30.788 86.4148 30.908 86.1908 31.148C85.9668 31.388 85.8548 31.768 85.8548 32.288C85.8548 32.704 85.9508 33.032 86.1428 33.272C86.3348 33.512 86.6268 33.632 87.0188 33.632C87.2908 33.632 87.5228 33.572 87.7148 33.452C87.9148 33.332 88.0708 33.184 88.1828 33.008C88.2948 32.824 88.3508 32.636 88.3508 32.444C88.3508 32.18 88.3028 31.92 88.2068 31.664C88.1108 31.408 87.9668 31.2 87.7748 31.04C87.5828 30.872 87.3428 30.788 87.0548 30.788ZM96.7179 31.352C96.7179 31.944 96.5379 32.416 96.1779 32.768C95.8259 33.12 95.3899 33.36 94.8699 33.488V33.524C95.5579 33.604 96.0779 33.812 96.4299 34.148C96.7899 34.484 96.9699 34.936 96.9699 35.504C96.9699 36 96.8459 36.448 96.5979 36.848C96.3579 37.24 95.9819 37.552 95.4699 37.784C94.9659 38.008 94.3139 38.12 93.5139 38.12C92.5859 38.12 91.7619 37.964 91.0419 37.652V36.116C91.4099 36.3 91.7939 36.44 92.1939 36.536C92.6019 36.632 92.9779 36.68 93.3219 36.68C93.9699 36.68 94.4219 36.568 94.6779 36.344C94.9419 36.12 95.0739 35.804 95.0739 35.396C95.0739 35.156 95.0139 34.956 94.8939 34.796C94.7739 34.628 94.5619 34.504 94.2579 34.424C93.9619 34.336 93.5459 34.292 93.0099 34.292H92.3619V32.9H93.0219C93.5499 32.9 93.9499 32.852 94.2219 32.756C94.5019 32.652 94.6899 32.516 94.7859 32.348C94.8899 32.172 94.9419 31.972 94.9419 31.748C94.9419 31.444 94.8459 31.208 94.6539 31.04C94.4699 30.864 94.1579 30.776 93.7179 30.776C93.3099 30.776 92.9539 30.848 92.6499 30.992C92.3539 31.128 92.1019 31.264 91.8939 31.4L91.0539 30.152C91.3899 29.912 91.7819 29.712 92.2299 29.552C92.6859 29.392 93.2259 29.312 93.8499 29.312C94.7299 29.312 95.4259 29.492 95.9379 29.852C96.4579 30.204 96.7179 30.704 96.7179 31.352ZM100.885 29.324C101.381 29.324 101.833 29.4 102.241 29.552C102.657 29.704 102.989 29.932 103.237 30.236C103.493 30.54 103.621 30.924 103.621 31.388C103.621 31.9 103.473 32.324 103.177 32.66C102.889 32.988 102.525 33.26 102.085 33.476C102.389 33.636 102.677 33.824 102.949 34.04C103.229 34.248 103.453 34.496 103.621 34.784C103.797 35.064 103.885 35.396 103.885 35.78C103.885 36.252 103.757 36.664 103.501 37.016C103.253 37.368 102.901 37.64 102.445 37.832C101.997 38.024 101.477 38.12 100.885 38.12C99.9251 38.12 99.1811 37.916 98.6531 37.508C98.1331 37.1 97.8731 36.54 97.8731 35.828C97.8731 35.236 98.0331 34.76 98.3531 34.4C98.6731 34.04 99.0611 33.748 99.5171 33.524C99.1331 33.284 98.8051 32.996 98.5331 32.66C98.2691 32.316 98.1371 31.888 98.1371 31.376C98.1371 30.92 98.2651 30.54 98.5211 30.236C98.7771 29.932 99.1131 29.704 99.5291 29.552C99.9531 29.4 100.405 29.324 100.885 29.324ZM100.873 30.644C100.577 30.644 100.329 30.72 100.129 30.872C99.9371 31.024 99.8411 31.24 99.8411 31.52C99.8411 31.816 99.9451 32.056 100.153 32.24C100.361 32.424 100.605 32.584 100.885 32.72C101.157 32.592 101.397 32.44 101.605 32.264C101.813 32.08 101.917 31.832 101.917 31.52C101.917 31.24 101.817 31.024 101.617 30.872C101.425 30.72 101.177 30.644 100.873 30.644ZM99.5531 35.72C99.5531 36.032 99.6611 36.288 99.8771 36.488C100.101 36.688 100.429 36.788 100.861 36.788C101.309 36.788 101.645 36.692 101.869 36.5C102.093 36.308 102.205 36.052 102.205 35.732C102.205 35.516 102.141 35.328 102.013 35.168C101.885 35 101.725 34.852 101.533 34.724C101.349 34.588 101.157 34.464 100.957 34.352L100.801 34.268C100.433 34.444 100.133 34.648 99.9011 34.88C99.6691 35.112 99.5531 35.392 99.5531 35.72ZM107.92 32.528C108.44 32.528 108.904 32.628 109.312 32.828C109.72 33.028 110.04 33.32 110.272 33.704C110.512 34.088 110.632 34.564 110.632 35.132C110.632 36.06 110.344 36.792 109.768 37.328C109.192 37.856 108.34 38.12 107.212 38.12C106.764 38.12 106.34 38.08 105.94 38C105.548 37.92 105.204 37.804 104.908 37.652V36.092C105.204 36.244 105.56 36.376 105.976 36.488C106.392 36.592 106.784 36.644 107.152 36.644C107.688 36.644 108.096 36.536 108.376 36.32C108.664 36.096 108.808 35.752 108.808 35.288C108.808 34.424 108.236 33.992 107.092 33.992C106.868 33.992 106.636 34.016 106.396 34.064C106.156 34.104 105.956 34.144 105.796 34.184L105.076 33.8L105.4 29.432H110.044V30.968H106.984L106.828 32.648C106.964 32.624 107.108 32.6 107.26 32.576C107.42 32.544 107.64 32.528 107.92 32.528ZM117.32 31.352C117.32 31.944 117.14 32.416 116.78 32.768C116.428 33.12 115.992 33.36 115.472 33.488V33.524C116.16 33.604 116.68 33.812 117.032 34.148C117.392 34.484 117.572 34.936 117.572 35.504C117.572 36 117.448 36.448 117.2 36.848C116.96 37.24 116.584 37.552 116.072 37.784C115.568 38.008 114.916 38.12 114.116 38.12C113.188 38.12 112.364 37.964 111.644 37.652V36.116C112.012 36.3 112.396 36.44 112.796 36.536C113.204 36.632 113.58 36.68 113.924 36.68C114.572 36.68 115.024 36.568 115.28 36.344C115.544 36.12 115.676 35.804 115.676 35.396C115.676 35.156 115.616 34.956 115.496 34.796C115.376 34.628 115.164 34.504 114.86 34.424C114.564 34.336 114.148 34.292 113.612 34.292H112.964V32.9H113.624C114.152 32.9 114.552 32.852 114.824 32.756C115.104 32.652 115.292 32.516 115.388 32.348C115.492 32.172 115.544 31.972 115.544 31.748C115.544 31.444 115.448 31.208 115.256 31.04C115.072 30.864 114.76 30.776 114.32 30.776C113.912 30.776 113.556 30.848 113.252 30.992C112.956 31.128 112.704 31.264 112.496 31.4L111.656 30.152C111.992 29.912 112.384 29.712 112.832 29.552C113.288 29.392 113.828 29.312 114.452 29.312C115.332 29.312 116.028 29.492 116.54 29.852C117.06 30.204 117.32 30.704 117.32 31.352ZM121.487 29.324C121.983 29.324 122.435 29.4 122.843 29.552C123.259 29.704 123.591 29.932 123.839 30.236C124.095 30.54 124.223 30.924 124.223 31.388C124.223 31.9 124.075 32.324 123.779 32.66C123.491 32.988 123.127 33.26 122.687 33.476C122.991 33.636 123.279 33.824 123.551 34.04C123.831 34.248 124.055 34.496 124.223 34.784C124.399 35.064 124.487 35.396 124.487 35.78C124.487 36.252 124.359 36.664 124.103 37.016C123.855 37.368 123.503 37.64 123.047 37.832C122.599 38.024 122.079 38.12 121.487 38.12C120.527 38.12 119.783 37.916 119.255 37.508C118.735 37.1 118.475 36.54 118.475 35.828C118.475 35.236 118.635 34.76 118.955 34.4C119.275 34.04 119.663 33.748 120.119 33.524C119.735 33.284 119.407 32.996 119.135 32.66C118.871 32.316 118.739 31.888 118.739 31.376C118.739 30.92 118.867 30.54 119.123 30.236C119.379 29.932 119.715 29.704 120.131 29.552C120.555 29.4 121.007 29.324 121.487 29.324ZM121.475 30.644C121.179 30.644 120.931 30.72 120.731 30.872C120.539 31.024 120.443 31.24 120.443 31.52C120.443 31.816 120.547 32.056 120.755 32.24C120.963 32.424 121.207 32.584 121.487 32.72C121.759 32.592 121.999 32.44 122.207 32.264C122.415 32.08 122.519 31.832 122.519 31.52C122.519 31.24 122.419 31.024 122.219 30.872C122.027 30.72 121.779 30.644 121.475 30.644ZM120.155 35.72C120.155 36.032 120.263 36.288 120.479 36.488C120.703 36.688 121.031 36.788 121.463 36.788C121.911 36.788 122.247 36.692 122.471 36.5C122.695 36.308 122.807 36.052 122.807 35.732C122.807 35.516 122.743 35.328 122.615 35.168C122.487 35 122.327 34.852 122.135 34.724C121.951 34.588 121.759 34.464 121.559 34.352L121.403 34.268C121.035 34.444 120.735 34.648 120.503 34.88C120.271 35.112 120.155 35.392 120.155 35.72ZM129.878 38H128.066V33.044C128.066 32.836 128.07 32.564 128.078 32.228C128.094 31.892 128.106 31.596 128.114 31.34C128.074 31.388 127.986 31.476 127.85 31.604C127.722 31.724 127.602 31.832 127.49 31.928L126.506 32.72L125.63 31.628L128.39 29.432H129.878V38Z" fill="#DDDDDD"/>
<path d="M29.5501 35.1413C28.9456 35.0112 28.4674 35.2919 28.0439 35.537C27.6102 35.7896 26.7856 36.4586 26.313 36.2874C23.893 35.291 21.6169 33.1728 20.6316 30.7431C20.458 30.2604 21.1238 29.4305 21.3745 28.9917C21.6178 28.567 21.8927 28.0842 21.7674 27.4752C21.6541 26.9279 20.1887 25.0632 19.6705 24.5534C19.3288 24.2166 18.9787 24.0313 18.6193 24.0014C17.2682 23.9434 15.7592 25.7462 15.4945 26.1775C14.8315 27.0972 14.8352 28.3209 15.5057 29.8048C17.1215 33.7903 23.2327 39.8051 27.2332 41.4817C27.9715 41.8269 28.6466 42 29.253 42C29.8464 42 30.3748 41.8344 30.8289 41.506C31.1715 41.3086 33.0483 39.7247 32.999 38.3372C32.9693 37.9836 32.7845 37.6299 32.4521 37.2875C31.946 36.7645 30.0934 35.2554 29.5501 35.1413Z" fill="#DDDDDD"/>
<path d="M208.164 29V20.432H209.244V28.04H212.988V29H208.164ZM216.749 22.46C217.533 22.46 218.113 22.632 218.489 22.976C218.865 23.32 219.053 23.868 219.053 24.62V29H218.285L218.081 28.088H218.033C217.753 28.44 217.457 28.7 217.145 28.868C216.841 29.036 216.417 29.12 215.873 29.12C215.289 29.12 214.805 28.968 214.421 28.664C214.037 28.352 213.845 27.868 213.845 27.212C213.845 26.572 214.097 26.08 214.601 25.736C215.105 25.384 215.881 25.192 216.929 25.16L218.021 25.124V24.74C218.021 24.204 217.905 23.832 217.673 23.624C217.441 23.416 217.113 23.312 216.689 23.312C216.353 23.312 216.033 23.364 215.729 23.468C215.425 23.564 215.141 23.676 214.877 23.804L214.553 23.012C214.833 22.86 215.165 22.732 215.549 22.628C215.933 22.516 216.333 22.46 216.749 22.46ZM217.061 25.892C216.261 25.924 215.705 26.052 215.393 26.276C215.089 26.5 214.937 26.816 214.937 27.224C214.937 27.584 215.045 27.848 215.261 28.016C215.485 28.184 215.769 28.268 216.113 28.268C216.657 28.268 217.109 28.12 217.469 27.824C217.829 27.52 218.009 27.056 218.009 26.432V25.856L217.061 25.892ZM220.032 22.568H221.16L222.552 26.228C222.672 26.548 222.78 26.856 222.876 27.152C222.972 27.44 223.044 27.716 223.092 27.98H223.14C223.188 27.78 223.264 27.52 223.368 27.2C223.472 26.872 223.58 26.544 223.692 26.216L225 22.568H226.14L223.368 29.888C223.144 30.496 222.852 30.98 222.492 31.34C222.14 31.7 221.652 31.88 221.028 31.88C220.836 31.88 220.668 31.868 220.524 31.844C220.38 31.828 220.256 31.808 220.152 31.784V30.944C220.24 30.96 220.344 30.976 220.464 30.992C220.592 31.008 220.724 31.016 220.86 31.016C221.228 31.016 221.524 30.912 221.748 30.704C221.98 30.496 222.16 30.22 222.288 29.876L222.624 29.024L220.032 22.568ZM229.593 22.46C230.377 22.46 230.957 22.632 231.333 22.976C231.709 23.32 231.897 23.868 231.897 24.62V29H231.129L230.925 28.088H230.877C230.597 28.44 230.301 28.7 229.989 28.868C229.685 29.036 229.261 29.12 228.717 29.12C228.133 29.12 227.649 28.968 227.265 28.664C226.881 28.352 226.689 27.868 226.689 27.212C226.689 26.572 226.941 26.08 227.445 25.736C227.949 25.384 228.725 25.192 229.773 25.16L230.865 25.124V24.74C230.865 24.204 230.749 23.832 230.517 23.624C230.285 23.416 229.957 23.312 229.533 23.312C229.197 23.312 228.877 23.364 228.573 23.468C228.269 23.564 227.985 23.676 227.721 23.804L227.397 23.012C227.677 22.86 228.009 22.732 228.393 22.628C228.777 22.516 229.177 22.46 229.593 22.46ZM229.905 25.892C229.105 25.924 228.549 26.052 228.237 26.276C227.933 26.5 227.781 26.816 227.781 27.224C227.781 27.584 227.889 27.848 228.105 28.016C228.329 28.184 228.613 28.268 228.957 28.268C229.501 28.268 229.953 28.12 230.313 27.824C230.673 27.52 230.853 27.056 230.853 26.432V25.856L229.905 25.892ZM236.979 22.448C237.747 22.448 238.327 22.636 238.719 23.012C239.111 23.38 239.307 23.98 239.307 24.812V29H238.263V24.884C238.263 23.852 237.783 23.336 236.823 23.336C236.111 23.336 235.619 23.536 235.347 23.936C235.075 24.336 234.939 24.912 234.939 25.664V29H233.883V22.568H234.735L234.891 23.444H234.951C235.159 23.108 235.447 22.86 235.815 22.7C236.183 22.532 236.571 22.448 236.979 22.448ZM243.737 22.46C244.521 22.46 245.101 22.632 245.477 22.976C245.853 23.32 246.041 23.868 246.041 24.62V29H245.273L245.069 28.088H245.021C244.741 28.44 244.445 28.7 244.133 28.868C243.829 29.036 243.405 29.12 242.861 29.12C242.277 29.12 241.793 28.968 241.409 28.664C241.025 28.352 240.833 27.868 240.833 27.212C240.833 26.572 241.085 26.08 241.589 25.736C242.093 25.384 242.869 25.192 243.917 25.16L245.009 25.124V24.74C245.009 24.204 244.893 23.832 244.661 23.624C244.429 23.416 244.101 23.312 243.677 23.312C243.341 23.312 243.021 23.364 242.717 23.468C242.413 23.564 242.129 23.676 241.865 23.804L241.541 23.012C241.821 22.86 242.153 22.732 242.537 22.628C242.921 22.516 243.321 22.46 243.737 22.46ZM244.049 25.892C243.249 25.924 242.693 26.052 242.381 26.276C242.077 26.5 241.925 26.816 241.925 27.224C241.925 27.584 242.033 27.848 242.249 28.016C242.473 28.184 242.757 28.268 243.101 28.268C243.645 28.268 244.097 28.12 244.457 27.824C244.817 27.52 244.997 27.056 244.997 26.432V25.856L244.049 25.892ZM251.124 22.448C251.892 22.448 252.472 22.636 252.864 23.012C253.256 23.38 253.452 23.98 253.452 24.812V29H252.408V24.884C252.408 23.852 251.928 23.336 250.968 23.336C250.256 23.336 249.764 23.536 249.492 23.936C249.22 24.336 249.084 24.912 249.084 25.664V29H248.028V22.568H248.88L249.036 23.444H249.096C249.304 23.108 249.592 22.86 249.96 22.7C250.328 22.532 250.716 22.448 251.124 22.448ZM261.419 29H260.339V21.38H257.663V20.432H264.083V21.38H261.419V29ZM266.871 22.448C267.423 22.448 267.895 22.568 268.287 22.808C268.687 23.048 268.991 23.388 269.199 23.828C269.415 24.26 269.523 24.768 269.523 25.352V25.988H265.119C265.135 26.716 265.319 27.272 265.671 27.656C266.031 28.032 266.531 28.22 267.171 28.22C267.579 28.22 267.939 28.184 268.251 28.112C268.571 28.032 268.899 27.92 269.235 27.776V28.7C268.907 28.844 268.583 28.948 268.263 29.012C267.943 29.084 267.563 29.12 267.123 29.12C266.515 29.12 265.975 28.996 265.503 28.748C265.039 28.5 264.675 28.132 264.411 27.644C264.155 27.148 264.027 26.544 264.027 25.832C264.027 25.128 264.143 24.524 264.375 24.02C264.615 23.516 264.947 23.128 265.371 22.856C265.803 22.584 266.303 22.448 266.871 22.448ZM266.859 23.312C266.355 23.312 265.955 23.476 265.659 23.804C265.371 24.124 265.199 24.572 265.143 25.148H268.419C268.411 24.604 268.283 24.164 268.035 23.828C267.787 23.484 267.395 23.312 266.859 23.312ZM272.217 29H271.161V19.88H272.217V29ZM276.738 22.448C277.29 22.448 277.762 22.568 278.154 22.808C278.554 23.048 278.858 23.388 279.066 23.828C279.282 24.26 279.39 24.768 279.39 25.352V25.988H274.986C275.002 26.716 275.186 27.272 275.538 27.656C275.898 28.032 276.398 28.22 277.038 28.22C277.446 28.22 277.806 28.184 278.118 28.112C278.438 28.032 278.766 27.92 279.102 27.776V28.7C278.774 28.844 278.45 28.948 278.13 29.012C277.81 29.084 277.43 29.12 276.99 29.12C276.382 29.12 275.842 28.996 275.37 28.748C274.906 28.5 274.542 28.132 274.278 27.644C274.022 27.148 273.894 26.544 273.894 25.832C273.894 25.128 274.01 24.524 274.242 24.02C274.482 23.516 274.814 23.128 275.238 22.856C275.67 22.584 276.17 22.448 276.738 22.448ZM276.726 23.312C276.222 23.312 275.822 23.476 275.526 23.804C275.238 24.124 275.066 24.572 275.01 25.148H278.286C278.278 24.604 278.15 24.164 277.902 23.828C277.654 23.484 277.262 23.312 276.726 23.312ZM284.088 22.448C284.88 22.448 285.516 22.724 285.996 23.276C286.484 23.828 286.728 24.66 286.728 25.772C286.728 26.868 286.484 27.7 285.996 28.268C285.516 28.836 284.876 29.12 284.076 29.12C283.58 29.12 283.168 29.028 282.84 28.844C282.52 28.652 282.268 28.432 282.084 28.184H282.012C282.028 28.32 282.044 28.492 282.06 28.7C282.076 28.908 282.084 29.088 282.084 29.24V31.88H281.028V22.568H281.892L282.036 23.444H282.084C282.276 23.164 282.528 22.928 282.84 22.736C283.152 22.544 283.568 22.448 284.088 22.448ZM283.896 23.336C283.24 23.336 282.776 23.52 282.504 23.888C282.24 24.256 282.1 24.816 282.084 25.568V25.772C282.084 26.564 282.212 27.176 282.468 27.608C282.732 28.032 283.216 28.244 283.92 28.244C284.312 28.244 284.632 28.136 284.88 27.92C285.136 27.704 285.324 27.412 285.444 27.044C285.572 26.668 285.636 26.24 285.636 25.76C285.636 25.024 285.492 24.436 285.204 23.996C284.924 23.556 284.488 23.336 283.896 23.336ZM294.003 25.772C294.003 26.836 293.731 27.66 293.187 28.244C292.651 28.828 291.923 29.12 291.003 29.12C290.435 29.12 289.927 28.992 289.479 28.736C289.039 28.472 288.691 28.092 288.435 27.596C288.179 27.092 288.051 26.484 288.051 25.772C288.051 24.708 288.319 23.888 288.855 23.312C289.391 22.736 290.119 22.448 291.039 22.448C291.623 22.448 292.135 22.58 292.575 22.844C293.023 23.1 293.371 23.476 293.619 23.972C293.875 24.46 294.003 25.06 294.003 25.772ZM289.143 25.772C289.143 26.532 289.291 27.136 289.587 27.584C289.891 28.024 290.371 28.244 291.027 28.244C291.675 28.244 292.151 28.024 292.455 27.584C292.759 27.136 292.911 26.532 292.911 25.772C292.911 25.012 292.759 24.416 292.455 23.984C292.151 23.552 291.671 23.336 291.015 23.336C290.359 23.336 289.883 23.552 289.587 23.984C289.291 24.416 289.143 25.012 289.143 25.772ZM298.772 22.448C299.54 22.448 300.12 22.636 300.512 23.012C300.904 23.38 301.1 23.98 301.1 24.812V29H300.056V24.884C300.056 23.852 299.576 23.336 298.616 23.336C297.904 23.336 297.412 23.536 297.14 23.936C296.868 24.336 296.732 24.912 296.732 25.664V29H295.676V22.568H296.528L296.684 23.444H296.744C296.952 23.108 297.24 22.86 297.608 22.7C297.976 22.532 298.364 22.448 298.772 22.448ZM213.024 43.708C213.024 44.468 212.748 45.06 212.196 45.484C211.644 45.908 210.9 46.12 209.964 46.12C209.484 46.12 209.04 46.084 208.632 46.012C208.224 45.94 207.884 45.84 207.612 45.712V44.68C207.9 44.808 208.256 44.924 208.68 45.028C209.112 45.132 209.556 45.184 210.012 45.184C210.652 45.184 211.132 45.06 211.452 44.812C211.78 44.564 211.944 44.228 211.944 43.804C211.944 43.524 211.884 43.288 211.764 43.096C211.644 42.904 211.436 42.728 211.14 42.568C210.852 42.4 210.448 42.224 209.928 42.04C209.2 41.776 208.648 41.452 208.272 41.068C207.904 40.684 207.72 40.16 207.72 39.496C207.72 39.04 207.836 38.652 208.068 38.332C208.3 38.004 208.62 37.752 209.028 37.576C209.444 37.4 209.92 37.312 210.456 37.312C210.928 37.312 211.36 37.356 211.752 37.444C212.144 37.532 212.5 37.648 212.82 37.792L212.484 38.716C212.188 38.588 211.864 38.48 211.512 38.392C211.168 38.304 210.808 38.26 210.432 38.26C209.896 38.26 209.492 38.376 209.22 38.608C208.948 38.832 208.812 39.132 208.812 39.508C208.812 39.796 208.872 40.036 208.992 40.228C209.112 40.42 209.308 40.592 209.58 40.744C209.852 40.896 210.22 41.06 210.684 41.236C211.188 41.42 211.612 41.62 211.956 41.836C212.308 42.044 212.572 42.296 212.748 42.592C212.932 42.888 213.024 43.26 213.024 43.708ZM217.09 39.448C217.642 39.448 218.114 39.568 218.506 39.808C218.906 40.048 219.21 40.388 219.418 40.828C219.634 41.26 219.742 41.768 219.742 42.352V42.988H215.338C215.354 43.716 215.538 44.272 215.89 44.656C216.25 45.032 216.75 45.22 217.39 45.22C217.798 45.22 218.158 45.184 218.47 45.112C218.79 45.032 219.118 44.92 219.454 44.776V45.7C219.126 45.844 218.802 45.948 218.482 46.012C218.162 46.084 217.782 46.12 217.342 46.12C216.734 46.12 216.194 45.996 215.722 45.748C215.258 45.5 214.894 45.132 214.63 44.644C214.374 44.148 214.246 43.544 214.246 42.832C214.246 42.128 214.362 41.524 214.594 41.02C214.834 40.516 215.166 40.128 215.59 39.856C216.022 39.584 216.522 39.448 217.09 39.448ZM217.078 40.312C216.574 40.312 216.174 40.476 215.878 40.804C215.59 41.124 215.418 41.572 215.362 42.148H218.638C218.63 41.604 218.502 41.164 218.254 40.828C218.006 40.484 217.614 40.312 217.078 40.312ZM224.475 39.448C225.243 39.448 225.823 39.636 226.215 40.012C226.607 40.38 226.803 40.98 226.803 41.812V46H225.759V41.884C225.759 40.852 225.279 40.336 224.319 40.336C223.607 40.336 223.115 40.536 222.843 40.936C222.571 41.336 222.435 41.912 222.435 42.664V46H221.379V39.568H222.231L222.387 40.444H222.447C222.655 40.108 222.943 39.86 223.311 39.7C223.679 39.532 224.067 39.448 224.475 39.448ZM229.337 37.156C229.497 37.156 229.637 37.212 229.757 37.324C229.885 37.428 229.949 37.596 229.949 37.828C229.949 38.052 229.885 38.22 229.757 38.332C229.637 38.444 229.497 38.5 229.337 38.5C229.161 38.5 229.013 38.444 228.893 38.332C228.773 38.22 228.713 38.052 228.713 37.828C228.713 37.596 228.773 37.428 228.893 37.324C229.013 37.212 229.161 37.156 229.337 37.156ZM229.853 39.568V46H228.797V39.568H229.853ZM234.987 39.448C235.755 39.448 236.335 39.636 236.727 40.012C237.119 40.38 237.315 40.98 237.315 41.812V46H236.271V41.884C236.271 40.852 235.791 40.336 234.831 40.336C234.119 40.336 233.627 40.536 233.355 40.936C233.083 41.336 232.947 41.912 232.947 42.664V46H231.891V39.568H232.743L232.899 40.444H232.959C233.167 40.108 233.455 39.86 233.823 39.7C234.191 39.532 234.579 39.448 234.987 39.448ZM238.769 43.252V42.316H241.673V43.252H238.769ZM242.108 48.28C241.916 48.28 241.748 48.264 241.604 48.232C241.46 48.208 241.332 48.172 241.22 48.124V47.212C241.348 47.244 241.484 47.272 241.628 47.296C241.772 47.32 241.924 47.332 242.084 47.332C242.284 47.332 242.472 47.292 242.648 47.212C242.832 47.132 242.98 46.992 243.092 46.792C243.204 46.592 243.26 46.312 243.26 45.952V37.432H244.34V45.868C244.34 46.692 244.136 47.3 243.728 47.692C243.32 48.084 242.78 48.28 242.108 48.28ZM251.834 39.568V46H250.97L250.814 45.148H250.766C250.558 45.484 250.27 45.732 249.902 45.892C249.534 46.044 249.142 46.12 248.726 46.12C247.95 46.12 247.366 45.936 246.974 45.568C246.582 45.192 246.386 44.596 246.386 43.78V39.568H247.454V43.708C247.454 44.732 247.93 45.244 248.882 45.244C249.594 45.244 250.086 45.044 250.358 44.644C250.638 44.244 250.778 43.668 250.778 42.916V39.568H251.834ZM260.931 39.448C261.659 39.448 262.203 39.636 262.563 40.012C262.923 40.38 263.103 40.98 263.103 41.812V46H262.059V41.86C262.059 40.844 261.623 40.336 260.751 40.336C260.127 40.336 259.679 40.516 259.407 40.876C259.143 41.236 259.011 41.76 259.011 42.448V46H257.967V41.86C257.967 40.844 257.527 40.336 256.647 40.336C255.999 40.336 255.551 40.536 255.303 40.936C255.055 41.336 254.931 41.912 254.931 42.664V46H253.875V39.568H254.727L254.883 40.444H254.943C255.143 40.108 255.411 39.86 255.747 39.7C256.091 39.532 256.455 39.448 256.839 39.448C257.847 39.448 258.503 39.808 258.807 40.528H258.867C259.083 40.16 259.375 39.888 259.743 39.712C260.119 39.536 260.515 39.448 260.931 39.448ZM267.526 39.46C268.31 39.46 268.89 39.632 269.266 39.976C269.642 40.32 269.83 40.868 269.83 41.62V46H269.062L268.858 45.088H268.81C268.53 45.44 268.234 45.7 267.922 45.868C267.618 46.036 267.194 46.12 266.65 46.12C266.066 46.12 265.582 45.968 265.198 45.664C264.814 45.352 264.622 44.868 264.622 44.212C264.622 43.572 264.874 43.08 265.378 42.736C265.882 42.384 266.658 42.192 267.706 42.16L268.798 42.124V41.74C268.798 41.204 268.682 40.832 268.45 40.624C268.218 40.416 267.89 40.312 267.466 40.312C267.13 40.312 266.81 40.364 266.506 40.468C266.202 40.564 265.918 40.676 265.654 40.804L265.33 40.012C265.61 39.86 265.942 39.732 266.326 39.628C266.71 39.516 267.11 39.46 267.526 39.46ZM267.838 42.892C267.038 42.924 266.482 43.052 266.17 43.276C265.866 43.5 265.714 43.816 265.714 44.224C265.714 44.584 265.822 44.848 266.038 45.016C266.262 45.184 266.546 45.268 266.89 45.268C267.434 45.268 267.886 45.12 268.246 44.824C268.606 44.52 268.786 44.056 268.786 43.432V42.856L267.838 42.892ZM273.965 45.256C274.125 45.256 274.289 45.244 274.457 45.22C274.625 45.188 274.761 45.156 274.865 45.124V45.928C274.753 45.984 274.593 46.028 274.385 46.06C274.177 46.1 273.977 46.12 273.785 46.12C273.449 46.12 273.137 46.064 272.849 45.952C272.569 45.832 272.341 45.628 272.165 45.34C271.989 45.052 271.901 44.648 271.901 44.128V40.384H270.989V39.88L271.913 39.46L272.333 38.092H272.957V39.568H274.817V40.384H272.957V44.104C272.957 44.496 273.049 44.788 273.233 44.98C273.425 45.164 273.669 45.256 273.965 45.256ZM282.594 37.432L279.402 46H278.37L281.562 37.432H282.594ZM292.108 41.704C292.108 42.624 292.012 43.416 291.82 44.08C291.628 44.736 291.324 45.24 290.908 45.592C290.492 45.944 289.94 46.12 289.252 46.12C288.284 46.12 287.568 45.732 287.104 44.956C286.648 44.172 286.42 43.088 286.42 41.704C286.42 40.776 286.512 39.984 286.696 39.328C286.888 38.672 287.192 38.172 287.608 37.828C288.024 37.476 288.572 37.3 289.252 37.3C290.212 37.3 290.928 37.688 291.4 38.464C291.872 39.232 292.108 40.312 292.108 41.704ZM287.476 41.704C287.476 42.88 287.608 43.76 287.872 44.344C288.144 44.928 288.604 45.22 289.252 45.22C289.892 45.22 290.348 44.932 290.62 44.356C290.9 43.772 291.04 42.888 291.04 41.704C291.04 40.536 290.9 39.66 290.62 39.076C290.348 38.492 289.892 38.2 289.252 38.2C288.604 38.2 288.144 38.492 287.872 39.076C287.608 39.66 287.476 40.536 287.476 41.704ZM298.939 41.092C298.939 41.708 298.883 42.316 298.771 42.916C298.667 43.508 298.471 44.048 298.183 44.536C297.903 45.016 297.503 45.4 296.983 45.688C296.471 45.976 295.811 46.12 295.003 46.12C294.843 46.12 294.655 46.108 294.439 46.084C294.231 46.068 294.059 46.04 293.923 46V45.1C294.235 45.204 294.587 45.256 294.979 45.256C295.539 45.256 295.999 45.164 296.359 44.98C296.727 44.796 297.019 44.548 297.235 44.236C297.451 43.916 297.607 43.548 297.703 43.132C297.799 42.708 297.855 42.264 297.871 41.8H297.799C297.623 42.072 297.367 42.308 297.031 42.508C296.703 42.7 296.279 42.796 295.759 42.796C295.023 42.796 294.427 42.572 293.971 42.124C293.523 41.668 293.299 41.028 293.299 40.204C293.299 39.604 293.411 39.088 293.635 38.656C293.867 38.224 294.187 37.892 294.595 37.66C295.003 37.428 295.483 37.312 296.035 37.312C296.579 37.312 297.071 37.452 297.511 37.732C297.951 38.004 298.299 38.42 298.555 38.98C298.811 39.532 298.939 40.236 298.939 41.092ZM296.035 38.2C295.539 38.2 295.131 38.364 294.811 38.692C294.499 39.02 294.343 39.52 294.343 40.192C294.343 40.744 294.475 41.18 294.739 41.5C295.011 41.812 295.427 41.968 295.987 41.968C296.371 41.968 296.703 41.892 296.983 41.74C297.263 41.58 297.479 41.38 297.631 41.14C297.791 40.9 297.871 40.652 297.871 40.396C297.871 40.052 297.803 39.712 297.667 39.376C297.531 39.04 297.327 38.76 297.055 38.536C296.783 38.312 296.443 38.2 296.035 38.2ZM300.43 40.216C300.43 39.912 300.502 39.7 300.646 39.58C300.79 39.46 300.962 39.4 301.162 39.4C301.37 39.4 301.546 39.46 301.69 39.58C301.842 39.7 301.918 39.912 301.918 40.216C301.918 40.504 301.842 40.712 301.69 40.84C301.546 40.968 301.37 41.032 301.162 41.032C300.962 41.032 300.79 40.968 300.646 40.84C300.502 40.712 300.43 40.504 300.43 40.216ZM300.43 45.352C300.43 45.056 300.502 44.848 300.646 44.728C300.79 44.608 300.962 44.548 301.162 44.548C301.37 44.548 301.546 44.608 301.69 44.728C301.842 44.848 301.918 45.056 301.918 45.352C301.918 45.64 301.842 45.848 301.69 45.976C301.546 46.104 301.37 46.168 301.162 46.168C300.962 46.168 300.79 46.104 300.646 45.976C300.502 45.848 300.43 45.64 300.43 45.352ZM309.053 41.704C309.053 42.624 308.957 43.416 308.765 44.08C308.573 44.736 308.269 45.24 307.853 45.592C307.437 45.944 306.885 46.12 306.197 46.12C305.229 46.12 304.513 45.732 304.049 44.956C303.593 44.172 303.365 43.088 303.365 41.704C303.365 40.776 303.457 39.984 303.641 39.328C303.833 38.672 304.137 38.172 304.553 37.828C304.969 37.476 305.517 37.3 306.197 37.3C307.157 37.3 307.873 37.688 308.345 38.464C308.817 39.232 309.053 40.312 309.053 41.704ZM304.421 41.704C304.421 42.88 304.553 43.76 304.817 44.344C305.089 44.928 305.549 45.22 306.197 45.22C306.837 45.22 307.293 44.932 307.565 44.356C307.845 43.772 307.985 42.888 307.985 41.704C307.985 40.536 307.845 39.66 307.565 39.076C307.293 38.492 306.837 38.2 306.197 38.2C305.549 38.2 305.089 38.492 304.817 39.076C304.553 39.66 304.421 40.536 304.421 41.704ZM315.921 41.704C315.921 42.624 315.825 43.416 315.633 44.08C315.441 44.736 315.137 45.24 314.721 45.592C314.305 45.944 313.753 46.12 313.065 46.12C312.097 46.12 311.381 45.732 310.917 44.956C310.461 44.172 310.233 43.088 310.233 41.704C310.233 40.776 310.325 39.984 310.509 39.328C310.701 38.672 311.005 38.172 311.421 37.828C311.837 37.476 312.385 37.3 313.065 37.3C314.025 37.3 314.741 37.688 315.213 38.464C315.685 39.232 315.921 40.312 315.921 41.704ZM311.289 41.704C311.289 42.88 311.421 43.76 311.685 44.344C311.957 44.928 312.417 45.22 313.065 45.22C313.705 45.22 314.161 44.932 314.433 44.356C314.713 43.772 314.853 42.888 314.853 41.704C314.853 40.536 314.713 39.66 314.433 39.076C314.161 38.492 313.705 38.2 313.065 38.2C312.417 38.2 311.957 38.492 311.685 39.076C311.421 39.66 311.289 40.536 311.289 41.704ZM316.992 43.252V42.316H319.896V43.252H316.992ZM324.639 46H323.607V40.012C323.607 39.668 323.611 39.392 323.619 39.184C323.627 38.976 323.639 38.76 323.655 38.536C323.527 38.664 323.411 38.772 323.307 38.86C323.203 38.948 323.071 39.06 322.911 39.196L321.999 39.94L321.447 39.232L323.763 37.432H324.639V46ZM330.666 37.312C331.418 37.312 332.034 37.488 332.514 37.84C332.994 38.192 333.234 38.7 333.234 39.364C333.234 39.708 333.158 40.008 333.006 40.264C332.862 40.52 332.666 40.748 332.418 40.948C332.17 41.14 331.898 41.312 331.602 41.464C331.954 41.632 332.274 41.824 332.562 42.04C332.85 42.248 333.078 42.492 333.246 42.772C333.422 43.052 333.51 43.388 333.51 43.78C333.51 44.5 333.254 45.072 332.742 45.496C332.238 45.912 331.558 46.12 330.702 46.12C329.782 46.12 329.074 45.92 328.578 45.52C328.082 45.112 327.834 44.544 327.834 43.816C327.834 43.424 327.914 43.084 328.074 42.796C328.242 42.508 328.462 42.26 328.734 42.052C329.006 41.844 329.298 41.668 329.61 41.524C329.194 41.284 328.838 40.996 328.542 40.66C328.254 40.316 328.11 39.88 328.11 39.352C328.11 38.912 328.222 38.544 328.446 38.248C328.67 37.944 328.974 37.712 329.358 37.552C329.742 37.392 330.178 37.312 330.666 37.312ZM330.654 38.164C330.214 38.164 329.85 38.272 329.562 38.488C329.282 38.696 329.142 39 329.142 39.4C329.142 39.696 329.21 39.944 329.346 40.144C329.49 40.344 329.682 40.516 329.922 40.66C330.162 40.796 330.426 40.928 330.714 41.056C331.13 40.88 331.478 40.668 331.758 40.42C332.046 40.172 332.19 39.832 332.19 39.4C332.19 39 332.05 38.696 331.77 38.488C331.49 38.272 331.118 38.164 330.654 38.164ZM328.866 43.828C328.866 44.244 329.014 44.592 329.31 44.872C329.606 45.144 330.062 45.28 330.678 45.28C331.262 45.28 331.706 45.144 332.01 44.872C332.322 44.592 332.478 44.232 332.478 43.792C332.478 43.376 332.314 43.032 331.986 42.76C331.658 42.48 331.222 42.236 330.678 42.028L330.486 41.956C329.958 42.18 329.554 42.44 329.274 42.736C329.002 43.024 328.866 43.388 328.866 43.828ZM334.977 40.216C334.977 39.912 335.049 39.7 335.193 39.58C335.337 39.46 335.509 39.4 335.709 39.4C335.917 39.4 336.093 39.46 336.237 39.58C336.389 39.7 336.465 39.912 336.465 40.216C336.465 40.504 336.389 40.712 336.237 40.84C336.093 40.968 335.917 41.032 335.709 41.032C335.509 41.032 335.337 40.968 335.193 40.84C335.049 40.712 334.977 40.504 334.977 40.216ZM334.977 45.352C334.977 45.056 335.049 44.848 335.193 44.728C335.337 44.608 335.509 44.548 335.709 44.548C335.917 44.548 336.093 44.608 336.237 44.728C336.389 44.848 336.465 45.056 336.465 45.352C336.465 45.64 336.389 45.848 336.237 45.976C336.093 46.104 335.917 46.168 335.709 46.168C335.509 46.168 335.337 46.104 335.193 45.976C335.049 45.848 334.977 45.64 334.977 45.352ZM343.6 41.704C343.6 42.624 343.504 43.416 343.312 44.08C343.12 44.736 342.816 45.24 342.4 45.592C341.984 45.944 341.432 46.12 340.744 46.12C339.776 46.12 339.06 45.732 338.596 44.956C338.14 44.172 337.912 43.088 337.912 41.704C337.912 40.776 338.004 39.984 338.188 39.328C338.38 38.672 338.684 38.172 339.1 37.828C339.516 37.476 340.064 37.3 340.744 37.3C341.704 37.3 342.42 37.688 342.892 38.464C343.364 39.232 343.6 40.312 343.6 41.704ZM338.968 41.704C338.968 42.88 339.1 43.76 339.364 44.344C339.636 44.928 340.096 45.22 340.744 45.22C341.384 45.22 341.84 44.932 342.112 44.356C342.392 43.772 342.532 42.888 342.532 41.704C342.532 40.536 342.392 39.66 342.112 39.076C341.84 38.492 341.384 38.2 340.744 38.2C340.096 38.2 339.636 38.492 339.364 39.076C339.1 39.66 338.968 40.536 338.968 41.704ZM350.467 41.704C350.467 42.624 350.371 43.416 350.179 44.08C349.987 44.736 349.683 45.24 349.267 45.592C348.851 45.944 348.299 46.12 347.611 46.12C346.643 46.12 345.927 45.732 345.463 44.956C345.007 44.172 344.779 43.088 344.779 41.704C344.779 40.776 344.871 39.984 345.055 39.328C345.247 38.672 345.551 38.172 345.967 37.828C346.383 37.476 346.931 37.3 347.611 37.3C348.571 37.3 349.287 37.688 349.759 38.464C350.231 39.232 350.467 40.312 350.467 41.704ZM345.835 41.704C345.835 42.88 345.967 43.76 346.231 44.344C346.503 44.928 346.963 45.22 347.611 45.22C348.251 45.22 348.707 44.932 348.979 44.356C349.259 43.772 349.399 42.888 349.399 41.704C349.399 40.536 349.259 39.66 348.979 39.076C348.707 38.492 348.251 38.2 347.611 38.2C346.963 38.2 346.503 38.492 346.231 39.076C345.967 39.66 345.835 40.536 345.835 41.704Z" fill="#DDDDDD"/>
</svg>
