<svg width="189" height="90" viewBox="0 0 189 90" fill="none" xmlns="http://www.w3.org/2000/svg">
<rect x="0.25" y="0.25" width="188.5" height="89.5" rx="4.75" fill="#303030" stroke="#BABABA" stroke-width="0.5"/>
<path d="M0.25 5C0.25 2.37665 2.37665 0.25 5 0.25H184C186.623 0.25 188.75 2.37665 188.75 5V39.75H0.25V5Z" fill="#404040" stroke="#BABABA" stroke-width="0.5"/>
<path d="M51.3223 20.4727C51.3223 21.6523 51.0781 22.5547 50.5898 23.1797C50.1016 23.8047 49.3867 24.1172 48.4453 24.1172C47.5156 24.1172 46.8047 23.8105 46.3125 23.1973C45.8203 22.584 45.5684 21.7051 45.5566 20.5605V18.9902C45.5566 17.7988 45.8027 16.8945 46.2949 16.2773C46.791 15.6602 47.5039 15.3516 48.4336 15.3516C49.3633 15.3516 50.0742 15.6582 50.5664 16.2715C51.0586 16.8809 51.3105 17.7578 51.3223 18.9023V20.4727ZM49.6289 18.75C49.6289 18.043 49.5312 17.5293 49.3359 17.209C49.1445 16.8848 48.8438 16.7227 48.4336 16.7227C48.0352 16.7227 47.7402 16.877 47.5488 17.1855C47.3613 17.4902 47.2617 17.9688 47.25 18.6211V20.6953C47.25 21.3906 47.3438 21.9082 47.5312 22.248C47.7227 22.584 48.0273 22.752 48.4453 22.752C48.8594 22.752 49.1582 22.5898 49.3418 22.2656C49.5254 21.9414 49.6211 21.4453 49.6289 20.7773V18.75ZM58.0312 17.7363C58.0312 18.1504 57.9277 18.5176 57.7207 18.8379C57.5137 19.1582 57.2285 19.4141 56.8652 19.6055C57.2793 19.8047 57.6074 20.0801 57.8496 20.4316C58.0918 20.7793 58.2129 21.1895 58.2129 21.6621C58.2129 22.4199 57.9551 23.0195 57.4395 23.4609C56.9238 23.8984 56.2227 24.1172 55.3359 24.1172C54.4492 24.1172 53.7461 23.8965 53.2266 23.4551C52.707 23.0137 52.4473 22.416 52.4473 21.6621C52.4473 21.1895 52.5684 20.7773 52.8105 20.4258C53.0527 20.0742 53.3789 19.8008 53.7891 19.6055C53.4258 19.4141 53.1406 19.1582 52.9336 18.8379C52.7305 18.5176 52.6289 18.1504 52.6289 17.7363C52.6289 17.0098 52.8711 16.4316 53.3555 16.002C53.8398 15.5684 54.498 15.3516 55.3301 15.3516C56.1582 15.3516 56.8145 15.5664 57.2988 15.9961C57.7871 16.4219 58.0312 17.002 58.0312 17.7363ZM56.5137 21.5391C56.5137 21.168 56.4062 20.8711 56.1914 20.6484C55.9766 20.4258 55.6875 20.3145 55.3242 20.3145C54.9648 20.3145 54.6777 20.4258 54.4629 20.6484C54.248 20.8672 54.1406 21.1641 54.1406 21.5391C54.1406 21.9023 54.2461 22.1953 54.457 22.418C54.668 22.6406 54.9609 22.752 55.3359 22.752C55.7031 22.752 55.9902 22.6445 56.1973 22.4297C56.4082 22.2148 56.5137 21.918 56.5137 21.5391ZM56.3379 17.8184C56.3379 17.4863 56.25 17.2207 56.0742 17.0215C55.8984 16.8184 55.6504 16.7168 55.3301 16.7168C55.0137 16.7168 54.7676 16.8145 54.5918 17.0098C54.416 17.2051 54.3281 17.4746 54.3281 17.8184C54.3281 18.1582 54.416 18.4316 54.5918 18.6387C54.7676 18.8457 55.0156 18.9492 55.3359 18.9492C55.6562 18.9492 55.9023 18.8457 56.0742 18.6387C56.25 18.4316 56.3379 18.1582 56.3379 17.8184ZM63.4746 24H61.7812V17.4727L59.7598 18.0996V16.7227L63.293 15.457H63.4746V24ZM66.5039 19.8047L66.9961 15.4688H71.7773V16.8809H68.3848L68.1738 18.7148C68.5762 18.5 69.0039 18.3926 69.457 18.3926C70.2695 18.3926 70.9062 18.6445 71.3672 19.1484C71.8281 19.6523 72.0586 20.3574 72.0586 21.2637C72.0586 21.8145 71.9414 22.3086 71.707 22.7461C71.4766 23.1797 71.1445 23.5176 70.7109 23.7598C70.2773 23.998 69.7656 24.1172 69.1758 24.1172C68.6602 24.1172 68.1816 24.0137 67.7402 23.8066C67.2988 23.5957 66.9492 23.3008 66.6914 22.9219C66.4375 22.543 66.3027 22.1113 66.2871 21.627H67.9629C67.998 21.9824 68.1211 22.2598 68.332 22.459C68.5469 22.6543 68.8262 22.752 69.1699 22.752C69.5527 22.752 69.8477 22.6152 70.0547 22.3418C70.2617 22.0645 70.3652 21.6738 70.3652 21.1699C70.3652 20.6855 70.2461 20.3145 70.0078 20.0566C69.7695 19.7988 69.4316 19.6699 68.9941 19.6699C68.5918 19.6699 68.2656 19.7754 68.0156 19.9863L67.8516 20.1387L66.5039 19.8047ZM76.5059 21.0293H73.207V19.6641H76.5059V21.0293ZM81.9082 24H80.2148V17.4727L78.1934 18.0996V16.7227L81.7266 15.457H81.9082V24ZM88.6465 20.5898C88.2051 21.0234 87.6895 21.2402 87.0996 21.2402C86.3457 21.2402 85.7422 20.9824 85.2891 20.4668C84.8359 19.9473 84.6094 19.248 84.6094 18.3691C84.6094 17.8105 84.7305 17.2988 84.9727 16.834C85.2188 16.3652 85.5605 16.002 85.998 15.7441C86.4355 15.4824 86.9277 15.3516 87.4746 15.3516C88.0371 15.3516 88.5371 15.4922 88.9746 15.7734C89.4121 16.0547 89.752 16.459 89.9941 16.9863C90.2363 17.5137 90.3594 18.1172 90.3633 18.7969V19.4238C90.3633 20.8457 90.0098 21.9629 89.3027 22.7754C88.5957 23.5879 87.5938 24.0215 86.2969 24.0762L85.8809 24.082V22.6699L86.2559 22.6641C87.7285 22.5977 88.5254 21.9062 88.6465 20.5898ZM87.5156 19.9453C87.7891 19.9453 88.0234 19.875 88.2188 19.7344C88.418 19.5938 88.5684 19.4238 88.6699 19.2246V18.5273C88.6699 17.9531 88.5605 17.5078 88.3418 17.1914C88.123 16.875 87.8301 16.7168 87.4629 16.7168C87.123 16.7168 86.8438 16.873 86.625 17.1855C86.4062 17.4941 86.2969 17.8828 86.2969 18.3516C86.2969 18.8164 86.4023 19.1992 86.6133 19.5C86.8281 19.7969 87.1289 19.9453 87.5156 19.9453ZM97.3184 20.4727C97.3184 21.6523 97.0742 22.5547 96.5859 23.1797C96.0977 23.8047 95.3828 24.1172 94.4414 24.1172C93.5117 24.1172 92.8008 23.8105 92.3086 23.1973C91.8164 22.584 91.5645 21.7051 91.5527 20.5605V18.9902C91.5527 17.7988 91.7988 16.8945 92.291 16.2773C92.7871 15.6602 93.5 15.3516 94.4297 15.3516C95.3594 15.3516 96.0703 15.6582 96.5625 16.2715C97.0547 16.8809 97.3066 17.7578 97.3184 18.9023V20.4727ZM95.625 18.75C95.625 18.043 95.5273 17.5293 95.332 17.209C95.1406 16.8848 94.8398 16.7227 94.4297 16.7227C94.0312 16.7227 93.7363 16.877 93.5449 17.1855C93.3574 17.4902 93.2578 17.9688 93.2461 18.6211V20.6953C93.2461 21.3906 93.3398 21.9082 93.5273 22.248C93.7188 22.584 94.0234 22.752 94.4414 22.752C94.8555 22.752 95.1543 22.5898 95.3379 22.2656C95.5215 21.9414 95.6172 21.4453 95.625 20.7773V18.75ZM103.061 15.3809V16.7754H102.896C102.131 16.7871 101.514 16.9863 101.045 17.373C100.58 17.7598 100.301 18.2969 100.207 18.9844C100.66 18.5234 101.232 18.293 101.924 18.293C102.666 18.293 103.256 18.5586 103.693 19.0898C104.131 19.6211 104.35 20.3203 104.35 21.1875C104.35 21.7422 104.229 22.2441 103.986 22.6934C103.748 23.1426 103.408 23.4922 102.967 23.7422C102.529 23.9922 102.033 24.1172 101.479 24.1172C100.58 24.1172 99.8535 23.8047 99.2988 23.1797C98.748 22.5547 98.4727 21.7207 98.4727 20.6777V20.0684C98.4727 19.1426 98.6465 18.3262 98.9941 17.6191C99.3457 16.9082 99.8477 16.3594 100.5 15.9727C101.156 15.582 101.916 15.3848 102.779 15.3809H103.061ZM101.408 19.6523C101.135 19.6523 100.887 19.7246 100.664 19.8691C100.441 20.0098 100.277 20.1973 100.172 20.4316V20.9473C100.172 21.5137 100.283 21.957 100.506 22.2773C100.729 22.5938 101.041 22.752 101.443 22.752C101.807 22.752 102.1 22.6094 102.322 22.3242C102.549 22.0352 102.662 21.6621 102.662 21.2051C102.662 20.7402 102.549 20.3652 102.322 20.0801C102.096 19.7949 101.791 19.6523 101.408 19.6523ZM108.721 21.0293H105.422V19.6641H108.721V21.0293ZM115.752 20.4727C115.752 21.6523 115.508 22.5547 115.02 23.1797C114.531 23.8047 113.816 24.1172 112.875 24.1172C111.945 24.1172 111.234 23.8105 110.742 23.1973C110.25 22.584 109.998 21.7051 109.986 20.5605V18.9902C109.986 17.7988 110.232 16.8945 110.725 16.2773C111.221 15.6602 111.934 15.3516 112.863 15.3516C113.793 15.3516 114.504 15.6582 114.996 16.2715C115.488 16.8809 115.74 17.7578 115.752 18.9023V20.4727ZM114.059 18.75C114.059 18.043 113.961 17.5293 113.766 17.209C113.574 16.8848 113.273 16.7227 112.863 16.7227C112.465 16.7227 112.17 16.877 111.979 17.1855C111.791 17.4902 111.691 17.9688 111.68 18.6211V20.6953C111.68 21.3906 111.773 21.9082 111.961 22.248C112.152 22.584 112.457 22.752 112.875 22.752C113.289 22.752 113.588 22.5898 113.771 22.2656C113.955 21.9414 114.051 21.4453 114.059 20.7773V18.75ZM120.861 20.5898C120.42 21.0234 119.904 21.2402 119.314 21.2402C118.561 21.2402 117.957 20.9824 117.504 20.4668C117.051 19.9473 116.824 19.248 116.824 18.3691C116.824 17.8105 116.945 17.2988 117.188 16.834C117.434 16.3652 117.775 16.002 118.213 15.7441C118.65 15.4824 119.143 15.3516 119.689 15.3516C120.252 15.3516 120.752 15.4922 121.189 15.7734C121.627 16.0547 121.967 16.459 122.209 16.9863C122.451 17.5137 122.574 18.1172 122.578 18.7969V19.4238C122.578 20.8457 122.225 21.9629 121.518 22.7754C120.811 23.5879 119.809 24.0215 118.512 24.0762L118.096 24.082V22.6699L118.471 22.6641C119.943 22.5977 120.74 21.9062 120.861 20.5898ZM119.73 19.9453C120.004 19.9453 120.238 19.875 120.434 19.7344C120.633 19.5938 120.783 19.4238 120.885 19.2246V18.5273C120.885 17.9531 120.775 17.5078 120.557 17.1914C120.338 16.875 120.045 16.7168 119.678 16.7168C119.338 16.7168 119.059 16.873 118.84 17.1855C118.621 17.4941 118.512 17.8828 118.512 18.3516C118.512 18.8164 118.617 19.1992 118.828 19.5C119.043 19.7969 119.344 19.9453 119.73 19.9453ZM129.639 24H123.791V22.8398L126.551 19.8984C126.93 19.4844 127.209 19.123 127.389 18.8145C127.572 18.5059 127.664 18.2129 127.664 17.9355C127.664 17.5566 127.568 17.2598 127.377 17.0449C127.186 16.8262 126.912 16.7168 126.557 16.7168C126.174 16.7168 125.871 16.8496 125.648 17.1152C125.43 17.377 125.32 17.7227 125.32 18.1523H123.621C123.621 17.6328 123.744 17.1582 123.99 16.7285C124.24 16.2988 124.592 15.9629 125.045 15.7207C125.498 15.4746 126.012 15.3516 126.586 15.3516C127.465 15.3516 128.146 15.5625 128.631 15.9844C129.119 16.4062 129.363 17.002 129.363 17.7715C129.363 18.1934 129.254 18.623 129.035 19.0605C128.816 19.498 128.441 20.0078 127.91 20.5898L125.971 22.6348H129.639V24ZM134.643 20.5898C134.201 21.0234 133.686 21.2402 133.096 21.2402C132.342 21.2402 131.738 20.9824 131.285 20.4668C130.832 19.9473 130.605 19.248 130.605 18.3691C130.605 17.8105 130.727 17.2988 130.969 16.834C131.215 16.3652 131.557 16.002 131.994 15.7441C132.432 15.4824 132.924 15.3516 133.471 15.3516C134.033 15.3516 134.533 15.4922 134.971 15.7734C135.408 16.0547 135.748 16.459 135.99 16.9863C136.232 17.5137 136.355 18.1172 136.359 18.7969V19.4238C136.359 20.8457 136.006 21.9629 135.299 22.7754C134.592 23.5879 133.59 24.0215 132.293 24.0762L131.877 24.082V22.6699L132.252 22.6641C133.725 22.5977 134.521 21.9062 134.643 20.5898ZM133.512 19.9453C133.785 19.9453 134.02 19.875 134.215 19.7344C134.414 19.5938 134.564 19.4238 134.666 19.2246V18.5273C134.666 17.9531 134.557 17.5078 134.338 17.1914C134.119 16.875 133.826 16.7168 133.459 16.7168C133.119 16.7168 132.84 16.873 132.621 17.1855C132.402 17.4941 132.293 17.8828 132.293 18.3516C132.293 18.8164 132.398 19.1992 132.609 19.5C132.824 19.7969 133.125 19.9453 133.512 19.9453Z" fill="white"/>
<path fill-rule="evenodd" clip-rule="evenodd" d="M19.81 9H28.191C31.28 9 33 10.78 33 13.83V24.16C33 27.26 31.28 29 28.191 29H19.81C16.77 29 15 27.26 15 24.16V13.83C15 10.78 16.77 9 19.81 9ZM20.0799 13.6594V13.6494H23.0689C23.4999 13.6494 23.8499 13.9994 23.8499 14.4284C23.8499 14.8694 23.4999 15.2194 23.0689 15.2194H20.0799C19.6489 15.2194 19.2999 14.8694 19.2999 14.4394C19.2999 14.0094 19.6489 13.6594 20.0799 13.6594ZM20.0799 19.7394H27.9199C28.3499 19.7394 28.6999 19.3894 28.6999 18.9594C28.6999 18.5294 28.3499 18.1784 27.9199 18.1784H20.0799C19.6489 18.1784 19.2999 18.5294 19.2999 18.9594C19.2999 19.3894 19.6489 19.7394 20.0799 19.7394ZM20.08 24.3096H27.92C28.319 24.2696 28.62 23.9286 28.62 23.5296C28.62 23.1196 28.319 22.7796 27.92 22.7396H20.08C19.78 22.7096 19.49 22.8496 19.33 23.1096C19.17 23.3596 19.17 23.6896 19.33 23.9496C19.49 24.1996 19.78 24.3496 20.08 24.3096Z" fill="white"/>
<path d="M17.1211 60.0801H21.1641V61H15.9902V52.4688H17.1211V60.0801ZM26.1914 61C26.1289 60.875 26.0781 60.6523 26.0391 60.332C25.5352 60.8555 24.9336 61.1172 24.2344 61.1172C23.6094 61.1172 23.0957 60.9414 22.6934 60.5898C22.2949 60.2344 22.0957 59.7852 22.0957 59.2422C22.0957 58.582 22.3457 58.0703 22.8457 57.707C23.3496 57.3398 24.0566 57.1562 24.9668 57.1562H26.0215V56.6582C26.0215 56.2793 25.9082 55.9785 25.6816 55.7559C25.4551 55.5293 25.1211 55.416 24.6797 55.416C24.293 55.416 23.9688 55.5137 23.707 55.709C23.4453 55.9043 23.3145 56.1406 23.3145 56.418H22.2246C22.2246 56.1016 22.3359 55.7969 22.5586 55.5039C22.7852 55.207 23.0898 54.9727 23.4727 54.8008C23.8594 54.6289 24.2832 54.543 24.7441 54.543C25.4746 54.543 26.0469 54.7266 26.4609 55.0938C26.875 55.457 27.0898 55.959 27.1055 56.5996V59.5176C27.1055 60.0996 27.1797 60.5625 27.3281 60.9062V61H26.1914ZM24.3926 60.1738C24.7324 60.1738 25.0547 60.0859 25.3594 59.9102C25.6641 59.7344 25.8848 59.5059 26.0215 59.2246V57.9238H25.1719C23.8438 57.9238 23.1797 58.3125 23.1797 59.0898C23.1797 59.4297 23.293 59.6953 23.5195 59.8867C23.7461 60.0781 24.0371 60.1738 24.3926 60.1738ZM30.7852 59.4121L32.2617 54.6602H33.4219L30.873 61.9785C30.4785 63.0332 29.8516 63.5605 28.9922 63.5605L28.7871 63.543L28.3828 63.4668V62.5879L28.6758 62.6113C29.043 62.6113 29.3281 62.5371 29.5312 62.3887C29.7383 62.2402 29.9082 61.9688 30.041 61.5742L30.2812 60.9297L28.0195 54.6602H29.2031L30.7852 59.4121ZM38.2148 61C38.1523 60.875 38.1016 60.6523 38.0625 60.332C37.5586 60.8555 36.957 61.1172 36.2578 61.1172C35.6328 61.1172 35.1191 60.9414 34.7168 60.5898C34.3184 60.2344 34.1191 59.7852 34.1191 59.2422C34.1191 58.582 34.3691 58.0703 34.8691 57.707C35.373 57.3398 36.0801 57.1562 36.9902 57.1562H38.0449V56.6582C38.0449 56.2793 37.9316 55.9785 37.7051 55.7559C37.4785 55.5293 37.1445 55.416 36.7031 55.416C36.3164 55.416 35.9922 55.5137 35.7305 55.709C35.4688 55.9043 35.3379 56.1406 35.3379 56.418H34.248C34.248 56.1016 34.3594 55.7969 34.582 55.5039C34.8086 55.207 35.1133 54.9727 35.4961 54.8008C35.8828 54.6289 36.3066 54.543 36.7676 54.543C37.498 54.543 38.0703 54.7266 38.4844 55.0938C38.8984 55.457 39.1133 55.959 39.1289 56.5996V59.5176C39.1289 60.0996 39.2031 60.5625 39.3516 60.9062V61H38.2148ZM36.416 60.1738C36.7559 60.1738 37.0781 60.0859 37.3828 59.9102C37.6875 59.7344 37.9082 59.5059 38.0449 59.2246V57.9238H37.1953C35.8672 57.9238 35.2031 58.3125 35.2031 59.0898C35.2031 59.4297 35.3164 59.6953 35.543 59.8867C35.7695 60.0781 36.0605 60.1738 36.416 60.1738ZM41.8535 54.6602L41.8887 55.457C42.373 54.8477 43.0059 54.543 43.7871 54.543C45.127 54.543 45.8027 55.2988 45.8145 56.8105V61H44.7305V56.8047C44.7266 56.3477 44.6211 56.0098 44.4141 55.791C44.2109 55.5723 43.8926 55.4629 43.459 55.4629C43.1074 55.4629 42.7988 55.5566 42.5332 55.7441C42.2676 55.9316 42.0605 56.1777 41.9121 56.4824V61H40.8281V54.6602H41.8535ZM51.3633 61C51.3008 60.875 51.25 60.6523 51.2109 60.332C50.707 60.8555 50.1055 61.1172 49.4062 61.1172C48.7812 61.1172 48.2676 60.9414 47.8652 60.5898C47.4668 60.2344 47.2676 59.7852 47.2676 59.2422C47.2676 58.582 47.5176 58.0703 48.0176 57.707C48.5215 57.3398 49.2285 57.1562 50.1387 57.1562H51.1934V56.6582C51.1934 56.2793 51.0801 55.9785 50.8535 55.7559C50.627 55.5293 50.293 55.416 49.8516 55.416C49.4648 55.416 49.1406 55.5137 48.8789 55.709C48.6172 55.9043 48.4863 56.1406 48.4863 56.418H47.3965C47.3965 56.1016 47.5078 55.7969 47.7305 55.5039C47.957 55.207 48.2617 54.9727 48.6445 54.8008C49.0312 54.6289 49.4551 54.543 49.916 54.543C50.6465 54.543 51.2188 54.7266 51.6328 55.0938C52.0469 55.457 52.2617 55.959 52.2773 56.5996V59.5176C52.2773 60.0996 52.3516 60.5625 52.5 60.9062V61H51.3633ZM49.5645 60.1738C49.9043 60.1738 50.2266 60.0859 50.5312 59.9102C50.8359 59.7344 51.0566 59.5059 51.1934 59.2246V57.9238H50.3438C49.0156 57.9238 48.3516 58.3125 48.3516 59.0898C48.3516 59.4297 48.4648 59.6953 48.6914 59.8867C48.918 60.0781 49.209 60.1738 49.5645 60.1738ZM55.002 54.6602L55.0371 55.457C55.5215 54.8477 56.1543 54.543 56.9355 54.543C58.2754 54.543 58.9512 55.2988 58.9629 56.8105V61H57.8789V56.8047C57.875 56.3477 57.7695 56.0098 57.5625 55.791C57.3594 55.5723 57.041 55.4629 56.6074 55.4629C56.2559 55.4629 55.9473 55.5566 55.6816 55.7441C55.416 55.9316 55.209 56.1777 55.0605 56.4824V61H53.9766V54.6602H55.002ZM65.584 58.3105L65.748 59.4355L65.9883 58.4219L67.6758 52.4688H68.625L70.2715 58.4219L70.5059 59.4531L70.6875 58.3047L72.0117 52.4688H73.1426L71.0742 61H70.0488L68.291 54.7832L68.1562 54.1328L68.0215 54.7832L66.1992 61H65.1738L63.1113 52.4688H64.2363L65.584 58.3105ZM75.3105 55.4277C75.791 54.8379 76.416 54.543 77.1855 54.543C78.5254 54.543 79.2012 55.2988 79.2129 56.8105V61H78.1289V56.8047C78.125 56.3477 78.0195 56.0098 77.8125 55.791C77.6094 55.5723 77.291 55.4629 76.8574 55.4629C76.5059 55.4629 76.1973 55.5566 75.9316 55.7441C75.666 55.9316 75.459 56.1777 75.3105 56.4824V61H74.2266V52H75.3105V55.4277ZM84.75 61C84.6875 60.875 84.6367 60.6523 84.5977 60.332C84.0938 60.8555 83.4922 61.1172 82.793 61.1172C82.168 61.1172 81.6543 60.9414 81.252 60.5898C80.8535 60.2344 80.6543 59.7852 80.6543 59.2422C80.6543 58.582 80.9043 58.0703 81.4043 57.707C81.9082 57.3398 82.6152 57.1562 83.5254 57.1562H84.5801V56.6582C84.5801 56.2793 84.4668 55.9785 84.2402 55.7559C84.0137 55.5293 83.6797 55.416 83.2383 55.416C82.8516 55.416 82.5273 55.5137 82.2656 55.709C82.0039 55.9043 81.873 56.1406 81.873 56.418H80.7832C80.7832 56.1016 80.8945 55.7969 81.1172 55.5039C81.3438 55.207 81.6484 54.9727 82.0312 54.8008C82.418 54.6289 82.8418 54.543 83.3027 54.543C84.0332 54.543 84.6055 54.7266 85.0195 55.0938C85.4336 55.457 85.6484 55.959 85.6641 56.5996V59.5176C85.6641 60.0996 85.7383 60.5625 85.8867 60.9062V61H84.75ZM82.9512 60.1738C83.291 60.1738 83.6133 60.0859 83.918 59.9102C84.2227 59.7344 84.4434 59.5059 84.5801 59.2246V57.9238H83.7305C82.4023 57.9238 81.7383 58.3125 81.7383 59.0898C81.7383 59.4297 81.8516 59.6953 82.0781 59.8867C82.3047 60.0781 82.5957 60.1738 82.9512 60.1738ZM88.834 53.125V54.6602H90.0176V55.498H88.834V59.4297C88.834 59.6836 88.8867 59.875 88.9922 60.0039C89.0977 60.1289 89.2773 60.1914 89.5312 60.1914C89.6562 60.1914 89.8281 60.168 90.0469 60.1211V61C89.7617 61.0781 89.4844 61.1172 89.2148 61.1172C88.7305 61.1172 88.3652 60.9707 88.1191 60.6777C87.873 60.3848 87.75 59.9688 87.75 59.4297V55.498H86.5957V54.6602H87.75V53.125H88.834ZM94.9805 59.3184C94.9805 59.0254 94.8691 58.7988 94.6465 58.6387C94.4277 58.4746 94.043 58.334 93.4922 58.2168C92.9453 58.0996 92.5098 57.959 92.1855 57.7949C91.8652 57.6309 91.627 57.4355 91.4707 57.209C91.3184 56.9824 91.2422 56.7129 91.2422 56.4004C91.2422 55.8809 91.4609 55.4414 91.8984 55.082C92.3398 54.7227 92.9023 54.543 93.5859 54.543C94.3047 54.543 94.8867 54.7285 95.332 55.0996C95.7812 55.4707 96.0059 55.9453 96.0059 56.5234H94.916C94.916 56.2266 94.7891 55.9707 94.5352 55.7559C94.2852 55.541 93.9688 55.4336 93.5859 55.4336C93.1914 55.4336 92.8828 55.5195 92.6602 55.6914C92.4375 55.8633 92.3262 56.0879 92.3262 56.3652C92.3262 56.627 92.4297 56.8242 92.6367 56.957C92.8438 57.0898 93.2168 57.2168 93.7559 57.3379C94.2988 57.459 94.7383 57.6035 95.0742 57.7715C95.4102 57.9395 95.6582 58.1426 95.8184 58.3809C95.9824 58.6152 96.0645 58.9023 96.0645 59.2422C96.0645 59.8086 95.8379 60.2637 95.3848 60.6074C94.9316 60.9473 94.3438 61.1172 93.6211 61.1172C93.1133 61.1172 92.6641 61.0273 92.2734 60.8477C91.8828 60.668 91.5762 60.418 91.3535 60.0977C91.1348 59.7734 91.0254 59.4238 91.0254 59.0488H92.1094C92.1289 59.4121 92.2734 59.7012 92.543 59.916C92.8164 60.127 93.1758 60.2324 93.6211 60.2324C94.0312 60.2324 94.3594 60.1504 94.6055 59.9863C94.8555 59.8184 94.9805 59.5957 94.9805 59.3184ZM101.391 61C101.328 60.875 101.277 60.6523 101.238 60.332C100.734 60.8555 100.133 61.1172 99.4336 61.1172C98.8086 61.1172 98.2949 60.9414 97.8926 60.5898C97.4941 60.2344 97.2949 59.7852 97.2949 59.2422C97.2949 58.582 97.5449 58.0703 98.0449 57.707C98.5488 57.3398 99.2559 57.1562 100.166 57.1562H101.221V56.6582C101.221 56.2793 101.107 55.9785 100.881 55.7559C100.654 55.5293 100.32 55.416 99.8789 55.416C99.4922 55.416 99.168 55.5137 98.9062 55.709C98.6445 55.9043 98.5137 56.1406 98.5137 56.418H97.4238C97.4238 56.1016 97.5352 55.7969 97.7578 55.5039C97.9844 55.207 98.2891 54.9727 98.6719 54.8008C99.0586 54.6289 99.4824 54.543 99.9434 54.543C100.674 54.543 101.246 54.7266 101.66 55.0938C102.074 55.457 102.289 55.959 102.305 56.5996V59.5176C102.305 60.0996 102.379 60.5625 102.527 60.9062V61H101.391ZM99.5918 60.1738C99.9316 60.1738 100.254 60.0859 100.559 59.9102C100.863 59.7344 101.084 59.5059 101.221 59.2246V57.9238H100.371C99.043 57.9238 98.3789 58.3125 98.3789 59.0898C98.3789 59.4297 98.4922 59.6953 98.7188 59.8867C98.9453 60.0781 99.2363 60.1738 99.5918 60.1738ZM109.359 57.9004C109.359 58.8652 109.139 59.6426 108.697 60.2324C108.256 60.8223 107.658 61.1172 106.904 61.1172C106.135 61.1172 105.529 60.873 105.088 60.3848V63.4375H104.004V54.6602H104.994L105.047 55.3633C105.488 54.8164 106.102 54.543 106.887 54.543C107.648 54.543 108.25 54.8301 108.691 55.4043C109.137 55.9785 109.359 56.7773 109.359 57.8008V57.9004ZM108.275 57.7773C108.275 57.0625 108.123 56.498 107.818 56.084C107.514 55.6699 107.096 55.4629 106.564 55.4629C105.908 55.4629 105.416 55.7539 105.088 56.3359V59.3652C105.412 59.9434 105.908 60.2324 106.576 60.2324C107.096 60.2324 107.508 60.0273 107.812 59.6172C108.121 59.2031 108.275 58.5898 108.275 57.7773ZM116.098 57.9004C116.098 58.8652 115.877 59.6426 115.436 60.2324C114.994 60.8223 114.396 61.1172 113.643 61.1172C112.873 61.1172 112.268 60.873 111.826 60.3848V63.4375H110.742V54.6602H111.732L111.785 55.3633C112.227 54.8164 112.84 54.543 113.625 54.543C114.387 54.543 114.988 54.8301 115.43 55.4043C115.875 55.9785 116.098 56.7773 116.098 57.8008V57.9004ZM115.014 57.7773C115.014 57.0625 114.861 56.498 114.557 56.084C114.252 55.6699 113.834 55.4629 113.303 55.4629C112.646 55.4629 112.154 55.7539 111.826 56.3359V59.3652C112.15 59.9434 112.646 60.2324 113.314 60.2324C113.834 60.2324 114.246 60.0273 114.551 59.6172C114.859 59.2031 115.014 58.5898 115.014 57.7773ZM18.5039 74.1973C17.5391 73.9199 16.8359 73.5801 16.3945 73.1777C15.957 72.7715 15.7383 72.2715 15.7383 71.6777C15.7383 71.0059 16.0059 70.4512 16.541 70.0137C17.0801 69.5723 17.7793 69.3516 18.6387 69.3516C19.2246 69.3516 19.7461 69.4648 20.2031 69.6914C20.6641 69.918 21.0195 70.2305 21.2695 70.6289C21.5234 71.0273 21.6504 71.4629 21.6504 71.9355H20.5195C20.5195 71.4199 20.3555 71.0156 20.0273 70.7227C19.6992 70.4258 19.2363 70.2773 18.6387 70.2773C18.084 70.2773 17.6504 70.4004 17.3379 70.6465C17.0293 70.8887 16.875 71.2266 16.875 71.6602C16.875 72.0078 17.0215 72.3027 17.3145 72.5449C17.6113 72.7832 18.1133 73.002 18.8203 73.2012C19.5312 73.4004 20.0859 73.6211 20.4844 73.8633C20.8867 74.1016 21.1836 74.3809 21.375 74.7012C21.5703 75.0215 21.668 75.3984 21.668 75.832C21.668 76.5234 21.3984 77.0781 20.8594 77.4961C20.3203 77.9102 19.5996 78.1172 18.6973 78.1172C18.1113 78.1172 17.5645 78.0059 17.0566 77.7832C16.5488 77.5566 16.1562 77.248 15.8789 76.8574C15.6055 76.4668 15.4688 76.0234 15.4688 75.5273H16.5996C16.5996 76.043 16.7891 76.4512 17.168 76.752C17.5508 77.0488 18.0605 77.1973 18.6973 77.1973C19.291 77.1973 19.7461 77.0762 20.0625 76.834C20.3789 76.5918 20.5371 76.2617 20.5371 75.8438C20.5371 75.4258 20.3906 75.1035 20.0977 74.877C19.8047 74.6465 19.2734 74.4199 18.5039 74.1973ZM25.5762 78.1172C24.7168 78.1172 24.0176 77.8359 23.4785 77.2734C22.9395 76.707 22.6699 75.9512 22.6699 75.0059V74.8066C22.6699 74.1777 22.7891 73.6172 23.0273 73.125C23.2695 72.6289 23.6055 72.2422 24.0352 71.9648C24.4688 71.6836 24.9375 71.543 25.4414 71.543C26.2656 71.543 26.9062 71.8145 27.3633 72.3574C27.8203 72.9004 28.0488 73.6777 28.0488 74.6895V75.1406H23.7539C23.7695 75.7656 23.9512 76.2715 24.2988 76.6582C24.6504 77.041 25.0957 77.2324 25.6348 77.2324C26.0176 77.2324 26.3418 77.1543 26.6074 76.998C26.873 76.8418 27.1055 76.6348 27.3047 76.377L27.9668 76.8926C27.4355 77.709 26.6387 78.1172 25.5762 78.1172ZM25.4414 72.4336C25.0039 72.4336 24.6367 72.5938 24.3398 72.9141C24.043 73.2305 23.8594 73.6758 23.7891 74.25H26.9648V74.168C26.9336 73.6172 26.7852 73.1914 26.5195 72.8906C26.2539 72.5859 25.8945 72.4336 25.4414 72.4336ZM30.334 71.6602L30.3691 72.457C30.8535 71.8477 31.4863 71.543 32.2676 71.543C33.6074 71.543 34.2832 72.2988 34.2949 73.8105V78H33.2109V73.8047C33.207 73.3477 33.1016 73.0098 32.8945 72.791C32.6914 72.5723 32.373 72.4629 31.9395 72.4629C31.5879 72.4629 31.2793 72.5566 31.0137 72.7441C30.748 72.9316 30.541 73.1777 30.3926 73.4824V78H29.3086V71.6602H30.334ZM37.1074 78H36.0234V71.6602H37.1074V78ZM35.9355 69.9785C35.9355 69.8027 35.9883 69.6543 36.0938 69.5332C36.2031 69.4121 36.3633 69.3516 36.5742 69.3516C36.7852 69.3516 36.9453 69.4121 37.0547 69.5332C37.1641 69.6543 37.2188 69.8027 37.2188 69.9785C37.2188 70.1543 37.1641 70.3008 37.0547 70.418C36.9453 70.5352 36.7852 70.5938 36.5742 70.5938C36.3633 70.5938 36.2031 70.5352 36.0938 70.418C35.9883 70.3008 35.9355 70.1543 35.9355 69.9785ZM39.873 71.6602L39.9082 72.457C40.3926 71.8477 41.0254 71.543 41.8066 71.543C43.1465 71.543 43.8223 72.2988 43.834 73.8105V78H42.75V73.8047C42.7461 73.3477 42.6406 73.0098 42.4336 72.791C42.2305 72.5723 41.9121 72.4629 41.4785 72.4629C41.127 72.4629 40.8184 72.5566 40.5527 72.7441C40.2871 72.9316 40.0801 73.1777 39.9316 73.4824V78H38.8477V71.6602H39.873ZM47.7246 74.8184H44.8652V73.9336H47.7246V74.8184ZM50.4082 69.4688L53.1973 76.4297L55.9863 69.4688H57.4453V78H56.3203V74.6777L56.4258 71.0918L53.625 78H52.7637L49.9688 71.1094L50.0801 74.6777V78H48.9551V69.4688H50.4082ZM60.4395 78H59.3555V71.6602H60.4395V78ZM59.2676 69.9785C59.2676 69.8027 59.3203 69.6543 59.4258 69.5332C59.5352 69.4121 59.6953 69.3516 59.9062 69.3516C60.1172 69.3516 60.2773 69.4121 60.3867 69.5332C60.4961 69.6543 60.5508 69.8027 60.5508 69.9785C60.5508 70.1543 60.4961 70.3008 60.3867 70.418C60.2773 70.5352 60.1172 70.5938 59.9062 70.5938C59.6953 70.5938 59.5352 70.5352 59.4258 70.418C59.3203 70.3008 59.2676 70.1543 59.2676 69.9785ZM63.2051 71.6602L63.2402 72.457C63.7246 71.8477 64.3574 71.543 65.1387 71.543C66.4785 71.543 67.1543 72.2988 67.166 73.8105V78H66.082V73.8047C66.0781 73.3477 65.9727 73.0098 65.7656 72.791C65.5625 72.5723 65.2441 72.4629 64.8105 72.4629C64.459 72.4629 64.1504 72.5566 63.8848 72.7441C63.6191 72.9316 63.4121 73.1777 63.2637 73.4824V78H62.1797V71.6602H63.2051ZM68.543 74.7773C68.543 73.7891 68.7715 73.0039 69.2285 72.4219C69.6855 71.8359 70.291 71.543 71.0449 71.543C71.8184 71.543 72.4219 71.8164 72.8555 72.3633L72.9082 71.6602H73.8984V77.8477C73.8984 78.668 73.6543 79.3145 73.166 79.7871C72.6816 80.2598 72.0293 80.4961 71.209 80.4961C70.752 80.4961 70.3047 80.3984 69.8672 80.2031C69.4297 80.0078 69.0957 79.7402 68.8652 79.4004L69.4277 78.75C69.8926 79.3242 70.4609 79.6113 71.1328 79.6113C71.6602 79.6113 72.0703 79.4629 72.3633 79.166C72.6602 78.8691 72.8086 78.4512 72.8086 77.9121V77.3672C72.375 77.8672 71.7832 78.1172 71.0332 78.1172C70.291 78.1172 69.6895 77.8184 69.2285 77.2207C68.7715 76.623 68.543 75.8086 68.543 74.7773ZM69.6328 74.9004C69.6328 75.6152 69.7793 76.1777 70.0723 76.5879C70.3652 76.9941 70.7754 77.1973 71.3027 77.1973C71.9863 77.1973 72.4883 76.8867 72.8086 76.2656V73.3711C72.4766 72.7656 71.9785 72.4629 71.3145 72.4629C70.7871 72.4629 70.375 72.668 70.0781 73.0781C69.7812 73.4883 69.6328 74.0957 69.6328 74.9004ZM75.2812 74.7773C75.2812 73.7891 75.5098 73.0039 75.9668 72.4219C76.4238 71.8359 77.0293 71.543 77.7832 71.543C78.5566 71.543 79.1602 71.8164 79.5938 72.3633L79.6465 71.6602H80.6367V77.8477C80.6367 78.668 80.3926 79.3145 79.9043 79.7871C79.4199 80.2598 78.7676 80.4961 77.9473 80.4961C77.4902 80.4961 77.043 80.3984 76.6055 80.2031C76.168 80.0078 75.834 79.7402 75.6035 79.4004L76.166 78.75C76.6309 79.3242 77.1992 79.6113 77.8711 79.6113C78.3984 79.6113 78.8086 79.4629 79.1016 79.166C79.3984 78.8691 79.5469 78.4512 79.5469 77.9121V77.3672C79.1133 77.8672 78.5215 78.1172 77.7715 78.1172C77.0293 78.1172 76.4277 77.8184 75.9668 77.2207C75.5098 76.623 75.2812 75.8086 75.2812 74.7773ZM76.3711 74.9004C76.3711 75.6152 76.5176 76.1777 76.8105 76.5879C77.1035 76.9941 77.5137 77.1973 78.041 77.1973C78.7246 77.1973 79.2266 76.8867 79.5469 76.2656V73.3711C79.2148 72.7656 78.7168 72.4629 78.0527 72.4629C77.5254 72.4629 77.1133 72.668 76.8164 73.0781C76.5195 73.4883 76.3711 74.0957 76.3711 74.9004ZM86.1914 77.373C85.7695 77.8691 85.1504 78.1172 84.334 78.1172C83.6582 78.1172 83.1426 77.9219 82.7871 77.5312C82.4355 77.1367 82.2578 76.5547 82.2539 75.7852V71.6602H83.3379V75.7559C83.3379 76.7168 83.7285 77.1973 84.5098 77.1973C85.3379 77.1973 85.8887 76.8887 86.1621 76.2715V71.6602H87.2461V78H86.2148L86.1914 77.373ZM92.0918 78.7324H91.1602L94.7227 69.4688H95.6484L92.0918 78.7324ZM105.035 74.3613C105.035 75.6309 104.818 76.5742 104.385 77.1914C103.951 77.8086 103.273 78.1172 102.352 78.1172C101.441 78.1172 100.768 77.8164 100.33 77.2148C99.8926 76.6094 99.666 75.707 99.6504 74.5078V73.0605C99.6504 71.8066 99.8672 70.875 100.301 70.2656C100.734 69.6562 101.414 69.3516 102.34 69.3516C103.258 69.3516 103.934 69.6465 104.367 70.2363C104.801 70.8223 105.023 71.7285 105.035 72.9551V74.3613ZM103.951 72.8789C103.951 71.9609 103.822 71.293 103.564 70.875C103.307 70.4531 102.898 70.2422 102.34 70.2422C101.785 70.2422 101.381 70.4512 101.127 70.8691C100.873 71.2871 100.742 71.9297 100.734 72.7969V74.5312C100.734 75.4531 100.867 76.1348 101.133 76.5762C101.402 77.0137 101.809 77.2324 102.352 77.2324C102.887 77.2324 103.283 77.0254 103.541 76.6113C103.803 76.1973 103.939 75.5449 103.951 74.6543V72.8789ZM110.578 74.25C110.352 74.5195 110.08 74.7363 109.764 74.9004C109.451 75.0645 109.107 75.1465 108.732 75.1465C108.24 75.1465 107.811 75.0254 107.443 74.7832C107.08 74.541 106.799 74.2012 106.6 73.7637C106.4 73.3223 106.301 72.8359 106.301 72.3047C106.301 71.7344 106.408 71.2207 106.623 70.7637C106.842 70.3066 107.15 69.957 107.549 69.7148C107.947 69.4727 108.412 69.3516 108.943 69.3516C109.787 69.3516 110.451 69.668 110.936 70.3008C111.424 70.9297 111.668 71.7891 111.668 72.8789V73.1953C111.668 74.8555 111.34 76.0684 110.684 76.834C110.027 77.5957 109.037 77.9863 107.713 78.0059H107.502V77.0918H107.73C108.625 77.0762 109.312 76.8438 109.793 76.3945C110.273 75.9414 110.535 75.2266 110.578 74.25ZM108.908 74.25C109.271 74.25 109.605 74.1387 109.91 73.916C110.219 73.6934 110.443 73.418 110.584 73.0898V72.6562C110.584 71.9453 110.43 71.3672 110.121 70.9219C109.812 70.4766 109.422 70.2539 108.949 70.2539C108.473 70.2539 108.09 70.4375 107.801 70.8047C107.512 71.168 107.367 71.6484 107.367 72.2461C107.367 72.8281 107.506 73.3086 107.783 73.6875C108.064 74.0625 108.439 74.25 108.908 74.25ZM113.238 77.4316C113.238 77.2441 113.293 77.0879 113.402 76.9629C113.516 76.8379 113.684 76.7754 113.906 76.7754C114.129 76.7754 114.297 76.8379 114.41 76.9629C114.527 77.0879 114.586 77.2441 114.586 77.4316C114.586 77.6113 114.527 77.7617 114.41 77.8828C114.297 78.0039 114.129 78.0645 113.906 78.0645C113.684 78.0645 113.516 78.0039 113.402 77.8828C113.293 77.7617 113.238 77.6113 113.238 77.4316ZM113.244 72.2578C113.244 72.0703 113.299 71.9141 113.408 71.7891C113.521 71.6641 113.689 71.6016 113.912 71.6016C114.135 71.6016 114.303 71.6641 114.416 71.7891C114.533 71.9141 114.592 72.0703 114.592 72.2578C114.592 72.4375 114.533 72.5879 114.416 72.709C114.303 72.8301 114.135 72.8906 113.912 72.8906C113.689 72.8906 113.521 72.8301 113.408 72.709C113.299 72.5879 113.244 72.4375 113.244 72.2578ZM121.418 74.3613C121.418 75.6309 121.201 76.5742 120.768 77.1914C120.334 77.8086 119.656 78.1172 118.734 78.1172C117.824 78.1172 117.15 77.8164 116.713 77.2148C116.275 76.6094 116.049 75.707 116.033 74.5078V73.0605C116.033 71.8066 116.25 70.875 116.684 70.2656C117.117 69.6562 117.797 69.3516 118.723 69.3516C119.641 69.3516 120.316 69.6465 120.75 70.2363C121.184 70.8223 121.406 71.7285 121.418 72.9551V74.3613ZM120.334 72.8789C120.334 71.9609 120.205 71.293 119.947 70.875C119.689 70.4531 119.281 70.2422 118.723 70.2422C118.168 70.2422 117.764 70.4512 117.51 70.8691C117.256 71.2871 117.125 71.9297 117.117 72.7969V74.5312C117.117 75.4531 117.25 76.1348 117.516 76.5762C117.785 77.0137 118.191 77.2324 118.734 77.2324C119.27 77.2324 119.666 77.0254 119.924 76.6113C120.186 76.1973 120.322 75.5449 120.334 74.6543V72.8789ZM128.156 74.3613C128.156 75.6309 127.939 76.5742 127.506 77.1914C127.072 77.8086 126.395 78.1172 125.473 78.1172C124.562 78.1172 123.889 77.8164 123.451 77.2148C123.014 76.6094 122.787 75.707 122.771 74.5078V73.0605C122.771 71.8066 122.988 70.875 123.422 70.2656C123.855 69.6562 124.535 69.3516 125.461 69.3516C126.379 69.3516 127.055 69.6465 127.488 70.2363C127.922 70.8223 128.145 71.7285 128.156 72.9551V74.3613ZM127.072 72.8789C127.072 71.9609 126.943 71.293 126.686 70.875C126.428 70.4531 126.02 70.2422 125.461 70.2422C124.906 70.2422 124.502 70.4512 124.248 70.8691C123.994 71.2871 123.863 71.9297 123.855 72.7969V74.5312C123.855 75.4531 123.988 76.1348 124.254 76.5762C124.523 77.0137 124.93 77.2324 125.473 77.2324C126.008 77.2324 126.404 77.0254 126.662 76.6113C126.924 76.1973 127.061 75.5449 127.072 74.6543V72.8789ZM131.912 74.8184H129.053V73.9336H131.912V74.8184ZM136.424 78H135.334V70.7754L133.148 71.5781V70.5938L136.254 69.4277H136.424V78ZM144.773 71.6953C144.773 72.1211 144.66 72.5 144.434 72.832C144.211 73.1641 143.908 73.4238 143.525 73.6113C143.971 73.8027 144.322 74.082 144.58 74.4492C144.842 74.8164 144.973 75.2324 144.973 75.6973C144.973 76.4355 144.723 77.0234 144.223 77.4609C143.727 77.8984 143.072 78.1172 142.26 78.1172C141.439 78.1172 140.781 77.8984 140.285 77.4609C139.793 77.0195 139.547 76.4316 139.547 75.6973C139.547 75.2363 139.672 74.8203 139.922 74.4492C140.176 74.0781 140.525 73.7969 140.971 73.6055C140.592 73.418 140.293 73.1582 140.074 72.8262C139.855 72.4941 139.746 72.1172 139.746 71.6953C139.746 70.9766 139.977 70.4062 140.438 69.9844C140.898 69.5625 141.506 69.3516 142.26 69.3516C143.01 69.3516 143.615 69.5625 144.076 69.9844C144.541 70.4062 144.773 70.9766 144.773 71.6953ZM143.889 75.6738C143.889 75.1973 143.736 74.8086 143.432 74.5078C143.131 74.207 142.736 74.0566 142.248 74.0566C141.76 74.0566 141.367 74.2051 141.07 74.502C140.777 74.7988 140.631 75.1895 140.631 75.6738C140.631 76.1582 140.773 76.5391 141.059 76.8164C141.348 77.0938 141.748 77.2324 142.26 77.2324C142.768 77.2324 143.166 77.0938 143.455 76.8164C143.744 76.5352 143.889 76.1543 143.889 75.6738ZM142.26 70.2422C141.834 70.2422 141.488 70.375 141.223 70.6406C140.961 70.9023 140.83 71.2598 140.83 71.7129C140.83 72.1465 140.959 72.498 141.217 72.7676C141.479 73.0332 141.826 73.166 142.26 73.166C142.693 73.166 143.039 73.0332 143.297 72.7676C143.559 72.498 143.689 72.1465 143.689 71.7129C143.689 71.2793 143.555 70.9258 143.285 70.6523C143.016 70.3789 142.674 70.2422 142.26 70.2422ZM146.414 77.4316C146.414 77.2441 146.469 77.0879 146.578 76.9629C146.691 76.8379 146.859 76.7754 147.082 76.7754C147.305 76.7754 147.473 76.8379 147.586 76.9629C147.703 77.0879 147.762 77.2441 147.762 77.4316C147.762 77.6113 147.703 77.7617 147.586 77.8828C147.473 78.0039 147.305 78.0645 147.082 78.0645C146.859 78.0645 146.691 78.0039 146.578 77.8828C146.469 77.7617 146.414 77.6113 146.414 77.4316ZM146.42 72.2578C146.42 72.0703 146.475 71.9141 146.584 71.7891C146.697 71.6641 146.865 71.6016 147.088 71.6016C147.311 71.6016 147.479 71.6641 147.592 71.7891C147.709 71.9141 147.768 72.0703 147.768 72.2578C147.768 72.4375 147.709 72.5879 147.592 72.709C147.479 72.8301 147.311 72.8906 147.088 72.8906C146.865 72.8906 146.697 72.8301 146.584 72.709C146.475 72.5879 146.42 72.4375 146.42 72.2578ZM154.594 74.3613C154.594 75.6309 154.377 76.5742 153.943 77.1914C153.51 77.8086 152.832 78.1172 151.91 78.1172C151 78.1172 150.326 77.8164 149.889 77.2148C149.451 76.6094 149.225 75.707 149.209 74.5078V73.0605C149.209 71.8066 149.426 70.875 149.859 70.2656C150.293 69.6562 150.973 69.3516 151.898 69.3516C152.816 69.3516 153.492 69.6465 153.926 70.2363C154.359 70.8223 154.582 71.7285 154.594 72.9551V74.3613ZM153.51 72.8789C153.51 71.9609 153.381 71.293 153.123 70.875C152.865 70.4531 152.457 70.2422 151.898 70.2422C151.344 70.2422 150.939 70.4512 150.686 70.8691C150.432 71.2871 150.301 71.9297 150.293 72.7969V74.5312C150.293 75.4531 150.426 76.1348 150.691 76.5762C150.961 77.0137 151.367 77.2324 151.91 77.2324C152.445 77.2324 152.842 77.0254 153.1 76.6113C153.361 76.1973 153.498 75.5449 153.51 74.6543V72.8789ZM161.332 74.3613C161.332 75.6309 161.115 76.5742 160.682 77.1914C160.248 77.8086 159.57 78.1172 158.648 78.1172C157.738 78.1172 157.064 77.8164 156.627 77.2148C156.189 76.6094 155.963 75.707 155.947 74.5078V73.0605C155.947 71.8066 156.164 70.875 156.598 70.2656C157.031 69.6562 157.711 69.3516 158.637 69.3516C159.555 69.3516 160.23 69.6465 160.664 70.2363C161.098 70.8223 161.32 71.7285 161.332 72.9551V74.3613ZM160.248 72.8789C160.248 71.9609 160.119 71.293 159.861 70.875C159.604 70.4531 159.195 70.2422 158.637 70.2422C158.082 70.2422 157.678 70.4512 157.424 70.8691C157.17 71.2871 157.039 71.9297 157.031 72.7969V74.5312C157.031 75.4531 157.164 76.1348 157.43 76.5762C157.699 77.0137 158.105 77.2324 158.648 77.2324C159.184 77.2324 159.58 77.0254 159.838 76.6113C160.1 76.1973 160.236 75.5449 160.248 74.6543V72.8789Z" fill="white"/>
</svg>
