<svg width="50" height="50" viewBox="0 0 50 50" fill="none" xmlns="http://www.w3.org/2000/svg">
<path d="M42.6777 7.32236C37.9559 2.60049 31.6778 0 25 0C18.3222 0 12.0441 2.60049 7.32227 7.32236C2.60029 12.0442 0 18.3223 0 25C0 31.6777 2.60049 37.9559 7.32227 42.6777C12.044 47.3996 18.322 50 24.9996 50C31.6776 50 37.9557 47.3995 42.6776 42.6777C47.3995 37.9559 50 31.6778 50 25C50 18.3223 47.3995 12.0442 42.6777 7.32236Z" fill="#54E360"/>
<path d="M50 25C50 18.3223 47.3995 12.0442 42.6777 7.32236C37.9559 2.60049 31.6778 0 25 0V50C31.6778 49.9999 37.9559 47.3994 42.6777 42.6777C47.3995 37.9559 50 31.6778 50 25Z" fill="#00B44B"/>
<path d="M38.2389 15.0886C37.3694 14.2191 36.2136 13.7402 34.9839 13.7402C33.7544 13.7402 32.5985 14.2191 31.7296 15.0886L21.6708 25.1475L18.2686 21.7452C17.3993 20.8759 16.2434 20.3971 15.0139 20.3971C13.7846 20.3971 12.6288 20.8758 11.7594 21.7452C9.96462 23.5399 9.96462 26.4601 11.7594 28.2548L18.4161 34.9114C19.2852 35.7807 20.4411 36.2596 21.6706 36.2596H21.6708C22.9005 36.2596 24.0563 35.7806 24.9253 34.911L38.2389 21.5978C40.0336 19.8031 40.0336 16.8832 38.2389 15.0886Z" fill="#E7F0EF"/>
<path d="M38.2398 15.0886C37.3703 14.2191 36.2145 13.7402 34.9848 13.7402C33.7553 13.7402 32.5994 14.2191 31.7305 15.0886L25 21.8191V34.8372L38.2398 21.5979C40.0345 19.8031 40.0345 16.8832 38.2398 15.0886Z" fill="#C5E1E6"/>
</svg>
