<svg width="30" height="30" viewBox="0 0 30 30" fill="none" xmlns="http://www.w3.org/2000/svg">
<path d="M27.3618 16.3107L25.4974 15.6892L26.1189 17.5537L17.4181 26.2544L15.5537 25.6329L16.1752 27.4973L14.4463 29.2262C13.4147 30.2578 11.7491 30.2578 10.7174 29.2262L7.88341 26.3922C7.6597 26.1685 7.57275 25.8577 7.6597 25.547C7.90837 24.6272 7.64734 23.6701 6.98851 23.0114C6.32969 22.3525 5.37268 22.0915 4.45293 22.3402C4.14221 22.4271 3.83143 22.3402 3.60772 22.1165L0.773722 19.2825C-0.257936 18.2508 -0.257878 16.5852 0.773722 15.5536L2.50258 13.8247L4.36703 14.4462L3.74553 12.5818L12.4463 3.88114L14.3107 4.50264L13.6892 2.63819L15.5537 0.773744C16.5853 -0.257915 18.2509 -0.257915 19.2826 0.773744L22.1166 3.60774C22.3403 3.83145 22.4273 4.14212 22.3403 4.45296C22.0917 5.37264 22.3526 6.32977 23.0115 6.98854C23.6703 7.6473 24.6274 7.90834 25.547 7.65973C25.8579 7.57271 26.1685 7.65973 26.3923 7.88344L29.2263 10.7174C30.2579 11.7491 30.2579 13.4146 29.2263 14.4463L27.3618 16.3107Z" fill="#FF4200"/>
<path d="M27.3616 16.3102L25.4972 15.6887L26.1187 17.5531L17.4179 26.2538L15.5535 25.6323L16.175 27.4968L14.4461 29.2256C13.4145 30.2572 11.7489 30.2573 10.7172 29.2256L7.88318 26.3916C7.65947 26.1679 7.57252 25.8571 7.65947 25.5464C7.90814 24.6266 7.64711 23.6696 6.98828 23.0108L23.0111 6.98795C23.67 7.64677 24.627 7.90775 25.5467 7.65914C25.8576 7.57213 26.1682 7.65914 26.392 7.88285L29.226 10.7169C30.2576 11.7485 30.2576 13.414 29.226 14.4458L27.3616 16.3102Z" fill="#FF4200"/>
<path d="M19.5061 17.8762C19.6552 17.5779 19.6304 17.205 19.4191 16.944L17.8778 14.8558L18.7107 12.4072C18.81 12.084 18.6858 11.7609 18.4621 11.5372C18.2383 11.3135 17.9151 11.1892 17.5919 11.2886L15.1434 12.1214L13.0551 10.5802C12.7942 10.3688 12.4213 10.344 12.123 10.4931C11.8246 10.6422 11.6382 10.953 11.6506 11.2886L11.6879 13.8863L9.57485 15.3779C9.30146 15.5768 9.15228 15.8999 9.21445 16.2355C9.25171 16.5712 9.50038 16.8446 9.81105 16.9317L12.2969 17.7023L13.0676 20.1882C13.1049 20.3249 13.1795 20.4492 13.2789 20.5486C13.4032 20.6729 13.5772 20.7723 13.7637 20.7848C14.0993 20.8469 14.4224 20.6978 14.6214 20.4244L16.1129 18.3113L18.7107 18.3486C19.0462 18.361 19.357 18.1745 19.5061 17.8762Z" fill="white"/>
<path d="M21.7682 11.9597C21.4202 12.3077 20.8733 12.3078 20.5252 11.9597L18.0393 9.47383C17.6913 9.12579 17.6913 8.57887 18.0393 8.23088C18.3874 7.88284 18.9342 7.88284 19.2823 8.23088L21.7682 10.7168C22.1163 11.0648 22.1163 11.6117 21.7682 11.9597Z" fill="#FFA281"/>
<path d="M11.8246 21.9035C11.4766 22.2514 10.9297 22.2515 10.5816 21.9035L8.09573 19.4176C7.74768 19.0695 7.74774 18.5226 8.09573 18.1746C8.44378 17.8266 8.99063 17.8266 9.33868 18.1746L11.8246 20.6605C12.1726 21.0086 12.1726 21.5554 11.8246 21.9035Z" fill="#FFA281"/>
<path d="M16.7964 6.98794C17.1399 6.6444 17.1399 6.08847 16.7964 5.74499L13.689 2.63759L12.446 3.88054L15.5534 6.98794C15.897 7.33142 16.4529 7.33142 16.7964 6.98794Z" fill="#FFA281"/>
<path d="M23.0114 13.2028C22.6679 13.5463 22.6679 14.1022 23.0114 14.4457L26.1188 17.5531L27.3618 16.3102L24.2544 13.2028C23.9109 12.8592 23.355 12.8592 23.0114 13.2028Z" fill="#FFA281"/>
<path d="M14.3107 23.1464C13.9671 22.8029 13.4112 22.8029 13.0677 23.1464C12.7242 23.49 12.7242 24.0459 13.0677 24.3894L16.1751 27.4968L17.418 26.2538L14.3107 23.1464Z" fill="#FFA281"/>
<path d="M6.85279 16.9316C7.19633 16.588 7.19633 16.0321 6.85279 15.6886L3.74539 12.5812L2.50244 13.8242L5.60984 16.9316C5.95332 17.2751 6.50926 17.2751 6.85279 16.9316Z" fill="#FFA281"/>
<path d="M11.8246 21.9034C11.4767 22.2514 10.9297 22.2515 10.5817 21.9034L9.33875 20.6605L10.5817 19.4175L11.8246 20.6605C12.1727 21.0085 12.1727 21.5554 11.8246 21.9034Z" fill="#FFA281"/>
<path d="M20.5254 11.9597L19.2825 10.7168L20.5254 9.47383L21.7684 10.7168C22.1164 11.0648 22.1164 11.6117 21.7684 11.9597C21.4204 12.3077 20.8735 12.3078 20.5254 11.9597Z" fill="#FFA281"/>
<path d="M18.7107 18.3486L16.113 18.3112L14.6214 20.4243C14.4225 20.6977 14.0993 20.8469 13.7638 20.7847C13.5773 20.7723 13.4032 20.6729 13.2789 20.5485C13.1795 20.4492 13.1049 20.3248 13.0676 20.1881L12.297 17.7022L18.4621 11.5371C18.6858 11.7608 18.8101 12.084 18.7107 12.4072L17.8779 14.8557L19.4191 16.944C19.6305 17.2049 19.6553 17.5778 19.5061 17.8761C19.3571 18.1745 19.0462 18.361 18.7107 18.3486Z" fill="white"/>
</svg>
