<svg width="30" height="30" viewBox="0 0 30 30" fill="none" xmlns="http://www.w3.org/2000/svg">
<path d="M14.4451 0.011034C10.7102 0.147865 7.17507 1.67257 4.50794 4.29495C4.02588 4.77011 3.66245 5.17158 3.25998 5.67681C2.34841 6.82109 1.59152 8.12777 1.05238 9.48708C0.022174 12.0914 -0.260157 14.9574 0.242933 17.7376C0.679946 20.1555 1.72517 22.4576 3.25998 24.3853C3.66245 24.8905 4.02588 25.292 4.50794 25.7672C6.78461 28.0061 9.72206 29.4632 12.8638 29.9082C13.535 30.0045 13.4344 30 15.0113 30C16.5881 30 16.4875 30.0045 17.1588 29.9082C19.2282 29.615 21.2481 28.8692 23.0232 27.7445C24.9049 26.5521 26.5328 24.9236 27.7102 23.0531C29.0137 20.981 29.7796 18.6759 29.9763 16.2295C30.0079 15.828 30.0079 14.2341 29.9763 13.8326C29.7886 11.502 29.0858 9.30213 27.8934 7.30978C27.2266 6.19557 26.4607 5.22572 25.5146 4.29495C23.0007 1.82294 19.7253 0.328304 16.2052 0.047121C15.615 0.000507355 15.0488 -0.0115223 14.4451 0.011034ZM6.0908 12.5154C6.57287 12.5936 7.01889 12.8402 7.31323 13.1936C7.61359 13.5575 7.80131 14.0071 7.88691 14.5724C7.92595 14.8266 7.92595 15.431 7.88691 15.6852C7.7908 16.3227 7.56253 16.8204 7.2021 17.1813C6.8567 17.5286 6.45423 17.7151 5.93011 17.7692C5.3234 17.8309 4.77676 17.6399 4.35326 17.2159L4.2136 17.076V18.3241V19.5721H3.41015H2.60671V16.0911V12.6102H3.41015H4.2136V12.8914V13.174L4.36077 13.0312C4.82631 12.5786 5.4075 12.4057 6.0908 12.5154ZM11.3019 12.4899C12.3937 12.5741 13.2062 13.2207 13.5305 14.2672C13.6387 14.613 13.6747 14.8837 13.6747 15.3393V15.6476H11.8876H10.1005L10.1095 15.6882C10.132 15.7874 10.2116 15.9483 10.2837 16.0445C10.4339 16.246 10.6787 16.4024 10.9565 16.4776C11.0676 16.5077 11.1202 16.5122 11.362 16.5122C11.6608 16.5122 11.775 16.4956 12.0032 16.4204C12.2195 16.3483 12.3787 16.2641 12.5784 16.1167C12.6024 16.1002 12.6385 16.1483 12.9464 16.6039L13.2888 17.1091L13.2452 17.1452C13.1401 17.2324 12.9013 17.3828 12.7571 17.4504C12.3456 17.6444 11.8546 17.7557 11.3094 17.7782C10.6426 17.8038 10.0134 17.6369 9.50581 17.3001C9.29857 17.1617 9.00722 16.8745 8.87207 16.6731C8.69185 16.4084 8.54168 16.052 8.48011 15.7408C8.25484 14.6236 8.66783 13.5379 9.54335 12.9425C9.91879 12.6869 10.3994 12.5245 10.8889 12.4899C10.9715 12.4839 11.0526 12.4779 11.0691 12.4779C11.0857 12.4763 11.1908 12.4824 11.3019 12.4899ZM25.1992 12.4899C26.1469 12.559 26.8902 13.0568 27.2867 13.8883C27.4939 14.3243 27.581 14.7559 27.581 15.3498V15.6476H25.7924H24.0038L24.0128 15.6852C24.1075 16.0596 24.4303 16.3618 24.8553 16.4761C25.028 16.5227 25.3764 16.5332 25.5867 16.4971C25.887 16.4475 26.2099 16.3197 26.4037 16.1738C26.4577 16.1317 26.5088 16.1017 26.5148 16.1092C26.5208 16.1152 26.6755 16.3438 26.8587 16.6144L27.1906 17.1076L27.144 17.1482C26.6304 17.5873 25.6408 17.8459 24.7727 17.7662C23.684 17.667 22.8445 17.067 22.4991 16.1408C22.3038 15.6175 22.2693 14.9709 22.4075 14.4401C22.5636 13.8357 22.906 13.3319 23.4001 12.9771C23.8071 12.6854 24.2892 12.523 24.8628 12.4854C24.9004 12.4824 24.9439 12.4794 24.9605 12.4779C24.977 12.4763 25.0851 12.4824 25.1992 12.4899ZM15.4768 12.6177C15.4768 12.6312 16.2728 15.6536 16.2773 15.6581C16.2803 15.6596 16.5025 14.9769 16.7698 14.1394L17.2579 12.6177L17.9788 12.6132L18.6996 12.6102L19.1862 14.1289C19.455 14.9634 19.6773 15.6476 19.6818 15.6476C19.6863 15.6476 19.865 14.9724 20.0782 14.1469C20.2915 13.3229 20.4702 12.6387 20.4747 12.6282C20.4792 12.6147 20.6609 12.6102 21.3127 12.6102C21.7707 12.6102 22.1447 12.6132 22.1447 12.6162C22.1447 12.6207 20.8426 17.0354 20.6639 17.6354C20.6564 17.661 20.6008 17.6625 19.7869 17.6625H18.9189L18.8978 17.5903C18.6936 16.8971 17.9758 14.5694 17.9697 14.583C17.9667 14.5935 17.7565 15.2897 17.5042 16.1287L17.0447 17.6549L16.1826 17.6595C15.7081 17.661 15.3161 17.6579 15.3101 17.6519C15.3041 17.6444 14.9707 16.5272 14.5683 15.1664C14.1673 13.8056 13.8324 12.6748 13.8249 12.6508L13.8114 12.6102H14.6448C15.1014 12.6102 15.4768 12.6132 15.4768 12.6177Z" fill="white"/>
<path d="M4.89965 13.9484C4.66838 14.0071 4.40557 14.1574 4.27642 14.3033L4.21484 14.374V15.1318V15.8882L4.27792 15.9573C4.41308 16.1047 4.66988 16.2505 4.89815 16.3107C5.06334 16.3543 5.30363 16.3543 5.46582 16.3107C5.65204 16.2611 5.78119 16.1859 5.92836 16.0385C6.03649 15.9318 6.06953 15.8866 6.1281 15.7679C6.23923 15.5393 6.26175 15.431 6.26175 15.1288C6.26175 14.8281 6.23923 14.7183 6.1311 14.4973C6.00946 14.2507 5.7917 14.0582 5.5364 13.9725C5.36219 13.9139 5.07986 13.9033 4.89965 13.9484Z" fill="white"/>
<path d="M10.8443 13.7619C10.5124 13.8341 10.2436 14.0747 10.1295 14.4025C10.1055 14.4717 10.0859 14.5393 10.0859 14.5529C10.0859 14.5784 10.1445 14.5799 11.1071 14.5799C12.277 14.5799 12.1523 14.5995 12.0967 14.4206C12.0472 14.2567 11.9811 14.1469 11.858 14.0221C11.7348 13.8988 11.5982 13.8191 11.43 13.774C11.2993 13.7394 10.9765 13.7319 10.8443 13.7619Z" fill="white"/>
<path d="M24.7584 13.759C24.5571 13.8026 24.401 13.8868 24.2673 14.0251C24.1351 14.1604 24.0511 14.3108 24.003 14.4942L23.9805 14.58H25.0092H26.0379L26.0274 14.5228C25.9913 14.3258 25.8727 14.1123 25.7225 13.9785C25.6294 13.8958 25.4717 13.8116 25.3366 13.7755C25.2119 13.7424 24.8845 13.7334 24.7584 13.759Z" fill="white"/>
</svg>
