<svg width="30" height="30" viewBox="0 0 30 30" fill="none" xmlns="http://www.w3.org/2000/svg">
<path fill-rule="evenodd" clip-rule="evenodd" d="M5.40966 12.5078C4.97975 12.5801 4.68097 12.7322 4.36267 13.0408L4.21631 13.1826V12.8948V12.6069H3.41325H2.61011L2.61394 16.0829L2.61769 19.5588L3.417 19.5627L4.21631 19.5666V18.3095V17.0524L4.31726 17.1616C4.98125 17.8798 6.17722 17.9714 6.97939 17.3657C8.26302 16.3964 8.22662 13.7088 6.91822 12.8447C6.48636 12.5596 5.89172 12.4268 5.40966 12.5078ZM10.7759 12.5033C9.20328 12.6803 8.20162 14.0513 8.47287 15.6558C8.75446 17.3213 10.5357 18.191 12.4046 17.5753C12.7686 17.4553 13.2839 17.1674 13.2645 17.0947C13.2588 17.073 12.608 16.1092 12.5992 16.1092C12.5954 16.1092 12.5527 16.1383 12.5043 16.174C11.6458 16.8068 10.3311 16.5502 10.1088 15.7064L10.0882 15.6282H11.8827H13.6773L13.6684 15.2787C13.6222 13.4454 12.4446 12.3154 10.7759 12.5033ZM24.6656 12.5022C23.1126 12.6979 22.13 14.0063 22.3577 15.5756C22.597 17.2254 24.197 18.1154 26.0703 17.6408C26.5253 17.5255 27.1978 17.187 27.1613 17.0917C27.1535 17.0715 26.5299 16.1448 26.5068 16.1192C26.5006 16.1123 26.4525 16.1384 26.3999 16.1772C25.5313 16.8182 24.1949 16.5362 23.9943 15.6695L23.9846 15.6282H25.7811H27.5775L27.5678 15.2862C27.538 14.2291 27.2077 13.4875 26.5391 12.9768C26.0619 12.6121 25.3081 12.4211 24.6656 12.5022ZM13.8289 12.6406C13.834 12.6593 14.1682 13.7906 14.5717 15.1547L15.3054 17.6348L16.1692 17.6387L17.0329 17.6426L17.0781 17.4959C17.103 17.4152 17.3098 16.7269 17.5378 15.9664C18.0206 14.3553 17.965 14.5324 17.9797 14.561C17.986 14.5734 18.2 15.2718 18.4551 16.1129L18.9191 17.6423H19.7825H20.646L21.2578 15.5718C21.5944 14.4331 21.9293 13.3 22.0022 13.0541L22.1347 12.6069L21.3075 12.607L20.4803 12.6071L20.0827 14.1402C19.8641 14.9833 19.6817 15.6733 19.6774 15.6733C19.6732 15.6732 19.4493 14.985 19.1799 14.1439L18.69 12.6144L17.9779 12.6105L17.2658 12.6066L16.7811 14.1212C16.5145 14.9542 16.291 15.6455 16.2845 15.6575C16.2692 15.6859 16.3 15.7972 15.8509 14.0875L15.464 12.6144L14.6418 12.6105L13.8198 12.6067L13.8289 12.6406ZM11.3969 13.7575C11.7681 13.833 12.1419 14.2407 12.1419 14.5702C12.1419 14.5877 11.979 14.591 11.105 14.591H10.068L10.0783 14.5422C10.2048 13.9409 10.7382 13.6235 11.3969 13.7575ZM25.2987 13.76C25.6831 13.8453 25.9638 14.1445 26.0325 14.5422L26.0409 14.591H25.0056C24.13 14.591 23.9702 14.5878 23.9702 14.5701C23.9702 14.5586 23.9844 14.5027 24.0018 14.4461C24.1698 13.8964 24.6852 13.6237 25.2987 13.76ZM5.46482 13.9375C6.17512 14.1189 6.50655 15.0446 6.12634 15.7849C5.78845 16.4429 4.87243 16.5409 4.2952 15.981L4.21631 15.9045V15.1334V14.3624L4.26195 14.3046C4.49754 14.0068 5.06194 13.8346 5.46482 13.9375Z" fill="#FCFBFB"/>
<path fill-rule="evenodd" clip-rule="evenodd" d="M14.4272 0.0123635C7.45955 0.267891 1.55852 5.36033 0.261529 12.2372C-0.978645 18.8125 2.27557 25.4168 8.24648 28.4419C9.83107 29.2448 11.3508 29.7035 13.26 29.9552C13.5653 29.9955 16.0891 30.0173 16.4648 29.983C23.1965 29.3674 28.8011 24.0855 29.8305 17.3869C30.0241 16.1274 30.0551 14.4261 29.9067 13.2158C28.9536 5.43984 22.254 -0.274654 14.4272 0.0123635ZM6.09246 12.5122C7.23664 12.6964 7.91512 13.669 7.91512 15.1247C7.91512 16.6543 7.17825 17.6349 5.9323 17.7636C5.32527 17.8262 4.77949 17.635 4.35642 17.2113L4.21614 17.0709V18.3186V19.5664H3.41308H2.61001V16.0867V12.607H3.41308H4.21614L4.21599 12.8888L4.21592 13.1707L4.36287 13.0279C4.8285 12.5756 5.40993 12.4022 6.09246 12.5122ZM11.3011 12.4873C12.7662 12.5992 13.6728 13.6875 13.6728 15.3345V15.6433H11.8862H10.0997L10.1094 15.6846C10.3169 16.5711 11.6442 16.8013 12.577 16.1125C12.6005 16.0951 12.6368 16.1431 12.9448 16.5989L13.2865 17.1045L13.2432 17.1407C12.6259 17.6572 11.4599 17.9003 10.5128 17.71C9.23996 17.4542 8.4191 16.4435 8.4191 15.1322C8.4191 13.6956 9.45138 12.5898 10.8883 12.4869C10.9709 12.4811 11.052 12.4752 11.0685 12.474C11.085 12.4728 11.1897 12.4788 11.3011 12.4873ZM25.1918 12.4871C26.6575 12.5929 27.5726 13.692 27.5726 15.3463V15.6433H25.7847H23.9969L24.0064 15.6815C24.2203 16.5347 25.5534 16.8067 26.3951 16.1688C26.4506 16.1267 26.5008 16.0978 26.5066 16.1045C26.5125 16.1113 26.6671 16.3385 26.8502 16.6097L27.1831 17.1026L27.1356 17.1433C26.6225 17.5828 25.6329 17.8411 24.7656 17.7618C23.2859 17.6265 22.3189 16.5842 22.3189 15.1245C22.3189 13.6618 23.3547 12.5827 24.8557 12.4815C24.8928 12.479 24.9367 12.4759 24.9533 12.4745C24.9698 12.4731 25.0772 12.4788 25.1918 12.4871ZM15.4741 12.615C15.4741 12.6286 16.2699 15.6486 16.2748 15.6535C16.2774 15.656 16.4988 14.9733 16.767 14.1363L17.2546 12.6145L17.9753 12.6106L18.696 12.6067L19.1824 14.125C19.4499 14.96 19.6723 15.6433 19.6767 15.6433C19.681 15.6433 19.8595 14.9685 20.0733 14.1439C20.2871 13.3193 20.4652 12.6362 20.469 12.6258C20.4755 12.6078 22.1388 12.5955 22.1388 12.6135C22.1388 12.618 20.8371 17.0303 20.6585 17.6311C20.6512 17.6558 20.5964 17.6574 19.7823 17.6574H18.9137L18.8927 17.586C18.6887 16.8921 17.9718 14.5649 17.9665 14.5792C17.9625 14.5899 17.7525 15.2852 17.4999 16.1243L17.0404 17.6499L16.1793 17.6538C15.7057 17.6559 15.3133 17.6526 15.3072 17.6463C15.3012 17.64 14.9678 16.5222 14.5665 15.1623C14.165 13.8024 13.8305 12.6711 13.823 12.6483L13.8095 12.607H14.6417C15.0996 12.607 15.4741 12.6106 15.4741 12.615ZM10.8433 13.7577C10.4741 13.8384 10.0878 14.2422 10.0855 14.5498C10.0853 14.5746 10.1438 14.5761 11.106 14.5761C12.2756 14.5761 12.1503 14.5964 12.0952 14.4161C11.9423 13.9155 11.4076 13.6344 10.8433 13.7577ZM24.7506 13.7558C24.3746 13.8355 24.0952 14.1072 23.9953 14.4902L23.9729 14.5761H25.0014H26.0299L26.0196 14.5197C25.9193 13.9694 25.3525 13.6282 24.7506 13.7558ZM4.90122 13.945C4.66969 14.0038 4.4061 14.1538 4.27784 14.2997L4.21614 14.3699V15.1272V15.8845L4.27971 15.9535C4.62661 16.3304 5.25105 16.4479 5.69168 16.2193C6.4272 15.8379 6.47561 14.5547 5.77229 14.0837C5.5421 13.9295 5.1856 13.8728 4.90122 13.945Z" fill="#FC4404"/>
<path fill-rule="evenodd" clip-rule="evenodd" d="M14.5478 0.00699515C14.5873 0.0101517 14.6481 0.0100765 14.6829 0.00691999C14.7177 0.00376347 14.6854 0.0012082 14.6111 0.00128335C14.5368 0.00135851 14.5083 0.00391379 14.5478 0.00699515ZM15.3434 0.00699515C15.3828 0.0101517 15.4436 0.0100765 15.4785 0.00691999C15.5133 0.00376347 15.481 0.0012082 15.4067 0.00128335C15.3324 0.00135851 15.3039 0.00391379 15.3434 0.00699515ZM14.1948 0.0215753C14.2134 0.0251827 14.2405 0.0250324 14.2548 0.0212746C14.2692 0.0175169 14.2539 0.0145858 14.2209 0.0147361C14.1878 0.0149616 14.1761 0.018043 14.1948 0.0215753ZM15.7709 0.0215753C15.7896 0.0251827 15.8166 0.0250324 15.8309 0.0212746C15.8453 0.0175169 15.83 0.0145858 15.797 0.0147361C15.764 0.0149616 15.7523 0.018043 15.7709 0.0215753ZM4.80826 3.99796L4.76421 4.04681L4.81299 4.00269C4.85847 3.96151 4.86868 3.94911 4.85705 3.94911C4.85449 3.94911 4.8325 3.97105 4.80826 3.99796ZM25.1561 3.95384C25.1561 3.9564 25.1781 3.97842 25.2049 4.00269L25.2536 4.04681L25.2096 3.99796C25.1685 3.95242 25.1561 3.94219 25.1561 3.95384ZM4.43345 4.35329C4.33468 4.4516 4.23718 4.5514 4.21685 4.575C4.19643 4.59867 4.27921 4.51999 4.40072 4.40026C4.52216 4.28047 4.62161 4.18074 4.62161 4.17856C4.62161 4.16751 4.59939 4.1881 4.43345 4.35329ZM25.6062 4.38982C25.7258 4.51119 25.8266 4.61047 25.8302 4.61047C25.8439 4.61047 25.5347 4.29602 25.4413 4.21486C25.4124 4.18976 25.4866 4.26852 25.6062 4.38982ZM3.98268 4.82467L3.93862 4.87352L3.98741 4.8294C4.03289 4.78822 4.0431 4.77582 4.03146 4.77582C4.02891 4.77582 4.00692 4.79776 3.98268 4.82467ZM25.9817 4.78055C25.9817 4.7831 26.0036 4.80513 26.0304 4.8294L26.0792 4.87352L26.0352 4.82467C25.994 4.77912 25.9817 4.7689 25.9817 4.78055ZM5.68375 12.4823C5.70244 12.4859 5.72946 12.4858 5.7438 12.482C5.75821 12.4782 5.7429 12.4753 5.70987 12.4755C5.67685 12.4757 5.66514 12.4788 5.68375 12.4823ZM11.0649 12.4825C11.0876 12.4859 11.1248 12.4859 11.1475 12.4825C11.1702 12.479 11.1516 12.4762 11.1062 12.4762C11.0608 12.4762 11.0422 12.479 11.0649 12.4825ZM24.9497 12.4825C24.9724 12.4859 25.0096 12.4859 25.0322 12.4825C25.055 12.479 25.0364 12.4762 24.991 12.4762C24.9456 12.4762 24.927 12.479 24.9497 12.4825ZM5.15073 13.91C5.16514 13.9138 5.18886 13.9138 5.20327 13.91C5.21768 13.9063 5.20589 13.9031 5.177 13.9031C5.1481 13.9031 5.13632 13.9063 5.15073 13.91ZM0.0174108 14.2303C0.0174108 14.2675 0.0203379 14.2828 0.0239404 14.2642C0.0275429 14.2456 0.0275429 14.2152 0.0239404 14.1965C0.0203379 14.178 0.0174108 14.1931 0.0174108 14.2303ZM0.00360107 14.6211C0.00360107 14.6914 0.00615287 14.7202 0.00930509 14.685C0.0125324 14.6499 0.0125324 14.5924 0.00930509 14.5573C0.00615287 14.5222 0.00360107 14.5509 0.00360107 14.6211ZM10.0833 14.5799C10.0896 14.5862 10.5536 14.5896 11.1145 14.5874L12.1344 14.5836L11.1032 14.576C10.536 14.5719 10.0771 14.5736 10.0833 14.5799ZM24.4855 14.5873C24.7729 14.5896 25.239 14.5896 25.5212 14.5873C25.8033 14.585 25.5681 14.5832 24.9985 14.5832C24.4288 14.5832 24.198 14.5851 24.4855 14.5873ZM0.00360107 15.4328C0.00360107 15.5031 0.00615287 15.5319 0.00930509 15.4967C0.0125324 15.4615 0.0125324 15.4041 0.00930509 15.3689C0.00615287 15.3338 0.00360107 15.3625 0.00360107 15.4328ZM10.9898 15.6395C11.4831 15.6417 12.2903 15.6417 12.7836 15.6395C13.2769 15.6373 12.8733 15.6355 11.8867 15.6355C10.9002 15.6355 10.4966 15.6373 10.9898 15.6395ZM24.8896 15.6395C25.3829 15.6417 26.1901 15.6417 26.6834 15.6395C27.1767 15.6373 26.7731 15.6355 25.7865 15.6355C24.8 15.6355 24.3963 15.6373 24.8896 15.6395ZM0.0174108 15.8236C0.0174108 15.8608 0.0203379 15.876 0.0239404 15.8574C0.0275429 15.8389 0.0275429 15.8084 0.0239404 15.7898C0.0203379 15.7712 0.0174108 15.7864 0.0174108 15.8236ZM11.3123 16.5259C11.3389 16.5293 11.3862 16.5293 11.4173 16.526C11.4484 16.5228 11.4267 16.5201 11.3689 16.52C11.3111 16.5199 11.2856 16.5226 11.3123 16.5259ZM25.2124 16.5259C25.2392 16.5293 25.2831 16.5293 25.3099 16.5259C25.3367 16.5226 25.3148 16.5199 25.2612 16.5199C25.2075 16.5199 25.1856 16.5226 25.2124 16.5259ZM4.35081 17.2102C4.38759 17.2495 4.41971 17.2816 4.42211 17.2816C4.43337 17.2816 4.42144 17.2681 4.35517 17.2059L4.28387 17.1388L4.35081 17.2102ZM16.1722 17.6424L15.3016 17.6503L16.1676 17.6538C16.7326 17.6561 17.0368 17.6521 17.0429 17.6424C17.048 17.6341 17.0501 17.6289 17.0475 17.631C17.045 17.6329 16.6511 17.638 16.1722 17.6424ZM19.3432 17.6537C19.5848 17.656 19.9798 17.656 20.2214 17.6537C20.4628 17.6513 20.2653 17.6494 19.7823 17.6494C19.2993 17.6494 19.1018 17.6513 19.3432 17.6537ZM11.3201 17.773C11.3345 17.7768 11.3582 17.7768 11.3726 17.773C11.3871 17.7692 11.3752 17.7661 11.3463 17.7661C11.3175 17.7661 11.3057 17.7692 11.3201 17.773ZM25.2199 17.773C25.2344 17.7768 25.2579 17.7768 25.2724 17.773C25.2869 17.7692 25.275 17.7661 25.2461 17.7661C25.2172 17.7661 25.2054 17.7692 25.2199 17.773ZM3.94613 25.1927C3.94613 25.1952 3.96805 25.2173 3.99491 25.2415L4.0437 25.2857L3.99964 25.2368C3.95851 25.1913 3.94613 25.181 3.94613 25.1927ZM26.0182 25.2368L25.9742 25.2857L26.0229 25.2415C26.0684 25.2004 26.0786 25.188 26.067 25.188C26.0644 25.188 26.0425 25.21 26.0182 25.2368ZM4.21234 25.4773C4.28079 25.5531 4.51803 25.7889 4.57657 25.8394C4.60547 25.8644 4.52786 25.7821 4.40418 25.6565C4.1914 25.4409 4.1141 25.3686 4.21234 25.4773ZM25.6137 25.6565C25.49 25.7821 25.4124 25.8644 25.4413 25.8394C25.5385 25.7555 25.8592 25.4285 25.8442 25.4285C25.8412 25.4285 25.7374 25.5311 25.6137 25.6565ZM4.77171 26.0194C4.77171 26.022 4.7937 26.044 4.8205 26.0682L4.86928 26.1124L4.82522 26.0635C4.78409 26.018 4.77171 26.0077 4.77171 26.0194ZM25.1926 26.0635L25.1486 26.1124L25.1974 26.0682C25.2428 26.0271 25.253 26.0147 25.2414 26.0147C25.2389 26.0147 25.2169 26.0367 25.1926 26.0635Z" fill="#FC7C4F"/>
<path fill-rule="evenodd" clip-rule="evenodd" d="M14.3894 0.0065385C14.408 0.0101459 14.4384 0.0101459 14.4569 0.0065385C14.4755 0.00293105 14.4603 0 14.4232 0C14.386 0 14.3708 0.00293105 14.3894 0.0065385ZM15.5602 0.0065385C15.5788 0.0101459 15.6092 0.0101459 15.6278 0.0065385C15.6464 0.00293105 15.6311 0 15.594 0C15.5568 0 15.5417 0.00293105 15.5602 0.0065385ZM14.0893 0.0215695C14.108 0.025177 14.135 0.0250267 14.1494 0.0212689C14.1638 0.0175111 14.1485 0.0145801 14.1154 0.0147304C14.0824 0.0149559 14.0707 0.0180372 14.0893 0.0215695ZM15.8756 0.0215695C15.8943 0.025177 15.9213 0.0250267 15.9356 0.0212689C15.95 0.0175111 15.9347 0.0145801 15.9017 0.0147304C15.8687 0.0149559 15.857 0.0180372 15.8756 0.0215695ZM4.89797 3.90777L4.85391 3.95662L4.9027 3.9125C4.94818 3.87132 4.95839 3.85892 4.94675 3.85892C4.9442 3.85892 4.92221 3.88086 4.89797 3.90777ZM25.0657 3.86365C25.0657 3.86621 25.0876 3.88823 25.1144 3.9125L25.1632 3.95662L25.1192 3.90777C25.078 3.86222 25.0657 3.852 25.0657 3.86365ZM4.6882 4.10317L4.61375 4.18208L4.69255 4.10753C4.7658 4.03816 4.77826 4.02426 4.767 4.02426C4.76468 4.02426 4.72918 4.05981 4.6882 4.10317ZM25.3133 4.09941C25.354 4.14075 25.3906 4.17457 25.3948 4.17457C25.3989 4.17457 25.369 4.14075 25.3283 4.09941C25.2877 4.05808 25.251 4.02426 25.2469 4.02426C25.2428 4.02426 25.2727 4.05808 25.3133 4.09941ZM4.10279 4.68938L4.02833 4.76829L4.10714 4.69374C4.15044 4.6527 4.18594 4.61716 4.18594 4.61483C4.18594 4.60355 4.17206 4.61603 4.10279 4.68938ZM25.8987 4.68562C25.9394 4.72696 25.9761 4.76078 25.9802 4.76078C25.9843 4.76078 25.9544 4.72696 25.9138 4.68562C25.8731 4.64429 25.8365 4.61047 25.8323 4.61047C25.8282 4.61047 25.8581 4.64429 25.8987 4.68562ZM23.0693 13.2458C23.0328 13.283 23.0064 13.3134 23.0105 13.3134C23.0146 13.3134 23.0478 13.283 23.0843 13.2458C23.1207 13.2086 23.1472 13.1782 23.143 13.1782C23.1389 13.1782 23.1057 13.2086 23.0693 13.2458ZM0.0164548 14.1251C0.0164548 14.154 0.0196071 14.1659 0.0233597 14.1514C0.0271123 14.137 0.0271123 14.1133 0.0233597 14.0988C0.0196071 14.0844 0.0164548 14.0962 0.0164548 14.1251ZM0.00204468 14.4408C0.00204468 14.478 0.00497174 14.4931 0.00857428 14.4746C0.0121768 14.456 0.0121768 14.4256 0.00857428 14.4069C0.00497174 14.3884 0.00204468 14.4036 0.00204468 14.4408ZM0.00204468 15.6132C0.00204468 15.6504 0.00497174 15.6656 0.00857428 15.647C0.0121768 15.6284 0.0121768 15.598 0.00857428 15.5794C0.00497174 15.5608 0.00204468 15.576 0.00204468 15.6132ZM0.0164548 15.9288C0.0164548 15.9578 0.0196071 15.9696 0.0233597 15.9551C0.0271123 15.9406 0.0271123 15.917 0.0233597 15.9025C0.0196071 15.888 0.0164548 15.8999 0.0164548 15.9288ZM3.85571 25.1025C3.85571 25.1051 3.8777 25.1271 3.9045 25.1513L3.95328 25.1955L3.90922 25.1466C3.86809 25.1011 3.85571 25.0908 3.85571 25.1025ZM4.09528 25.357C4.13206 25.3964 4.16418 25.4284 4.16658 25.4284C4.17784 25.4284 4.1659 25.4149 4.09963 25.3527L4.02833 25.2856L4.09528 25.357ZM25.9063 25.3608C25.8698 25.398 25.8434 25.4284 25.8475 25.4284C25.8516 25.4284 25.8848 25.398 25.9213 25.3608C25.9577 25.3236 25.9842 25.2932 25.98 25.2932C25.9759 25.2932 25.9427 25.3236 25.9063 25.3608ZM4.6963 25.962C4.74111 26.0075 4.78119 26.0447 4.78532 26.0447C4.78944 26.0447 4.75612 26.0075 4.71131 25.962C4.66651 25.9166 4.62643 25.8794 4.6223 25.8794C4.61817 25.8794 4.6515 25.9166 4.6963 25.962ZM25.3053 25.9658L25.2233 26.0522L25.3096 25.9701C25.3571 25.9249 25.3959 25.886 25.3959 25.8837C25.3959 25.8725 25.3816 25.8855 25.3053 25.9658Z" fill="#FC9470"/>
<path fill-rule="evenodd" clip-rule="evenodd" d="M4.3426 13.0466L4.29854 13.0954L4.34733 13.0513C4.39281 13.0101 4.40302 12.9977 4.39138 12.9977C4.38883 12.9977 4.36684 13.0198 4.3426 13.0466ZM26.7469 13.1528C26.7469 13.1553 26.7689 13.1774 26.7956 13.2016L26.8444 13.2458L26.8004 13.1969C26.7592 13.1514 26.7469 13.1411 26.7469 13.1528ZM11.0648 13.7301C11.0876 13.7334 11.1214 13.7334 11.1398 13.7298C11.1583 13.7262 11.1396 13.7234 11.0983 13.7235C11.0571 13.7237 11.042 13.7266 11.0648 13.7301ZM24.9646 13.7301C24.9874 13.7334 25.0212 13.7334 25.0396 13.7298C25.0581 13.7262 25.0394 13.7234 24.9981 13.7235C24.9569 13.7237 24.9418 13.7266 24.9646 13.7301ZM25.7111 13.9645C25.7111 13.967 25.7331 13.989 25.7599 14.0133L25.8087 14.0574L25.7646 14.0086C25.7235 13.963 25.7111 13.9528 25.7111 13.9645ZM4.29757 14.2641L4.25351 14.313L4.30229 14.2688C4.34778 14.2277 4.35798 14.2153 4.34635 14.2153C4.3438 14.2153 4.32181 14.2373 4.29757 14.2641ZM7.91429 15.1246C7.91437 15.2238 7.91677 15.2625 7.91969 15.2105C7.92262 15.1585 7.92262 15.0773 7.91969 15.0301C7.91669 14.9829 7.91429 15.0254 7.91429 15.1246ZM8.4224 15.0119C8.4224 15.0408 8.42555 15.0527 8.4293 15.0382C8.43306 15.0238 8.43306 15 8.4293 14.9856C8.42555 14.9712 8.4224 14.983 8.4224 15.0119ZM6.27649 15.1171C6.27649 15.1543 6.27941 15.1695 6.28302 15.1509C6.28662 15.1324 6.28662 15.1019 6.28302 15.0833C6.27941 15.0647 6.27649 15.0799 6.27649 15.1171ZM8.4227 15.2449C8.42292 15.2779 8.426 15.2897 8.42953 15.271C8.43313 15.2523 8.43298 15.2253 8.42923 15.2109C8.42548 15.1965 8.42255 15.2118 8.4227 15.2449ZM24.2701 16.1618C24.2981 16.1907 24.3244 16.2144 24.3285 16.2144C24.3326 16.2144 24.3131 16.1907 24.2851 16.1618C24.2571 16.1328 24.2309 16.1092 24.2267 16.1092C24.2226 16.1092 24.2421 16.1328 24.2701 16.1618ZM5.66856 17.7735C5.6955 17.7768 5.73603 17.7768 5.75862 17.7733C5.78114 17.7699 5.75907 17.7672 5.70954 17.7672C5.66 17.7673 5.64154 17.7701 5.66856 17.7735ZM11.1171 17.7735C11.1522 17.7768 11.2096 17.7768 11.2447 17.7735C11.2798 17.7704 11.2511 17.7678 11.1809 17.7678C11.1107 17.7678 11.082 17.7704 11.1171 17.7735ZM25.0169 17.7735C25.052 17.7768 25.1094 17.7768 25.1445 17.7735C25.1796 17.7704 25.1509 17.7678 25.0807 17.7678C25.0105 17.7678 24.9818 17.7704 25.0169 17.7735Z" fill="#FCA484"/>
</svg>
