<svg width="30" height="30" viewBox="0 0 30 30" fill="none" xmlns="http://www.w3.org/2000/svg">
<path d="M15 30C6.76117 30 0 23.2388 0 15C0 6.76117 6.76117 0 15 0C23.2388 0 30 6.76117 30 15C30 23.2388 23.2388 30 15 30Z" fill="#FF4200"/>
<path d="M30 15C30 6.76117 23.2388 0 15 0V30C23.2388 30 30 23.2388 30 15Z" fill="#FF4200"/>
<path d="M23.7891 9.72656L19.3945 6.21094V7.96875H17.8986C16.03 7.96875 14.285 8.97125 13.3436 10.5849L9.22531 17.6436C8.91129 18.1817 8.33015 18.5156 7.70691 18.5156H6.21094V22.0312H7.70691C9.5755 22.0312 11.3205 21.0287 12.2619 19.4151L16.3802 12.3564C16.6942 11.8183 17.2753 11.4844 17.8986 11.4844H19.3945V13.2422L23.7891 9.72656Z" fill="white"/>
<path d="M19.3945 7.96875H17.8986C16.8464 7.96875 15.8524 8.31367 15 8.87947V14.7221L16.3802 12.3564C16.6942 11.8183 17.2753 11.4844 17.8986 11.4844H19.3945V13.2422L23.7891 9.72656L19.3945 6.21094V7.96875Z" fill="white"/>
<path d="M9.22531 12.3564L9.75037 13.2566L11.7178 9.88426C10.7259 8.70323 9.27521 7.96875 7.70691 7.96875H6.21094V11.4844H7.70691C8.33015 11.4844 8.91129 11.8183 9.22531 12.3564Z" fill="white"/>
<path d="M19.3936 18.5156H17.8976C17.2744 18.5156 16.6933 18.1817 16.3792 17.6436L15.8542 16.7434L13.8867 20.1158C14.8787 21.2968 16.3293 22.0313 17.8976 22.0313H19.3936V23.7891L23.7881 20.2735L19.3936 16.7578V18.5156Z" fill="white"/>
<path d="M19.3945 18.5156H17.8986C17.2753 18.5156 16.6942 18.1817 16.3802 17.6436L15.8551 16.7434L15 18.2089V21.0931C15.8469 21.6744 16.8393 22.0313 17.8986 22.0313H19.3945V23.7891L23.7891 20.2735L19.3945 16.7578V18.5156Z" fill="white"/>
</svg>
