<svg width="30" height="30" viewBox="0 0 30 30" fill="none" xmlns="http://www.w3.org/2000/svg">
<path d="M15 0C6.74011 0 0 6.74126 0 15C0 23.2599 6.74126 30 15 30C23.2599 30 30 23.2587 30 15C30 6.74011 23.2587 0 15 0ZM15 28.2422C7.69821 28.2422 1.75781 22.3018 1.75781 15C1.75781 7.69821 7.69821 1.75781 15 1.75781C22.3018 1.75781 28.2422 7.69821 28.2422 15C28.2422 22.3018 22.3018 28.2422 15 28.2422Z" fill="white"/>
<path d="M25.196 9.72653L18.5156 4.38214V7.08981H17.8986C15.8562 7.08981 13.9398 8.11681 12.8027 9.7952C11.6656 8.11681 9.74922 7.08981 7.70691 7.08981H5.33203V12.3633H7.70691C8.01819 12.3633 8.3091 12.5303 8.46611 12.7993L9.75014 15L8.46634 17.2004C8.30933 17.4696 8.01819 17.6367 7.70691 17.6367H5.33203V22.9101H7.70691C9.74922 22.9101 11.6656 21.8831 12.8027 20.2047C13.9398 21.8831 15.8562 22.9101 17.8986 22.9101H18.5156V25.6178L25.196 20.2734L18.6042 15L25.196 9.72653ZM9.98428 11.9133C9.51347 11.1067 8.64075 10.6054 7.70691 10.6054H7.08984V8.84763H7.70691C9.26376 8.84763 10.7183 9.68304 11.5029 11.0277L11.7851 11.5118L10.7675 13.2559L9.98428 11.9133ZM11.5029 18.9722C10.7183 20.3169 9.26376 21.1523 7.70691 21.1523H7.08984V19.3945H7.70691C8.64075 19.3945 9.51347 18.8932 9.98451 18.0864L14.1026 11.0277C14.8872 9.68304 16.3417 8.84763 17.8986 8.84763H20.2734V8.03967L22.3821 9.72653L20.2734 11.4134V10.6054H17.8986C16.9647 10.6054 16.092 11.1067 15.621 11.9135L11.5029 18.9722ZM20.2734 18.5865L22.3821 20.2734L20.2734 21.9603V21.1523H17.8986C16.3417 21.1523 14.8872 20.3169 14.1026 18.9722L13.8203 18.4881L14.838 16.744L15.6212 18.0867C16.092 18.8932 16.9647 19.3945 17.8986 19.3945H20.2734V18.5865ZM18.5156 17.6367H17.8986C17.5873 17.6367 17.2964 17.4696 17.1394 17.2007L15.8553 15L17.1391 12.7995C17.2964 12.5303 17.5873 12.3633 17.8986 12.3633H18.5156V17.6367Z" fill="white"/>
</svg>
