<svg width="35" height="35" viewBox="0 0 35 35" fill="none" xmlns="http://www.w3.org/2000/svg">
<path d="M17.5005 14.3245C16.9341 14.3245 16.4751 13.8652 16.4751 13.2991V6.51709C16.4751 5.95072 16.9341 5.4917 17.5005 5.4917C18.0668 5.4917 18.5258 5.95072 18.5258 6.51709V13.2991C18.5258 13.8652 18.0668 14.3245 17.5005 14.3245Z" fill="#FF4200"/>
<path d="M34.7941 33.3594L25.4059 20.8413C25.224 20.5989 24.9445 20.4493 24.6417 20.4328C24.3397 20.4159 24.0449 20.5342 23.8374 20.7551L21.0265 23.753L18.2598 20.6953C18.0654 20.4803 17.7893 20.3577 17.4996 20.3577C17.2099 20.3577 16.9335 20.4803 16.7391 20.6953L13.9725 23.753L11.1616 20.7551C10.9544 20.5342 10.6598 20.417 10.3573 20.4328C10.0548 20.4493 9.7752 20.5991 9.59336 20.8413L0.205118 33.3594C-0.0279927 33.6702 -0.0653758 34.0857 0.108189 34.4331C0.28202 34.7805 0.63716 35 1.02541 35H33.9738C34.3624 35 34.7172 34.7805 34.8911 34.4331C35.0646 34.0857 35.0272 33.6702 34.7941 33.3594Z" fill="#FF4200"/>
<path d="M34.7949 33.3594L25.4067 20.8413C25.2249 20.5989 24.9453 20.4493 24.6425 20.4328C24.3405 20.4159 24.0457 20.5342 23.8382 20.7551L21.0273 23.753L18.2607 20.6953C18.0663 20.4803 17.7902 20.3577 17.5004 20.3577V35H33.9746C34.3629 35 34.718 34.7805 34.8916 34.4331C35.0654 34.0857 35.028 33.6702 34.7949 33.3594Z" fill="#FF4200"/>
<path d="M25.4067 20.8413L19.968 13.5899C19.3408 12.7533 18.4412 12.2737 17.5005 12.2737C16.5595 12.2737 15.6602 12.7533 15.0327 13.5899L9.59421 20.8413C9.29568 21.2394 9.32612 21.7949 9.66658 22.158L13.2388 25.9677C13.4329 26.1744 13.7037 26.2916 13.9867 26.2916C13.9899 26.2916 13.9929 26.2916 13.9958 26.2916C14.2826 26.289 14.555 26.1667 14.7472 25.9541L17.5005 22.9113L20.2535 25.9541C20.4457 26.1667 20.7181 26.289 21.0046 26.2916C21.0075 26.2916 21.0107 26.2916 21.0139 26.2916C21.297 26.2916 21.5678 26.1744 21.7616 25.9677L25.3341 22.158C25.6748 21.7949 25.7053 21.2394 25.4067 20.8413Z" fill="white"/>
<path d="M26.4318 5.76115L24.442 3.77125L26.4625 1.75037C26.756 1.45718 26.8436 1.01631 26.685 0.633125C26.5261 0.249672 26.1522 0 25.7376 0H17.5004C16.9341 0 16.4751 0.459023 16.4751 1.02539V6.51711C16.4751 7.08321 16.9341 7.5425 17.5004 7.5425H25.7376C25.7381 7.54223 25.7384 7.54223 25.7389 7.5425C26.3052 7.5425 26.7643 7.08321 26.7643 6.51711C26.7643 6.21777 26.6361 5.9486 26.4318 5.76115Z" fill="#FF4200"/>
<path d="M25.4067 20.8413L19.968 13.5899C19.3408 12.7533 18.4412 12.2737 17.5004 12.2737V22.9113L20.2534 25.9544C20.4457 26.1667 20.7181 26.289 21.0046 26.2916C21.0078 26.2916 21.0107 26.2916 21.0139 26.2916C21.297 26.2916 21.5677 26.1744 21.7619 25.9677L25.3341 22.158C25.6748 21.7949 25.7052 21.2394 25.4067 20.8413Z" fill="white"/>
<path d="M26.4318 5.76114L24.442 3.77124H16.4751V6.5171C16.4751 7.0832 16.9341 7.54249 17.5004 7.54249H25.7376C25.7381 7.54249 25.7384 7.54249 25.7389 7.54249C26.3052 7.54249 26.7643 7.0832 26.7643 6.5171C26.7643 6.21776 26.6361 5.94859 26.4318 5.76114Z" fill="#FF4200"/>
</svg>
