<svg width="30" height="30" viewBox="0 0 30 30" fill="none" xmlns="http://www.w3.org/2000/svg">
<path d="M29.8242 28.5938L17.1153 11.6485C16.7784 11.1994 16.3502 10.8703 15.8789 10.6872V6.465H22.0605C22.061 6.465 22.0612 6.46477 22.0617 6.465C22.5471 6.465 22.9406 6.07132 22.9406 5.58609C22.9406 5.32951 22.8307 5.09857 22.6556 4.93813L20.95 3.2325L22.6819 1.50032C22.9335 1.24901 23.0086 0.870895 22.8726 0.54245C22.7366 0.214233 22.416 0 22.0605 0H15C14.5145 0 14.1211 0.393448 14.1211 0.878906V10.6872C13.6498 10.8703 13.2216 11.1994 12.8849 11.6485L0.175819 28.5938C-0.0239942 28.8602 -0.0560376 29.2163 0.0927352 29.5141C0.241737 29.8119 0.546149 30 0.878942 30H29.1211C29.4541 30 29.7583 29.8119 29.9073 29.5141C30.056 29.2165 30.024 28.8602 29.8242 28.5938ZM15.8789 1.75781H19.9388L19.0855 2.61086C18.7424 2.95418 18.7424 3.51059 19.0855 3.85391L19.9388 4.70718H15.8789V1.75781ZM14.2912 12.7032C14.4967 12.429 14.7485 12.2781 15 12.2781C15.2518 12.2781 15.5035 12.4292 15.7091 12.7032L19.8873 18.2742L18.0118 20.3469L15.6519 17.7388C15.4852 17.5546 15.2486 17.4495 15 17.4495C14.7517 17.4495 14.515 17.5546 14.3484 17.7388L11.9884 20.3469L10.1129 18.2742L14.2912 12.7032ZM2.63675 28.2422L9.03856 19.7065L11.3368 22.2464C11.5032 22.4306 11.74 22.5357 11.9884 22.5357C12.2367 22.5357 12.4734 22.4306 12.64 22.2464L15 19.6383L17.36 22.2464C17.5266 22.4306 17.7633 22.5357 18.0116 22.5357C18.26 22.5357 18.4966 22.4306 18.6635 22.2464L20.9617 19.7067L27.3633 28.2422H2.63675Z" fill="white"/>
</svg>
