<svg width="30" height="30" viewBox="0 0 30 30" fill="none" xmlns="http://www.w3.org/2000/svg">
<path d="M23.7891 14.0625C24.2745 14.0625 24.668 13.6428 24.668 13.125C24.668 12.6072 24.2745 12.1875 23.7891 12.1875C23.3037 12.1875 22.9102 12.6072 22.9102 13.125C22.9102 13.6428 23.3037 14.0625 23.7891 14.0625Z" fill="white"/>
<path d="M20.2734 14.0625C20.7588 14.0625 21.1523 13.6428 21.1523 13.125C21.1523 12.6072 20.7588 12.1875 20.2734 12.1875C19.788 12.1875 19.3945 12.6072 19.3945 13.125C19.3945 13.6428 19.788 14.0625 20.2734 14.0625Z" fill="white"/>
<path d="M16.7578 14.0625C17.2432 14.0625 17.6367 13.6428 17.6367 13.125C17.6367 12.6072 17.2432 12.1875 16.7578 12.1875C16.2724 12.1875 15.8789 12.6072 15.8789 13.125C15.8789 13.6428 16.2724 14.0625 16.7578 14.0625Z" fill="white"/>
<path d="M13.2422 5.625C13.7276 5.625 14.1211 5.20527 14.1211 4.6875C14.1211 4.16973 13.7276 3.75 13.2422 3.75C12.7568 3.75 12.3633 4.16973 12.3633 4.6875C12.3633 5.20527 12.7568 5.625 13.2422 5.625Z" fill="white"/>
<path d="M9.72656 5.625C10.212 5.625 10.6055 5.20527 10.6055 4.6875C10.6055 4.16973 10.212 3.75 9.72656 3.75C9.24116 3.75 8.84766 4.16973 8.84766 4.6875C8.84766 5.20527 9.24116 5.625 9.72656 5.625Z" fill="white"/>
<path d="M6.21094 5.625C6.69634 5.625 7.08984 5.20527 7.08984 4.6875C7.08984 4.16973 6.69634 3.75 6.21094 3.75C5.72553 3.75 5.33203 4.16973 5.33203 4.6875C5.33203 5.20527 5.72553 5.625 6.21094 5.625Z" fill="white"/>
<path d="M27.3632 7.5H19.3945V2.8125C19.3945 1.26169 18.2117 0 16.7578 0H2.63671C1.18283 0 0 1.26169 0 2.8125V8.4375C0 9.98831 1.18283 11.25 2.63671 11.25H3.57421V14.0625C3.57421 14.4417 3.78831 14.7836 4.11679 14.9286C4.2253 14.9766 4.33933 14.9999 4.45235 15H2.63671C1.18283 15 0 16.2617 0 17.8125V23.4375C0 24.9883 1.18283 26.25 2.63671 26.25H3.57421V29.0625C3.57421 29.4417 3.78831 29.7835 4.11679 29.9286C4.44521 30.0737 4.82325 29.9935 5.07462 29.7254L8.33278 26.25H16.7578C18.2117 26.25 19.3945 24.9883 19.3945 23.4375V18.75H22.2055L24.8717 22.1627C25.1085 22.4659 25.4982 22.5784 25.8461 22.444C26.194 22.3096 26.4258 21.9572 26.4258 21.5625V18.75H27.3633C28.8172 18.75 30 17.4883 30 15.9375V10.3125C29.9999 8.76168 28.8171 7.5 27.3632 7.5ZM2.63671 9.37499C2.15209 9.37499 1.75781 8.95443 1.75781 8.4375V2.8125C1.75781 2.29556 2.15209 1.875 2.63671 1.875H16.7578C17.2424 1.875 17.6367 2.29556 17.6367 2.8125V7.5H13.2422C12.0964 7.5 11.1194 8.28387 10.7566 9.37499H7.96873C7.73559 9.37499 7.51206 9.47381 7.34729 9.64962L5.33202 11.7991V10.3125C5.33202 9.79474 4.93851 9.37499 4.45312 9.37499H2.63671ZM10.6054 11.25V15H4.45353C4.68204 14.9998 4.90663 14.9046 5.07456 14.7254L8.33278 11.25H10.6054ZM17.6367 23.4375C17.6367 23.9544 17.2424 24.375 16.7578 24.375H7.96873C7.73559 24.375 7.51206 24.4738 7.34729 24.6496L5.33202 26.7991V25.3125C5.33202 24.7947 4.93851 24.375 4.45312 24.375H2.63671C2.15209 24.375 1.75781 23.9544 1.75781 23.4375V17.8125C1.75781 17.2956 2.15209 16.875 2.63671 16.875H16.7578C17.2424 16.875 17.6367 17.2956 17.6367 17.8125V23.4375ZM28.2421 15.9375C28.2421 16.4544 27.8479 16.875 27.3632 16.875H25.5468C25.0614 16.875 24.6679 17.2947 24.6679 17.8125V18.9731L23.2923 17.2123C23.1253 16.9986 22.878 16.875 22.6171 16.875H19.2433C18.8805 15.7839 17.9036 15 16.7578 15H12.3633V10.3125C12.3633 9.79556 12.7575 9.37499 13.2422 9.37499H27.3632C27.8479 9.37499 28.2421 9.79556 28.2421 10.3125V15.9375Z" fill="white"/>
<path d="M13.2422 21.5625C13.7276 21.5625 14.1211 21.1428 14.1211 20.625C14.1211 20.1072 13.7276 19.6875 13.2422 19.6875C12.7568 19.6875 12.3633 20.1072 12.3633 20.625C12.3633 21.1428 12.7568 21.5625 13.2422 21.5625Z" fill="white"/>
<path d="M9.72656 21.5625C10.212 21.5625 10.6055 21.1428 10.6055 20.625C10.6055 20.1072 10.212 19.6875 9.72656 19.6875C9.24116 19.6875 8.84766 20.1072 8.84766 20.625C8.84766 21.1428 9.24116 21.5625 9.72656 21.5625Z" fill="white"/>
<path d="M6.21094 21.5625C6.69634 21.5625 7.08984 21.1428 7.08984 20.625C7.08984 20.1072 6.69634 19.6875 6.21094 19.6875C5.72553 19.6875 5.33203 20.1072 5.33203 20.625C5.33203 21.1428 5.72553 21.5625 6.21094 21.5625Z" fill="white"/>
</svg>
