<svg width="30" height="30" viewBox="0 0 30 30" fill="none" xmlns="http://www.w3.org/2000/svg">
<path d="M20.7769 5.30941C19.937 5.30941 19.1263 4.99916 18.4324 4.41217L17.0754 3.26443C16.059 2.40463 14.8545 1.95018 13.5923 1.95018H8.19913V0H2.46901V30H8.19919V19.1962H13.5924C14.4322 19.1962 15.2429 19.5065 15.9368 20.0935L17.2938 21.2412C18.3102 22.101 19.5147 22.5554 20.7769 22.5554H27.5307V5.30941H20.7769ZM25.7674 10.4704H22.6464V7.07262H25.7674V10.4704ZM12.8781 8.87437H13.5924C14.4322 8.87437 15.2429 9.18463 15.9368 9.77162L15.9991 9.8243V12.8637C15.2481 12.4749 14.4332 12.2721 13.5924 12.2721H12.8781V8.87437ZM11.1149 12.2721H8.19919V8.87437H11.1149V12.2721ZM17.7623 11.2765C18.6721 11.9037 19.7034 12.2336 20.7769 12.2336H20.8832V15.6313H20.7769C19.937 15.6313 19.1263 15.321 18.4324 14.734L17.7623 14.1672V11.2765ZM22.6464 12.2336H25.7674V15.6313H22.6464V12.2336ZM20.7769 7.07262H20.8832V10.4704H20.7769C19.937 10.4704 19.1263 10.1601 18.4324 9.5731L17.7623 9.00627V6.11549C18.6721 6.74273 19.7034 7.07262 20.7769 7.07262ZM15.9368 4.61068L15.9991 4.66336V7.70279C15.248 7.31396 14.4332 7.11117 13.5923 7.11117H12.8781V3.71344H13.5923C14.4321 3.71344 15.2429 4.02369 15.9368 4.61068ZM11.1149 3.71344V7.11117H8.19919V3.71344H11.1149ZM6.43598 28.2368H4.23221V1.7632H6.43598V28.2368ZM8.19919 14.0353H11.1149V17.433H8.19919V14.0353ZM13.5924 17.433H12.8781V14.0353H13.5924C14.4322 14.0353 15.2429 14.3456 15.9368 14.9326L15.9991 14.9852V18.0247C15.248 17.6358 14.4332 17.433 13.5924 17.433ZM18.4324 19.895L17.7623 19.3281V16.4374C18.6721 17.0646 19.7034 17.3944 20.7769 17.3944H20.8832V20.7922H20.7769C19.937 20.7922 19.1263 20.482 18.4324 19.895ZM22.6464 20.7922V17.3945H25.7674V20.7922H22.6464Z" fill="white"/>
</svg>
