<svg width="30" height="30" viewBox="0 0 30 30" fill="none" xmlns="http://www.w3.org/2000/svg">
<path d="M15 0C12.0333 0 9.13319 0.879734 6.66645 2.52796C4.19972 4.17618 2.27713 6.51886 1.14181 9.25975C0.00649932 12.0006 -0.290551 15.0166 0.288227 17.9264C0.867006 20.8361 2.29562 23.5088 4.3934 25.6066C6.49119 27.7044 9.16393 29.133 12.0736 29.7118C14.9834 30.2906 17.9994 29.9935 20.7403 28.8582C23.4811 27.7229 25.8238 25.8003 27.472 23.3335C29.1203 20.8668 30 17.9667 30 15C29.9953 11.0232 28.4134 7.21061 25.6014 4.39858C22.7894 1.58655 18.9768 0.00469155 15 0V0ZM15 27.2727C12.5727 27.2727 10.1999 26.5529 8.18164 25.2044C6.1634 23.8559 4.59038 21.9391 3.66148 19.6966C2.73259 17.454 2.48955 14.9864 2.9631 12.6057C3.43664 10.225 4.6055 8.03824 6.32188 6.32187C8.03825 4.6055 10.225 3.43663 12.6057 2.96309C14.9864 2.48954 17.454 2.73258 19.6966 3.66148C21.9391 4.59037 23.8559 6.1634 25.2044 8.18164C26.5529 10.1999 27.2727 12.5727 27.2727 15C27.2688 18.2537 25.9745 21.373 23.6737 23.6737C21.373 25.9745 18.2537 27.2688 15 27.2727V27.2727Z" fill="white"/>
<path d="M18.0112 6.36135C17.2345 5.85005 16.3415 5.54257 15.4147 5.46726C14.4879 5.39195 13.557 5.55124 12.708 5.93044C11.7505 6.35614 10.9398 7.05474 10.3774 7.93883C9.81489 8.82292 9.52562 9.85324 9.54572 10.9009V10.9091C9.5468 11.2707 9.69151 11.6172 9.94801 11.8721C10.2045 12.1271 10.5518 12.2697 10.9134 12.2686C11.2751 12.2675 11.6215 12.1228 11.8765 11.8663C12.1314 11.6098 12.2741 11.2626 12.273 10.9009C12.2591 10.3906 12.3933 9.88713 12.6595 9.45152C12.9258 9.0159 13.3125 8.66676 13.773 8.44635C14.2073 8.24179 14.6867 8.15193 15.1656 8.18535C15.6445 8.21878 16.1068 8.37436 16.5084 8.63726C16.867 8.87438 17.1644 9.19289 17.3764 9.56681C17.5884 9.94073 17.7091 10.3595 17.7285 10.7889C17.7479 11.2183 17.6655 11.6462 17.4881 12.0377C17.3107 12.4293 17.0432 12.7733 16.7075 13.0418C15.7742 13.7547 15.0134 14.6687 14.4818 15.7159C13.9501 16.7631 13.6612 17.9167 13.6366 19.0909C13.6373 19.27 13.6731 19.4472 13.7423 19.6124C13.8114 19.7776 13.9123 19.9276 14.0394 20.0537C14.1665 20.1799 14.3171 20.2798 14.4828 20.3478C14.6485 20.4157 14.826 20.4504 15.005 20.4498C15.1841 20.4491 15.3613 20.4132 15.5265 20.3441C15.6917 20.275 15.8417 20.1741 15.9679 20.047C16.0941 19.9199 16.194 19.7692 16.2619 19.6036C16.3299 19.4379 16.3645 19.2604 16.3639 19.0814C16.3901 18.3171 16.5874 17.5685 16.9414 16.8907C17.2954 16.2128 17.7971 15.6231 18.4094 15.165C19.0795 14.6277 19.6132 13.9397 19.9672 13.1571C20.3211 12.3745 20.4853 11.5193 20.4462 10.6613C20.4071 9.80324 20.1659 8.96655 19.7423 8.21934C19.3187 7.47213 18.7246 6.83552 18.0084 6.36135H18.0112Z" fill="white"/>
<path d="M15 24.5454C15.7531 24.5454 16.3636 23.9349 16.3636 23.1818C16.3636 22.4287 15.7531 21.8181 15 21.8181C14.2469 21.8181 13.6364 22.4287 13.6364 23.1818C13.6364 23.9349 14.2469 24.5454 15 24.5454Z" fill="white"/>
</svg>
