<svg width="20" height="20" viewBox="0 0 20 20" fill="none" xmlns="http://www.w3.org/2000/svg">
<path d="M16.875 3.33328C16.8417 3.33328 16.8083 3.35007 16.7751 3.35831C16.7334 3.35007 16.7 3.33328 16.6667 3.33328H15.8333V0.833282C15.8333 0.375061 15.4584 0 15 0H2.5C1.26663 0 0.241699 0.899963 0.0416565 2.08328C0.0166321 2.14996 0 2.21664 0 2.29172V17.7083C0 18.9751 1.02493 20 2.29172 20H16.875C17.2166 20 17.5 19.7166 17.5 19.375V3.95828C17.5 3.61664 17.2166 3.33328 16.875 3.33328Z" fill="#FF4200"/>
<path d="M8.75 17.0833C5.7666 17.0833 3.33328 14.65 3.33328 11.6667C3.33328 8.68332 5.7666 6.25 8.75 6.25C11.7334 6.25 14.1667 8.68332 14.1667 11.6667C14.1667 14.65 11.7334 17.0833 8.75 17.0833Z" fill="#FAFAFA"/>
<path d="M14.1667 3.33328H2.5C2.04163 3.33328 1.66672 2.95837 1.66672 2.5C1.66672 2.04163 2.04163 1.66672 2.5 1.66672H14.1667V3.33328Z" fill="white"/>
<path d="M10 13.75C9.78668 13.75 9.57336 13.6684 9.41086 13.5059L8.16086 12.2559C8.00415 12.1001 7.91672 11.8883 7.91672 11.6667V9.16672C7.91672 8.7059 8.28995 8.33328 8.75 8.33328C9.21005 8.33328 9.58328 8.7059 9.58328 9.16672V11.3217L10.5891 12.3276C10.9151 12.6534 10.9151 13.1799 10.5891 13.5059C10.4266 13.6684 10.2133 13.75 10 13.75Z" fill="#FF4200"/>
</svg>
