<svg width="18" height="20" viewBox="0 0 18 20" fill="none" xmlns="http://www.w3.org/2000/svg">
<path d="M16.875 20H2.29172C1.02753 20 0 18.9725 0 17.7083V2.29172C0 1.94672 0.279999 1.66672 0.625 1.66672C0.970001 1.66672 1.25 1.94672 1.25 2.29172V17.7083C1.25 18.2825 1.71753 18.75 2.29172 18.75H16.25V3.95828C16.25 3.61328 16.53 3.33328 16.875 3.33328C17.22 3.33328 17.5 3.61328 17.5 3.95828V19.375C17.5 19.72 17.22 20 16.875 20Z" fill="white"/>
<path d="M16.875 4.58328H2.29172C1.02753 4.58328 0 3.55591 0 2.29172C0 1.02753 1.02753 0 2.29172 0H15.2083C15.5533 0 15.8333 0.279999 15.8333 0.625V3.33328H16.875C17.22 3.33328 17.5 3.61328 17.5 3.95828C17.5 4.30328 17.22 4.58328 16.875 4.58328ZM2.29172 1.25C1.71753 1.25 1.25 1.71753 1.25 2.29172C1.25 2.86591 1.71753 3.33328 2.29172 3.33328H14.5833V1.25H2.29172Z" fill="white"/>
<path d="M8.75 17.0833C5.7634 17.0833 3.33328 14.6533 3.33328 11.6667C3.33328 8.67996 5.7634 6.25 8.75 6.25C11.7366 6.25 14.1667 8.67996 14.1667 11.6667C14.1667 14.6533 11.7366 17.0833 8.75 17.0833ZM8.75 7.5C6.45248 7.5 4.58328 9.3692 4.58328 11.6667C4.58328 13.9642 6.45248 15.8333 8.75 15.8333C11.0475 15.8333 12.9167 13.9642 12.9167 11.6667C12.9167 9.3692 11.0475 7.5 8.75 7.5Z" fill="white"/>
<path d="M10.2083 13.75C10.0484 13.75 9.88831 13.6891 9.76669 13.5667L8.30826 12.1083C8.19077 11.9908 8.125 11.8324 8.125 11.6667V9.375C8.125 9.03 8.405 8.75 8.75 8.75C9.095 8.75 9.375 9.03 9.375 9.375V11.4075L10.65 12.6825C10.8942 12.9266 10.8942 13.3224 10.65 13.5667C10.5283 13.6891 10.3683 13.75 10.2083 13.75Z" fill="white"/>
</svg>
