<svg width="20" height="20" viewBox="0 0 20 20" fill="none" xmlns="http://www.w3.org/2000/svg">
<path d="M10 20C15.5228 20 20 15.5228 20 10C20 4.47715 15.5228 0 10 0C4.47715 0 0 4.47715 0 10C0 15.5228 4.47715 20 10 20Z" fill="#FF4200"/>
<path d="M20 10C20 9.67301 19.9843 9.34969 19.9536 9.03074L15.641 4.71809L15.5796 4.80758L14.2485 3.47656L4.91522 4.88664L5.13413 10.2552L10.4094 15.5305L6.73616 16.9922L9.74069 19.9967C9.82686 19.9989 9.91335 20 10 20C15.5229 20 20 15.5229 20 10Z" fill="#A12A00"/>
<path d="M8.45071 10.5902H6.13848C5.31848 10.5902 4.62739 10.0029 4.49528 9.19352L3.98446 6.06469C3.90559 5.58172 4.04216 5.09094 4.35907 4.71809C4.67598 4.34528 5.13837 4.13141 5.6277 4.13141H8.45079V10.5902H8.45071ZM5.62762 5.30332C5.42923 5.30332 5.30708 5.41219 5.25192 5.47707C5.19677 5.54196 5.10899 5.68008 5.14094 5.8759L5.65176 9.00469C5.69091 9.24438 5.89559 9.41836 6.13844 9.41836H7.2788V5.30332H5.62762Z" fill="#FDBA12"/>
<path d="M13.8615 10.5902H11.5493V4.13141H14.3724C14.8617 4.13141 15.3241 4.34524 15.641 4.71809C15.9579 5.09094 16.0945 5.58176 16.0156 6.06469L15.5048 9.19353C15.3726 10.0028 14.6816 10.5902 13.8615 10.5902ZM12.7212 9.41833H13.8615C14.1044 9.41833 14.3091 9.24435 14.3482 9.00466L14.859 5.87586C14.891 5.68004 14.8032 5.54192 14.7481 5.47704C14.6929 5.41215 14.5708 5.30329 14.3724 5.30329H12.7212V9.41833H12.7212Z" fill="#FFA300"/>
<path d="M8.45874 10.0043H11.5412V15.453H8.45874V10.0043Z" fill="#FDBA12"/>
<path d="M10 10.0043H11.5413V15.453H10V10.0043Z" fill="#FFA300"/>
<path d="M11.5453 11.9717H8.45475C7.57795 11.9717 6.83561 11.3248 6.71564 10.4563L5.75146 3.47656H14.2485L13.2844 10.4563C13.1644 11.3248 12.422 11.9717 11.5453 11.9717V11.9717Z" fill="#FFDE55"/>
<path d="M10 3.47656V11.9717H11.5453C12.4221 11.9717 13.1644 11.3248 13.2844 10.4563L14.2485 3.47656H10Z" fill="#FFCE00"/>
<path d="M6.73615 14.6439H13.2639V16.9922H6.73615V14.6439Z" fill="#FFDE55"/>
<path d="M10 14.6439H13.2639V16.9922H10V14.6439Z" fill="#FFCE00"/>
</svg>
