<svg width="20" height="15" viewBox="0 0 20 15" fill="none" xmlns="http://www.w3.org/2000/svg">
<path d="M16.6667 0H3.33333C1.49536 0 0 1.49536 0 3.33333V11.6667C0 13.5046 1.49536 15 3.33333 15H16.6667C18.5046 15 20 13.5046 20 11.6667V3.33333C20 1.49536 18.5046 0 16.6667 0ZM18.3333 3.33333V5.41667H13.1875C12.8434 4.44702 11.9196 3.75 10.8333 3.75C10.2974 3.75 9.70032 4.05131 9.16667 4.42301V1.66667H16.6667C17.5859 1.66667 18.3333 2.41414 18.3333 3.33333ZM5.83333 7.08333C5.37374 7.08333 5 6.70959 5 6.25C5 5.79041 5.37374 5.41667 5.83171 5.41667C6.04919 5.42704 6.58956 5.78593 7.12626 6.25041C6.59037 6.71468 6.05082 7.07296 5.83333 7.08333ZM9.54041 6.24959C10.0763 5.78532 10.6158 5.42704 10.8333 5.41667C11.2929 5.41667 11.6667 5.79041 11.6667 6.25C11.6667 6.70959 11.2929 7.08333 10.835 7.08333C10.6175 7.07296 10.0775 6.71407 9.54041 6.24959ZM3.33333 1.66667H7.5V4.42301C6.96635 4.05131 6.36922 3.75 5.83333 3.75C4.74711 3.75 3.82324 4.44702 3.47921 5.41667H1.66667V3.33333C1.66667 2.41414 2.41414 1.66667 3.33333 1.66667ZM1.66667 11.6667V7.08333H3.47921C3.81551 8.02958 4.70418 8.71419 5.75704 8.74634L4.71375 10.3857C4.46676 10.7745 4.5813 11.2897 4.96948 11.5367C5.35787 11.7837 5.8726 11.6687 6.12 11.2813L7.5 9.11214V13.3333H3.33333C2.41414 13.3333 1.66667 12.5859 1.66667 11.6667ZM16.6667 13.3333H9.16667V9.11214L10.5471 11.2813C10.7058 11.5304 10.9753 11.6667 11.2508 11.6667C11.4038 11.6667 11.5588 11.6246 11.6976 11.5363C12.0858 11.2893 12.2003 10.7741 11.9533 10.3853L10.91 8.74593C11.9625 8.71379 12.8518 8.02958 13.1879 7.08293H18.3333V11.6663C18.3333 12.5859 17.5859 13.3333 16.6667 13.3333Z" fill="white"/>
</svg>
