<svg width="20" height="15" viewBox="0 0 20 15" fill="none" xmlns="http://www.w3.org/2000/svg">
<path d="M8.33741 6.25407C8.43344 6.35417 9.94162 7.91666 10.8333 7.91666C11.7542 7.91666 12.5 7.17082 12.5 6.25H19.1667V11.6667C19.1667 13.0459 18.0459 14.1667 16.6667 14.1667H8.33334V6.25L8.33741 6.25407Z" fill="#FF4200"/>
<path d="M19.1667 3.33334V6.25H12.5C12.5 5.32919 11.7542 4.58334 10.8333 4.58334C9.91253 4.58334 8.33334 6.25 8.33334 6.25V0.833336H16.6667C18.0459 0.833336 19.1667 1.95414 19.1667 3.33334Z" fill="#FF4200"/>
<path d="M10.8333 4.58334C11.7542 4.58334 12.5 5.32919 12.5 6.25C12.5 7.17082 11.7542 7.91667 10.8333 7.91667C9.94162 7.91667 8.43344 6.35417 8.33741 6.25407L8.33334 6.25C8.33334 6.25 9.91253 4.58334 10.8333 4.58334Z" fill="#FF4200"/>
<path d="M8.32927 6.25407L8.33334 6.25V14.1667H3.33334C1.95415 14.1667 0.833344 13.0459 0.833344 11.6667V6.25H4.16668C4.16668 7.17082 4.91253 7.91666 5.83334 7.91666C6.72507 7.91666 8.23325 6.35417 8.32927 6.25407Z" fill="#FF4200"/>
<path d="M8.33334 0.833336V6.25C8.33334 6.25 6.75416 4.58334 5.83334 4.58334C4.91253 4.58334 4.16668 5.32919 4.16668 6.25H0.833344V3.33334C0.833344 1.95414 1.95415 0.833336 3.33334 0.833336H8.33334Z" fill="#FF4200"/>
<path d="M8.33332 6.25L8.32925 6.25407C8.23322 6.35417 6.72504 7.91667 5.83332 7.91667C4.91251 7.91667 4.16666 7.17082 4.16666 6.25C4.16666 5.32919 4.91251 4.58334 5.83332 4.58334C6.75414 4.58334 8.33332 6.25 8.33332 6.25Z" fill="#FF4200"/>
<path d="M16.6667 0H3.33333C1.49536 0 0 1.49536 0 3.33333V11.6667C0 13.5046 1.49536 15 3.33333 15H16.6667C18.5046 15 20 13.5046 20 11.6667V3.33333C20 1.49536 18.5046 0 16.6667 0ZM18.3333 3.33333V5.41667H13.1875C12.8434 4.44702 11.9196 3.75 10.8333 3.75C10.2974 3.75 9.70032 4.05131 9.16667 4.42301V1.66667H16.6667C17.5859 1.66667 18.3333 2.41414 18.3333 3.33333ZM5.83333 7.08333C5.37374 7.08333 5 6.70959 5 6.25C5 5.79041 5.37374 5.41667 5.83171 5.41667C6.0496 5.42704 6.58956 5.78593 7.12667 6.25041C6.55294 6.75008 6.03373 7.07377 5.83333 7.08333ZM9.54 6.25C10.0759 5.78532 10.6158 5.42704 10.8333 5.41667C11.2929 5.41667 11.6667 5.79041 11.6667 6.25C11.6667 6.70959 11.2929 7.08333 10.835 7.08333C10.6333 7.07377 10.1133 6.74967 9.54 6.25ZM3.33333 1.66667H7.5V4.42301C6.96635 4.05131 6.36922 3.75 5.83333 3.75C4.74711 3.75 3.82324 4.44702 3.47921 5.41667H1.66667V3.33333C1.66667 2.41414 2.41414 1.66667 3.33333 1.66667ZM1.66667 11.6667V7.08333H3.47921C3.81551 8.02958 4.70418 8.71419 5.75663 8.74634L4.71375 10.3861C4.46676 10.7745 4.5813 11.2897 4.96948 11.5367C5.35787 11.7837 5.87341 11.6691 6.12 11.2809L7.5 9.11051V13.3333H3.33333C2.41414 13.3333 1.66667 12.5859 1.66667 11.6667ZM16.6667 13.3333H9.16667V9.11051L10.5471 11.2805C10.7058 11.5304 10.9753 11.6667 11.2508 11.6667C11.4038 11.6667 11.5588 11.6246 11.6972 11.5363C12.0854 11.2893 12.1999 10.7741 11.9529 10.3857L10.91 8.74593C11.9625 8.71379 12.8512 8.02958 13.1875 7.08293H18.3333V11.6663C18.3333 12.5859 17.5859 13.3333 16.6667 13.3333Z" fill="white"/>
</svg>
