<svg width="20" height="17" viewBox="0 0 20 17" fill="none" xmlns="http://www.w3.org/2000/svg">
<path d="M19.1667 5.83333H14.1667V0.833333C14.1667 0.373333 13.7933 0 13.3333 0H6.66667C6.20667 0 5.83333 0.373333 5.83333 0.833333V3.33333H0.833333C0.373333 3.33333 0 3.70667 0 4.16667V15.8333C0 16.2933 0.373333 16.6667 0.833333 16.6667H6.66667H13.3333H19.1667C19.6267 16.6667 20 16.2933 20 15.8333V6.66667C20 6.20667 19.6267 5.83333 19.1667 5.83333ZM1.66667 5H5.83333V15H1.66667V5ZM7.5 4.16667V1.66667H12.5V6.66667V15H7.5V4.16667ZM18.3333 15H14.1667V7.5H18.3333V15Z" fill="white"/>
</svg>
