<?xml version="1.0"?>
<svg xmlns="http://www.w3.org/2000/svg" id="Layer_1" enable-background="new 0 0 48 48" height="512px" viewBox="0 0 48 48" width="512px" class=""><g><g><path d="m35 7h-5.5v-2.5c0-.83-.67-1.5-1.5-1.5h-8c-.83 0-1.5.67-1.5 1.5v2.5h-5.5c-.83 0-1.5.67-1.5 1.5v35c0 .83.67 1.5 1.5 1.5h22c.83 0 1.5-.67 1.5-1.5v-35c0-.83-.67-1.5-1.5-1.5zm-13.5-1h5v1h-5zm12 36h-19v-32h5.5 8 5.5z" data-original="#000000" class="active-path" data-old_color="#000000" fill="#FF4200"/><path d="m27.89 21.57c-.59-.59-1.54-.59-2.12 0l-1.77 1.76-1.77-1.77c-.59-.59-1.54-.59-2.12 0s-.59 1.54 0 2.12l1.77 1.77-1.77 1.77c-.59.59-.59 1.54 0 2.12.29.29.68.44 1.06.44s.77-.15 1.06-.44l1.77-1.76 1.77 1.77c.29.29.68.44 1.06.44s.77-.15 1.06-.44c.59-.59.59-1.54 0-2.12l-1.77-1.77 1.77-1.77c.58-.59.58-1.54 0-2.12z" data-original="#000000" class="active-path" data-old_color="#000000" fill="#FF4200"/></g></g> </svg>
