<svg width="38" height="38" viewBox="0 0 38 38" fill="none" xmlns="http://www.w3.org/2000/svg">
<g filter="url(#filter0_d)">
<circle cx="19" cy="15" r="14" fill="white" stroke="#FF4200" stroke-width="2"/>
<path d="M24.1562 17.8125H22.75V16.4062C22.75 16.1475 22.54 15.9375 22.2812 15.9375C22.0225 15.9375 21.8125 16.1475 21.8125 16.4062V17.8125H20.4062C20.1475 17.8125 19.9375 18.0225 19.9375 18.2812C19.9375 18.54 20.1475 18.75 20.4062 18.75H21.8125V20.1562C21.8125 20.415 22.0225 20.625 22.2812 20.625C22.54 20.625 22.75 20.415 22.75 20.1562V18.75H24.1562C24.415 18.75 24.625 18.54 24.625 18.2812C24.625 18.0225 24.415 17.8125 24.1562 17.8125Z" fill="#FF4200"/>
<path d="M18.2969 12.6562C17.3922 12.6562 16.6562 13.3922 16.6562 14.2969C16.6562 14.4262 16.7613 14.5312 16.8906 14.5312C17.02 14.5312 17.125 14.4262 17.125 14.2969C17.125 13.6509 17.6509 13.125 18.2969 13.125C18.4262 13.125 18.5312 13.02 18.5312 12.8906C18.5312 12.7613 18.4262 12.6562 18.2969 12.6562Z" fill="#FF4200"/>
<path d="M25.5625 15.6356V11.2073C25.5625 10.7213 25.1978 10.32 24.7136 10.2741L22.053 10.0209L21.5336 8.46141C21.3419 7.88625 20.8056 7.5 20.1995 7.5H16.8634C16.2573 7.5 15.7211 7.88625 15.5294 8.46141L15.0095 10.0209L12.3489 10.2741C11.8647 10.32 11.5 10.7213 11.5 11.2073V18.75C11.5 19.267 11.9205 19.6875 12.4375 19.6875H18.3086C18.8898 21.3234 20.4484 22.5 22.2812 22.5C24.6072 22.5 26.5 20.6072 26.5 18.2812C26.5 17.28 26.1475 16.3598 25.5625 15.6356ZM18.0902 18.75H12.4375V11.2073L15.7056 10.8961L16.4186 8.75813C16.4823 8.56641 16.6609 8.4375 16.863 8.4375H20.1991C20.4011 8.4375 20.5802 8.56641 20.6439 8.75813L21.3569 10.8961L24.625 11.2073V14.7759C23.9542 14.3259 23.148 14.0625 22.2812 14.0625C22.1116 14.0625 21.9447 14.0756 21.7802 14.0953C21.5655 12.4917 20.1925 11.25 18.5312 11.25C16.7219 11.25 15.25 12.7219 15.25 14.5312C15.25 16.1925 16.4917 17.5655 18.0953 17.7802C18.0756 17.9447 18.0625 18.1116 18.0625 18.2812C18.0625 18.4397 18.0728 18.5958 18.0902 18.75ZM16.1875 14.5312C16.1875 13.2389 17.2389 12.1875 18.5312 12.1875C19.75 12.1875 20.7428 13.1264 20.8534 14.3166C19.6755 14.7422 18.7422 15.6755 18.3166 16.8534C17.1264 16.7428 16.1875 15.75 16.1875 14.5312ZM22.2812 21.5625C20.4719 21.5625 19 20.0906 19 18.2812C19 16.4719 20.4719 15 22.2812 15C24.0906 15 25.5625 16.4719 25.5625 18.2812C25.5625 20.0906 24.0906 21.5625 22.2812 21.5625Z" fill="#FF4200"/>
</g>
<defs>
<filter id="filter0_d" x="0" y="0" width="38" height="38" filterUnits="userSpaceOnUse" color-interpolation-filters="sRGB">
<feFlood flood-opacity="0" result="BackgroundImageFix"/>
<feColorMatrix in="SourceAlpha" type="matrix" values="0 0 0 0 0 0 0 0 0 0 0 0 0 0 0 0 0 0 127 0"/>
<feOffset dy="4"/>
<feGaussianBlur stdDeviation="2"/>
<feColorMatrix type="matrix" values="0 0 0 0 0 0 0 0 0 0 0 0 0 0 0 0 0 0 0.25 0"/>
<feBlend mode="normal" in2="BackgroundImageFix" result="effect1_dropShadow"/>
<feBlend mode="normal" in="SourceGraphic" in2="effect1_dropShadow" result="shape"/>
</filter>
</defs>
</svg>
