<svg width="20" height="18" viewBox="0 0 20 18" fill="none" xmlns="http://www.w3.org/2000/svg">
<path d="M16.2142 8.7054C18.264 6.86268 18.4319 3.70722 16.5891 1.65746C14.8991 -0.222512 12.0702 -0.541888 10.0035 0.91399C7.75062 -0.675983 4.63538 -0.138556 3.04541 2.11432C1.58647 4.18153 1.90455 7.01331 3.78573 8.70536C1.44832 9.9375 -0.0105314 12.3667 5.72535e-05 15.0089V17.1517C5.72535e-05 17.5462 0.319852 17.866 0.714352 17.866H19.2856C19.6801 17.866 19.9999 17.5462 19.9999 17.1517V15.0089C20.0105 12.3667 18.5516 9.9375 16.2142 8.7054ZM12.8571 1.43756C14.8267 1.43539 16.4252 3.03034 16.4275 5C16.429 6.40473 15.6059 7.67952 14.3249 8.25607C14.2699 8.28106 14.2149 8.30391 14.1592 8.32752C13.9829 8.39862 13.8011 8.45521 13.6157 8.49681C13.58 8.50468 13.5442 8.50895 13.5078 8.5161C13.3005 8.55582 13.0902 8.57708 12.8792 8.57968C12.7842 8.57968 12.6885 8.57252 12.5935 8.56398C12.5578 8.56398 12.522 8.56398 12.4863 8.55683C12.0804 8.50903 11.6855 8.39264 11.3185 8.21255C11.3049 8.2061 11.2892 8.20682 11.2756 8.20112C11.2042 8.16685 11.1328 8.13684 11.0692 8.09825C11.075 8.09109 11.0785 8.08327 11.0842 8.07611C11.4117 7.65524 11.67 7.18482 11.8492 6.68255L11.8713 6.62253C11.9528 6.38264 12.0161 6.13696 12.0606 5.88752C12.0671 5.85111 12.0721 5.81608 12.0778 5.77682C12.1191 5.5229 12.1408 5.26622 12.1428 5.00896C12.1407 4.75219 12.119 4.49597 12.0778 4.24251C12.0721 4.20539 12.0671 4.17107 12.0606 4.13181C12.0161 3.88241 11.9528 3.6367 11.8713 3.3968L11.8492 3.33678C11.67 2.83451 11.4117 2.36409 11.0842 1.94322C11.0785 1.93607 11.0749 1.92824 11.0692 1.92108C11.6119 1.60451 12.2288 1.43761 12.8571 1.43756ZM3.57145 5.009C3.56638 3.04168 5.15707 1.44275 7.12438 1.43769C8.04656 1.4353 8.93375 1.79067 9.59928 2.42901C9.64072 2.46902 9.68144 2.50899 9.72141 2.55042C9.84408 2.67895 9.95721 2.81622 10.06 2.96112C10.0914 3.0054 10.12 3.05256 10.1493 3.09827C10.2491 3.25191 10.3367 3.41312 10.4114 3.58041C10.4293 3.62113 10.4428 3.66256 10.4585 3.70324C10.5338 3.88827 10.5931 4.07946 10.6357 4.27466C10.6407 4.29608 10.6421 4.31751 10.6464 4.33965C10.7369 4.78316 10.7369 5.2404 10.6464 5.68391C10.6421 5.70605 10.6407 5.72748 10.6357 5.74891C10.5931 5.94411 10.5338 6.13529 10.4585 6.32032C10.4428 6.36104 10.4292 6.40247 10.4114 6.44315C10.3366 6.61019 10.249 6.77115 10.1493 6.92458C10.12 6.97029 10.0914 7.01745 10.06 7.06173C9.95725 7.20667 9.84408 7.3439 9.72141 7.47243C9.6814 7.51386 9.64068 7.55388 9.59928 7.59384C9.31008 7.86944 8.97665 8.09448 8.61287 8.25955C8.55503 8.28596 8.49643 8.31027 8.43717 8.33099C8.26499 8.39934 8.08783 8.45425 7.90719 8.49526C7.8622 8.50527 7.81574 8.51096 7.77004 8.51882C7.5761 8.55494 7.37943 8.57474 7.18218 8.57813H7.10363C6.90637 8.57478 6.70971 8.55494 6.51577 8.51882C6.47006 8.51096 6.42361 8.50527 6.37862 8.49526C6.19798 8.45425 6.02078 8.39934 5.84864 8.33099C5.78933 8.30743 5.73078 8.28315 5.67294 8.25955C4.39502 7.68257 3.57308 6.4111 3.57145 5.009ZM12.8571 16.4375H1.42861V15.0089C1.41814 12.5885 2.94316 10.4274 5.22713 9.62611C6.45324 10.1366 7.8324 10.1366 9.05855 9.62611C9.29703 9.71325 9.52943 9.81608 9.75426 9.93398C9.90284 10.0104 10.04 10.0975 10.1828 10.1854C10.2757 10.2432 10.37 10.2997 10.4593 10.3633C10.5971 10.4611 10.7271 10.5675 10.855 10.6768C10.9371 10.7483 11.0185 10.8197 11.0957 10.8911C11.2135 11.0025 11.3242 11.1204 11.4307 11.2411C11.5071 11.3283 11.5814 11.4168 11.6521 11.5083C11.7457 11.6283 11.835 11.7511 11.9178 11.8775C11.9893 11.9847 12.0528 12.0961 12.1157 12.2075C12.1871 12.3304 12.2528 12.4532 12.3128 12.5811C12.3728 12.709 12.4257 12.849 12.4771 12.9854C12.522 13.104 12.5699 13.2218 12.607 13.3425C12.6571 13.5082 12.6921 13.6796 12.727 13.8511C12.7485 13.9525 12.7763 14.0518 12.792 14.1546C12.8343 14.4374 12.8561 14.7229 12.857 15.0089V16.4375H12.8571ZM18.5714 16.4375H14.2857V15.0089C14.2857 14.7853 14.2728 14.5639 14.2528 14.3446C14.2471 14.2804 14.2371 14.2168 14.23 14.1525C14.2107 13.9946 14.1885 13.8382 14.1585 13.6832C14.1457 13.617 14.1321 13.5506 14.1178 13.4839C14.0835 13.3249 14.0438 13.1672 13.9985 13.0111C13.9835 12.9596 13.9699 12.9075 13.9542 12.8568C13.7542 12.2174 13.4644 11.6097 13.0935 11.0518L13.0657 11.0111C12.9428 10.8287 12.8116 10.6523 12.6721 10.4818L12.6671 10.4754C12.5243 10.2983 12.3692 10.1261 12.2064 9.96323C12.2157 9.96323 12.2257 9.96323 12.2357 9.96323C12.4373 9.98973 12.6402 10.004 12.8436 10.0061H12.8829C13.071 10.0045 13.2589 9.99228 13.4457 9.96968C13.5043 9.96252 13.5622 9.95181 13.6207 9.94252C13.7726 9.91921 13.9226 9.88895 14.0707 9.85182C14.1129 9.84111 14.1557 9.83111 14.1986 9.81897C14.3929 9.76611 14.5837 9.7012 14.77 9.62469C17.0556 10.4252 18.582 12.5872 18.5714 15.009V16.4375H18.5714Z" fill="#FF4200"/>
</svg>
