<svg width="18" height="18" viewBox="0 0 18 18" fill="none" xmlns="http://www.w3.org/2000/svg">
<g clip-path="url(#clip0)">
<path d="M12.6455 0.666992C12.5809 0.666992 6.3955 0.666992 6.3955 0.666992C5.29341 0.666992 4.31218 1.67794 4.31218 2.75034L3.71009 2.7644C2.60853 2.7644 1.70801 3.76126 1.70801 4.83366V15.2503C1.70801 16.3227 2.68926 17.3337 3.79135 17.3337H11.6038C12.7059 17.3337 13.6872 16.3227 13.6872 15.2503H14.208C15.3101 15.2503 16.2913 14.2394 16.2913 13.167V4.84617L12.6455 0.666992ZM11.6038 16.292H3.79135C3.24447 16.292 2.74969 15.7811 2.74969 15.2503V4.83366C2.74969 4.30294 3.19501 3.80918 3.74188 3.80918L4.31218 3.792V13.167C4.31218 14.2394 5.29341 15.2503 6.3955 15.2503H12.6455C12.6455 15.7811 12.1507 16.292 11.6038 16.292ZM15.2497 13.167C15.2497 13.6977 14.7549 14.2087 14.208 14.2087H6.3955C5.84862 14.2087 5.35384 13.6977 5.35384 13.167V2.75034C5.35384 2.21962 5.84862 1.70868 6.3955 1.70868H11.6038C11.5955 2.90816 11.6038 3.80503 11.6038 3.80503C11.6038 4.88732 12.5778 5.87534 13.6872 5.87534C13.6872 5.87534 14.2403 5.87534 15.2497 5.87534V13.167ZM13.6872 4.83366C13.1325 4.83366 12.6455 3.82586 12.6455 3.28523C12.6455 3.28523 12.6455 2.7373 12.6455 1.72481V1.72376L15.2497 4.83366H13.6872ZM12.6455 7.96805H7.95801C7.67051 7.96805 7.43718 8.20086 7.43718 8.48836C7.43718 8.77586 7.67051 9.00867 7.95801 9.00867H12.6455C12.933 9.00867 13.1663 8.77583 13.1663 8.48836C13.1663 8.20086 12.933 7.96805 12.6455 7.96805ZM12.6455 10.5696H7.95801C7.67051 10.5696 7.43718 10.8024 7.43718 11.0899C7.43718 11.3774 7.67051 11.6102 7.95801 11.6102H12.6455C12.933 11.6102 13.1663 11.3774 13.1663 11.0899C13.1663 10.8024 12.933 10.5696 12.6455 10.5696Z" fill="white"/>
</g>
<defs>
<clipPath id="clip0">
<rect width="16.6667" height="16.6667" fill="white" transform="translate(0.666016 0.666992)"/>
</clipPath>
</defs>
</svg>
