<svg width="20" height="20" viewBox="0 0 20 20" fill="none" xmlns="http://www.w3.org/2000/svg">
<path d="M2.85225 14.2947C1.27952 14.2947 0 15.5742 0 17.147C0 18.7197 1.27952 19.9992 2.85225 19.9992C4.42502 19.9992 5.70454 18.7197 5.70454 17.147C5.70458 15.5742 4.42502 14.2947 2.85225 14.2947ZM2.85225 18.8212C1.92905 18.8212 1.178 18.0702 1.178 17.147C1.178 16.2238 1.92905 15.4727 2.85225 15.4727C3.77545 15.4727 4.52654 16.2238 4.52654 17.147C4.52658 18.0702 3.77545 18.8212 2.85225 18.8212Z" fill="#FF4200"/>
<path d="M9.37526 10.6239C7.02836 8.27699 3.90799 6.9845 0.588981 6.9845C0.26371 6.9845 0 7.24821 0 7.57352V10.7502C0 11.0755 0.26371 11.3392 0.588981 11.3392C5.03935 11.3392 8.65995 14.9598 8.65995 19.4102C8.65995 19.7354 8.92366 19.9992 9.24897 19.9992H12.4257C12.7509 19.9992 13.0147 19.7354 13.0147 19.4102C13.0147 16.0912 11.7222 12.9708 9.37526 10.6239ZM9.8194 18.8212C9.52675 14.1897 5.80946 10.4724 1.178 10.1798V8.17758C3.96107 8.32015 6.55723 9.47187 8.5423 11.4569C10.5273 13.4419 11.679 16.0381 11.8216 18.8212H9.8194V18.8212Z" fill="#FF4200"/>
<path d="M18.4735 11.8545C17.4957 9.54282 16.0964 7.46717 14.3145 5.68527C12.5326 3.90329 10.457 2.50404 8.14521 1.52624C5.75074 0.513512 3.20845 0 0.589019 0C0.263748 0 0 0.263709 0 0.589019V3.76572C0 4.09099 0.263709 4.35473 0.589019 4.35473C8.89094 4.35473 15.6451 11.1089 15.6451 19.4108C15.6451 19.7361 15.9088 19.9998 16.2341 19.9998H19.4108C19.7361 19.9998 19.9998 19.7361 19.9998 19.4108C19.9998 16.7913 19.4863 14.249 18.4735 11.8545ZM16.8125 18.8217C16.5083 10.3376 9.66207 3.49138 1.178 3.1872V1.18722C3.43103 1.25808 5.61757 1.73624 7.68631 2.61123C9.85762 3.52962 11.8074 4.84414 13.4815 6.51827C15.1556 8.19232 16.4701 10.1421 17.3885 12.3134C18.2635 14.3821 18.7416 16.5687 18.8125 18.8217H16.8125V18.8217Z" fill="#FF4200"/>
</svg>
