<svg width="20" height="20" viewBox="0 0 20 20" fill="none" xmlns="http://www.w3.org/2000/svg">
<path d="M2.85225 14.2947C1.27952 14.2947 0 15.5742 0 17.147C0 18.7197 1.27952 19.9992 2.85225 19.9992C4.42502 19.9992 5.70454 18.7197 5.70454 17.147C5.70458 15.5742 4.42502 14.2947 2.85225 14.2947ZM2.85225 18.8212C1.92905 18.8212 1.178 18.0702 1.178 17.147C1.178 16.2238 1.92905 15.4727 2.85225 15.4727C3.77545 15.4727 4.52654 16.2238 4.52654 17.147C4.52658 18.0702 3.77545 18.8212 2.85225 18.8212Z" fill="white"/>
<path d="M9.37551 10.6239C7.02861 8.27699 3.90823 6.9845 0.589225 6.9845C0.263954 6.9845 0.000244141 7.24821 0.000244141 7.57352V10.7502C0.000244141 11.0755 0.263954 11.3392 0.589225 11.3392C5.03959 11.3392 8.6602 14.9598 8.6602 19.4102C8.6602 19.7354 8.92391 19.9992 9.24922 19.9992H12.4259C12.7512 19.9992 13.0149 19.7354 13.0149 19.4102C13.0149 16.0912 11.7224 12.9708 9.37551 10.6239ZM9.81965 18.8212C9.52699 14.1897 5.80971 10.4724 1.17825 10.1798V8.17758C3.96132 8.32015 6.55747 9.47187 8.54254 11.4569C10.5276 13.4419 11.6792 16.0381 11.8218 18.8212H9.81965V18.8212Z" fill="white"/>
<path d="M18.4737 11.8545C17.496 9.54282 16.0967 7.46717 14.3147 5.68527C12.5328 3.90329 10.4572 2.50404 8.14545 1.52624C5.75098 0.513512 3.20869 0 0.589263 0C0.263992 0 0.000244141 0.263709 0.000244141 0.589019V3.76572C0.000244141 4.09099 0.263953 4.35473 0.589263 4.35473C8.89119 4.35473 15.6453 11.1089 15.6453 19.4108C15.6453 19.7361 15.909 19.9998 16.2343 19.9998H19.411C19.7363 19.9998 20 19.7361 20.0001 19.4108C20 16.7913 19.4865 14.249 18.4737 11.8545ZM16.8128 18.8217C16.5086 10.3376 9.66232 3.49138 1.17824 3.1872V1.18722C3.43127 1.25808 5.61782 1.73624 7.68655 2.61123C9.85786 3.52962 11.8076 4.84414 13.4817 6.51827C15.1559 8.19232 16.4704 10.1421 17.3888 12.3134C18.2638 14.3821 18.7419 16.5687 18.8127 18.8217H16.8128V18.8217Z" fill="white"/>
</svg>
