<svg width="25" height="24" viewBox="0 0 25 24" fill="none" xmlns="http://www.w3.org/2000/svg">
<path d="M18.8179 14.4809C18.6143 14.4809 18.4268 14.3488 18.3586 14.1571C18.2914 13.968 18.3483 13.7505 18.502 13.6205C18.6622 13.4849 18.8972 13.468 19.0755 13.5783C19.2464 13.684 19.3362 13.8907 19.2969 14.0879C19.2519 14.3131 19.0478 14.4809 18.8179 14.4809V14.4809Z" fill="#FF4200"/>
<path d="M23.5692 4.26953H18.2657C18.8286 3.69004 19.1756 2.89985 19.1756 2.03013V0.488281C19.1756 0.218604 18.957 0 18.6874 0H15.2292C14.0794 0 13.0687 0.606494 12.5 1.51636C11.9313 0.606494 10.9206 0 9.7708 0H6.31265C6.04297 0 5.82437 0.218604 5.82437 0.488281V2.03013C5.82437 2.89985 6.17144 3.69009 6.73433 4.26953H1.43071C0.641846 4.26953 0 4.91133 0 5.70024V9.00962C0 9.2793 0.218604 9.4979 0.488281 9.4979H1.22373V22.0527C1.22373 23.0298 2.01865 23.8247 2.99575 23.8247H22.0042C22.9813 23.8247 23.7762 23.0298 23.7762 22.0527V9.4979H24.5117C24.7813 9.4979 25 9.2793 25 9.00962V5.70024C25 4.91133 24.3582 4.26953 23.5692 4.26953V4.26953ZM12.9898 3.21597C12.9898 1.98115 13.9944 0.976562 15.2292 0.976562H18.199V2.03013C18.199 3.26494 17.1944 4.26953 15.9596 4.26953H12.9898V3.21597ZM13.7096 13.5037H11.2904V9.4979H13.7096V13.5037ZM14.5273 8.52134H10.4728V5.24604H14.5273V8.52134ZM6.80093 2.03008V0.976562H9.7708C11.0056 0.976562 12.0102 1.98115 12.0102 3.21597V4.26953H9.04033C7.80552 4.26953 6.80093 3.26489 6.80093 2.03008V2.03008ZM0.976562 5.70024C0.976562 5.4498 1.18027 5.24609 1.43071 5.24609H9.49619V8.52139H0.976562V5.70024ZM10.3138 9.4979V13.5037H2.20029V9.4979H10.3138ZM2.20029 22.0527V17.8938H10.3138V22.8481H2.99575C2.55713 22.8481 2.20029 22.4913 2.20029 22.0527ZM13.7096 22.8351H11.2904V17.8938H13.7096V22.8351ZM22.0042 22.8481H14.6862V17.8938H22.7997V22.0527C22.7997 22.4913 22.4429 22.8481 22.0042 22.8481V22.8481ZM22.7997 13.5037H21.0344C20.7647 13.5037 20.5461 13.7223 20.5461 13.9919C20.5461 14.2616 20.7647 14.4802 21.0344 14.4802H22.7997V16.9172H2.20029V14.4802H16.6196C16.8893 14.4802 17.1079 14.2616 17.1079 13.9919C17.1079 13.7223 16.8893 13.5037 16.6196 13.5037H14.6862V9.4979H22.7997V13.5037H22.7997ZM24.0234 8.52134H15.5039V5.24604H23.5693C23.8197 5.24604 24.0235 5.44976 24.0235 5.70019V8.52134H24.0234Z" fill="#FF4200"/>
</svg>
