<svg width="30" height="30" viewBox="0 0 30 30" fill="none" xmlns="http://www.w3.org/2000/svg">
<g clip-path="url(#clip0)">
<path d="M14.9987 0.000640869C6.71504 0.000640869 0 6.71568 0 14.9994C0 23.2831 6.71504 29.9981 14.9987 29.9981C23.2824 29.9981 29.9975 23.2831 29.9975 14.9994C29.9975 6.71568 23.2824 0.000640869 14.9987 0.000640869ZM14.9987 22.7125C10.7391 22.7125 7.28628 19.2597 7.28628 14.9994C7.28628 10.7404 10.7385 7.28692 14.9987 7.28692C19.259 7.28692 22.7112 10.7397 22.7112 14.9994C22.7112 19.259 19.2584 22.7125 14.9987 22.7125Z" fill="white"/>
<path d="M14.9987 3.53531C8.6674 3.53531 3.53473 8.66798 3.53473 14.9993C3.53473 21.3313 8.6674 26.4633 14.9987 26.4633C21.3301 26.4633 26.4628 21.3313 26.4628 14.9993C26.4628 8.66804 21.3301 3.53531 14.9987 3.53531ZM14.9987 22.7125C10.7391 22.7125 7.28629 19.2597 7.28629 14.9994C7.28629 10.7404 10.7385 7.28693 14.9987 7.28693C19.259 7.28693 22.7112 10.7397 22.7112 14.9994C22.7112 19.259 19.2584 22.7125 14.9987 22.7125Z" fill="white"/>
<path d="M10.1703 4.61276C10.5597 5.81202 10.9496 7.01068 11.339 8.20994C12.4277 7.62188 13.6738 7.28628 14.9981 7.28628C16.3223 7.28628 17.5685 7.62124 18.6578 8.20994C19.0471 7.01068 19.4358 5.81202 19.8264 4.61276C18.3566 3.9278 16.7248 3.53473 14.9975 3.53473C13.2702 3.53473 11.6396 3.9278 10.1703 4.61276Z" fill="#FF6732"/>
<path d="M20.9258 1.21986C20.5633 2.35162 20.1946 3.48216 19.8259 4.61397C18.3567 3.92591 16.7256 3.53283 15.0007 3.53283C13.2696 3.53283 11.6385 3.92655 10.1699 4.61397C9.80741 3.48221 9.43871 2.35168 9.07001 1.22678C10.8886 0.4387 12.8947 0.00186157 15.0008 0.00186157C17.1069 0.00186157 19.1134 0.432431 20.9258 1.21986Z" fill="#FF4100"/>
<path d="M19.8277 25.3854C19.4384 24.1861 19.0478 22.9874 18.6584 21.7882C17.5698 22.3762 16.3236 22.7118 14.9994 22.7118C13.6752 22.7118 12.429 22.3769 11.3403 21.7882C10.951 22.9874 10.5616 24.1861 10.1711 25.3854C11.641 26.0703 13.2727 26.4634 15 26.4634C16.7273 26.4634 18.3578 26.0703 19.8277 25.3854Z" fill="#FF6732"/>
<path d="M20.9258 28.7801C19.1134 29.5675 17.1074 29.9994 15.0013 29.9994C12.8952 29.9994 10.8891 29.5613 9.0705 28.7739C9.43919 27.6427 9.80795 26.5122 10.1704 25.3867C11.6396 26.0679 13.2707 26.4622 15.0012 26.4622C16.7261 26.4622 18.3572 26.0678 19.8264 25.3867C20.1952 26.5184 20.5633 27.649 20.9258 28.7801Z" fill="#FF4100"/>
<path d="M25.3853 10.1704C24.1861 10.5597 22.9874 10.9497 21.7881 11.3391C22.3756 12.4283 22.7118 13.6745 22.7118 14.9987C22.7118 16.323 22.3762 17.5692 21.7881 18.6578C22.9874 19.0471 24.1861 19.4365 25.3853 19.8265C26.0697 18.3572 26.4627 16.7255 26.4627 14.9981C26.4627 13.2714 26.0697 11.6403 25.3853 10.1704Z" fill="#FF6732"/>
<path d="M30 15C30 17.106 29.5694 19.1121 28.7813 20.9245C27.6502 20.562 26.519 20.1933 25.3879 19.8246C26.0691 18.3553 26.4628 16.7248 26.4628 14.9994C26.4628 13.2682 26.0691 11.6371 25.3879 10.1691C26.5128 9.80664 27.6439 9.43794 28.7751 9.06924C29.5625 10.8884 30 12.8945 30 15Z" fill="#FF4100"/>
<path d="M4.61212 19.8277C5.81137 19.4384 7.01004 19.0484 8.20994 18.659C7.62188 17.5697 7.28628 16.3236 7.28628 14.9993C7.28628 13.6757 7.62124 12.4296 8.20994 11.3403C7.01004 10.9509 5.81137 10.5616 4.61212 10.1716C3.9278 11.6408 3.53473 13.2726 3.53473 15C3.53473 16.7267 3.9278 18.3578 4.61212 19.8277Z" fill="#FF6732"/>
<path d="M3.53345 15C3.53345 16.7255 3.92717 18.3559 4.614 19.8252C3.48283 20.1939 2.35171 20.5626 1.22054 20.9251C0.432461 19.1127 0.00189209 17.1067 0.00189209 15.0006C0.00189209 12.8951 0.439375 10.889 1.22681 9.07043C2.35798 9.43913 3.48289 9.80789 4.614 10.1703C3.92717 11.6378 3.53345 13.2689 3.53345 15Z" fill="#FF4100"/>
</g>
<defs>
<clipPath id="clip0">
<rect width="30" height="30" fill="white"/>
</clipPath>
</defs>
</svg>
