<svg width="20" height="20" viewBox="0 0 20 20" fill="none" xmlns="http://www.w3.org/2000/svg">
<path d="M17.5306 2.46941C15.9383 0.876992 13.821 0 11.569 0C9.31699 0 7.19977 0.876992 5.60738 2.46937C4.015 4.06176 3.13805 6.17898 3.13805 8.43098C3.13805 10.056 3.59484 11.6107 4.44738 12.9488L0.539297 16.8569C0.191523 17.2046 0 17.667 0 18.1588C0 18.6506 0.191523 19.113 0.539297 19.4607C0.898203 19.8197 1.36961 19.9991 1.84113 19.9991C2.31254 19.9991 2.78414 19.8196 3.14309 19.4607L7.05117 15.5526C8.38926 16.4051 9.94398 16.8619 11.569 16.8619C13.821 16.8619 15.9383 15.9849 17.5306 14.3925C19.123 12.8002 20 10.683 20 8.43098C20 6.17898 19.123 4.0618 17.5306 2.46941ZM2.31449 18.632C2.05352 18.893 1.62887 18.893 1.36789 18.6321C1.24148 18.5057 1.17188 18.3376 1.17188 18.1588C1.17188 17.98 1.24148 17.812 1.36793 17.6855L5.15281 13.9006C5.29723 14.0695 5.44859 14.2338 5.60742 14.3925C5.76625 14.5514 5.93051 14.7027 6.09937 14.8471L2.31449 18.632ZM11.569 15.69C7.56633 15.69 4.30988 12.4336 4.30988 8.43098C4.30988 4.42828 7.56629 1.17188 11.569 1.17188C15.5717 1.17188 18.8281 4.42828 18.8281 8.43098C18.8281 12.4336 15.5717 15.69 11.569 15.69Z" fill="white"/>
<path d="M11.569 2.51044C8.30441 2.51044 5.64844 5.16637 5.64844 8.43098C5.64844 11.6956 8.30441 14.3515 11.569 14.3515C14.8337 14.3515 17.4896 11.6956 17.4896 8.43098C17.4896 5.16637 14.8337 2.51044 11.569 2.51044ZM11.569 13.1797C8.95059 13.1797 6.82031 11.0494 6.82031 8.43102C6.82031 5.81262 8.95059 3.68231 11.569 3.68231C14.1875 3.68231 16.3178 5.81259 16.3178 8.43098C16.3178 11.0494 14.1875 13.1797 11.569 13.1797Z" fill="white"/>
</svg>
