<svg width="20" height="20" viewBox="0 0 20 20" fill="none" xmlns="http://www.w3.org/2000/svg">
<g clip-path="url(#clip0)">
<path d="M19.4598 14.346C18.928 13.8142 18.1492 13.6765 17.4894 13.9329V7.27971C17.4894 6.26487 16.6637 5.43921 15.6476 5.43921C14.6328 5.43921 13.8072 6.26483 13.8072 7.27971V13.9321C13.3138 13.7397 12.481 13.7011 11.8362 14.346C11.8316 14.3506 11.8271 14.3552 11.8227 14.3599C11.1156 15.0807 11.1207 16.2356 11.8358 16.9501C11.8358 16.9501 13.3392 18.4539 14.346 19.4603C14.6935 19.8083 15.1559 19.9999 15.648 19.9999C16.1401 19.9999 16.6025 19.8083 16.9496 19.4606C17.9567 18.4539 19.4602 16.9501 19.46 16.9503C20.1762 16.2344 20.1793 15.0797 19.4733 14.3599C19.4688 14.3552 19.4644 14.3506 19.4598 14.346ZM18.6314 16.1215C18.6314 16.1215 17.1281 17.6252 16.1208 18.6322C15.9946 18.7585 15.8267 18.8281 15.6479 18.8281C15.4692 18.8281 15.3012 18.7585 15.1748 18.6319C14.1679 17.6252 12.6645 16.1215 12.6643 16.1213C12.4026 15.8599 12.4025 15.437 12.6643 15.1754C12.6672 15.1725 12.6702 15.1695 12.6731 15.1665C12.9343 14.914 13.3513 14.9157 13.6103 15.1747L13.9788 15.5431C14.1464 15.7107 14.3985 15.7608 14.6173 15.6701C14.8363 15.5794 14.979 15.3657 14.979 15.1287V7.27971C14.979 6.91104 15.279 6.61108 15.6489 6.61108C16.0176 6.61108 16.3175 6.91104 16.3175 7.27971V15.1281C16.3175 15.3651 16.4603 15.5787 16.6792 15.6694C16.8981 15.7601 17.1502 15.71 17.3178 15.5424L17.6856 15.1747C17.9436 14.9167 18.3616 14.914 18.6229 15.1665C18.6258 15.1696 18.6287 15.1725 18.6316 15.1754C18.8933 15.437 18.8933 15.8598 18.6314 16.1215Z" fill="white"/>
<path d="M1.84051 3.6823H18.1595C19.1743 3.6823 20 2.85664 20 1.8418C20 0.825664 19.1743 0 18.1595 0H1.84051C0.825664 0 0 0.825664 0 1.84176C0 2.85664 0.825664 3.6823 1.84051 3.6823ZM1.84051 1.17188H18.1595C18.5282 1.17188 18.8281 1.47184 18.8281 1.84051C18.8281 2.21047 18.5282 2.51039 18.1595 2.51039H1.84051C1.47184 2.51043 1.17188 2.21047 1.17188 1.84051C1.17188 1.47184 1.47184 1.17188 1.84051 1.17188Z" fill="white"/>
<path d="M8.11777 10.8785H1.84051C0.825664 10.8785 0 11.7041 0 12.7203C0 13.7351 0.825664 14.5608 1.84051 14.5608H8.11777C9.13262 14.5608 9.95828 13.7352 9.95828 12.7203C9.95832 11.7041 9.13266 10.8785 8.11777 10.8785ZM8.11777 13.3889H1.84051C1.47184 13.3889 1.17188 13.0889 1.17188 12.719C1.17188 12.3503 1.47184 12.0504 1.84051 12.0504H8.11777C8.48645 12.0504 8.78641 12.3503 8.78641 12.719C8.78645 13.0889 8.48648 13.3889 8.11777 13.3889Z" fill="white"/>
<path d="M10.6282 5.43927H1.84051C0.825664 5.43927 0 6.2649 0 7.28103C0 8.29587 0.825664 9.12154 1.84051 9.12154H10.6282C11.643 9.12154 12.4687 8.29591 12.4687 7.28103C12.4687 6.2649 11.6431 5.43927 10.6282 5.43927ZM10.6282 7.94966H1.84051C1.47184 7.94966 1.17188 7.6497 1.17188 7.27978C1.17188 6.91111 1.47184 6.61115 1.84051 6.61115H10.6282C10.9969 6.61115 11.2968 6.91111 11.2968 7.27978C11.2968 7.6497 10.9969 7.94966 10.6282 7.94966Z" fill="white"/>
<path d="M8.11777 16.3177H1.84051C0.825664 16.3177 0 17.1434 0 18.1595C0 19.1744 0.825664 20 1.84051 20H8.11777C9.13262 20 9.95828 19.1744 9.95828 18.1595C9.95832 17.1434 9.13266 16.3177 8.11777 16.3177ZM8.11777 18.8281H1.84051C1.47184 18.8281 1.17188 18.5282 1.17188 18.1583C1.17188 17.7896 1.47184 17.4896 1.84051 17.4896H8.11777C8.48645 17.4896 8.78641 17.7896 8.78641 18.1583C8.78645 18.5282 8.48648 18.8281 8.11777 18.8281Z" fill="white"/>
</g>
<defs>
<clipPath id="clip0">
<rect width="20" height="20" fill="white"/>
</clipPath>
</defs>
</svg>
