<svg width="45" height="45" viewBox="0 0 45 45" fill="none" xmlns="http://www.w3.org/2000/svg">
<circle cx="22.0498" cy="22.9502" r="15.75" fill="white"/>
<path d="M41.6073 34.385C43.7568 30.9362 45 26.8636 45 22.4991C45 10.0719 34.9272 0 22.5 0C10.0728 0 0 10.0719 0 22.4991C0 34.9299 10.0728 45 22.5 45C26.8646 45 30.938 43.7563 34.3876 41.6058L44.2494 44.2477L41.6073 34.385ZM22.5 10.4931C24.0597 10.4931 25.3251 11.7576 25.3251 13.3182C25.3251 14.8779 24.0606 16.1432 22.5 16.1432C20.9394 16.1432 19.6749 14.8787 19.6749 13.3182C19.6749 11.7576 20.9403 10.4931 22.5 10.4931ZM27.4437 34.5078H17.5563V30.2697H19.6749V21.7944H17.5563V17.5572H25.3252V21.7944V30.2697H27.4438L27.4437 34.5078Z" fill="#0085FF"/>
</svg>
