<svg width="30" height="30" viewBox="0 0 30 30" fill="none" xmlns="http://www.w3.org/2000/svg">
<path d="M27.7382 22.9233C29.1712 20.6241 30 17.9091 30 14.9994C30 6.71461 23.2848 0 15 0C6.7152 0 0 6.71461 0 14.9994C0 23.2866 6.7152 30 15 30C17.9097 30 20.6254 29.1709 22.925 27.7372L29.4996 29.4984L27.7382 22.9233ZM15 6.99539C16.0398 6.99539 16.8834 7.83838 16.8834 8.87877C16.8834 9.91857 16.0404 10.7621 15 10.7621C13.9596 10.7621 13.1166 9.91916 13.1166 8.87877C13.1166 7.83838 13.9602 6.99539 15 6.99539ZM18.2958 23.0052H11.7042V20.1798H13.1166V14.5296H11.7042V11.7048H16.8834V14.5296V20.1798H18.2958V23.0052H18.2958Z" fill="white"/>
</svg>
