<svg width="30" height="30" viewBox="0 0 30 30" fill="none" xmlns="http://www.w3.org/2000/svg">
<path d="M10.6019 5.57031H12.3611V7.32812H10.6019V5.57031Z" fill="#FF4200"/>
<path d="M14.1204 5.57031H15.8796V7.32812H14.1204V5.57031Z" fill="#FF4200"/>
<path d="M17.6389 5.57031H19.3981V7.32812H17.6389V5.57031Z" fill="#FF4200"/>
<path d="M25.0156 12.8994V0H4.98444V12.8994H12.2319L13.4187 14.383C11.8791 15.0095 10.7904 16.5212 10.7904 18.2832C10.7904 19.5255 11.3317 20.6435 12.1905 21.4147C10.2065 22.4371 8.84652 24.5069 8.84652 26.8883V29.9999L21.1534 30V26.8884C21.1534 24.5069 19.7935 22.4372 17.8095 21.4147C18.6682 20.6435 19.2095 19.5256 19.2095 18.2833C19.2095 16.5212 18.1208 15.0095 16.5812 14.383L17.768 12.8995H25.0156V12.8994ZM19.3957 26.8884V28.2422L10.6044 28.2421V26.8883C10.6044 24.4646 12.5762 22.4927 15 22.4927C17.4238 22.4927 19.3957 24.4646 19.3957 26.8884ZM17.4517 18.2832C17.4517 19.6351 16.3518 20.7349 15 20.7349C13.6481 20.7349 12.5482 19.6351 12.5482 18.2832C12.5482 16.9313 13.6481 15.8315 15 15.8315C16.3518 15.8315 17.4517 16.9313 17.4517 18.2832ZM15 13.5457L13.0767 11.1417H6.74225V1.75781H23.2577V11.1416H16.9232L15 13.5457Z" fill="#FF4200"/>
</svg>
