<svg width="30" height="30" viewBox="0 0 30 30" fill="none" xmlns="http://www.w3.org/2000/svg">
<path fill-rule="evenodd" clip-rule="evenodd" d="M25.2355 0H4.76375C2.13702 0 0 2.13709 0 4.76391V25.2363C0 27.8632 2.13702 29.9999 4.76375 29.9999H25.2355C27.8625 29.9999 29.999 27.8632 29.999 25.2363V4.76391C29.999 2.13709 27.8625 0 25.2355 0V0Z" fill="#FF0000"/>
<path fill-rule="evenodd" clip-rule="evenodd" d="M1.39771 28.603C2.26029 29.4657 3.45123 30 4.76462 30H25.2362C27.8629 30 29.9999 27.8627 29.9999 25.2358V4.76388C29.9999 3.4505 29.4657 2.2594 28.6031 1.39673L1.39771 28.603Z" fill="#FF0000"/>
<path fill-rule="evenodd" clip-rule="evenodd" d="M6.94406 23.9943H18.82C19.3374 23.9943 19.7573 23.5747 19.7573 23.0568V19.496C19.7573 18.978 19.3375 18.5585 18.82 18.5585C18.3021 18.5585 17.8825 18.9781 17.8825 19.496V22.1192H7.88153V7.88081H17.8825V10.5041C17.8825 11.022 18.3021 11.4418 18.82 11.4418C19.3374 11.4418 19.7573 11.022 19.7573 10.5041V6.94354C19.7573 6.42557 19.3375 6.00604 18.82 6.00604H6.94406C6.42611 6.00604 6.00659 6.42563 6.00659 6.94354V23.0567C6.00653 23.5747 6.42611 23.9943 6.94406 23.9943ZM20.0745 17.9824C19.7083 17.6162 19.7083 17.0228 20.0745 16.6566L20.7934 15.9377H13.467C12.9497 15.9377 12.5296 15.5179 12.5296 15.0002C12.5296 14.4825 12.9497 14.0627 13.467 14.0627H20.7934L20.0746 13.3435C19.7084 12.9775 19.7084 12.3839 20.0746 12.0179C20.4408 11.6517 21.0342 11.6517 21.4004 12.0179L23.7195 14.3374C24.0857 14.7034 24.0857 15.2971 23.7195 15.663L21.4004 17.9824C21.2169 18.1654 20.9775 18.2575 20.7376 18.2575C20.4974 18.2575 20.2578 18.1654 20.0745 17.9824Z" fill="white"/>
</svg>
