<svg width="137" height="40" viewBox="0 0 137 40" fill="none" xmlns="http://www.w3.org/2000/svg">
<path d="M7 0H22L15 40H0L7 0Z" fill="#77B5EE"/>
<path d="M27 0H42L35 40H20L27 0Z" fill="#4A9CE8"/>
<path d="M47 0H62L55 40H40L47 0Z" fill="#1D83E2"/>
<path d="M72.05 9.52H76.1L72.95 27.16H82.07L81.38 31H68.24L72.05 9.52ZM93.1154 15.82C94.1754 15.82 95.1354 16 95.9954 16.36C96.8754 16.72 97.6154 17.21 98.2154 17.83C98.8354 18.45 99.3054 19.18 99.6254 20.02C99.9654 20.84 100.135 21.72 100.135 22.66C100.135 23.9 99.9154 25.06 99.4754 26.14C99.0354 27.22 98.4154 28.16 97.6154 28.96C96.8354 29.74 95.8954 30.36 94.7954 30.82C93.6954 31.26 92.4954 31.48 91.1954 31.48C90.1354 31.48 89.1654 31.3 88.2854 30.94C87.4254 30.58 86.6854 30.09 86.0654 29.47C85.4654 28.85 84.9954 28.13 84.6554 27.31C84.3354 26.47 84.1754 25.57 84.1754 24.61C84.1754 23.37 84.3954 22.22 84.8354 21.16C85.2754 20.08 85.8854 19.15 86.6654 18.37C87.4654 17.57 88.4154 16.95 89.5154 16.51C90.6154 16.05 91.8154 15.82 93.1154 15.82ZM91.5854 27.85C92.2454 27.85 92.8554 27.73 93.4154 27.49C93.9754 27.23 94.4654 26.88 94.8854 26.44C95.3054 26 95.6254 25.5 95.8454 24.94C96.0854 24.36 96.2054 23.74 96.2054 23.08C96.2054 22.56 96.1154 22.08 95.9354 21.64C95.7554 21.18 95.5054 20.79 95.1854 20.47C94.8854 20.15 94.5154 19.9 94.0754 19.72C93.6554 19.54 93.2054 19.45 92.7254 19.45C92.0654 19.45 91.4554 19.58 90.8954 19.84C90.3354 20.08 89.8454 20.42 89.4254 20.86C89.0054 21.3 88.6754 21.81 88.4354 22.39C88.2154 22.95 88.1054 23.56 88.1054 24.22C88.1054 24.74 88.1954 25.23 88.3754 25.69C88.5554 26.13 88.8054 26.51 89.1254 26.83C89.4454 27.15 89.8154 27.4 90.2354 27.58C90.6554 27.76 91.1054 27.85 91.5854 27.85ZM107.581 37.96C106.601 37.96 105.731 37.83 104.971 37.57C104.211 37.31 103.551 36.97 102.991 36.55C102.451 36.13 102.011 35.65 101.671 35.11C101.331 34.57 101.091 34.03 100.951 33.49L104.791 32.08C104.951 32.86 105.301 33.45 105.841 33.85C106.401 34.27 107.081 34.48 107.881 34.48C110.521 34.48 112.101 33.09 112.621 30.31L112.831 29.08H112.591C112.151 29.74 111.541 30.25 110.761 30.61C109.981 30.97 109.101 31.15 108.121 31.15C107.261 31.15 106.461 30.99 105.721 30.67C104.981 30.35 104.341 29.9 103.801 29.32C103.261 28.74 102.831 28.04 102.511 27.22C102.211 26.38 102.061 25.45 102.061 24.43C102.061 23.39 102.241 22.36 102.601 21.34C102.981 20.3 103.521 19.37 104.221 18.55C104.921 17.73 105.771 17.07 106.771 16.57C107.791 16.07 108.951 15.82 110.251 15.82C111.251 15.82 112.121 16.01 112.861 16.39C113.601 16.75 114.171 17.25 114.571 17.89H114.811L115.081 16.3H118.861L116.311 30.73C115.891 33.11 114.941 34.91 113.461 36.13C112.001 37.35 110.041 37.96 107.581 37.96ZM109.381 27.61C109.981 27.61 110.551 27.49 111.091 27.25C111.631 27.01 112.101 26.67 112.501 26.23C112.921 25.79 113.251 25.28 113.491 24.7C113.751 24.1 113.881 23.44 113.881 22.72C113.881 22.18 113.781 21.7 113.581 21.28C113.401 20.86 113.151 20.51 112.831 20.23C112.531 19.95 112.171 19.74 111.751 19.6C111.351 19.46 110.941 19.39 110.521 19.39C109.861 19.39 109.251 19.53 108.691 19.81C108.131 20.07 107.651 20.42 107.251 20.86C106.851 21.3 106.541 21.81 106.321 22.39C106.101 22.95 105.991 23.54 105.991 24.16C105.991 25.3 106.321 26.16 106.981 26.74C107.641 27.32 108.441 27.61 109.381 27.61ZM128.154 15.82C129.214 15.82 130.174 16 131.034 16.36C131.914 16.72 132.654 17.21 133.254 17.83C133.874 18.45 134.344 19.18 134.664 20.02C135.004 20.84 135.174 21.72 135.174 22.66C135.174 23.9 134.954 25.06 134.514 26.14C134.074 27.22 133.454 28.16 132.654 28.96C131.874 29.74 130.934 30.36 129.834 30.82C128.734 31.26 127.534 31.48 126.234 31.48C125.174 31.48 124.204 31.3 123.324 30.94C122.464 30.58 121.724 30.09 121.104 29.47C120.504 28.85 120.034 28.13 119.694 27.31C119.374 26.47 119.214 25.57 119.214 24.61C119.214 23.37 119.434 22.22 119.874 21.16C120.314 20.08 120.924 19.15 121.704 18.37C122.504 17.57 123.454 16.95 124.554 16.51C125.654 16.05 126.854 15.82 128.154 15.82ZM126.624 27.85C127.284 27.85 127.894 27.73 128.454 27.49C129.014 27.23 129.504 26.88 129.924 26.44C130.344 26 130.664 25.5 130.884 24.94C131.124 24.36 131.244 23.74 131.244 23.08C131.244 22.56 131.154 22.08 130.974 21.64C130.794 21.18 130.544 20.79 130.224 20.47C129.924 20.15 129.554 19.9 129.114 19.72C128.694 19.54 128.244 19.45 127.764 19.45C127.104 19.45 126.494 19.58 125.934 19.84C125.374 20.08 124.884 20.42 124.464 20.86C124.044 21.3 123.714 21.81 123.474 22.39C123.254 22.95 123.144 23.56 123.144 24.22C123.144 24.74 123.234 25.23 123.414 25.69C123.594 26.13 123.844 26.51 124.164 26.83C124.484 27.15 124.854 27.4 125.274 27.58C125.694 27.76 126.144 27.85 126.624 27.85Z" fill="#373737"/>
</svg>
