<svg width="25" height="25" viewBox="0 0 25 25" fill="none" xmlns="http://www.w3.org/2000/svg">
<g clip-path="url(#clip0)">
<path d="M18.8179 15.0673C18.6143 15.0673 18.4268 14.9352 18.3586 14.7435C18.2914 14.5544 18.3483 14.3369 18.502 14.2069C18.6622 14.0713 18.8972 14.0545 19.0755 14.1647C19.2464 14.2704 19.3362 14.4772 19.2969 14.6743C19.2519 14.8995 19.0478 15.0673 18.8179 15.0673Z" fill="#FF5151"/>
<path d="M23.5692 4.85693H18.2657C18.8286 4.27744 19.1756 3.48726 19.1756 2.61753V1.07568C19.1756 0.806006 18.957 0.587402 18.6874 0.587402H15.2292C14.0794 0.587402 13.0687 1.1939 12.5 2.10376C11.9313 1.1939 10.9206 0.587402 9.7708 0.587402H6.31265C6.04297 0.587402 5.82437 0.806006 5.82437 1.07568V2.61753C5.82437 3.48726 6.17144 4.27749 6.73433 4.85693H1.43071C0.641846 4.85693 0 5.49873 0 6.28765V9.59702C0 9.8667 0.218604 10.0853 0.488281 10.0853H1.22373V22.6401C1.22373 23.6172 2.01865 24.4121 2.99575 24.4121H22.0042C22.9813 24.4121 23.7762 23.6172 23.7762 22.6401V10.0853H24.5117C24.7813 10.0853 25 9.8667 25 9.59702V6.28765C25 5.49873 24.3582 4.85693 23.5692 4.85693ZM12.9898 3.80337C12.9898 2.56855 13.9944 1.56396 15.2292 1.56396H18.199V2.61753C18.199 3.85234 17.1944 4.85693 15.9596 4.85693H12.9898V3.80337ZM13.7096 14.0911H11.2904V10.0853H13.7096V14.0911ZM14.5273 9.10874H10.4728V5.83345H14.5273V9.10874ZM6.80093 2.61748V1.56396H9.7708C11.0056 1.56396 12.0102 2.56855 12.0102 3.80337V4.85693H9.04033C7.80552 4.85693 6.80093 3.85229 6.80093 2.61748ZM0.976562 6.28765C0.976562 6.03721 1.18027 5.8335 1.43071 5.8335H9.49619V9.10879H0.976562V6.28765ZM10.3138 10.0853V14.0911H2.20029V10.0853H10.3138ZM2.20029 22.6401V18.4812H10.3138V23.4355H2.99575C2.55713 23.4355 2.20029 23.0787 2.20029 22.6401ZM13.7096 23.4225H11.2904V18.4812H13.7096V23.4225ZM22.0042 23.4355H14.6862V18.4812H22.7997V22.6401C22.7997 23.0787 22.4429 23.4355 22.0042 23.4355ZM22.7997 14.0911H21.0344C20.7647 14.0911 20.5461 14.3097 20.5461 14.5793C20.5461 14.849 20.7647 15.0676 21.0344 15.0676H22.7997V17.5046H2.20029V15.0676H16.6196C16.8893 15.0676 17.1079 14.849 17.1079 14.5793C17.1079 14.3097 16.8893 14.0911 16.6196 14.0911H14.6862V10.0853H22.7997V14.0911H22.7997ZM24.0234 9.10874H15.5039V5.83345H23.5693C23.8197 5.83345 24.0235 6.03716 24.0235 6.2876V9.10874H24.0234Z" fill="#FF5151"/>
</g>
<defs>
<clipPath id="clip0">
<rect width="25" height="25" fill="white"/>
</clipPath>
</defs>
</svg>
