<svg width="25" height="25" viewBox="0 0 25 25" fill="none" xmlns="http://www.w3.org/2000/svg">
<g clip-path="url(#clip0)">
<path d="M24.5571 10.7104C24.2979 10.319 23.905 10.0493 23.4482 9.9471C23.7429 9.38348 23.7308 8.68024 23.3555 8.11357C23.0884 7.71016 22.6856 7.44962 22.2471 7.35101C22.3253 7.20186 22.3831 7.04087 22.4176 6.87112C22.5134 6.39905 22.4199 5.91802 22.1538 5.51652C21.8946 5.12494 21.5017 4.85524 21.0449 4.7532C21.3396 4.18958 21.3276 3.48634 20.9522 2.91948C20.4035 2.09073 19.2823 1.86281 18.4534 2.41174L16.6586 3.6004C15.7019 3.11517 14.6843 2.77089 13.6282 2.57482C13.2944 2.06804 12.9063 1.59692 12.4718 1.17578L11.7292 0.456136C11.1854 -0.0710552 10.3327 -0.15021 9.70134 0.268071C8.95442 0.762647 8.74919 1.77278 9.24377 2.5197C9.26322 2.54926 9.2823 2.57901 9.30118 2.60877C6.86721 3.10125 4.64897 4.3929 3.00712 6.28556C1.22547 8.33959 0.244135 10.9702 0.244135 13.6928C0.244135 14.2146 0.279802 14.7374 0.350374 15.2463C0.894159 19.2023 3.52935 22.6115 7.22732 24.1437C8.5987 24.7121 10.0538 25.0005 11.5517 25.0005C13.9238 25.0005 16.1945 24.274 18.1185 22.8997C20.0006 21.555 21.4088 19.6994 22.191 17.5334C22.2641 17.3316 22.1594 17.1086 21.9576 17.0358C21.7556 16.9629 21.5328 17.0674 21.46 17.2694C20.7315 19.2864 19.4199 21.0145 17.6664 22.267C15.8752 23.5467 13.7608 24.223 11.5517 24.223C10.4095 24.223 9.29431 24.0428 8.22696 23.6873L11.3897 21.5928C11.3899 21.5926 11.3901 21.5926 11.3903 21.5924C11.3905 21.5924 11.3905 21.5922 11.3907 21.592L14.0192 19.8514H14.0194C14.2553 19.695 14.4165 19.4562 14.473 19.1787C14.5294 18.9011 14.4745 18.6181 14.3181 18.3822L14.2834 18.3295L14.794 17.9913C15.1583 17.7501 15.5964 17.6555 16.0278 17.7247C16.6525 17.825 17.2869 17.6877 17.8141 17.3385L22.0491 14.5339C22.0201 14.9012 21.9725 15.2665 21.9059 15.6257C21.8666 15.8368 22.006 16.0397 22.2172 16.0788C22.241 16.0834 22.265 16.0855 22.2885 16.0855C22.4722 16.0855 22.6355 15.9547 22.6702 15.7676C22.7779 15.1879 22.8399 14.5942 22.8559 13.9996L24.0494 13.2092C24.4509 12.9434 24.725 12.5369 24.8207 12.065C24.9166 11.593 24.823 11.1119 24.5571 10.7104ZM15.9038 4.10013L14.7161 4.88672L14.4823 4.25672C14.3846 3.99389 14.2727 3.7362 14.1487 3.48405C14.7512 3.63683 15.3379 3.84282 15.9038 4.10013ZM3.59439 6.79502C5.17234 4.97598 7.32173 3.75318 9.67311 3.32917C10.0504 4.24318 10.1408 5.26437 9.91535 6.23769L8.96758 10.3322C8.81862 10.1731 8.62522 10.0634 8.4074 10.0192C8.12969 9.96255 7.84683 10.0177 7.61089 10.1741L4.92629 11.9517C4.9261 11.9517 4.9261 11.9517 4.92591 11.9519C4.92591 11.9519 4.92572 11.9519 4.92572 11.9521L1.0538 14.5162C1.03263 14.243 1.02157 13.9678 1.02157 13.6928C1.02157 11.1575 1.93538 8.70771 3.59439 6.79502ZM13.7112 19.0236C13.6961 19.0976 13.653 19.1615 13.5899 19.2033H13.59L11.2814 20.732L6.99653 14.3418C6.87694 14.1635 6.63547 14.116 6.45713 14.2356C6.27899 14.3552 6.2313 14.5965 6.35089 14.7748L10.6331 21.1614L7.33737 23.3439C4.06246 21.9115 1.7189 18.8865 1.15547 15.3665L5.03196 12.8077L5.47809 13.4734C5.55324 13.5852 5.67607 13.6456 5.80139 13.6456C5.87577 13.6456 5.95111 13.6245 6.01749 13.5798C6.19583 13.4602 6.24351 13.2188 6.12392 13.0404L5.68084 12.3795L8.04023 10.8222C8.10298 10.7804 8.17832 10.7659 8.25233 10.781C8.32633 10.7961 8.39023 10.8392 8.432 10.9021L13.67 18.8115C13.7115 18.8743 13.7262 18.9496 13.7112 19.0236ZM24.0589 11.9101C24.0044 12.1787 23.8485 12.4099 23.62 12.5611L22.2557 13.4646C22.2553 13.4648 22.2549 13.4652 22.2544 13.4654L17.3847 16.6903C17.0204 16.9316 16.5823 17.0264 16.1509 16.957C15.5264 16.8569 14.892 16.994 14.3646 17.3432L13.854 17.6814L9.56401 11.2035L10.6729 6.41317C10.9585 5.17911 10.808 3.87925 10.264 2.74686C10.2591 2.73504 10.2537 2.72359 10.2476 2.71234C10.1431 2.49833 10.0244 2.29062 9.89189 2.09035C9.63401 1.70087 9.74101 1.17425 10.1307 0.916188C10.4599 0.698178 10.9047 0.739377 11.1881 1.01423L11.9307 1.73406C12.7338 2.51283 13.3642 3.47871 13.7533 4.52737L14.1577 5.61666C14.1584 5.61876 14.1592 5.62047 14.16 5.62238C14.1609 5.62486 14.1621 5.62753 14.163 5.63001C14.1659 5.63669 14.1685 5.64279 14.1714 5.64794C14.1792 5.66434 14.1878 5.68055 14.1981 5.696C14.3167 5.8751 14.5578 5.92412 14.7367 5.80549L18.8827 3.06005C19.3542 2.74782 19.9919 2.87732 20.3041 3.34882C20.6163 3.82032 20.4868 4.45794 20.0153 4.77018L19.6554 5.0086C19.6554 5.0086 19.6552 5.0086 19.655 5.00879L18.8522 5.54056C18.8511 5.54132 18.8503 5.54208 18.8492 5.54265C18.8446 5.5459 18.8402 5.54895 18.8366 5.552C18.6706 5.67388 18.6277 5.90562 18.7427 6.07919C18.8612 6.25829 19.1025 6.30731 19.2816 6.18867L20.0849 5.65652C20.3133 5.50565 20.5866 5.45244 20.8549 5.50699C21.1233 5.56154 21.3547 5.71737 21.5057 5.94587C21.657 6.17418 21.7104 6.44788 21.6558 6.71624C21.6013 6.9848 21.4455 7.21597 21.217 7.36722L20.0539 8.1376C19.8748 8.25605 19.8257 8.49714 19.9444 8.67624C20.0191 8.78915 20.1427 8.85038 20.2688 8.85038C20.3424 8.85038 20.417 8.8294 20.483 8.78572L20.6631 8.66651L21.286 8.25395C21.7577 7.94172 22.3951 8.07123 22.7074 8.54272C23.0196 9.01441 22.8901 9.65184 22.4186 9.96427L21.8376 10.349C21.8346 10.3509 21.8315 10.353 21.8285 10.3551L21.2555 10.7345C21.0764 10.8529 21.0274 11.0942 21.146 11.2733C21.2208 11.3862 21.3444 11.4474 21.4704 11.4474C21.5441 11.4474 21.6186 11.4264 21.6846 11.3828L21.8647 11.2636C21.8647 11.2636 21.8647 11.2634 21.8649 11.2634L22.4878 10.851C22.7161 10.6997 22.9896 10.6463 23.2582 10.7011C23.5268 10.7554 23.7579 10.9115 23.9092 11.1398C24.0602 11.3681 24.1135 11.6418 24.0589 11.9101Z" fill="#FF4FF8"/>
</g>
<defs>
<clipPath id="clip0">
<rect width="25" height="25" fill="white"/>
</clipPath>
</defs>
</svg>
