<svg width="25" height="25" viewBox="0 0 25 25" fill="none" xmlns="http://www.w3.org/2000/svg">
<g clip-path="url(#clip0)">
<path d="M20.1172 15.2344C19.3842 15.2345 18.6607 15.3999 18.0006 15.7185C17.3405 16.0371 16.7608 16.5005 16.3047 17.0742L14.1758 15.9023C13.995 15.8142 13.7871 15.7991 13.5955 15.8604C13.4039 15.9216 13.2432 16.0544 13.1471 16.2311C13.0509 16.4078 13.0266 16.6148 13.0793 16.809C13.1319 17.0031 13.2574 17.1695 13.4297 17.2734L15.539 18.418C15.3361 18.9614 15.2328 19.5371 15.2344 20.1172C15.2344 21.0829 15.5207 22.027 16.0573 22.8299C16.5938 23.6329 17.3564 24.2587 18.2486 24.6283C19.1408 24.9979 20.1226 25.0946 21.0698 24.9062C22.0169 24.7178 22.887 24.2527 23.5698 23.5699C24.2527 22.887 24.7177 22.0169 24.9062 21.0698C25.0946 20.1226 24.9979 19.1408 24.6283 18.2486C24.2587 17.3564 23.6329 16.5938 22.8299 16.0573C22.0269 15.5207 21.0829 15.2344 20.1172 15.2344ZM20.1172 23.4375C19.4605 23.4375 18.8185 23.2428 18.2725 22.8779C17.7265 22.5131 17.3009 21.9945 17.0496 21.3878C16.7983 20.7811 16.7325 20.1135 16.8607 19.4694C16.9888 18.8253 17.305 18.2337 17.7694 17.7694C18.2337 17.305 18.8253 16.9888 19.4694 16.8607C20.1135 16.7326 20.7811 16.7983 21.3878 17.0496C21.9945 17.3009 22.5131 17.7265 22.8779 18.2725C23.2427 18.8185 23.4375 19.4605 23.4375 20.1172C23.4364 20.9975 23.0863 21.8414 22.4638 22.4639C21.8414 23.0863 20.9975 23.4365 20.1172 23.4375Z" fill="#FFF176"/>
<path d="M6.61718 14.0199C6.43277 14.0661 6.27153 14.178 6.16367 14.3345C6.05581 14.491 6.00873 14.6815 6.03125 14.8703C6.05377 15.0591 6.14434 15.2331 6.286 15.3599C6.42765 15.4867 6.61067 15.5575 6.80077 15.559C6.86182 15.5649 6.92331 15.5649 6.98436 15.559C7.18587 15.5103 7.35978 15.3835 7.46783 15.2066C7.57588 15.0297 7.60923 14.8171 7.56054 14.6156C7.51185 14.4141 7.3851 14.2402 7.20819 14.1322C7.03127 14.0241 6.81868 13.9908 6.61718 14.0394V14.0199Z" fill="#FFF176"/>
<path d="M9.26171 12.8906C9.33473 12.7733 9.37393 12.6382 9.37499 12.5C9.37499 11.6712 9.04575 10.8763 8.4597 10.2903C7.87365 9.70424 7.07879 9.375 6.24999 9.375C6.04279 9.375 5.84407 9.45731 5.69756 9.60382C5.55105 9.75034 5.46874 9.94905 5.46874 10.1562C5.46874 10.3635 5.55105 10.5622 5.69756 10.7087C5.84407 10.8552 6.04279 10.9375 6.24999 10.9375C6.66439 10.9375 7.06182 11.1021 7.35484 11.3951C7.64787 11.6882 7.81249 12.0856 7.81249 12.5C7.8156 12.6693 7.87362 12.833 7.97783 12.9665C8.08204 13.0999 8.22679 13.1959 8.39028 13.24C8.55378 13.2841 8.72716 13.2738 8.88433 13.2108C9.0415 13.1478 9.17394 13.0354 9.26171 12.8906Z" fill="#FFF176"/>
<path d="M16.3047 7.93007C17.0864 8.89694 18.2037 9.53386 19.4339 9.71396C20.6642 9.89406 21.9171 9.60414 22.9432 8.90193C23.9693 8.19972 24.6932 7.13676 24.9708 5.92478C25.2483 4.71279 25.0592 3.44073 24.441 2.36195C23.8228 1.28317 22.8209 0.476849 21.6349 0.10359C20.4488 -0.269669 19.1657 -0.182474 18.0411 0.347809C16.9165 0.878091 16.0329 1.81254 15.5664 2.96504C15.0998 4.11754 15.0844 5.4035 15.5234 6.56679L11.3281 8.85976C10.4596 7.64925 9.18718 6.78881 7.74029 6.43355C6.2934 6.07829 4.76719 6.25159 3.43678 6.9222C2.10637 7.59281 1.05928 8.71661 0.484258 10.091C-0.0907668 11.4655 -0.155897 13.0001 0.300607 14.4183C0.757111 15.8365 1.70522 17.045 2.97402 17.8259C4.24283 18.6068 5.74887 18.9088 7.22066 18.6774C8.69245 18.446 10.0332 17.6965 11.0011 16.5639C11.9691 15.4314 12.5007 13.9903 12.5 12.5004C12.4995 11.7233 12.3524 10.9534 12.0664 10.2309L16.3047 7.93007ZM20.1172 1.56289C20.7739 1.56289 21.4158 1.75762 21.9618 2.12246C22.5079 2.4873 22.9334 3.00586 23.1847 3.61257C23.4361 4.21928 23.5018 4.88688 23.3737 5.53096C23.2456 6.17504 22.9293 6.76666 22.465 7.23102C22.0006 7.69537 21.409 8.0116 20.7649 8.13971C20.1209 8.26783 19.4533 8.20208 18.8465 7.95077C18.2398 7.69946 17.7213 7.27389 17.3564 6.72787C16.9916 6.18184 16.7969 5.5399 16.7969 4.8832C16.7979 4.00292 17.148 3.15898 17.7705 2.53653C18.393 1.91407 19.2369 1.56392 20.1172 1.56289ZM6.24999 17.1879C5.32289 17.1879 4.41661 16.913 3.64575 16.3979C2.8749 15.8828 2.27409 15.1507 1.9193 14.2942C1.56452 13.4377 1.47169 12.4952 1.65256 11.5859C1.83342 10.6766 2.27987 9.84138 2.93542 9.18582C3.59098 8.53027 4.42622 8.08383 5.3355 7.90296C6.24479 7.72209 7.18729 7.81492 8.04382 8.1697C8.90034 8.52449 9.63243 9.1253 10.1475 9.89615C10.6626 10.667 10.9375 11.5733 10.9375 12.5004C10.9375 13.7436 10.4436 14.9359 9.56455 15.815C8.68547 16.694 7.49319 17.1879 6.24999 17.1879Z" fill="#FFF176"/>
</g>
<defs>
<clipPath id="clip0">
<rect width="25" height="25" fill="white"/>
</clipPath>
</defs>
</svg>
