<svg width="25" height="25" viewBox="0 0 25 25" fill="none" xmlns="http://www.w3.org/2000/svg">
<path d="M11.8164 13.9648V11.0352C11.8164 10.7655 11.5978 10.5469 11.3281 10.5469C11.0585 10.5469 10.8398 10.7655 10.8398 11.0352V13.9648C10.8398 14.2345 11.0585 14.4531 11.3281 14.4531C11.5978 14.4531 11.8164 14.2345 11.8164 13.9648Z" fill="#FF9900"/>
<path d="M0.488281 12.9883C0.757952 12.9883 0.976562 12.7697 0.976562 12.5C0.976562 12.2303 0.757952 12.0117 0.488281 12.0117C0.218611 12.0117 0 12.2303 0 12.5C0 12.7697 0.218611 12.9883 0.488281 12.9883Z" fill="#FF9900"/>
<path d="M1.46484 25H17.6758C18.4835 25 19.1406 24.3429 19.1406 23.5352V17.8993L24.8351 12.8659C24.9399 12.7732 25 12.64 25 12.5C25 12.36 24.94 12.2269 24.8351 12.1341L19.1406 7.10068V1.46484C19.1406 0.657129 18.4835 0 17.6758 0H1.46484C0.657129 0 0 0.657129 0 1.46484V10.3027C0 10.5724 0.218652 10.791 0.488281 10.791C0.75791 10.791 0.976562 10.5724 0.976562 10.3027V1.46484C0.976562 1.19561 1.19561 0.976562 1.46484 0.976562H13.7695V24.0234H1.46484C1.19561 24.0234 0.976562 23.8044 0.976562 23.5352V14.6973C0.976562 14.4276 0.75791 14.209 0.488281 14.209C0.218652 14.209 0 14.4276 0 14.6973V23.5352C0 24.3429 0.657129 25 1.46484 25ZM19.1406 16.5959V13.9648C19.1406 13.6952 18.922 13.4766 18.6523 13.4766H14.7461V11.5234H18.6523C18.922 11.5234 19.1406 11.3048 19.1406 11.0352V8.4041L23.7744 12.5L19.1406 16.5959ZM17.6758 0.976562C17.945 0.976562 18.1641 1.19561 18.1641 1.46484V10.5469H14.7461V0.976562H17.6758ZM14.7461 14.4531H18.1641V23.5352C18.1641 23.8044 17.945 24.0234 17.6758 24.0234H14.7461V14.4531Z" fill="#FF9900"/>
</svg>
