<svg width="25" height="25" viewBox="0 0 25 25" fill="none" xmlns="http://www.w3.org/2000/svg">
<g clip-path="url(#clip0)">
<path d="M23.0141 8.81787C23.0141 7.3647 22.4482 5.99858 21.4207 4.97114L18.043 1.59341C17.0154 0.565869 15.6492 0 14.196 0H13.4486H6.36788C5.19181 0 4.23497 0.956787 4.23497 2.13286V2.24912H4.11866C2.94269 2.24912 1.9859 3.20586 1.9859 4.38188V22.8672C1.9859 24.0433 2.94269 25 4.11866 25H18.6324C19.8084 25 20.7652 24.0433 20.7652 22.8672V22.7509H20.8813C22.0573 22.7509 23.0141 21.7941 23.0141 20.6181V9.56543V8.81812V8.81792C23.0141 8.81792 23.0141 8.81792 23.0141 8.81787ZM17.5251 2.11128L20.9028 5.48906C21.4039 5.99014 21.7781 6.58423 22.0093 7.23252C21.4327 6.68584 20.6542 6.35 19.7987 6.35H18.0646C17.2924 6.35 16.6642 5.72178 16.6642 4.94956V3.21543C16.6642 2.36001 16.3284 1.58149 15.7817 1.00483C16.4299 1.23604 17.024 1.61021 17.5251 2.11128ZM22.2817 20.6181C22.2817 21.3903 21.6535 22.0185 20.8813 22.0185H16.9402C16.738 22.0185 16.574 22.1825 16.574 22.3847C16.574 22.587 16.738 22.7509 16.9402 22.7509H20.0327V22.8672C20.0327 23.6394 19.4046 24.2676 18.6324 24.2676H4.11866C3.34655 24.2676 2.71832 23.6394 2.71832 22.8672V4.38188C2.71832 3.60972 3.3465 2.98154 4.11866 2.98154H4.23497V20.6181C4.23497 21.7941 5.19181 22.7509 6.36788 22.7509H15.4754C15.6776 22.7509 15.8416 22.587 15.8416 22.3847C15.8416 22.1825 15.6776 22.0185 15.4754 22.0185H6.36788C5.59567 22.0185 4.9674 21.3903 4.9674 20.6181V2.13286C4.9674 1.36064 5.59567 0.732422 6.36788 0.732422H13.4487C14.8178 0.732422 15.9317 1.84629 15.9317 3.21543V4.94956C15.9317 6.12563 16.8885 7.08242 18.0646 7.08242H19.7987C21.1678 7.08242 22.2817 8.19629 22.2817 9.56543V20.6181Z" fill="#0CF0FF"/>
<path d="M12.7442 16.6701C12.9793 16.9052 13.292 17.0347 13.6246 17.0347C13.9572 17.0347 14.2698 16.9052 14.505 16.67L17.0802 14.0948C17.3011 13.8739 17.3666 13.5447 17.247 13.256C17.1275 12.9674 16.8483 12.781 16.5359 12.781H15.7497V7.98203C15.7497 7.55767 15.4044 7.2124 14.98 7.2124H12.2691C11.8447 7.2124 11.4995 7.55767 11.4995 7.98203V9.87739C11.4995 10.0796 11.6634 10.2436 11.8657 10.2436C12.0679 10.2436 12.2319 10.0796 12.2319 9.87739V7.98203C12.2319 7.96152 12.2486 7.94482 12.2691 7.94482H14.98C15.0005 7.94482 15.0172 7.96152 15.0172 7.98203V13.1472C15.0172 13.3494 15.1812 13.5134 15.3835 13.5134H16.5359C16.5452 13.5134 16.5608 13.5134 16.5703 13.5364C16.5798 13.5594 16.5689 13.5704 16.5623 13.5769L13.9871 16.1521C13.8902 16.249 13.7615 16.3023 13.6246 16.3023C13.4877 16.3023 13.3589 16.249 13.2621 16.1521L10.6869 13.5769C10.6803 13.5704 10.6694 13.5594 10.6789 13.5364C10.6884 13.5134 10.704 13.5134 10.7132 13.5134H11.8657C12.068 13.5134 12.2319 13.3494 12.2319 13.1472V11.3422C12.2319 11.14 12.068 10.976 11.8657 10.976C11.6635 10.976 11.4995 11.14 11.4995 11.3422V12.781H10.7132C10.4008 12.781 10.1217 12.9674 10.0022 13.256C9.88263 13.5447 9.94811 13.8739 10.169 14.0948L12.7442 16.6701Z" fill="#0CF0FF"/>
<path d="M16.7683 17.4624H10.4807C9.84528 17.4624 9.32834 17.9793 9.32834 18.6148V18.6364C9.32834 19.2718 9.84528 19.7888 10.4807 19.7888H16.7683C17.4038 19.7888 17.9207 19.2718 17.9207 18.6364V18.6148C17.9207 17.9794 17.4038 17.4624 16.7683 17.4624ZM17.1883 18.6364C17.1883 18.868 16.9999 19.0564 16.7683 19.0564H10.4807C10.2491 19.0564 10.0608 18.868 10.0608 18.6364V18.6148C10.0608 18.3833 10.2491 18.1949 10.4807 18.1949H16.7683C16.9999 18.1949 17.1883 18.3833 17.1883 18.6148V18.6364Z" fill="#0CF0FF"/>
</g>
<defs>
<clipPath id="clip0">
<rect width="25" height="25" fill="white"/>
</clipPath>
</defs>
</svg>
