<svg width="25" height="25" viewBox="0 0 25 25" fill="none" xmlns="http://www.w3.org/2000/svg">
<path d="M20.1176 6.64062C20.1176 6.91013 20.3364 7.12891 20.6059 7.12891C20.8754 7.12891 21.0942 6.91013 21.0942 6.64062C21.0942 6.37112 20.8754 6.15234 20.6059 6.15234C20.3364 6.15234 20.1176 6.37112 20.1176 6.64062Z" fill="#00FF47"/>
<path d="M22.0708 12.5002C22.0708 13.1256 22.008 13.7499 21.8844 14.3556C21.8304 14.6198 22.0009 14.8777 22.2651 14.9317C22.2981 14.9385 22.3309 14.9418 22.3633 14.9418C22.5905 14.9418 22.794 14.7821 22.8413 14.551C22.9781 13.8809 23.0473 13.191 23.0473 12.5002C23.0473 10.9626 22.7139 9.48312 22.0561 8.10257C21.9401 7.8592 21.6488 7.75582 21.4053 7.87178C21.1617 7.98775 21.0585 8.27919 21.1745 8.52276C21.7692 9.77094 22.0708 11.1091 22.0708 12.5002Z" fill="#00FF47"/>
<path d="M14.9418 16.8945H14.4536V10.5469C14.4536 10.2772 14.235 10.0586 13.9653 10.0586H10.059C9.78932 10.0586 9.57074 10.2772 9.57074 10.5469V12.5C9.57074 12.7697 9.78932 12.9883 10.059 12.9883H10.5473V16.8945H10.059C9.78932 16.8945 9.57074 17.1131 9.57074 17.3828V19.3359C9.57074 19.6056 9.78932 19.8242 10.059 19.8242H14.9418C15.2115 19.8242 15.4301 19.6056 15.4301 19.3359V17.3828C15.4301 17.1131 15.2115 16.8945 14.9418 16.8945ZM14.4536 18.8477H10.5473V17.8711H11.0356C11.3053 17.8711 11.5239 17.6525 11.5239 17.3828V12.5C11.5239 12.2303 11.3053 12.0117 11.0356 12.0117H10.5473V11.0352H13.477V17.3828C13.477 17.6525 13.6958 17.8711 13.9653 17.8711H14.4536V18.8477Z" fill="#00FF47"/>
<path d="M12.5004 9.08203C13.5773 9.08203 14.4536 8.2058 14.4536 7.12891C14.4536 6.05202 13.5773 5.17578 12.5004 5.17578C11.4235 5.17578 10.5473 6.05202 10.5473 7.12891C10.5473 8.2058 11.4235 9.08203 12.5004 9.08203ZM12.5004 6.15234C13.0389 6.15234 13.477 6.59046 13.477 7.12891C13.477 7.66735 13.0389 8.10547 12.5004 8.10547C11.962 8.10547 11.5239 7.66735 11.5239 7.12891C11.5239 6.59046 11.962 6.15234 12.5004 6.15234Z" fill="#00FF47"/>
<path d="M12.5 0C5.76288 0 2.12929e-05 5.75199 2.12929e-05 12.5C2.12929e-05 14.805 0.660536 17.2564 1.77424 19.1105L0.0250076 24.3574C-0.0333573 24.5327 0.0122283 24.7263 0.143072 24.8569C0.274489 24.9884 0.468275 25.0332 0.642798 24.9748L5.88972 23.2258C7.74367 24.3397 10.195 25 12.5 25C19.2389 25 25 19.2472 25 12.5C25 5.76115 19.2475 0 12.5 0V0ZM12.5 24.0234C10.2888 24.0234 7.9386 23.3709 6.21302 22.278C6.09076 22.2006 5.93836 22.1802 5.79722 22.2273L1.2604 23.7396L2.77273 19.2028C2.81927 19.0636 2.80058 18.911 2.722 18.787C1.62909 17.0616 0.976584 14.7112 0.976584 12.5C0.976584 6.25362 6.25364 0.976562 12.5 0.976562C18.7464 0.976562 24.0235 6.25362 24.0235 12.5C24.0235 18.7464 18.7464 24.0234 12.5 24.0234Z" fill="#00FF47"/>
</svg>
