<svg width="20" height="20" viewBox="0 0 20 20" fill="none" xmlns="http://www.w3.org/2000/svg">
<path d="M19.3591 16.2659L14.1214 11.0278C14.695 9.95396 15 8.74916 15 7.49999C15 5.52663 14.2398 3.66339 12.8594 2.25351C11.4811 0.845858 9.63865 0.046289 7.67155 0.00210937C7.61452 0.000820311 7.55749 0 7.49999 0C3.36449 0 0 3.36449 0 7.49999C0 11.6355 3.36449 15 7.49999 15C7.55698 15 7.61444 14.9992 7.67096 14.9979C8.86065 14.9713 10.0045 14.668 11.0278 14.1215L16.2655 19.3588C16.6784 19.7722 17.2278 19.9999 17.8124 19.9999C18.3971 19.9999 18.9464 19.7722 19.3589 19.3592C19.7723 18.946 20 18.3967 20 17.8124C20 17.2281 19.7724 16.6789 19.3591 16.2659ZM7.64303 13.7482C7.59573 13.7492 7.54768 13.75 7.49999 13.75C4.05374 13.75 1.25 10.9462 1.25 7.49999C1.25 4.05374 4.05374 1.25 7.49999 1.25C7.54799 1.25 7.59565 1.25074 7.64338 1.25179C11.0106 1.32738 13.75 4.1303 13.75 7.49999C13.75 10.8701 11.0104 13.673 7.64303 13.7482ZM18.4749 18.4755C18.2981 18.6525 18.0629 18.75 17.8125 18.75C17.562 18.75 17.3268 18.6525 17.1497 18.4752L12.0992 13.4251C12.3653 13.2177 12.6195 12.9917 12.8593 12.7467C13.0614 12.5403 13.2498 12.3239 13.4249 12.0991L18.4753 17.1498C18.6525 17.3269 18.75 17.5622 18.75 17.8124C18.75 18.0627 18.6525 18.298 18.4749 18.4755Z" fill="#FF4200"/>
<path d="M7.49999 2.5C4.74296 2.5 2.5 4.74296 2.5 7.49999C2.5 10.257 4.74296 12.5 7.49999 12.5C10.257 12.5 12.5 10.257 12.5 7.49999C12.5 4.74296 10.257 2.5 7.49999 2.5ZM7.49999 11.25C5.43222 11.25 3.75 9.56776 3.75 7.49999C3.75 5.43222 5.43222 3.75 7.49999 3.75C9.56776 3.75 11.25 5.43222 11.25 7.49999C11.25 9.56776 9.56776 11.25 7.49999 11.25Z" fill="#FF4200"/>
</svg>
