<svg width="25" height="25" viewBox="0 0 25 25" fill="none" xmlns="http://www.w3.org/2000/svg">
<path d="M17.3132 4.42451C16.6133 4.42451 15.9377 4.16597 15.3595 3.67681L14.2287 2.72036C13.3816 2.00386 12.3779 1.62515 11.3261 1.62515H6.83174V0H2.05664V25H6.83179V15.9969H11.3261C12.0259 15.9969 12.7015 16.2554 13.2798 16.7446L14.4106 17.701C15.2577 18.4175 16.2614 18.7962 17.3132 18.7962H22.9414V4.42451H17.3132ZM21.472 8.72529H18.8711V5.89385H21.472V8.72529ZM10.7309 7.39531H11.3261C12.0259 7.39531 12.7015 7.65386 13.2798 8.14302L13.3317 8.18691V10.7198C12.7059 10.3958 12.0268 10.2268 11.3261 10.2268H10.7309V7.39531ZM9.26157 10.2268H6.83179V7.39531H9.26157V10.2268ZM14.801 9.39707C15.5592 9.91973 16.4186 10.1946 17.3132 10.1946H17.4018V13.0261H17.3132C16.6133 13.0261 15.9377 12.7675 15.3595 12.2784L14.801 11.806V9.39707ZM18.8711 10.1946H21.472V13.0261H18.8711V10.1946ZM17.3132 5.89385H17.4018V8.72529H17.3132C16.6133 8.72529 15.9377 8.46675 15.3595 7.97759L14.801 7.50522V5.09624C15.5592 5.61895 16.4186 5.89385 17.3132 5.89385ZM13.2798 3.84224L13.3317 3.88613V6.41899C12.7058 6.09497 12.0268 5.92598 11.3261 5.92598H10.7309V3.09453H11.3261C12.0259 3.09453 12.7015 3.35308 13.2798 3.84224ZM9.26157 3.09453V5.92598H6.83179V3.09453H9.26157ZM5.36245 23.5307H3.52598V1.46934H5.36245V23.5307ZM6.83179 11.6961H9.26157V14.5275H6.83179V11.6961ZM11.3261 14.5275H10.7309V11.6961H11.3261C12.0259 11.6961 12.7015 11.9546 13.2798 12.4438L13.3317 12.4877V15.0206C12.7058 14.6965 12.0268 14.5275 11.3261 14.5275ZM15.3595 16.5791L14.801 16.1068V13.6978C15.5592 14.2205 16.4186 14.4954 17.3132 14.4954H17.4018V17.3268H17.3132C16.6133 17.3269 15.9377 17.0683 15.3595 16.5791ZM18.8711 17.3269V14.4954H21.472V17.3269H18.8711Z" fill="white"/>
</svg>
