<svg width="25" height="25" viewBox="0 0 25 25" fill="none" xmlns="http://www.w3.org/2000/svg">
<path d="M4.77344 1.59747H9.41797V5.96852H4.77344V1.59747Z" fill="#FF4200"/>
<path d="M14.7132 8.02135L14.0605 7.4693V12.5498L14.7132 13.1019C15.4877 13.757 16.4158 14.1091 17.3676 14.1091H18.709V9.02863H17.3676C16.4158 9.02863 15.4877 8.67648 14.7132 8.02135Z" fill="white"/>
<path d="M10.8229 5.96857C11.7747 5.96857 12.7027 6.32072 13.4773 6.97584L14.0606 7.4693V3.09821L13.4773 2.60475C12.7027 1.94962 11.7747 1.59747 10.8229 1.59747H9.41797V5.96852H10.8229V5.96857Z" fill="white"/>
<path d="M18.709 4.65753H22.7168V9.02858H18.709V4.65753Z" fill="white"/>
<path d="M13.4773 6.97578C12.7027 6.32065 11.7747 5.96851 10.8229 5.96851H9.41797V11.049H10.8229C11.7747 11.049 12.7027 11.4012 13.4773 12.0563L14.0606 12.5498V7.46919L13.4773 6.97578Z" fill="#FF4200"/>
<path d="M14.7132 8.02135C15.4877 8.67648 16.4158 9.02863 17.3676 9.02863H18.709V4.65758H17.3676C16.4158 4.65758 15.4877 4.30543 14.7132 3.65031L14.0605 3.09821V7.46925L14.7132 8.02135Z" fill="#FF4200"/>
<path d="M18.709 14.1091H22.7168V18.7616H18.709V14.1091Z" fill="white"/>
<path d="M18.709 9.02856H22.7168V14.1091H18.709V9.02856Z" fill="#FF4200"/>
<path d="M17.3676 14.1091C16.4158 14.1091 15.4877 13.7569 14.7132 13.1018L14.0605 12.5497V17.2023L14.7132 17.7543C15.4877 18.4095 16.4158 18.7616 17.3676 18.7616H18.709V14.1091H17.3676Z" fill="#FF4200"/>
<path d="M4.77344 11.049H9.41797V15.7016H4.77344V11.049Z" fill="#FF4200"/>
<path d="M4.77344 5.96851H9.41797V11.049H4.77344V5.96851Z" fill="white"/>
<path d="M13.4773 12.0563C12.7027 11.4012 11.7747 11.049 10.8229 11.049H9.41797V15.7015H10.8229C11.7747 15.7015 12.7027 16.0537 13.4773 16.7088L14.0606 17.2023V12.5497L13.4773 12.0563Z" fill="white"/>
<path d="M2.2832 0H5.57896V25H2.2832V0Z" fill="#FF4200"/>
<path d="M3.93164 0H5.57949V25H3.93164V0Z" fill="#FF4200"/>
</svg>
