<svg width="25" height="25" viewBox="0 0 25 25" fill="none" xmlns="http://www.w3.org/2000/svg">
<path d="M12.5 25C5.63431 25 0 19.3657 0 12.5C0 5.63431 5.63431 0 12.5 0C19.3657 0 25 5.63431 25 12.5C25 19.3657 19.3657 25 12.5 25Z" fill="#FF4200"/>
<path d="M25 12.5C25 5.63431 19.3657 0 12.5 0V25C19.3657 25 25 19.3657 25 12.5Z" fill="#FF4200"/>
<path d="M19.8242 8.10547L16.1621 5.17578V6.64062H14.9155C13.3583 6.64062 11.9041 7.47604 11.1197 8.82072L7.68776 14.703C7.42607 15.1514 6.9418 15.4297 6.42242 15.4297H5.17578V18.3594H6.42242C7.97958 18.3594 9.43375 17.524 10.2182 16.1793L13.6501 10.297C13.9118 9.84859 14.3961 9.57031 14.9155 9.57031H16.1621V11.0352L19.8242 8.10547Z" fill="white"/>
<path d="M16.1621 6.64062H14.9155C14.0387 6.64062 13.2103 6.92806 12.5 7.39956V12.2684L13.6501 10.297C13.9118 9.84859 14.3961 9.57031 14.9155 9.57031H16.1621V11.0352L19.8242 8.10547L16.1621 5.17578V6.64062Z" fill="white"/>
<path d="M7.68776 10.297L8.12531 11.0472L9.76486 8.23689C8.93822 7.25269 7.72934 6.64062 6.42242 6.64062H5.17578V9.57031H6.42242C6.9418 9.57031 7.42607 9.84859 7.68776 10.297Z" fill="white"/>
<path d="M16.1613 15.4297H14.9147C14.3953 15.4297 13.9111 15.1514 13.6494 14.703L13.2118 13.9528L11.5723 16.7631C12.3989 17.7473 13.6078 18.3594 14.9147 18.3594H16.1613V19.8242L19.8235 16.8945L16.1613 13.9648V15.4297Z" fill="white"/>
<path d="M16.1621 15.4297H14.9155C14.3961 15.4297 13.9118 15.1514 13.6501 14.703L13.2126 13.9528L12.5 15.1741V17.5775C13.2057 18.062 14.0327 18.3594 14.9155 18.3594H16.1621V19.8242L19.8242 16.8945L16.1621 13.9648V15.4297Z" fill="white"/>
</svg>
