<svg width="25" height="25" viewBox="0 0 25 25" fill="none" xmlns="http://www.w3.org/2000/svg">
<path fill-rule="evenodd" clip-rule="evenodd" d="M4.50874 10.4232C4.15049 10.4834 3.9015 10.6102 3.63625 10.8673L3.51429 10.9855V10.7456V10.5058H2.84507H2.17578L2.17897 13.4024L2.1821 16.299L2.84819 16.3022L3.51429 16.3055V15.2579V14.2104L3.59841 14.3014C4.15174 14.8998 5.14838 14.9762 5.81685 14.4714C6.88654 13.6637 6.8562 11.424 5.76587 10.7039C5.406 10.4663 4.91046 10.3556 4.50874 10.4232ZM8.98064 10.4194C7.67009 10.5669 6.83538 11.7094 7.06141 13.0465C7.29608 14.4344 8.78044 15.1591 10.3378 14.6461C10.6412 14.5461 11.0706 14.3061 11.0545 14.2456C11.0497 14.2275 10.5073 13.4243 10.5 13.4243C10.4968 13.4243 10.4613 13.4486 10.421 13.4783C9.70553 14.0057 8.60994 13.7918 8.42468 13.0887L8.40749 13.0235H9.90291H11.3984L11.391 12.7322C11.3526 11.2045 10.3712 10.2628 8.98064 10.4194ZM20.5554 10.4185C19.2612 10.5815 18.4424 11.6719 18.6321 12.9796C18.8315 14.3545 20.1648 15.0961 21.7259 14.7006C22.1051 14.6045 22.6655 14.3225 22.6351 14.2431C22.6286 14.2263 22.109 13.454 22.0897 13.4326C22.0845 13.4269 22.0445 13.4487 22.0006 13.481C21.2767 14.0151 20.1631 13.7802 19.9959 13.0579L19.9879 13.0235H21.485H22.9819L22.9739 12.7385C22.949 11.8576 22.6738 11.2396 22.1166 10.814C21.7189 10.5101 21.0907 10.3509 20.5554 10.4185ZM11.5248 10.5338C11.529 10.5494 11.8075 11.4922 12.1438 12.6289L12.7552 14.6957L13.475 14.6989L14.1948 14.7021L14.2325 14.5799C14.2532 14.5127 14.4255 13.9391 14.6155 13.3053C15.0179 11.9627 14.9715 12.1103 14.9837 12.1341C14.9891 12.1445 15.1674 12.7265 15.38 13.4274L15.7666 14.7019H16.4861H17.2057L17.7155 12.9765C17.996 12.0275 18.2751 11.0833 18.3359 10.8784L18.4462 10.5058L17.7569 10.5058L17.0676 10.5059L16.7363 11.7835C16.5541 12.4861 16.4021 13.061 16.3986 13.061C16.395 13.061 16.2084 12.4875 15.9839 11.7865L15.5757 10.512L14.9823 10.5088L14.3889 10.5055L13.9849 11.7676C13.7628 12.4618 13.5766 13.0379 13.5711 13.0479C13.5584 13.0716 13.584 13.1643 13.2097 11.7396L12.8873 10.512L12.2022 10.5088L11.5172 10.5056L11.5248 10.5338ZM9.49807 11.4646C9.80747 11.5275 10.1189 11.8673 10.1189 12.1418C10.1189 12.1564 9.98322 12.1592 9.25483 12.1592H8.39072L8.39929 12.1185C8.50468 11.6174 8.94918 11.3529 9.49807 11.4646ZM21.0829 11.4666C21.4033 11.5378 21.6372 11.7871 21.6945 12.1185L21.7015 12.1592H20.8387C20.109 12.1592 19.9759 12.1565 19.9759 12.1417C19.9759 12.1321 19.9877 12.0856 20.0022 12.0384C20.1422 11.5804 20.5717 11.3531 21.0829 11.4666ZM4.55471 11.6146C5.14662 11.7657 5.42282 12.5371 5.10597 13.1541C4.8244 13.7024 4.06105 13.7841 3.58002 13.3175L3.51429 13.2538V12.6112V11.9687L3.55231 11.9205C3.74864 11.6724 4.21897 11.5288 4.55471 11.6146Z" fill="#FCFBFB"/>
<path fill-rule="evenodd" clip-rule="evenodd" d="M12.0227 0.0103334C6.21629 0.223273 1.29877 4.46697 0.217941 10.1977C-0.815537 15.6771 1.89631 21.1807 6.87207 23.7016C8.19256 24.3707 9.45902 24.753 11.05 24.9627C11.3044 24.9963 13.4076 25.0145 13.7206 24.9858C19.3304 24.4728 24.001 20.0712 24.8587 14.4891C25.02 13.4396 25.0459 12.0218 24.9223 11.0132C24.128 4.53323 18.545 -0.228848 12.0227 0.0103334ZM5.07705 10.4268C6.03054 10.5804 6.59594 11.3909 6.59594 12.604C6.59594 13.8786 5.98188 14.6958 4.94358 14.803C4.43773 14.8552 3.98291 14.6958 3.63035 14.3428L3.51345 14.2257V15.2655V16.3054H2.84423H2.17501V13.4056V10.5059H2.84423H3.51345L3.51333 10.7407L3.51326 10.9756L3.63573 10.8566C4.02375 10.4797 4.50828 10.3352 5.07705 10.4268ZM9.41761 10.4061C10.6385 10.4994 11.394 11.4063 11.394 12.7788V13.0361H9.90521H8.41641L8.42448 13.0705C8.59741 13.8093 9.7035 14.0012 10.4808 13.4271C10.5004 13.4126 10.5306 13.4526 10.7873 13.8324L11.0721 14.2538L11.036 14.284C10.5216 14.7144 9.54996 14.9169 8.76065 14.7583C7.69996 14.5452 7.01592 13.703 7.01592 12.6102C7.01592 11.4131 7.87615 10.4915 9.07362 10.4058C9.14242 10.4009 9.20997 10.396 9.22373 10.395C9.23748 10.394 9.32473 10.399 9.41761 10.4061ZM20.9932 10.4059C22.2146 10.4941 22.9772 11.41 22.9772 12.7887V13.0361H21.4872H19.9974L20.0053 13.0679C20.1836 13.7789 21.2945 14.0056 21.9959 13.474C22.0421 13.4389 22.084 13.4149 22.0889 13.4205C22.0937 13.4261 22.2226 13.6155 22.3752 13.8414L22.6526 14.2522L22.613 14.2861C22.1854 14.6524 21.3608 14.8676 20.638 14.8016C19.4049 14.6888 18.5991 13.8202 18.5991 12.6038C18.5991 11.3849 19.4623 10.4856 20.7131 10.4013C20.744 10.3992 20.7806 10.3966 20.7944 10.3955C20.8081 10.3943 20.8976 10.399 20.9932 10.4059ZM12.8951 10.5125C12.8951 10.5239 13.5583 13.0405 13.5623 13.0446C13.5645 13.0467 13.749 12.4778 13.9725 11.7803L14.3788 10.5121L14.9794 10.5089L15.58 10.5056L15.9853 11.7709C16.2082 12.4667 16.3936 13.0361 16.3972 13.0361C16.4008 13.0361 16.5496 12.4738 16.7278 11.7866C16.906 11.0994 17.0544 10.5302 17.0575 10.5215C17.0629 10.5065 18.449 10.4963 18.449 10.5113C18.449 10.515 17.3643 14.1919 17.2154 14.6926C17.2094 14.7132 17.1636 14.7146 16.4852 14.7146H15.7615L15.7439 14.6551C15.5739 14.0767 14.9765 12.1374 14.9721 12.1493C14.9688 12.1583 14.7938 12.7377 14.5833 13.4369L14.2004 14.7083L13.4828 14.7116C13.0881 14.7133 12.7611 14.7105 12.756 14.7053C12.751 14.7 12.4732 13.7685 12.1387 12.6353C11.8042 11.502 11.5254 10.5593 11.5192 10.5403L11.5079 10.5059H12.2014C12.583 10.5059 12.8951 10.5089 12.8951 10.5125ZM9.03609 11.4648C8.72844 11.5321 8.40652 11.8685 8.40459 12.1248C8.4044 12.1455 8.45318 12.1468 9.255 12.1468C10.2297 12.1468 10.1252 12.1637 10.0793 12.0134C9.95193 11.5963 9.50636 11.362 9.03609 11.4648ZM20.6255 11.4632C20.3122 11.5296 20.0793 11.756 19.9961 12.0752L19.9774 12.1468H20.8345H21.6916L21.683 12.0998C21.5994 11.6412 21.1271 11.3569 20.6255 11.4632ZM4.08435 11.6209C3.8914 11.6698 3.67175 11.7949 3.56486 11.9165L3.51345 11.9749V12.606V13.2371L3.56643 13.2946C3.8555 13.6087 4.37587 13.7066 4.74307 13.5162C5.356 13.1983 5.39634 12.129 4.81024 11.7364C4.61842 11.608 4.32133 11.5607 4.08435 11.6209Z" fill="#FC4404"/>
<path fill-rule="evenodd" clip-rule="evenodd" d="M12.1241 0.00585981C12.157 0.00849024 12.2076 0.00842761 12.2367 0.00579718C12.2657 0.00316675 12.2388 0.00103735 12.1769 0.00109998C12.1149 0.00116261 12.0912 0.00329201 12.1241 0.00585981ZM12.787 0.00585981C12.8199 0.00849024 12.8706 0.00842761 12.8996 0.00579718C12.9286 0.00316675 12.9017 0.00103735 12.8398 0.00109998C12.7779 0.00116261 12.7541 0.00329201 12.787 0.00585981ZM11.8299 0.0180099C11.8454 0.0210161 11.868 0.0208908 11.8799 0.0177594C11.8919 0.0146279 11.8792 0.0121854 11.8516 0.0123106C11.8241 0.0124985 11.8144 0.0150663 11.8299 0.0180099ZM13.1433 0.0180099C13.1589 0.0210161 13.1814 0.0208908 13.1933 0.0177594C13.2053 0.0146279 13.1926 0.0121854 13.1651 0.0123106C13.1375 0.0124985 13.1278 0.0150663 13.1433 0.0180099ZM4.00779 3.33166L3.97108 3.37237L4.01173 3.33561C4.04963 3.30129 4.05814 3.29095 4.04844 3.29095C4.04632 3.29095 4.02799 3.30924 4.00779 3.33166ZM20.9643 3.2949C20.9643 3.29703 20.9826 3.31538 21.005 3.33561L21.0456 3.37237L21.0089 3.33166C20.9746 3.29371 20.9643 3.28519 20.9643 3.2949ZM3.69545 3.62777C3.61314 3.70969 3.53189 3.79287 3.51494 3.81253C3.49793 3.83226 3.56692 3.76669 3.66818 3.66692C3.76937 3.56709 3.85224 3.48398 3.85224 3.48216C3.85224 3.47295 3.83373 3.49011 3.69545 3.62777ZM21.3394 3.65821C21.4391 3.75936 21.5231 3.84209 21.5261 3.84209C21.5375 3.84209 21.2798 3.58005 21.202 3.51241C21.1779 3.49149 21.2397 3.55713 21.3394 3.65821ZM3.31981 4.02059L3.28309 4.06129L3.32375 4.02453C3.36165 3.99021 3.37015 3.97988 3.36046 3.97988C3.35833 3.97988 3.34001 3.99816 3.31981 4.02059ZM21.6523 3.98382C21.6523 3.98595 21.6706 4.0043 21.6929 4.02453L21.7336 4.06129L21.6969 4.02059C21.6626 3.98263 21.6523 3.97411 21.6523 3.98382ZM4.73737 10.4019C4.75294 10.405 4.77546 10.4048 4.7874 10.4017C4.79941 10.3986 4.78665 10.3961 4.75913 10.3962C4.73161 10.3964 4.72186 10.399 4.73737 10.4019ZM9.22165 10.4021C9.2406 10.405 9.27156 10.405 9.29045 10.4021C9.3094 10.3992 9.29389 10.3969 9.25605 10.3969C9.21821 10.3969 9.2027 10.3992 9.22165 10.4021ZM20.7923 10.4021C20.8113 10.405 20.8422 10.405 20.8611 10.4021C20.8801 10.3992 20.8645 10.3969 20.8267 10.3969C20.7889 10.3969 20.7734 10.3992 20.7923 10.4021ZM4.29318 11.5917C4.30519 11.5948 4.32495 11.5948 4.33696 11.5917C4.34897 11.5886 4.33915 11.586 4.31507 11.586C4.29099 11.586 4.28117 11.5886 4.29318 11.5917ZM0.0154144 11.8586C0.0154144 11.8896 0.0178536 11.9024 0.0208557 11.8868C0.0238578 11.8714 0.0238578 11.846 0.0208557 11.8305C0.0178536 11.815 0.0154144 11.8276 0.0154144 11.8586ZM0.00390625 12.1843C0.00390625 12.2429 0.00603275 12.2669 0.0086596 12.2375C0.011349 12.2083 0.011349 12.1604 0.0086596 12.1311C0.00603275 12.1018 0.00390625 12.1258 0.00390625 12.1843ZM8.40364 12.1499C8.40889 12.1552 8.7956 12.158 9.26299 12.1562L10.1129 12.153L9.25355 12.1467C8.78091 12.1433 8.39845 12.1447 8.40364 12.1499ZM20.4055 12.1561C20.645 12.158 21.0334 12.158 21.2686 12.1561C21.5037 12.1542 21.3077 12.1527 20.833 12.1527C20.3583 12.1527 20.1659 12.1543 20.4055 12.1561ZM0.00390625 12.8607C0.00390625 12.9193 0.00603275 12.9433 0.0086596 12.9139C0.011349 12.8846 0.011349 12.8368 0.0086596 12.8075C0.00603275 12.7782 0.00390625 12.8022 0.00390625 12.8607ZM9.15911 13.0329C9.57015 13.0348 10.2428 13.0348 10.6539 13.0329C11.065 13.0311 10.7287 13.0296 9.90651 13.0296C9.08437 13.0296 8.74807 13.0311 9.15911 13.0329ZM20.7423 13.0329C21.1533 13.0348 21.826 13.0348 22.2371 13.0329C22.6482 13.0311 22.3118 13.0296 21.4897 13.0296C20.6675 13.0296 20.3312 13.0311 20.7423 13.0329ZM0.0154144 13.1864C0.0154144 13.2174 0.0178536 13.23 0.0208557 13.2146C0.0238578 13.1991 0.0238578 13.1737 0.0208557 13.1582C0.0178536 13.1427 0.0154144 13.1554 0.0154144 13.1864ZM9.4278 13.7716C9.45 13.7744 9.4894 13.7744 9.51536 13.7717C9.54125 13.769 9.52312 13.7668 9.47496 13.7667C9.4268 13.7666 9.40553 13.7688 9.4278 13.7716ZM21.0112 13.7717C21.0335 13.7744 21.0702 13.7744 21.0925 13.7717C21.1148 13.7688 21.0966 13.7666 21.0519 13.7666C21.0071 13.7666 20.9889 13.7688 21.0112 13.7717ZM3.62658 14.3419C3.65723 14.3746 3.684 14.4014 3.686 14.4014C3.69538 14.4014 3.68544 14.3901 3.63021 14.3383L3.5708 14.2824L3.62658 14.3419ZM13.4778 14.702L12.7523 14.7086L13.4739 14.7115C13.9447 14.7135 14.1982 14.7102 14.2033 14.702C14.2075 14.6951 14.2093 14.6908 14.2072 14.6925C14.205 14.6941 13.8768 14.6984 13.4778 14.702ZM16.1203 14.7114C16.3215 14.7133 16.6508 14.7133 16.852 14.7114C17.0532 14.7095 16.8886 14.7079 16.4861 14.7079C16.0837 14.7079 15.9191 14.7095 16.1203 14.7114ZM9.4343 14.8109C9.44631 14.814 9.46608 14.814 9.47808 14.8109C9.49016 14.8077 9.48027 14.8051 9.45619 14.8051C9.43211 14.8051 9.42229 14.8077 9.4343 14.8109ZM21.0175 14.8109C21.0295 14.814 21.0492 14.814 21.0612 14.8109C21.0733 14.8077 21.0634 14.8051 21.0394 14.8051C21.0153 14.8051 21.0054 14.8077 21.0175 14.8109ZM3.28935 20.9939C3.28935 20.9961 3.30761 21.0144 3.33 21.0346L3.37065 21.0714L3.33394 21.0307C3.29967 20.9927 3.28935 20.9842 3.28935 20.9939ZM21.6827 21.0307L21.646 21.0714L21.6867 21.0346C21.7246 21.0003 21.7331 20.99 21.7234 20.99C21.7213 20.99 21.703 21.0083 21.6827 21.0307ZM3.51119 21.2311C3.56823 21.2942 3.76593 21.4908 3.81472 21.5329C3.8388 21.5537 3.77413 21.4851 3.67105 21.3805C3.49374 21.2007 3.42932 21.1406 3.51119 21.2311ZM21.3456 21.3805C21.2426 21.4851 21.1779 21.5537 21.202 21.5329C21.283 21.463 21.5502 21.1904 21.5377 21.1904C21.5352 21.1904 21.4488 21.276 21.3456 21.3805ZM3.97733 21.6829C3.97733 21.685 3.99566 21.7033 4.01799 21.7236L4.05864 21.7603L4.02193 21.7196C3.98765 21.6817 3.97733 21.6732 3.97733 21.6829ZM20.9948 21.7196L20.9581 21.7603L20.9987 21.7236C21.0366 21.6892 21.0451 21.6789 21.0354 21.6789C21.0333 21.6789 21.015 21.6973 20.9948 21.7196Z" fill="#FC7C4F"/>
<path fill-rule="evenodd" clip-rule="evenodd" d="M11.9914 0.00544875C12.0069 0.00845496 12.0322 0.00845496 12.0477 0.00544875C12.0632 0.00244254 12.0505 0 12.0195 0C11.9886 0 11.976 0.00244254 11.9914 0.00544875ZM12.9671 0.00544875C12.9826 0.00845496 13.0079 0.00845496 13.0234 0.00544875C13.0389 0.00244254 13.0262 0 12.9952 0C12.9643 0 12.9516 0.00244254 12.9671 0.00544875ZM11.7414 0.0179746C11.7569 0.0209808 11.7794 0.0208556 11.7914 0.0177241C11.8034 0.0145926 11.7906 0.0121501 11.7631 0.0122753C11.7356 0.0124632 11.7258 0.015031 11.7414 0.0179746ZM13.2299 0.0179746C13.2455 0.0209808 13.268 0.0208556 13.2799 0.0177241C13.2919 0.0145926 13.2792 0.0121501 13.2517 0.0122753C13.2241 0.0124632 13.2144 0.015031 13.2299 0.0179746ZM4.08189 3.25647L4.04518 3.29718L4.08583 3.26042C4.12373 3.2261 4.13224 3.21576 4.12254 3.21576C4.12042 3.21576 4.10209 3.23405 4.08189 3.25647ZM20.8883 3.21971C20.8883 3.22184 20.9066 3.24019 20.929 3.26042L20.9696 3.29718L20.9329 3.25647C20.8986 3.21852 20.8883 3.21 20.8883 3.21971ZM3.90708 3.41931L3.84504 3.48507L3.91071 3.42294C3.97175 3.36513 3.98213 3.35355 3.97275 3.35355C3.97081 3.35355 3.94123 3.38317 3.90708 3.41931ZM21.0947 3.41618C21.1286 3.45062 21.1591 3.47881 21.1626 3.47881C21.166 3.47881 21.1411 3.45062 21.1072 3.41618C21.0733 3.38173 21.0428 3.35355 21.0393 3.35355C21.0359 3.35355 21.0608 3.38173 21.0947 3.41618ZM3.41924 3.90782L3.35719 3.97358L3.42286 3.91145C3.45895 3.87725 3.48854 3.84763 3.48854 3.84569C3.48854 3.83629 3.47696 3.84669 3.41924 3.90782ZM21.5825 3.90469C21.6164 3.93913 21.647 3.96731 21.6504 3.96731C21.6538 3.96731 21.6289 3.93913 21.595 3.90469C21.5611 3.87024 21.5306 3.84206 21.5272 3.84206C21.5237 3.84206 21.5486 3.87024 21.5825 3.90469ZM19.2246 11.0382C19.1942 11.0692 19.1722 11.0945 19.1757 11.0945C19.1791 11.0945 19.2067 11.0692 19.2371 11.0382C19.2675 11.0072 19.2895 10.9818 19.2861 10.9818C19.2827 10.9818 19.255 11.0072 19.2246 11.0382ZM0.0139616 11.7709C0.0139616 11.795 0.0165884 11.8049 0.0197156 11.7928C0.0228428 11.7808 0.0228428 11.7611 0.0197156 11.749C0.0165884 11.737 0.0139616 11.7468 0.0139616 11.7709ZM0.00195312 12.034C0.00195312 12.065 0.00439234 12.0776 0.00739446 12.0622C0.0103966 12.0467 0.0103966 12.0213 0.00739446 12.0058C0.00439234 11.9903 0.00195312 12.003 0.00195312 12.034ZM0.00195312 13.011C0.00195312 13.042 0.00439234 13.0547 0.00739446 13.0392C0.0103966 13.0237 0.0103966 12.9983 0.00739446 12.9828C0.00439234 12.9673 0.00195312 12.98 0.00195312 13.011ZM0.0139616 13.274C0.0139616 13.2981 0.0165884 13.308 0.0197156 13.2959C0.0228428 13.2839 0.0228428 13.2642 0.0197156 13.2521C0.0165884 13.24 0.0139616 13.2499 0.0139616 13.274ZM3.21334 20.9187C3.21334 20.9209 3.23167 20.9392 3.254 20.9595L3.29465 20.9962L3.25794 20.9555C3.22366 20.9176 3.21334 20.909 3.21334 20.9187ZM3.41298 21.1309C3.44363 21.1636 3.4704 21.1904 3.4724 21.1904C3.48178 21.1904 3.47184 21.1791 3.41661 21.1272L3.35719 21.0714L3.41298 21.1309ZM21.5888 21.134C21.5584 21.165 21.5364 21.1904 21.5398 21.1904C21.5433 21.1904 21.5709 21.165 21.6013 21.134C21.6317 21.103 21.6537 21.0776 21.6503 21.0776C21.6468 21.0776 21.6192 21.103 21.5888 21.134ZM3.91384 21.635C3.95117 21.6729 3.98457 21.7039 3.98801 21.7039C3.99145 21.7039 3.96368 21.6729 3.92634 21.635C3.88901 21.5971 3.85561 21.5661 3.85217 21.5661C3.84873 21.5661 3.8765 21.5971 3.91384 21.635ZM21.088 21.6382L21.0196 21.7102L21.0916 21.6417C21.1312 21.6041 21.1635 21.5717 21.1635 21.5697C21.1635 21.5604 21.1515 21.5713 21.088 21.6382Z" fill="#FC9470"/>
<path fill-rule="evenodd" clip-rule="evenodd" d="M3.61916 10.8721L3.58245 10.9128L3.6231 10.8761C3.661 10.8418 3.66951 10.8314 3.65982 10.8314C3.65769 10.8314 3.63936 10.8498 3.61916 10.8721ZM22.2894 10.9606C22.2894 10.9628 22.3077 10.9811 22.33 11.0013L22.3707 11.0381L22.334 10.9974C22.2997 10.9594 22.2894 10.9509 22.2894 10.9606ZM9.22098 11.4417C9.24 11.4445 9.26814 11.4444 9.28353 11.4415C9.29891 11.4385 9.28334 11.4362 9.24894 11.4362C9.21454 11.4364 9.20197 11.4388 9.22098 11.4417ZM20.8041 11.4417C20.8232 11.4445 20.8513 11.4444 20.8667 11.4415C20.8821 11.4385 20.8665 11.4362 20.8321 11.4362C20.7977 11.4364 20.7851 11.4388 20.8041 11.4417ZM21.4263 11.637C21.4263 11.6392 21.4446 11.6575 21.4669 11.6777L21.5076 11.7145L21.4709 11.6738C21.4366 11.6358 21.4263 11.6273 21.4263 11.637ZM3.58164 11.8867L3.54492 11.9274L3.58558 11.8907C3.62348 11.8563 3.63198 11.846 3.62229 11.846C3.62016 11.846 3.60184 11.8644 3.58164 11.8867ZM6.59557 12.6038C6.59563 12.6865 6.59764 12.7187 6.60008 12.6754C6.60251 12.632 6.60251 12.5644 6.60008 12.525C6.59757 12.4857 6.59557 12.5212 6.59557 12.6038ZM7.019 12.5099C7.019 12.534 7.02162 12.5439 7.02475 12.5318C7.02788 12.5198 7.02788 12.5 7.02475 12.488C7.02162 12.4759 7.019 12.4858 7.019 12.5099ZM5.23074 12.5976C5.23074 12.6286 5.23317 12.6412 5.23618 12.6257C5.23918 12.6103 5.23918 12.5849 5.23618 12.5694C5.23317 12.5539 5.23074 12.5666 5.23074 12.5976ZM7.01925 12.704C7.01943 12.7316 7.022 12.7414 7.02494 12.7258C7.02794 12.7102 7.02781 12.6877 7.02469 12.6757C7.02156 12.6637 7.01912 12.6765 7.01925 12.704ZM20.2254 13.4681C20.2488 13.4922 20.2706 13.512 20.2741 13.512C20.2775 13.512 20.2613 13.4922 20.2379 13.4681C20.2146 13.444 20.1927 13.4243 20.1893 13.4243C20.1858 13.4243 20.2021 13.444 20.2254 13.4681ZM4.72413 14.8112C4.74658 14.814 4.78036 14.814 4.79918 14.8111C4.81794 14.8082 4.79956 14.8059 4.75828 14.806C4.717 14.8061 4.70161 14.8084 4.72413 14.8112ZM9.26458 14.8113C9.29385 14.814 9.34163 14.814 9.3709 14.8113C9.40017 14.8086 9.37622 14.8065 9.31774 14.8065C9.25926 14.8065 9.23537 14.8086 9.26458 14.8113ZM20.8477 14.8113C20.877 14.814 20.9249 14.814 20.9541 14.8113C20.9833 14.8086 20.9594 14.8065 20.9009 14.8065C20.8424 14.8065 20.8185 14.8086 20.8477 14.8113Z" fill="#FCA484"/>
</svg>
