<svg width="25" height="25" viewBox="0 0 25 25" fill="none" xmlns="http://www.w3.org/2000/svg">
<path fill-rule="evenodd" clip-rule="evenodd" d="M1.7876e-07 23.7136V7.98815C-0.000115116 7.78393 0.0555426 7.5828 0.16209 7.40241C0.268638 7.22202 0.422821 7.06788 0.611111 6.95352L11.7222 0.21405C11.9519 0.0745478 12.2228 0 12.5 0C12.7772 0 13.0481 0.0745478 13.2778 0.21405L24.3889 6.95352C24.5772 7.06788 24.7314 7.22202 24.8379 7.40241C24.9445 7.5828 25.0001 7.78393 25 7.98815V23.7136C25 24.0446 24.8537 24.362 24.5932 24.5961C24.3327 24.8301 23.9795 24.9616 23.6111 24.9616H1.38889C1.02053 24.9616 0.667264 24.8301 0.406796 24.5961C0.146329 24.362 1.7876e-07 24.0446 1.7876e-07 23.7136ZM10 23.7136H18.5H23.6111V8.65211L12.5 1.5L1.38889 8.65211V23.7136H10Z" fill="white"/>
<path fill-rule="evenodd" clip-rule="evenodd" d="M18.0773 24.5H6.96615V13.7676C6.96615 13.4366 7.11248 13.1191 7.37294 12.8851C7.63341 12.651 7.98668 12.5195 8.35504 12.5195H16.6884C17.0567 12.5195 17.41 12.651 17.6705 12.8851C17.9309 13.1191 18.0773 13.4366 18.0773 13.7676V24.5ZM8.35504 13.7676V23.5H16.6884V13.7676H8.35504Z" fill="white"/>
</svg>
