<svg width="25" height="25" viewBox="0 0 25 25" fill="none" xmlns="http://www.w3.org/2000/svg">
<path d="M12.5 0C5.61676 0 0 5.61771 0 12.5C0 19.3832 5.61771 25 12.5 25C19.3832 25 25 19.3823 25 12.5C25 5.61676 19.3823 0 12.5 0ZM12.5 23.5352C6.41518 23.5352 1.46484 18.5848 1.46484 12.5C1.46484 6.41518 6.41518 1.46484 12.5 1.46484C18.5848 1.46484 23.5352 6.41518 23.5352 12.5C23.5352 18.5848 18.5848 23.5352 12.5 23.5352Z" fill="white"/>
<path d="M20.9967 8.10551L15.4297 3.65186V5.90825H14.9155C13.2135 5.90825 11.6165 6.76408 10.6689 8.16273C9.72137 6.76408 8.12435 5.90825 6.42242 5.90825H4.44336V10.3028H6.42242C6.68182 10.3028 6.92425 10.442 7.05509 10.6661L8.12511 12.5L7.05528 14.3338C6.92444 14.5581 6.68182 14.6973 6.42242 14.6973H4.44336V19.0918H6.42242C8.12435 19.0918 9.72137 18.236 10.6689 16.8374C11.6165 18.236 13.2135 19.0918 14.9155 19.0918H15.4297V21.3482L20.9967 16.8946L15.5035 12.5L20.9967 8.10551ZM8.32024 9.9278C7.92789 9.25565 7.20062 8.83794 6.42242 8.83794H5.9082V7.37309H6.42242C7.7198 7.37309 8.93192 8.06927 9.58576 9.18984L9.82094 9.59325L8.97293 11.0466L8.32024 9.9278ZM9.58576 15.8102C8.93192 16.9308 7.7198 17.627 6.42242 17.627H5.9082V16.1622H6.42242C7.20062 16.1622 7.92789 15.7444 8.32043 15.0721L11.7521 9.18984C12.406 8.06927 13.6181 7.37309 14.9155 7.37309H16.8945V6.6998L18.6518 8.10551L16.8945 9.51123V8.83794H14.9155C14.1373 8.83794 13.41 9.25565 13.0175 9.92799L9.58576 15.8102ZM16.8945 15.4889L18.6518 16.8946L16.8945 18.3003V17.627H14.9155C13.6181 17.627 12.406 16.9308 11.7521 15.8102L11.517 15.4068L12.365 13.9534L13.0177 15.0723C13.41 15.7444 14.1373 16.1622 14.9155 16.1622H16.8945V15.4889ZM15.4297 14.6973H14.9155C14.6561 14.6973 14.4136 14.5581 14.2828 14.334L13.2128 12.5L14.2826 10.6663C14.4136 10.442 14.6561 10.3028 14.9155 10.3028H15.4297V14.6973Z" fill="white"/>
</svg>
