<svg width="25" height="25" viewBox="0 0 25 25" fill="none" xmlns="http://www.w3.org/2000/svg">
<path d="M16.7906 15.9112L15.5547 15.1244L18.4266 10.6118L19.6624 11.3986L16.7906 15.9112Z" fill="white"/>
<path d="M10.9766 4.44336H14.0234V5.9082H10.9766V4.44336Z" fill="white"/>
<path d="M12.5 4.44336H14.0234V5.9082H12.5V4.44336Z" fill="white"/>
<path d="M8.20959 15.9112L5.33789 11.3986L6.57366 10.6118L9.44556 15.1244L8.20959 15.9112Z" fill="white"/>
<path d="M5.9082 0C2.67086 0 0 2.67086 0 5.9082C0 9.14555 2.67086 11.7676 5.9082 11.7676C9.14555 11.7676 11.7676 9.14555 11.7676 5.9082C11.7676 2.67086 9.14555 0 5.9082 0Z" fill="#FF4200"/>
<path d="M11.7676 5.9082C11.7676 9.14555 9.14555 11.7676 5.9082 11.7676V0C9.14555 0 11.7676 2.67086 11.7676 5.9082Z" fill="#FF4200"/>
<path d="M8.97063 9.04293C8.17965 9.81922 7.11039 10.3027 5.90914 10.3027C4.70789 10.3027 3.58981 9.81922 2.79883 9.04293C3.44332 8.04691 4.62016 7.37305 5.90914 7.37305C7.19813 7.37305 8.32613 8.04691 8.97063 9.04293Z" fill="#FFC6B2"/>
<path d="M8.96969 9.04293C8.17871 9.81922 7.10945 10.3027 5.9082 10.3027V7.37305C7.19719 7.37305 8.3252 8.04691 8.96969 9.04293Z" fill="#FFC6B2"/>
<path d="M5.9082 2.97852C4.69227 2.97852 3.71094 3.95985 3.71094 5.17578C3.71094 6.39153 4.69227 7.37305 5.9082 7.37305C7.12414 7.37305 8.10547 6.39153 8.10547 5.17578C8.10547 3.95985 7.12414 2.97852 5.9082 2.97852Z" fill="#FFC6B2"/>
<path d="M5.9082 7.37305V2.97852C7.12414 2.97852 8.10547 3.95985 8.10547 5.17578C8.10547 6.39153 7.12414 7.37305 5.9082 7.37305Z" fill="#FFC6B2"/>
<path d="M19.0918 0C15.8545 0 13.2324 2.67086 13.2324 5.9082C13.2324 9.14555 15.8545 11.7676 19.0918 11.7676C22.3291 11.7676 25 9.14555 25 5.9082C25 2.67086 22.3291 0 19.0918 0Z" fill="#FF4200"/>
<path d="M25 5.9082C25 9.14555 22.3291 11.7676 19.0918 11.7676V0C22.3291 0 25 2.67086 25 5.9082Z" fill="#FF4200"/>
<path d="M22.1542 9.04293C21.3632 9.81922 20.294 10.3027 19.0927 10.3027C17.8915 10.3027 16.8222 9.81922 16.0312 9.04293C16.6757 8.04691 17.8037 7.37305 19.0927 7.37305C20.3817 7.37305 21.5097 8.04691 22.1542 9.04293V9.04293Z" fill="#FFC6B2"/>
<path d="M22.1533 9.04293C21.3623 9.81922 20.293 10.3027 19.0918 10.3027V7.37305C20.3808 7.37305 21.5088 8.04691 22.1533 9.04293V9.04293Z" fill="#FFC6B2"/>
<path d="M19.0918 2.97852C17.8759 2.97852 16.8945 3.95985 16.8945 5.17578C16.8945 6.39153 17.8759 7.37305 19.0918 7.37305C20.3077 7.37305 21.2891 6.39153 21.2891 5.17578C21.2891 3.95985 20.3077 2.97852 19.0918 2.97852Z" fill="#FFC6B2"/>
<path d="M19.0918 7.37305V2.97852C20.3077 2.97852 21.2891 3.95985 21.2891 5.17578C21.2891 6.39153 20.3077 7.37305 19.0918 7.37305Z" fill="#FFC6B2"/>
<path d="M12.5 13.2324C9.26266 13.2324 6.64062 15.8545 6.64062 19.0918C6.64062 22.3291 9.26266 25 12.5 25C15.7373 25 18.3594 22.3291 18.3594 19.0918C18.3594 15.8545 15.7373 13.2324 12.5 13.2324Z" fill="#FF4200"/>
<path d="M18.3594 19.0918C18.3594 22.3291 15.7373 25 12.5 25V13.2324C15.7373 13.2324 18.3594 15.8545 18.3594 19.0918Z" fill="#FF4200"/>
<path d="M15.5624 22.2754C14.7714 23.0516 13.7022 23.5352 12.5009 23.5352C11.2997 23.5352 10.2304 23.0516 9.43945 22.2754C10.0839 21.2793 11.212 20.5566 12.5009 20.5566C13.7899 20.5566 14.9179 21.2793 15.5624 22.2754V22.2754Z" fill="#FFC6B2"/>
<path d="M15.5615 22.2754C14.7705 23.0516 13.7012 23.5352 12.5 23.5352V20.5566C13.789 20.5566 14.917 21.2793 15.5615 22.2754V22.2754Z" fill="#FFC6B2"/>
<path d="M12.5 16.1621C11.2841 16.1621 10.3027 17.1434 10.3027 18.3594C10.3027 19.5751 11.2841 20.5566 12.5 20.5566C13.7159 20.5566 14.6973 19.5751 14.6973 18.3594C14.6973 17.1434 13.7159 16.1621 12.5 16.1621Z" fill="#FFC6B2"/>
<path d="M12.5 20.5566V16.1621C13.7159 16.1621 14.6973 17.1434 14.6973 18.3594C14.6973 19.5751 13.7159 20.5566 12.5 20.5566Z" fill="#FFC6B2"/>
</svg>
