<svg width="25" height="25" viewBox="0 0 25 25" fill="none" xmlns="http://www.w3.org/2000/svg">
<path d="M25 12.5C25 16.1583 23.4282 19.4496 20.9234 21.7358C18.7012 23.7633 15.7452 25 12.5 25C9.25484 25 6.29883 23.7633 4.07658 21.7358C1.57185 19.4496 0 16.1583 0 12.5C0 5.59673 5.59673 0 12.5 0C19.4033 0 25 5.59673 25 12.5Z" fill="#FF4200"/>
<path d="M25 12.5C25 16.1583 23.4282 19.4496 20.9234 21.7358C18.7012 23.7633 15.7452 25 12.5 25V0C19.4033 0 25 5.59673 25 12.5Z" fill="#FF4200"/>
<path d="M20.923 21.6859V21.7357C18.7008 23.7632 15.7448 24.9999 12.4996 24.9999C9.25443 24.9999 6.29842 23.7632 4.07617 21.7357V21.6859C4.07617 18.0648 6.37319 14.9696 9.58707 13.7823C10.4948 13.4462 11.4761 13.2627 12.4996 13.2627C13.5231 13.2627 14.5044 13.4462 15.4127 13.7823C18.6266 14.9702 20.923 18.0648 20.923 21.6859Z" fill="#FFC6B2"/>
<path d="M20.9234 21.6859V21.7357C18.7012 23.7632 15.7452 24.9999 12.5 24.9999V13.2627C13.5235 13.2627 14.5048 13.4462 15.4131 13.7823C18.627 14.9702 20.9234 18.0648 20.9234 21.6859Z" fill="#FFC6B2"/>
<path d="M17.6669 9.51763C17.6669 12.3663 15.3496 14.6843 12.5004 14.6843C9.65179 14.6843 7.33398 12.3663 7.33398 9.51763C7.33398 6.66901 9.65179 4.3512 12.5004 4.3512C15.3496 4.3512 17.6669 6.66901 17.6669 9.51763V9.51763Z" fill="white"/>
<path d="M17.6664 9.51763C17.6664 12.3663 15.3492 14.6843 12.5 14.6843V4.3512C15.3492 4.3512 17.6664 6.66901 17.6664 9.51763V9.51763Z" fill="white"/>
</svg>
