<svg width="25" height="25" viewBox="0 0 25 25" fill="none" xmlns="http://www.w3.org/2000/svg">
<path d="M14.6973 18.4082C14.6973 17.1967 13.7115 16.2109 12.5 16.2109C11.2885 16.2109 10.3027 17.1967 10.3027 18.4082C10.3027 19.6198 11.2885 20.6055 12.5 20.6055C13.7115 20.6055 14.6973 19.6198 14.6973 18.4082ZM12.5 19.1406C12.0962 19.1406 11.7676 18.812 11.7676 18.4082C11.7676 18.0044 12.0962 17.6758 12.5 17.6758C12.9038 17.6758 13.2324 18.0044 13.2324 18.4082C13.2324 18.812 12.9038 19.1406 12.5 19.1406Z" fill="white"/>
<path d="M8.10547 5.12695C8.10547 3.91541 7.11975 2.92969 5.9082 2.92969C4.69666 2.92969 3.71094 3.91541 3.71094 5.12695C3.71094 6.3385 4.69666 7.32422 5.9082 7.32422C7.11975 7.32422 8.10547 6.3385 8.10547 5.12695ZM5.9082 5.85938C5.50442 5.85938 5.17578 5.53074 5.17578 5.12695C5.17578 4.72317 5.50442 4.39453 5.9082 4.39453C6.31199 4.39453 6.64062 4.72317 6.64062 5.12695C6.64062 5.53074 6.31199 5.85938 5.9082 5.85938Z" fill="white"/>
<path d="M21.2891 5.12695C21.2891 3.91541 20.3033 2.92969 19.0918 2.92969C17.8802 2.92969 16.8945 3.91541 16.8945 5.12695C16.8945 6.3385 17.8802 7.32422 19.0918 7.32422C20.3033 7.32422 21.2891 6.3385 21.2891 5.12695ZM19.0918 5.85938C18.688 5.85938 18.3594 5.53074 18.3594 5.12695C18.3594 4.72317 18.688 4.39453 19.0918 4.39453C19.4956 4.39453 19.8242 4.72317 19.8242 5.12695C19.8242 5.53074 19.4956 5.85938 19.0918 5.85938Z" fill="white"/>
<path d="M19.0918 0C16.3666 0 14.0699 1.87016 13.4178 4.39453H11.5822C10.9301 1.87016 8.63342 0 5.9082 0C2.67658 0 0 2.62299 0 5.85938C0 9.01871 2.53105 11.5326 5.56126 11.7083L7.91836 15.4924C7.11918 16.4942 6.64062 17.7626 6.64062 19.1406C6.64062 22.3715 9.26914 25 12.5 25C15.7309 25 18.3594 22.3715 18.3594 19.1406C18.3594 17.7626 17.8808 16.4942 17.0816 15.4926L19.4389 11.7083C22.4707 11.5324 25 9.01737 25 5.85938C25 2.62737 22.3282 0 19.0918 0ZM13.2324 5.85938C13.2324 8.64525 15.1869 10.9831 17.7965 11.5742L16.0061 14.4487C15.0278 13.7157 13.8136 13.2812 12.5 13.2812C11.1864 13.2812 9.97219 13.7157 8.99391 14.4487L7.20348 11.5742C9.81312 10.9831 11.7676 8.64525 11.7676 5.85938H13.2324ZM17.2211 9.83524C17.6151 9.2001 18.322 8.78906 19.0918 8.78906C19.8647 8.78906 20.574 9.20315 20.9671 9.84268C20.397 10.1063 19.7617 10.2539 19.0918 10.2539C18.4231 10.2539 17.7891 10.1036 17.2211 9.83524ZM5.9082 10.2539C5.23834 10.2539 4.603 10.1063 4.0329 9.84268C4.426 9.20315 5.13535 8.78906 5.9082 8.78906C6.67801 8.78906 7.38487 9.2001 7.77893 9.83524C7.21111 10.1036 6.57692 10.2539 5.9082 10.2539ZM1.46484 5.85938C1.46484 3.43628 3.45802 1.46484 5.9082 1.46484C8.3313 1.46484 10.3027 3.43628 10.3027 5.85938C10.3027 7.08733 9.79633 8.19912 8.98151 8.99715C8.3147 7.96947 7.18002 7.32422 5.9082 7.32422C4.60091 7.32422 3.47061 8.00247 2.82154 9.01737C1.98555 8.21781 1.46484 7.09763 1.46484 5.85938ZM10.6293 23.1165C11.0233 22.4813 11.7302 22.0703 12.5 22.0703C13.2698 22.0703 13.9767 22.4813 14.3707 23.1165C13.8027 23.3849 13.1687 23.5352 12.5 23.5352C11.8313 23.5352 11.1971 23.3849 10.6293 23.1165ZM15.5733 22.2784C14.9065 21.2507 13.7718 20.6055 12.5 20.6055C11.2303 20.6055 10.0946 21.249 9.42669 22.2784C8.61187 21.4804 8.10547 20.3686 8.10547 19.1406C8.10547 16.7175 10.0769 14.7461 12.5 14.7461C14.9231 14.7461 16.8945 16.7175 16.8945 19.1406C16.8945 20.3686 16.3881 21.4804 15.5733 22.2784ZM22.1785 9.01737C21.5292 8.00228 20.3991 7.32422 19.0918 7.32422C17.8221 7.32422 16.6864 7.96776 16.0185 8.99715C15.2037 8.19912 14.6973 7.08733 14.6973 5.85938C14.6973 3.43628 16.6687 1.46484 19.0918 1.46484C23.0877 1.46484 25.0334 6.287 22.1785 9.01737Z" fill="white"/>
</svg>
