<svg width="25" height="25" viewBox="0 0 25 25" fill="none" xmlns="http://www.w3.org/2000/svg">
<path d="M12.0376 0.00919342C8.92519 0.12322 5.97923 1.39381 3.75662 3.57913C3.3549 3.97509 3.05204 4.30965 2.71665 4.73067C1.957 5.68424 1.32626 6.77314 0.876986 7.9059C0.0184783 10.0762 -0.216798 12.4645 0.202444 14.7814C0.566622 16.7963 1.43764 18.7147 2.71665 20.3211C3.05204 20.7421 3.3549 21.0767 3.75662 21.4726C5.65385 23.3384 8.10172 24.5526 10.7198 24.9235C11.2792 25.0037 11.1954 25 12.5094 25C13.8234 25 13.7396 25.0037 14.299 24.9235C16.0235 24.6792 17.7067 24.0577 19.186 23.1204C20.7541 22.1267 22.1107 20.7697 23.0918 19.2109C24.1781 17.4842 24.8163 15.5633 24.9803 13.5246C25.0066 13.19 25.0066 11.8618 24.9803 11.5272C24.8239 9.58498 24.2382 7.75177 23.2445 6.09149C22.6888 5.16298 22.0506 4.35476 21.2622 3.57913C19.1672 1.51912 16.4378 0.273586 13.5043 0.0392666C13.0125 0.000423431 12.5407 -0.00960159 12.0376 0.00919342ZM5.07567 10.4295C5.47739 10.4947 5.84907 10.7002 6.09436 10.9947C6.34466 11.2979 6.50109 11.6726 6.57242 12.1437C6.60496 12.3555 6.60496 12.8592 6.57242 13.071C6.49233 13.6023 6.30211 14.017 6.00175 14.3177C5.71392 14.6072 5.37852 14.7626 4.94176 14.8077C4.43617 14.8591 3.98063 14.6999 3.62772 14.3466L3.51133 14.23V15.2701V16.3101H2.84179H2.17226V13.4093V10.5085H2.84179H3.51133V10.7428V10.9784L3.63397 10.8593C4.02193 10.4822 4.50625 10.3381 5.07567 10.4295ZM9.41827 10.4082C10.3281 10.4784 11.0051 11.0172 11.2754 11.8893C11.3656 12.1775 11.3956 12.4031 11.3956 12.7828V13.0396H9.90634H8.41709L8.4246 13.0735C8.44337 13.1562 8.5097 13.2902 8.56977 13.3704C8.69492 13.5383 8.89891 13.6687 9.13043 13.7313C9.22304 13.7564 9.26684 13.7601 9.46832 13.7601C9.71737 13.7601 9.81248 13.7464 10.0027 13.6837C10.1829 13.6236 10.3156 13.5534 10.482 13.4306C10.502 13.4168 10.5321 13.4569 10.7886 13.8366L11.074 14.2576L11.0377 14.2877C10.9501 14.3603 10.7511 14.4857 10.6309 14.542C10.288 14.7037 9.87881 14.7964 9.42452 14.8152C8.86887 14.8365 8.3445 14.6974 7.92151 14.4167C7.74881 14.3015 7.50602 14.0621 7.39339 13.8942C7.24321 13.6737 7.11806 13.3767 7.06675 13.1173C6.87903 12.1863 7.22319 11.2816 7.95279 10.7854C8.26566 10.5724 8.66613 10.4371 9.07411 10.4082C9.14294 10.4032 9.21052 10.3982 9.22429 10.3982C9.23805 10.397 9.32566 10.402 9.41827 10.4082ZM20.9994 10.4082C21.789 10.4659 22.4085 10.8806 22.7389 11.5736C22.9116 11.937 22.9842 12.2966 22.9842 12.7915V13.0396H21.4937H20.0032L20.0107 13.071C20.0895 13.383 20.3586 13.6348 20.7128 13.7301C20.8567 13.7689 21.147 13.7777 21.3222 13.7476C21.5725 13.7063 21.8416 13.5997 22.003 13.4782C22.0481 13.4431 22.0906 13.4181 22.0957 13.4243C22.1007 13.4293 22.2296 13.6198 22.3822 13.8453L22.6588 14.2563L22.62 14.2902C22.192 14.6561 21.3673 14.8716 20.6439 14.8052C19.7366 14.7225 19.0371 14.2225 18.7492 13.4506C18.5865 13.0146 18.5577 12.4758 18.6729 12.0334C18.803 11.5297 19.0884 11.1099 19.5001 10.8142C19.8393 10.5711 20.241 10.4358 20.719 10.4045C20.7503 10.402 20.7866 10.3995 20.8004 10.3982C20.8141 10.397 20.9043 10.402 20.9994 10.4082ZM12.8974 10.5147C12.8974 10.526 13.5606 13.0446 13.5644 13.0484C13.5669 13.0497 13.7521 12.4808 13.9749 11.7828L14.3816 10.5147L14.9823 10.511L15.583 10.5085L15.9885 11.7741C16.2125 12.4695 16.3977 13.0396 16.4015 13.0396C16.4052 13.0396 16.5541 12.477 16.7319 11.7891C16.9096 11.1024 17.0585 10.5323 17.0622 10.5235C17.066 10.5122 17.2174 10.5085 17.7606 10.5085C18.1423 10.5085 18.4539 10.511 18.4539 10.5135C18.4539 10.5172 17.3689 14.1962 17.2199 14.6962C17.2137 14.7175 17.1674 14.7187 16.4891 14.7187H15.7657L15.7482 14.6586C15.578 14.0809 14.9798 12.1412 14.9748 12.1525C14.9723 12.1612 14.7971 12.7414 14.5868 13.4406L14.2039 14.7125L13.4855 14.7162C13.0901 14.7175 12.7634 14.715 12.7584 14.7099C12.7534 14.7037 12.4756 13.7727 12.1402 12.6387C11.8061 11.5047 11.527 10.5624 11.5207 10.5423L11.5095 10.5085H12.204C12.5845 10.5085 12.8974 10.511 12.8974 10.5147Z" fill="white"/>
<path d="M4.08239 11.6237C3.88966 11.6726 3.67066 11.7979 3.56303 11.9194L3.51172 11.9783V12.6098V13.2401L3.56428 13.2978C3.67691 13.4206 3.89092 13.5421 4.08114 13.5922C4.2188 13.6286 4.41904 13.6286 4.5542 13.5922C4.70938 13.5509 4.81701 13.4882 4.93965 13.3654C5.02976 13.2765 5.05729 13.2389 5.1061 13.1399C5.19871 12.9494 5.21748 12.8592 5.21748 12.6073C5.21748 12.3567 5.19871 12.2652 5.1086 12.081C5.00723 11.8755 4.82577 11.7152 4.61302 11.6437C4.46784 11.5949 4.23257 11.5861 4.08239 11.6237Z" fill="white"/>
<path d="M9.03627 11.4683C8.7597 11.5285 8.5357 11.729 8.44059 12.0021C8.42057 12.0598 8.4043 12.1162 8.4043 12.1274C8.4043 12.1487 8.4531 12.15 9.25527 12.15C10.2301 12.15 10.1263 12.1663 10.08 12.0172C10.0387 11.8806 9.98361 11.7891 9.88099 11.6851C9.77837 11.5824 9.66449 11.5159 9.52433 11.4784C9.41546 11.4495 9.1464 11.4433 9.03627 11.4683Z" fill="white"/>
<path d="M20.6307 11.4658C20.463 11.5021 20.3328 11.5723 20.2215 11.6876C20.1113 11.8004 20.0412 11.9257 20.0012 12.0785L19.9824 12.15H20.8397H21.6969L21.6882 12.1023C21.6581 11.9382 21.5593 11.7603 21.4341 11.6487C21.3565 11.5798 21.2251 11.5097 21.1125 11.4796C21.0086 11.452 20.7358 11.4445 20.6307 11.4658Z" fill="white"/>
</svg>
