<svg width="19" height="25" viewBox="0 0 19 25" fill="none" xmlns="http://www.w3.org/2000/svg">
<path d="M17.8125 24.375H0.9375C0.42 24.375 0 23.955 0 23.4375C0 22.92 0.42 22.5 0.9375 22.5H17.8125C18.33 22.5 18.75 22.92 18.75 23.4375C18.75 23.955 18.33 24.375 17.8125 24.375Z" fill="#FF4200"/>
<path d="M15.9375 19.6875C15.42 19.6875 15.0005 19.2684 15 18.7514C14.9963 16.1831 12.3994 14.7028 9.96516 13.5173C9.64172 13.3598 9.29813 13.1995 8.94281 13.0345C5.9625 11.6456 1.88109 9.74344 1.875 5.62641C1.87453 5.10891 2.29359 4.68844 2.81109 4.6875H2.8125C3.32953 4.6875 3.74953 5.10656 3.75 5.62359C3.75422 8.54766 6.93188 10.028 9.735 11.3348C10.1002 11.505 10.4536 11.67 10.7864 11.8322C12.9127 12.8677 16.8698 14.7947 16.8755 18.7491C16.8759 19.2666 16.4569 19.687 15.9394 19.688C15.9384 19.6875 15.938 19.6875 15.9375 19.6875Z" fill="#FF4200"/>
<path d="M2.8125 19.6875C2.81203 19.6875 2.81156 19.6875 2.8111 19.6875C2.2936 19.6866 1.87406 19.2666 1.875 18.7486C1.8811 14.6316 5.9625 12.7294 8.94281 11.3405C9.29813 11.175 9.64172 11.0152 9.96516 10.8577C12.3994 9.67219 14.9963 8.19234 15 5.62359C15.0005 5.10656 15.4205 4.6875 15.9375 4.6875H15.9389C16.4564 4.68844 16.8759 5.10844 16.875 5.62641C16.8694 9.58078 12.9122 11.5078 10.7859 12.5433C10.4531 12.7055 10.1002 12.87 9.73453 13.0406C6.93188 14.3466 3.75422 15.8273 3.75 18.7514C3.74953 19.2684 3.32953 19.6875 2.8125 19.6875Z" fill="#FF4200"/>
<path d="M15.9375 24.375C15.42 24.375 15 23.955 15 23.4375V18.75C15 18.2325 15.42 17.8125 15.9375 17.8125C16.455 17.8125 16.875 18.2325 16.875 18.75V23.4375C16.875 23.955 16.455 24.375 15.9375 24.375Z" fill="#FF4200"/>
<path d="M2.8125 24.375C2.295 24.375 1.875 23.955 1.875 23.4375V18.75C1.875 18.2325 2.295 17.8125 2.8125 17.8125C3.33 17.8125 3.75 18.2325 3.75 18.75V23.4375C3.75 23.955 3.33 24.375 2.8125 24.375Z" fill="#FF4200"/>
<path d="M15.9375 6.5625C15.42 6.5625 15 6.1425 15 5.625V0.9375C15 0.42 15.42 0 15.9375 0C16.455 0 16.875 0.42 16.875 0.9375V5.625C16.875 6.1425 16.455 6.5625 15.9375 6.5625Z" fill="#FF4200"/>
<path d="M2.8125 6.5625C2.295 6.5625 1.875 6.1425 1.875 5.625V0.9375C1.875 0.42 2.295 0 2.8125 0C3.33 0 3.75 0.42 3.75 0.9375V5.625C3.75 6.1425 3.33 6.5625 2.8125 6.5625Z" fill="#FF4200"/>
<path d="M17.8125 1.875H0.9375C0.42 1.875 0 1.455 0 0.9375C0 0.42 0.42 0 0.9375 0H17.8125C18.33 0 18.75 0.42 18.75 0.9375C18.75 1.455 18.33 1.875 17.8125 1.875Z" fill="#FF4200"/>
</svg>
