<svg width="30" height="30" viewBox="0 0 30 30" fill="none" xmlns="http://www.w3.org/2000/svg">
<path d="M15 0C6.7291 0 0 6.72894 0 15C0 23.2711 6.7291 30 15 30C23.2709 30 30 23.2711 30 15C30 6.72894 23.2709 0 15 0ZM15 27.76C7.96401 27.76 2.24005 22.0358 2.24005 15C2.24005 7.96417 7.96401 2.24005 15 2.24005C22.036 2.24005 27.76 7.96417 27.76 15C27.76 22.0358 22.036 27.76 15 27.76Z" fill="black"/>
<path d="M16.3249 8.76965H12.08C11.4614 8.76965 10.96 9.2711 10.96 9.88968V15V20.1104C10.96 20.7289 11.4614 21.2304 12.08 21.2304C12.6986 21.2304 13.2 20.7289 13.2 20.1104V16.1201H16.3249C18.3515 16.1201 20.0002 14.4714 20.0002 12.4448C20.0002 10.4183 18.3515 8.76965 16.3249 8.76965ZM16.3249 13.88H13.2V11.0097H16.3249C17.1163 11.0097 17.7601 11.6536 17.7601 12.4449C17.7601 13.2363 17.1164 13.88 16.3249 13.88Z" fill="black"/>
</svg>
