<svg width="27" height="27" viewBox="0 0 27 27" fill="none" xmlns="http://www.w3.org/2000/svg">
<path d="M13.125 0C5.88797 0 0 5.88783 0 13.125C0 20.3622 5.88797 26.25 13.125 26.25C20.362 26.25 26.25 20.3622 26.25 13.125C26.25 5.88783 20.362 0 13.125 0ZM13.125 24.29C6.96851 24.29 1.96004 19.2814 1.96004 13.125C1.96004 6.96865 6.96851 1.96004 13.125 1.96004C19.2815 1.96004 24.29 6.96865 24.29 13.125C24.29 19.2814 19.2815 24.29 13.125 24.29Z" fill="white"/>
<path d="M14.2841 7.67383H10.5699C10.0286 7.67383 9.58984 8.1126 9.58984 8.65385V13.1254V17.597C9.58984 18.1382 10.0286 18.577 10.5699 18.577C11.1111 18.577 11.5499 18.1382 11.5499 17.597V14.1054H14.2841C16.0574 14.1054 17.5 12.6628 17.5 10.8896C17.5 9.11642 16.0574 7.67383 14.2841 7.67383ZM14.2841 12.1454H11.5499V9.63387H14.2841C14.9766 9.63387 15.54 10.1972 15.54 10.8897C15.54 11.5822 14.9767 12.1454 14.2841 12.1454Z" fill="white"/>
</svg>
