<svg width="30" height="31" viewBox="0 0 30 31" fill="none" xmlns="http://www.w3.org/2000/svg">
<path fill-rule="evenodd" clip-rule="evenodd" d="M14.6141 7.60508C14.6141 7.61281 14.4182 9.2245 14.179 11.1866C13.9396 13.1486 13.7355 14.8249 13.7252 14.9116L13.7065 15.0692H12.5091C11.3418 15.0692 11.3117 15.0677 11.3117 15.0107C11.3117 14.9579 11.7371 11.4593 11.7764 11.189L11.7927 11.0764H10.5766C9.90765 11.0764 9.36059 11.0866 9.36081 11.0989C9.36111 11.1113 9.25056 12.0097 9.11516 13.0953L8.86907 15.0692H7.01323C5.72285 15.0692 5.1574 15.079 5.1574 15.1011C5.1574 15.1376 4.92661 16.9168 4.89967 17.0881L4.88196 17.2007H6.7459C7.77104 17.2007 8.60923 17.2109 8.60848 17.2232C8.60773 17.2356 8.49538 18.1342 8.35886 19.2202C8.22226 20.3061 8.11704 21.2011 8.12499 21.2091C8.16154 21.2456 10.5332 21.223 10.5457 21.186C10.5527 21.1654 10.6604 20.3042 10.7851 19.2722C10.9098 18.2402 11.0191 17.352 11.028 17.2983L11.0442 17.2007H12.2456H13.4469L13.4291 17.3283C13.4194 17.3985 13.2704 18.6177 13.0981 20.0377C12.9259 21.4577 12.7786 22.6634 12.7708 22.7171L12.7565 22.8147H14.4508C15.3827 22.8147 16.1451 22.8108 16.1451 22.806C16.1451 22.8013 16.287 21.6588 16.4604 20.2672C16.6337 18.8755 16.7756 17.7258 16.7756 17.7123C16.7756 17.6988 17.3599 17.6808 18.074 17.6725C19.0501 17.6611 19.4581 17.6451 19.7177 17.608C22.962 17.1448 24.7406 15.1528 24.7451 11.9771C24.7487 9.49401 23.5023 8.08925 20.9185 7.66422C20.618 7.61484 14.6141 7.55848 14.6141 7.60508ZM19.6399 10.1469C20.7952 10.2792 21.3259 10.9513 21.3221 12.2773C21.3175 13.8896 20.7171 14.7894 19.4653 15.06C19.1058 15.1377 17.1058 15.1543 17.1059 15.0796C17.106 15.0491 17.2411 13.932 17.4061 12.5969C17.5712 11.262 17.7062 10.1576 17.7062 10.1427C17.7062 10.1055 19.3082 10.1089 19.6399 10.1469Z" fill="#FBFBFB"/>
<path fill-rule="evenodd" clip-rule="evenodd" d="M13.2782 0.046437C12.4196 0.144456 11.0899 0.416372 10.5613 0.602128C10.4705 0.634025 10.3575 0.667049 10.3103 0.675529C10.2631 0.68401 10.0807 0.749532 9.90498 0.821057C9.72935 0.892657 9.48431 0.988875 9.36047 1.03481C9.23663 1.08081 9.0475 1.15992 8.94017 1.21058C8.83285 1.26124 8.73828 1.30417 8.73003 1.30597C8.72177 1.30777 8.64747 1.3396 8.56491 1.37675C8.48235 1.4139 8.36797 1.46396 8.31078 1.48805C8.25359 1.51214 8.19955 1.54141 8.1907 1.5532C8.18184 1.5649 8.12735 1.5977 8.06956 1.626C8.01177 1.65429 7.89019 1.71996 7.79937 1.7719C7.70856 1.82376 7.58022 1.89664 7.51417 1.93379C7.44812 1.97087 7.33329 2.03759 7.25899 2.08194C7.18469 2.1263 7.10025 2.17028 7.07136 2.17974C7.04246 2.18919 7.01882 2.20886 7.01882 2.22349C7.01882 2.23805 7.00479 2.24999 6.9876 2.24999C6.9545 2.24999 6.77633 2.36774 6.74525 2.41015C6.7352 2.42396 6.71493 2.43597 6.70022 2.43687C6.68559 2.43777 6.63305 2.46801 6.58352 2.50412C6.53398 2.54014 6.35648 2.66683 6.18904 2.78556C6.0216 2.90437 5.86789 3.02153 5.84762 3.04607C5.82728 3.07054 5.79929 3.09058 5.78548 3.09058C5.76191 3.09058 5.69789 3.14296 5.48617 3.33562C5.43783 3.37961 5.38672 3.42013 5.37261 3.42569C5.27857 3.46276 4.40698 4.29142 4.40698 4.34373C4.40698 4.3604 4.27527 4.50157 4.11428 4.65745C3.84221 4.92096 3.20501 5.65408 3.04628 5.88622C3.00815 5.94198 2.85106 6.16189 2.69728 6.37489C2.39549 6.79301 2.10669 7.24317 1.98435 7.48649C1.94225 7.57025 1.82254 7.78783 1.71829 7.96998C1.43429 8.46623 1.08042 9.27815 0.739677 10.2154C-0.15848 12.6858 -0.246668 16.2184 0.518796 19.0618C0.929636 20.588 1.75852 22.3378 2.67146 23.6063C2.83928 23.8395 3.00785 24.0759 3.04605 24.1317C3.3591 24.5884 4.52309 25.822 5.11593 26.3254C5.29561 26.4781 5.46448 26.6278 5.49112 26.6583C5.53315 26.7064 5.71741 26.8423 6.64356 27.5085C6.86316 27.6665 7.16247 27.8472 7.61924 28.0974C7.80913 28.2014 8.01177 28.3178 8.06956 28.3561C8.21366 28.4516 8.88434 28.7537 9.39942 28.9551C9.63396 29.0468 9.9016 29.1549 9.99422 29.1953C10.5877 29.4536 12.1771 29.8095 13.3683 29.9507C15.3399 30.1844 18.592 29.8148 20.0147 29.1953C20.1073 29.1549 20.3749 29.0468 20.6095 28.9551C21.1246 28.7537 21.7952 28.4516 21.9393 28.3561C21.9971 28.3178 22.1998 28.2014 22.3896 28.0974C22.8464 27.8472 23.1457 27.6665 23.3653 27.5085C24.2915 26.8423 24.4757 26.7064 24.5178 26.6583C24.5444 26.6278 24.7124 26.4788 24.8911 26.3271C25.2452 26.0264 26.0811 25.2004 26.2925 24.9423C26.3652 24.8535 26.4457 24.7593 26.4712 24.733C26.5149 24.6879 26.6021 24.584 26.8368 24.2969C26.8924 24.2289 26.9581 24.1426 26.9829 24.1051C27.0076 24.0676 27.0557 24.0017 27.0897 23.9586C27.3442 23.6355 27.9237 22.7492 28.0636 22.4692C28.0883 22.4197 28.1154 22.3724 28.1236 22.3641C28.2019 22.2861 28.6988 21.2606 28.9018 20.758C28.9885 20.5434 29.0711 20.3407 29.0853 20.3077C29.2476 19.9296 29.5615 18.8795 29.6686 18.3563C29.6956 18.2242 29.7297 18.0689 29.7443 18.0111C29.7589 17.9533 29.7861 17.8047 29.8046 17.6808C29.8233 17.557 29.8569 17.3544 29.8794 17.2305C29.9827 16.6631 30 16.3416 30 14.9939C30 13.6492 29.9834 13.3399 29.88 12.7574C29.858 12.6335 29.8234 12.4241 29.8031 12.292C29.7829 12.16 29.7291 11.8898 29.6836 11.6916C29.3356 10.1746 28.7827 8.75444 28.0386 7.46615C28.0028 7.40424 27.9452 7.30291 27.9105 7.241C27.8758 7.17908 27.8285 7.1071 27.8054 7.08106C27.7823 7.05494 27.7634 7.02297 27.7634 7.00998C27.7634 6.997 27.7161 6.92195 27.6584 6.84322C27.6006 6.76449 27.5533 6.69033 27.5533 6.6784C27.5533 6.66647 27.5147 6.60748 27.4676 6.54736C27.4204 6.48717 27.3765 6.42367 27.37 6.40618C27.3561 6.36911 27.0903 6.01561 26.8853 5.76163C26.8069 5.66444 26.7427 5.57648 26.7427 5.56604C26.7427 5.43695 24.5321 3.22567 24.4031 3.22567C24.3921 3.22567 24.3095 3.16488 24.2195 3.09058C24.1294 3.01628 24.0334 2.94197 24.006 2.92546C23.9785 2.90895 23.8704 2.83165 23.7658 2.75374C23.4369 2.50884 23.3058 2.41675 23.2903 2.42006C23.282 2.42186 23.228 2.38591 23.1702 2.3402C23.1124 2.29449 23.0145 2.22852 22.9525 2.19355C22.8906 2.1585 22.7927 2.10288 22.7349 2.06986C22.5136 1.94347 22.415 1.88823 22.2179 1.78061C22.106 1.71944 21.9637 1.63778 21.9018 1.59905C21.8399 1.5604 21.7892 1.53653 21.7892 1.54614C21.7892 1.55575 21.7521 1.53714 21.7067 1.50479C21.6613 1.47244 21.6138 1.44482 21.6012 1.44347C21.5887 1.44204 21.5076 1.40834 21.4211 1.36864C21.3346 1.32894 21.176 1.25606 21.0687 1.20683C20.9614 1.15759 20.7115 1.05567 20.5133 0.980469C20.3152 0.905191 20.0889 0.816028 20.0105 0.782329C19.932 0.748631 19.8679 0.727766 19.8679 0.736022C19.8679 0.744278 19.8399 0.736097 19.8059 0.717859C19.7718 0.699621 19.7178 0.678907 19.6858 0.671777C19.5581 0.643407 19.5173 0.631473 19.3875 0.584641C18.9064 0.410968 17.5451 0.138377 16.6856 0.0436601C16.1447 -0.0159318 13.8084 -0.0140555 13.2782 0.046437ZM20.9186 7.66399C23.5024 8.08902 24.7488 9.49378 24.7452 11.9768C24.7407 15.1525 22.9621 17.1446 19.7178 17.6078C19.4582 17.6449 19.0502 17.6609 18.0741 17.6723C17.36 17.6806 16.7757 17.6986 16.7757 17.7121C16.7757 17.7256 16.6338 18.8753 16.4605 20.2669C16.2871 21.6586 16.1452 22.8011 16.1452 22.8058C16.1452 22.8105 15.3828 22.8144 14.4509 22.8144H12.7566L12.7709 22.7169C12.7787 22.6632 12.926 21.4575 13.0983 20.0375C13.2705 18.6175 13.4195 17.3983 13.4292 17.3281L13.447 17.2005H12.2457H11.0444L11.0281 17.2981C11.0192 17.3517 10.9099 18.24 10.7852 19.272C10.6605 20.3039 10.5528 21.1652 10.5459 21.1858C10.5333 21.2228 8.16165 21.2454 8.1251 21.2088C8.11714 21.2009 8.22237 20.3059 8.35897 19.2199C8.49549 18.134 8.60784 17.2354 8.60859 17.223C8.60934 17.2106 7.77115 17.2005 6.746 17.2005H4.88207L4.89978 17.0879C4.92672 16.9166 5.15751 15.1374 5.15751 15.1009C5.15751 15.0788 5.72296 15.069 7.01334 15.069H8.86917L9.11527 13.0951C9.25067 12.0095 9.36122 11.1111 9.36092 11.0987C9.3607 11.0863 9.90776 11.0762 10.5767 11.0762H11.7929L11.7765 11.1888C11.7372 11.459 11.3118 14.9576 11.3118 15.0105C11.3118 15.0675 11.3419 15.069 12.5092 15.069H13.7066L13.7253 14.9114C13.7356 14.8247 13.9397 13.1484 14.1791 11.1864C14.4184 9.22427 14.6142 7.61258 14.6142 7.60485C14.6142 7.55824 20.6181 7.61461 20.9186 7.66399ZM17.7063 10.1425C17.7063 10.1573 17.5713 11.2617 17.4062 12.5967C17.2412 13.9317 17.1061 15.0489 17.106 15.0794C17.1059 15.1541 19.1059 15.1374 19.4654 15.0598C20.7172 14.7892 21.3176 13.8893 21.3222 12.277C21.326 10.9511 20.7953 10.279 19.64 10.1467C19.3083 10.1087 17.7063 10.1052 17.7063 10.1425Z" fill="#FC4404"/>
</svg>
