<svg width="15" height="16" viewBox="0 0 15 16" fill="none" xmlns="http://www.w3.org/2000/svg">
<path fill-rule="evenodd" clip-rule="evenodd" d="M7.30697 3.80265C7.30697 3.80651 7.20906 4.61235 7.08943 5.59341C6.96976 6.57442 6.86768 7.41257 6.86254 7.45592L6.8532 7.53472H6.2545C5.67082 7.53472 5.65581 7.53397 5.65581 7.50545C5.65581 7.47903 5.86851 5.72974 5.88813 5.59461L5.89631 5.53832H5.28824C4.95376 5.53832 4.68023 5.54338 4.68034 5.54958C4.68049 5.55577 4.62522 6.00496 4.55752 6.54778L4.43447 7.53472H3.50656C2.86136 7.53472 2.57864 7.5396 2.57864 7.55067C2.57864 7.56891 2.46325 8.45851 2.44977 8.54418L2.44092 8.60047H3.37289C3.88546 8.60047 4.30456 8.60554 4.30418 8.61173C4.3038 8.61792 4.24763 9.06722 4.17937 9.61019C4.11107 10.1532 4.05846 10.6007 4.06243 10.6046C4.08071 10.6229 5.26654 10.6116 5.27281 10.5931C5.2763 10.5828 5.33015 10.1522 5.39248 9.6362C5.45485 9.12021 5.50949 8.67609 5.51396 8.64926L5.52206 8.60047H6.12275H6.7234L6.7145 8.66427C6.70962 8.69935 6.63513 9.30897 6.54901 10.019C6.46289 10.729 6.38922 11.3318 6.38532 11.3587L6.37819 11.4074H7.22535C7.69128 11.4074 8.07251 11.4055 8.07251 11.4031C8.07251 11.4008 8.14343 10.8295 8.23012 10.1337C8.3168 9.43787 8.38773 8.86301 8.38773 8.85625C8.38773 8.8495 8.67987 8.84053 9.03694 8.83636C9.52497 8.83066 9.729 8.82267 9.85877 8.80413C11.481 8.57251 12.3702 7.57649 12.3725 5.98864C12.3743 4.74711 11.7511 4.04473 10.4592 3.83222C10.3089 3.80753 7.30697 3.77934 7.30697 3.80265ZM9.81989 5.07355C10.3975 5.13971 10.6629 5.47576 10.661 6.13874C10.6587 6.94488 10.3585 7.39482 9.7326 7.53011C9.55285 7.56895 8.55285 7.57728 8.55288 7.5399C8.55292 7.52467 8.62047 6.96608 8.70299 6.29857C8.78555 5.63108 8.85306 5.07888 8.85306 5.07145C8.85306 5.05284 9.65406 5.05457 9.81989 5.07355Z" fill="#FBFBFB"/>
<path fill-rule="evenodd" clip-rule="evenodd" d="M6.63911 0.0232185C6.20981 0.072228 5.54496 0.208186 5.28066 0.301064C5.23525 0.317013 5.17877 0.333524 5.15513 0.337765C5.13153 0.342005 5.04034 0.374766 4.95249 0.410528C4.86468 0.446329 4.74215 0.494437 4.68024 0.517404C4.61832 0.540407 4.52375 0.57996 4.47009 0.60529C4.41642 0.630621 4.36914 0.652086 4.36501 0.652986C4.36089 0.653887 4.32373 0.669798 4.28245 0.688374C4.24118 0.706949 4.18399 0.731979 4.15539 0.744025C4.1268 0.756071 4.09978 0.770707 4.09535 0.776598C4.09092 0.782452 4.06368 0.798851 4.03478 0.812999C4.00589 0.827146 3.94509 0.859982 3.89969 0.88595C3.85428 0.911881 3.79011 0.948319 3.75709 0.966895C3.72406 0.985433 3.66665 1.01879 3.6295 1.04097C3.59234 1.06315 3.55013 1.08514 3.53568 1.08987C3.52123 1.0946 3.50941 1.10443 3.50941 1.11175C3.50941 1.11903 3.50239 1.12499 3.4938 1.12499C3.47725 1.12499 3.38816 1.18387 3.37263 1.20507C3.3676 1.21198 3.35747 1.21798 3.35011 1.21843C3.34279 1.21888 3.31653 1.23401 3.29176 1.25206C3.26699 1.27007 3.17824 1.33341 3.09452 1.39278C3.0108 1.45219 2.93394 1.51076 2.92381 1.52304C2.91364 1.53527 2.89964 1.54529 2.89274 1.54529C2.88096 1.54529 2.84895 1.57148 2.74308 1.66781C2.71892 1.6898 2.69336 1.71007 2.68631 1.71284C2.63929 1.73138 2.20349 2.14571 2.20349 2.17187C2.20349 2.1802 2.13763 2.25078 2.05714 2.32873C1.92111 2.46048 1.60251 2.82704 1.52314 2.94311C1.50407 2.97099 1.42553 3.08094 1.34864 3.18744C1.19775 3.3965 1.05334 3.62159 0.992177 3.74325C0.971124 3.78513 0.91127 3.89392 0.859145 3.98499C0.717145 4.23312 0.540208 4.63908 0.369838 5.10771C-0.0792402 6.34289 -0.123334 8.10922 0.259398 9.5309C0.464818 10.294 0.87926 11.1689 1.33573 11.8032C1.41964 11.9198 1.50392 12.038 1.52303 12.0658C1.67955 12.2942 2.26154 12.911 2.55797 13.1627C2.6478 13.239 2.73224 13.3139 2.74556 13.3291C2.76658 13.3532 2.8587 13.4212 3.32178 13.7543C3.43158 13.8333 3.58124 13.9236 3.80962 14.0487C3.90456 14.1007 4.00589 14.1589 4.03478 14.1781C4.10683 14.2258 4.44217 14.3768 4.69971 14.4776C4.81698 14.5234 4.9508 14.5775 4.99711 14.5976C5.29383 14.7268 6.08853 14.9048 6.68415 14.9753C7.66993 15.0922 9.29599 14.9074 10.0073 14.5976C10.0536 14.5775 10.1875 14.5234 10.3047 14.4776C10.5623 14.3768 10.8976 14.2258 10.9697 14.1781C10.9986 14.1589 11.0999 14.1007 11.1948 14.0487C11.4232 13.9236 11.5729 13.8333 11.6827 13.7543C12.1457 13.4212 12.2379 13.3532 12.2589 13.3291C12.2722 13.3139 12.3562 13.2394 12.4455 13.1635C12.6226 13.0132 13.0406 12.6002 13.1462 12.4711C13.1826 12.4267 13.2228 12.3796 13.2356 12.3665C13.2575 12.344 13.301 12.292 13.4184 12.1484C13.4462 12.1144 13.4791 12.0713 13.4914 12.0525C13.5038 12.0338 13.5278 12.0009 13.5448 11.9793C13.6721 11.8178 13.9619 11.3746 14.0318 11.2346C14.0442 11.2098 14.0577 11.1862 14.0618 11.1821C14.1009 11.143 14.3494 10.6303 14.4509 10.379C14.4943 10.2717 14.5355 10.1704 14.5426 10.1538C14.6238 9.96482 14.7808 9.43975 14.8343 9.17816C14.8478 9.11211 14.8648 9.03443 14.8721 9.00554C14.8795 8.97664 14.8931 8.90234 14.9023 8.84042C14.9116 8.7785 14.9284 8.67718 14.9397 8.61526C14.9913 8.33156 15 8.1708 15 7.49697C15 6.82458 14.9917 6.66993 14.94 6.37869C14.929 6.31677 14.9117 6.21207 14.9016 6.14602C14.8914 6.07998 14.8645 5.94488 14.8418 5.84581C14.6678 5.08729 14.3914 4.37722 14.0193 3.73308C14.0014 3.70212 13.9726 3.65146 13.9552 3.6205C13.9379 3.58954 13.9142 3.55355 13.9027 3.54053C13.8912 3.52747 13.8817 3.51148 13.8817 3.50499C13.8817 3.4985 13.8581 3.46097 13.8292 3.42161C13.8003 3.38224 13.7766 3.34517 13.7766 3.3392C13.7766 3.33323 13.7574 3.30374 13.7338 3.27368C13.7102 3.24358 13.6883 3.21184 13.685 3.20309C13.6781 3.18455 13.5451 3.0078 13.4427 2.88082C13.4034 2.83222 13.3714 2.78824 13.3714 2.78302C13.3714 2.71848 12.2661 1.61284 12.2015 1.61284C12.1961 1.61284 12.1547 1.58244 12.1098 1.54529C12.0647 1.50814 12.0167 1.47099 12.003 1.46273C11.9893 1.45447 11.9352 1.41582 11.8829 1.37687C11.7185 1.25442 11.6529 1.20838 11.6451 1.21003C11.641 1.21093 11.614 1.19295 11.5851 1.1701C11.5562 1.14725 11.5072 1.11426 11.4763 1.09677C11.4453 1.07925 11.3963 1.05144 11.3674 1.03493C11.2568 0.971736 11.2075 0.944116 11.109 0.890303C11.053 0.859719 10.9819 0.818891 10.9509 0.799527C10.9199 0.780201 10.8946 0.768267 10.8946 0.773071C10.8946 0.777874 10.876 0.768568 10.8533 0.752394C10.8306 0.73622 10.8069 0.72241 10.8006 0.721735C10.7943 0.721022 10.7538 0.704172 10.7105 0.684321C10.6673 0.664469 10.588 0.628031 10.5344 0.603414C10.4807 0.578797 10.3557 0.527836 10.2567 0.490234C10.1576 0.452595 10.0444 0.408014 10.0052 0.391165C9.96602 0.374315 9.93393 0.363883 9.93393 0.368011C9.93393 0.372139 9.91997 0.368049 9.90294 0.35893C9.8859 0.349811 9.85888 0.339453 9.84289 0.335888C9.77903 0.321703 9.75865 0.315737 9.69376 0.29232C9.45318 0.205484 8.77257 0.0691883 8.34281 0.02183C8.07236 -0.00796591 6.9042 -0.00702775 6.63911 0.0232185ZM10.4593 3.832C11.7512 4.04451 12.3744 4.74689 12.3726 5.98841C12.3703 7.57627 11.4811 8.57229 9.85888 8.80391C9.72911 8.82244 9.52508 8.83044 9.03705 8.83614C8.67999 8.84031 8.38785 8.84928 8.38785 8.85603C8.38785 8.86278 8.31692 9.43765 8.23023 10.1335C8.14355 10.8293 8.07262 11.4005 8.07262 11.4029C8.07262 11.4053 7.69139 11.4072 7.22546 11.4072H6.37831L6.38544 11.3584C6.38934 11.3316 6.463 10.7287 6.54913 10.0187C6.63525 9.30875 6.70974 8.69913 6.71462 8.66404L6.72351 8.60025H6.12286H5.52218L5.51407 8.64903C5.50961 8.67587 5.45497 9.11999 5.3926 9.63598C5.33027 10.152 5.27642 10.5826 5.27293 10.5929C5.26666 10.6114 4.08083 10.6227 4.06255 10.6044C4.05857 10.6004 4.11118 10.1529 4.17948 9.60997C4.24774 9.067 4.30392 8.6177 4.3043 8.61151C4.30467 8.60532 3.88558 8.60025 3.373 8.60025H2.44103L2.44989 8.54396C2.46336 8.45829 2.57876 7.56869 2.57876 7.55045C2.57876 7.53938 2.86148 7.5345 3.50667 7.5345H4.43459L4.55764 6.54756C4.62533 6.00474 4.68061 5.55555 4.68046 5.54935C4.68035 5.54316 4.95388 5.5381 5.28835 5.5381H5.89643L5.88825 5.59439C5.86862 5.72952 5.65592 7.47881 5.65592 7.50523C5.65592 7.53375 5.67093 7.5345 6.25462 7.5345H6.85331L6.86266 7.45569C6.8678 7.41235 6.96987 6.5742 7.08954 5.59318C7.20918 4.61213 7.30708 3.80629 7.30708 3.80243C7.30708 3.77912 10.309 3.8073 10.4593 3.832ZM8.85317 5.07123C8.85317 5.07866 8.78566 5.63086 8.7031 6.29834C8.62058 6.96586 8.55304 7.52444 8.553 7.53968C8.55296 7.57706 9.55297 7.56872 9.73272 7.52988C10.3586 7.3946 10.6588 6.94466 10.6611 6.13852C10.663 5.47554 10.3976 5.13949 9.82 5.07333C9.65417 5.05434 8.85317 5.05262 8.85317 5.07123Z" fill="#FC4404"/>
</svg>
