<svg width="15" height="15" viewBox="0 0 15 15" fill="none" xmlns="http://www.w3.org/2000/svg">
<path fill-rule="evenodd" clip-rule="evenodd" d="M1.60855 5.08945C1.18244 5.08945 0.771868 5.25898 0.470834 5.56001C0.169532 5.86131 0 6.26975 0 6.69559V13.3914C0 13.8176 0.169532 14.2281 0.470834 14.5292C0.771868 14.8305 1.18244 15 1.60855 15H2.41068C2.83652 15 3.24709 14.8305 3.5484 14.5292C3.84943 14.2281 4.01923 13.8176 4.01923 13.3914V6.69559C4.01923 6.26975 3.84943 5.86131 3.5484 5.56001C3.24709 5.25898 2.83652 5.08945 2.41068 5.08945H1.60855ZM1.60855 6.16181H2.41068C2.5537 6.16181 2.68922 6.21806 2.78992 6.31876C2.89035 6.41919 2.94686 6.55257 2.94686 6.69559V13.3914C2.94686 13.5347 2.89035 13.6702 2.78992 13.7707C2.68922 13.8714 2.5537 13.9276 2.41068 13.9276H1.60855C1.46526 13.9276 1.32974 13.8714 1.22931 13.7707C1.12861 13.6702 1.07237 13.5347 1.07237 13.3914V6.69559C1.07237 6.55257 1.12861 6.41919 1.22931 6.31876C1.32974 6.21806 1.46526 6.16181 1.60855 6.16181Z" fill="white"/>
<path fill-rule="evenodd" clip-rule="evenodd" d="M7.09894 0C6.67283 0 6.26226 0.169532 5.96122 0.470834C5.65992 0.771868 5.49039 1.18244 5.49039 1.60855V13.3914C5.49039 13.8176 5.65992 14.2281 5.96122 14.5292C6.26226 14.8305 6.67283 15 7.09894 15H7.90107C8.32718 15 8.73775 14.8305 9.03878 14.5292C9.34008 14.2281 9.50962 13.8176 9.50962 13.3914V1.60855C9.50962 1.18244 9.34008 0.771868 9.03878 0.470834C8.73775 0.169532 8.32718 0 7.90107 0H7.09894V0ZM7.09894 1.07237H7.90107C8.04409 1.07237 8.17987 1.12861 8.28031 1.22931C8.38101 1.32974 8.43725 1.46526 8.43725 1.60855V13.3914C8.43725 13.5347 8.38101 13.6703 8.28031 13.7707C8.17987 13.8714 8.04409 13.9276 7.90107 13.9276H7.09894C6.95592 13.9276 6.8204 13.8714 6.7197 13.7707C6.61926 13.6703 6.56275 13.5347 6.56275 13.3914V1.60855C6.56275 1.46526 6.61926 1.32974 6.7197 1.22931C6.8204 1.12861 6.95592 1.07237 7.09894 1.07237V1.07237Z" fill="white"/>
<path fill-rule="evenodd" clip-rule="evenodd" d="M12.5893 2.94687C12.1635 2.94687 11.7529 3.1164 11.4516 3.4177C11.1506 3.71874 10.9808 4.12717 10.9808 4.55328V13.3915C10.9808 13.8176 11.1506 14.2281 11.4516 14.5292C11.7529 14.8305 12.1635 15 12.5893 15H13.3915C13.8176 15 14.2281 14.8305 14.5292 14.5292C14.8305 14.2281 15 13.8176 15 13.3915V4.55328C15 4.12717 14.8305 3.71874 14.5292 3.4177C14.2281 3.1164 13.8176 2.94687 13.3915 2.94687H12.5893ZM12.5893 4.01923H13.3915C13.5347 4.01923 13.6703 4.07548 13.7707 4.17618C13.8714 4.27661 13.9276 4.40999 13.9276 4.55328V13.3915C13.9276 13.5347 13.8714 13.6703 13.7707 13.7707C13.6703 13.8714 13.5347 13.9276 13.3915 13.9276H12.5893C12.4463 13.9276 12.3108 13.8714 12.2101 13.7707C12.1097 13.6703 12.0531 13.5347 12.0531 13.3915V4.55328C12.0531 4.40999 12.1097 4.27661 12.2101 4.17618C12.3108 4.07548 12.4463 4.01923 12.5893 4.01923Z" fill="white"/>
</svg>
