<svg width="20" height="17" viewBox="0 0 20 17" fill="none" xmlns="http://www.w3.org/2000/svg">
<path d="M19.4282 0.944278C16.4106 -0.268365 13.0497 -0.314383 10 0.815187C6.95007 -0.314617 3.58877 -0.268599 0.570909 0.944278C0.402243 1.01187 0.257703 1.12846 0.15594 1.279C0.054177 1.42954 -0.000139129 1.60712 2.67733e-07 1.78882V15.4588C-0.000113822 15.6075 0.0362368 15.7539 0.105867 15.8853C0.175496 16.0166 0.27628 16.1289 0.399387 16.2123C0.522493 16.2956 0.664165 16.3475 0.811987 16.3634C0.959809 16.3793 1.10927 16.3587 1.24727 16.3034C3.94675 15.2161 6.96235 15.2161 9.66182 16.3034C9.87901 16.3897 10.121 16.3897 10.3382 16.3034C13.038 15.2161 16.0538 15.2161 18.7536 16.3034C18.8609 16.3463 18.9754 16.3682 19.0909 16.3679C19.332 16.3679 19.5632 16.2721 19.7337 16.1017C19.9042 15.9312 20 15.6999 20 15.4588V1.78882C20.0001 1.60701 19.9456 1.42936 19.8437 1.27881C19.7418 1.12826 19.597 1.01173 19.4282 0.944278ZM9.09091 14.1943C6.71711 13.4977 4.19354 13.4948 1.81818 14.1861V2.42155C4.17698 1.62086 6.73472 1.62502 9.09091 2.43337V14.1943ZM18.1818 14.1861C15.8065 13.497 13.2844 13.497 10.9091 14.1861V2.43337C13.2651 1.62406 15.8232 1.6199 18.1818 2.42155V14.1861Z" fill="#FF4200"/>
</svg>
