<svg width="25" height="23" viewBox="0 0 25 23" fill="none" xmlns="http://www.w3.org/2000/svg">
<path d="M25 5.30832H17.6973C18.846 4.07057 18.8191 2.1295 17.6152 0.92559C17.0183 0.328663 16.2247 0 15.3806 0C14.5365 0 13.7429 0.328663 13.146 0.925541C12.8894 1.18218 12.6766 1.58253 12.5 2.06671C12.3233 1.58253 12.1105 1.18218 11.854 0.92559C11.2571 0.328712 10.4635 0 9.61937 0C8.77528 0 7.98167 0.328663 7.3848 0.92559C6.18088 2.1295 6.15398 4.07057 7.30267 5.30832H0V11.0794H1.4649V22.1558H23.5351V11.0794H25V5.30832ZM14.2091 6.77317V9.61454H10.7908V6.77317H14.2091ZM14.2091 11.0794V20.691H10.7908V11.0794H14.2091ZM14.1818 1.96138C14.502 1.64117 14.9277 1.46485 15.3806 1.46485C15.8334 1.46485 16.2591 1.64117 16.5794 1.96138C16.8996 2.2816 17.0759 2.70729 17.0759 3.16017C17.0759 3.61295 16.8996 4.03874 16.5794 4.35895C16.1962 4.74211 14.7344 5.076 13.322 5.23454C13.5466 3.42223 13.9062 2.23702 14.1818 1.96138ZM8.42059 1.96138C8.74081 1.64117 9.16654 1.46485 9.61937 1.46485C10.0722 1.46485 10.4979 1.64117 10.8182 1.96143C11.0937 2.23697 11.4533 3.42213 11.6779 5.23449C10.2656 5.07595 8.80379 4.74206 8.42059 4.3589C7.7596 3.69796 7.7596 2.62242 8.42059 1.96138ZM1.46485 6.77317H9.32596V9.61454H1.46485V6.77317ZM2.92975 11.0794H9.32596V20.691H2.92975V11.0794ZM22.0702 20.691H15.674V11.0794H22.0702V20.691ZM23.5352 9.61459H15.674V6.77322H23.5352V9.61459Z" fill="white"/>
</svg>
