<svg width="30" height="28" viewBox="0 0 30 28" fill="none" xmlns="http://www.w3.org/2000/svg">
<path d="M27.49 12.3301H2.51005C2.24837 12.3301 2.03638 12.5422 2.03638 12.8038V27.501C2.03638 27.7626 2.24837 27.9747 2.51005 27.9747H27.49C27.7517 27.9747 27.9637 27.7626 27.9637 27.501V12.8038C27.9636 12.5422 27.7516 12.3301 27.49 12.3301Z" fill="#FF4200"/>
<path d="M27.49 12.3301H2.51005C2.24837 12.3301 2.03638 12.5422 2.03638 12.8038V14.6985H27.9637V12.8038C27.9636 12.5422 27.7516 12.3301 27.49 12.3301Z" fill="#FF4200"/>
<path d="M17.42 12.3301H12.5802C12.3186 12.3301 12.1066 12.5422 12.1066 12.8038V27.501C12.1066 27.7626 12.3186 27.9747 12.5802 27.9747H17.42C17.6816 27.9747 17.8937 27.7626 17.8937 27.501V12.8038C17.8937 12.5422 17.6815 12.3301 17.42 12.3301Z" fill="white"/>
<path d="M17.42 12.3301H12.5802C12.3186 12.3301 12.1066 12.5422 12.1066 12.8038V14.6884H17.8937V12.8038C17.8937 12.5422 17.6815 12.3301 17.42 12.3301Z" fill="#FF4200"/>
<path d="M26.5672 3.57985C26.1027 2.36925 25.3699 1.18688 24.6068 0.416901C24.3268 0.134421 23.9497 -0.0087824 23.5205 0.00041682C22.0983 0.0335223 19.7808 1.81846 16.6324 5.30561C16.5538 5.39262 16.5103 5.50577 16.5103 5.62307V8.1286C16.5103 8.39022 16.7222 8.60227 16.9839 8.60227H24.2702C25.8938 8.60227 26.5638 7.81243 26.84 7.14979C27.2084 6.26649 27.1115 4.99858 26.5672 3.57985Z" fill="white"/>
<path d="M26.8383 4.4052C26.8251 4.35657 26.8042 4.31034 26.7764 4.26833C26.0611 3.18686 24.5156 3.59151 23.345 4.12138C19.9443 5.66075 18.54 7.7812 18.4818 7.87068C18.3872 8.0164 18.3799 8.20208 18.4628 8.35472C18.5457 8.50736 18.7054 8.60234 18.8791 8.60234H24.2704C25.3035 8.60234 26.0696 8.28523 26.5475 7.65986C27.1152 6.91689 27.2157 5.79142 26.8383 4.4052Z" fill="#FF6D3B"/>
<path d="M13.3675 5.30568C10.2191 1.81853 7.90159 0.0335883 6.4794 0.000482864C6.04908 -0.00877495 5.67309 0.134487 5.39313 0.416967C4.63012 1.18689 3.89723 2.36931 3.43282 3.57992C2.88854 4.99865 2.79157 6.2665 3.15977 7.14992C3.43598 7.81255 4.106 8.6024 5.72957 8.6024H13.0159C13.2776 8.6024 13.4896 8.39029 13.4896 8.12872V5.62314C13.4896 5.50583 13.4462 5.39269 13.3675 5.30568Z" fill="white"/>
<path d="M11.5182 7.87067C11.4601 7.78119 10.0557 5.66069 6.65503 4.12137C5.48438 3.59151 3.93891 3.18704 3.22366 4.26827C3.19588 4.31034 3.17497 4.35651 3.16172 4.4052C2.7842 5.79141 2.88487 6.91688 3.45258 7.65979C3.93042 8.28516 4.69653 8.60227 5.72965 8.60227H11.121C11.2947 8.60227 11.4544 8.50729 11.5372 8.35465C11.6201 8.20207 11.6128 8.01639 11.5182 7.87067Z" fill="#FF6D3B"/>
<path d="M16.9841 4.68121H13.016C12.7544 4.68121 12.5424 4.89332 12.5424 5.15489V8.12869C12.5424 8.39031 12.7544 8.60237 13.016 8.60237H16.9841C17.2458 8.60237 17.4578 8.39026 17.4578 8.12869V5.15489C17.4578 4.89326 17.2458 4.68121 16.9841 4.68121Z" fill="#FF4200"/>
<path d="M29.5263 7.65591H0.473672C0.211992 7.65591 0 7.86802 0 8.12959V12.8038C0 13.0654 0.211992 13.2775 0.473672 13.2775H29.5263C29.788 13.2775 30 13.0653 30 12.8038V8.12959C30 7.86797 29.788 7.65591 29.5263 7.65591Z" fill="#FF4200"/>
<path d="M18.6385 7.65573H11.3615V13.2774H18.6385V7.65573Z" fill="white"/>
</svg>
