<svg width="20" height="20" viewBox="0 0 20 20" fill="none" xmlns="http://www.w3.org/2000/svg">
<path d="M19.414 0H6.44531C6.12167 0 5.85938 0.279785 5.85938 0.625V3.125C5.85938 3.47021 6.12167 3.75 6.44531 3.75H19.414C19.7377 3.75 20 3.47021 20 3.125V0.625C20 0.279785 19.7377 0 19.414 0ZM18.8281 2.5H7.03125V1.25H18.8281V2.5Z" fill="#FF4200"/>
<path d="M16.4844 8.125V5.625C16.4844 5.27979 16.2221 5 15.8984 5H6.44531C6.12167 5 5.85938 5.27979 5.85938 5.625V8.125C5.85938 8.47021 6.12167 8.75 6.44531 8.75H15.8984C16.2221 8.75 16.4844 8.47021 16.4844 8.125ZM15.3125 7.5H7.03125V6.25H15.3125V7.5Z" fill="#FF4200"/>
<path d="M6.44531 10C6.12167 10 5.85938 10.2798 5.85938 10.625V13.125C5.85938 13.4702 6.12167 13.75 6.44531 13.75H12.3828C12.7064 13.75 12.9687 13.4702 12.9687 13.125V10.625C12.9687 10.2798 12.7064 10 12.3828 10H6.44531ZM11.7969 12.5H7.03125V11.25H11.7969V12.5Z" fill="#FF4200"/>
<path d="M1.17191 15H0.585973C0.369909 15 0.17124 15.1268 0.0693116 15.3301C-0.032617 15.5334 -0.021478 15.7799 0.0984558 15.9717L2.4422 19.7217C2.55084 19.8955 2.7338 20 2.92972 20C3.12564 20 3.30859 19.8955 3.41724 19.7217L5.76098 15.9717C5.88076 15.7799 5.89206 15.5334 5.79013 15.3301C5.68805 15.127 5.48953 15 5.27346 15H4.68753V0.625C4.68753 0.279785 4.42523 0 4.10159 0H1.75785C1.43421 0 1.17191 0.279785 1.17191 0.625V15ZM1.75785 16.25C2.08148 16.25 2.34378 15.9702 2.34378 15.625V1.25H3.51566V15.625C3.51566 15.9702 3.77795 16.25 4.10159 16.25H4.17865L2.92972 18.2482L1.68079 16.25H1.75785Z" fill="#FF4200"/>
</svg>
