<svg width="25" height="27" viewBox="0 0 25 27" fill="none" xmlns="http://www.w3.org/2000/svg">
<path d="M23.4415 1.875H19.6915V0.9375C19.6915 0.68886 19.5927 0.450403 19.4169 0.274587C19.2411 0.098772 19.0026 0 18.754 0H5.62898C5.38034 0 5.14189 0.098772 4.96607 0.274587C4.79026 0.450403 4.69148 0.68886 4.69148 0.9375V1.875H0.941484C0.692844 1.875 0.454387 1.97377 0.278572 2.14959C0.102756 2.3254 0.00398424 2.56386 0.00398424 2.8125V7.40625C-0.0455714 8.90086 0.368162 10.3742 1.18851 11.6246C2.00887 12.8749 3.19571 13.841 4.58648 14.3906L5.54367 14.7103C6.10442 15.7842 6.91658 16.7066 7.9109 17.3988C8.90521 18.0909 10.0522 18.5323 11.254 18.6853V20.625H7.50398C7.25534 20.625 7.01689 20.7238 6.84107 20.8996C6.66526 21.0754 6.56648 21.3139 6.56648 21.5625V25.3125C6.56648 25.5611 6.66526 25.7996 6.84107 25.9754C7.01689 26.1512 7.25534 26.25 7.50398 26.25H16.879C17.1276 26.25 17.3661 26.1512 17.5419 25.9754C17.7177 25.7996 17.8165 25.5611 17.8165 25.3125V21.5625C17.8165 21.3139 17.7177 21.0754 17.5419 20.8996C17.3661 20.7238 17.1276 20.625 16.879 20.625H13.129V18.6853C14.3308 18.5323 15.4778 18.0909 16.4721 17.3988C17.4664 16.7066 18.2786 15.7842 18.8393 14.7103L19.7965 14.3906C21.1873 13.841 22.3741 12.8749 23.1945 11.6246C24.0148 10.3742 24.4285 8.90086 24.379 7.40625V2.8125C24.379 2.56386 24.2802 2.3254 24.1044 2.14959C23.9286 1.97377 23.6901 1.875 23.4415 1.875V1.875ZM15.9415 24.375H8.44148V22.5H15.9415V24.375ZM1.87898 7.40625V3.75H4.69148V11.25C4.69421 11.6493 4.72901 12.0478 4.79555 12.4416C3.88454 11.9621 3.12745 11.2351 2.61147 10.3443C2.09548 9.45348 1.84158 8.43504 1.87898 7.40625V7.40625ZM12.1915 16.875C10.7001 16.8735 9.27022 16.2804 8.21565 15.2258C7.16108 14.1713 6.56797 12.7414 6.56648 11.25V1.875H17.8165V11.25C17.815 12.7414 17.2219 14.1713 16.1673 15.2258C15.1127 16.2804 13.6829 16.8735 12.1915 16.875ZM22.504 7.40625C22.5418 8.43535 22.288 9.45419 21.772 10.3454C21.256 11.2366 20.4987 11.9639 19.5874 12.4434C19.6541 12.0491 19.6889 11.65 19.6915 11.25V3.75H22.504V7.40625Z" fill="#FF9900"/>
<path d="M15.6265 7.14819L13.4806 6.83694L12.5206 4.89163C12.4902 4.83061 12.4434 4.77926 12.3854 4.74338C12.3274 4.70749 12.2606 4.68848 12.1924 4.68848C12.1243 4.68848 12.0574 4.70749 11.9995 4.74338C11.9415 4.77926 11.8947 4.83061 11.8643 4.89163L10.9024 6.83694L8.75649 7.14819C8.68877 7.15817 8.62518 7.18687 8.57289 7.23104C8.5206 7.27522 8.48169 7.33312 8.46055 7.39823C8.4394 7.46333 8.43685 7.53304 8.4532 7.59951C8.46954 7.66599 8.50412 7.72657 8.55305 7.77444L10.1055 9.28851L9.73899 11.426C9.72754 11.4935 9.73516 11.5628 9.76099 11.6262C9.78682 11.6896 9.82984 11.7445 9.88519 11.7847C9.94054 11.8249 10.006 11.8489 10.0743 11.854C10.1425 11.859 10.2108 11.8449 10.2715 11.8132L12.1915 10.8035L14.1115 11.8123C14.1721 11.8439 14.2404 11.8581 14.3087 11.853C14.3769 11.848 14.4424 11.824 14.4978 11.7838C14.5531 11.7435 14.5961 11.6886 14.622 11.6252C14.6478 11.5619 14.6554 11.4925 14.644 11.4251L14.2774 9.28757L15.8299 7.77351C15.8786 7.7256 15.9129 7.66508 15.9291 7.59875C15.9453 7.53241 15.9427 7.46288 15.9216 7.39795C15.9004 7.33302 15.8616 7.27526 15.8095 7.23114C15.7574 7.18703 15.694 7.1583 15.6265 7.14819V7.14819Z" fill="#FF9900"/>
</svg>
