<svg width="30" height="30" viewBox="0 0 30 30" fill="none" xmlns="http://www.w3.org/2000/svg">
<path d="M30 1.75781V0H0V1.75781H1.46496V3.81398C1.32891 3.91623 1.19801 4.02855 1.07426 4.1523C0.384258 4.8423 0.00421875 5.75971 0.00421875 6.73559C0.00421875 7.71141 0.384258 8.62881 1.07426 9.31881L2.77699 11.0215L2.12848 11.6701L3.37143 12.913L4.4499 11.8345L9.03182 21.0684L2.32102 28.2403H0V29.9981H30V28.2403H27.679L20.9682 21.0684L25.5502 11.8344L26.6287 12.9129L27.8716 11.67L27.2231 11.0215L28.9258 9.31881C29.6158 8.62881 29.9958 7.71135 29.9958 6.73559C29.9958 5.75977 29.6158 4.8423 28.9258 4.15236C28.8026 4.02914 28.6718 3.91623 28.535 3.81322V1.75781H30ZM2.31721 8.07586C1.9592 7.71785 1.76203 7.24184 1.76203 6.73553C1.76203 6.22922 1.9592 5.7532 2.31721 5.3952C2.67522 5.03719 3.15123 4.84002 3.65754 4.84002C4.16385 4.84002 4.6398 5.03719 4.99787 5.3952L6.70061 7.09793L4.02 9.77853L2.31721 8.07586ZM5.76141 10.523L7.27617 9.0082L13.7963 15.9764L10.3141 19.698L5.76141 10.523ZM15 17.2628L18.8517 21.3792L15.4472 28.2403H14.5529L11.1483 21.3792L15 17.2628ZM9.86602 22.7496L12.5905 28.2403H4.7284L9.86602 22.7496ZM25.2716 28.2403H17.4095L20.134 22.7496L25.2716 28.2403ZM19.6859 19.698L16.2037 15.9764L22.7238 9.00814L24.2386 10.5229L19.6859 19.698ZM27.6828 8.07586L25.9801 9.77853L23.2995 7.09793L25.0022 5.39525C25.3602 5.03725 25.8362 4.84008 26.3425 4.84008C26.8488 4.84008 27.3248 5.03725 27.6829 5.39531C28.0409 5.75326 28.238 6.22928 28.238 6.73559C28.238 7.24184 28.0408 7.71785 27.6828 8.07586ZM26.7772 3.10875C26.634 3.09187 26.489 3.08227 26.3425 3.08227C25.3667 3.08227 24.4493 3.4623 23.7593 4.1523L22.0566 5.85498L21.4081 5.20646L20.1652 6.44941L21.4802 7.76449L15 14.69L8.51988 7.76449L9.83496 6.44941L8.59201 5.20646L7.9435 5.85498L6.24076 4.15225C5.41799 3.32953 4.29732 2.98307 3.22277 3.1108V1.75781H26.7772V3.10875H26.7772Z" fill="#FF9900"/>
</svg>
