<svg width="30" height="30" viewBox="0 0 30 30" fill="none" xmlns="http://www.w3.org/2000/svg">
<path d="M28.7042 11.8275L29.7133 9.40925C30.0931 8.49936 30.0956 7.49609 29.7208 6.58421C29.3459 5.67234 28.6097 4.92392 27.6676 4.55774V1.75766H29.9988V0H0.00125046V1.75766H2.33244L2.33432 4.54796C1.42443 4.92767 0.654164 5.67234 0.279254 6.58421C-0.0956555 7.49603 -0.0929604 8.49936 0.286695 9.40925L1.29589 11.8276L1.93697 27.4977H0.00125046V29.2553H29.9988V27.4977H28.0631L28.7042 11.8275ZM15.8789 1.75766H25.9099V4.31917C24.6167 4.4613 23.4361 5.28295 22.9006 6.56623L21.7224 9.3895L19.1944 12.763L18.6909 10.7608H18.6911V7.69471C18.6911 5.96229 17.4911 4.50554 15.8789 4.11018V1.75766ZM17.8373 14.5738L15 18.36L12.1627 14.5738L13.1215 10.7608H16.8784L17.8373 14.5738ZM16.9335 7.69465V9.00311H13.0666V7.69465C13.0666 6.62856 13.934 5.76122 15 5.76122C16.0661 5.76122 16.9335 6.62856 16.9335 7.69465ZM4.09011 1.75766H14.1212V4.11012C12.5089 4.50548 11.3089 5.96223 11.3089 7.69465V10.7608H11.3092L10.8057 12.7629L8.27768 9.3895L7.09952 6.56623C6.71987 5.65634 6.00854 4.94876 5.0966 4.57391C4.77003 4.43963 4.43162 4.35467 4.09011 4.31723V1.75766ZM1.90879 8.73231C1.70993 8.25569 1.70853 7.73015 1.90492 7.25253C2.10131 6.77492 2.46843 6.39386 2.9485 6.20344C3.49707 5.98584 4.19105 6.10203 4.42828 6.19958C4.9059 6.39597 5.27852 6.76654 5.47737 7.24316L5.98129 8.45074L2.41277 9.93989L1.90879 8.73231ZM3.6961 27.4977L3.04494 11.5806L6.60878 10.0934L10.2539 14.9575L7.10034 27.4977H3.6961ZM11.6108 16.7683L13.9018 19.8255L9.29666 25.9707L11.6108 16.7683ZM10.3488 27.4977L15 21.2909L19.6513 27.4977H10.3488ZM16.0982 19.8255L18.3892 16.7684L20.7034 25.9707L16.0982 19.8255ZM26.304 27.4977H22.8998L19.7462 14.9575L23.3913 10.0934L26.9552 11.5806L26.304 27.4977ZM24.0187 8.45068L24.5226 7.24316C24.9332 6.25934 26.0677 5.79291 27.0515 6.2035C27.5282 6.40241 27.8987 6.77492 28.0952 7.25259C28.2916 7.73021 28.2902 8.25581 28.0913 8.73237L27.5873 9.93995L24.0187 8.45068Z" fill="#B4B4B4"/>
</svg>
