<svg width="63" height="51" viewBox="0 0 63 51" fill="none" xmlns="http://www.w3.org/2000/svg">
<path d="M0 0H58C60.7614 0 63 2.23858 63 5V46C63 48.7614 60.7614 51 58 51H0V0Z" fill="#1C1C1C"/>
<path d="M23.7146 39.7497C23.386 39.7497 23.0596 39.6471 22.781 39.4457C22.2621 39.0696 22.0197 38.4233 22.1609 37.7995L24.0909 29.298L17.5457 23.5579C17.0645 23.1379 16.8807 22.4728 17.0783 21.8642C17.2758 21.2567 17.8132 20.8266 18.4495 20.7678L27.1097 19.9816L30.5337 11.9689C30.7861 11.3802 31.3611 11 31.9999 11C32.6387 11 33.2137 11.3802 33.4662 11.9675L36.8901 19.9816L45.5489 20.7678C46.1866 20.8252 46.724 21.2567 46.9216 21.8642C47.1191 22.4716 46.9364 23.1379 46.4553 23.5579L39.91 29.2968L41.84 37.7982C41.9815 38.4233 41.7389 39.0696 41.2202 39.4446C40.7027 39.8195 40.0126 39.8483 39.4676 39.5208L31.9999 35.0582L24.5322 39.5233C24.2798 39.6732 23.9985 39.7497 23.7146 39.7497ZM31.9999 33.1357C32.2837 33.1357 32.5648 33.2119 32.8175 33.3619L39.8652 37.5771L38.0437 29.5529C37.9137 28.9819 38.1076 28.3856 38.5488 27.9993L44.729 22.5792L36.5525 21.8367C35.9638 21.7829 35.4575 21.4128 35.2275 20.8703L31.9999 13.3088L28.7685 20.8715C28.541 21.4103 28.0347 21.7804 27.4473 21.8342L19.2696 22.5767L25.4496 27.9967C25.8923 28.3843 26.0859 28.9794 25.9548 29.5518L24.1346 37.5757L31.1823 33.3619C31.4348 33.2119 31.7161 33.1357 31.9999 33.1357ZM27.0436 20.1365C27.0436 20.1365 27.0436 20.1379 27.0422 20.139L27.0436 20.1365ZM36.9537 20.1328L36.9551 20.1354C36.9551 20.134 36.9551 20.134 36.9537 20.1328Z" fill="white"/>
</svg>
