<svg width="63" height="51" viewBox="0 0 63 51" fill="none" xmlns="http://www.w3.org/2000/svg">
<path d="M0 0H58C60.7614 0 63 2.23858 63 5V46C63 48.7614 60.7614 51 58 51H0V0Z" fill="#1C1C1C"/>
<path d="M46.9218 21.8642C46.7254 21.2567 46.1866 20.8252 45.5492 20.7678L36.8903 19.9816L33.4664 11.9675C33.2139 11.3802 32.639 11 32.0002 11C31.3613 11 30.7864 11.3802 30.5339 11.9689L27.11 19.9816L18.4498 20.7678C17.8135 20.8266 17.276 21.2567 17.0785 21.8642C16.881 22.4716 17.0634 23.1379 17.5447 23.5579L24.0898 29.298L22.1598 37.7995C22.0186 38.4246 22.2612 39.0708 22.7799 39.4457C23.0587 39.6471 23.3848 39.7497 23.7137 39.7497C23.9973 39.7497 24.2786 39.6732 24.5311 39.5222L32.0002 35.0582L39.4665 39.5222C40.0128 39.8508 40.7015 39.8209 41.2191 39.4457C41.7379 39.0696 41.9803 38.4233 41.8391 37.7995L39.9091 29.298L46.4542 23.5591C46.9355 23.1379 47.1193 22.4728 46.9218 21.8642Z" fill="#FFC107"/>
</svg>
