<svg width="25" height="25" viewBox="0 0 25 25" fill="none" xmlns="http://www.w3.org/2000/svg">
<path d="M12.1673 24.3739C7.53233 24.3744 3.25827 21.7184 1.21124 17.5381C-0.860171 13.3067 -0.232983 8.02953 2.77264 4.40656C5.77499 0.787339 10.6561 -0.79188 15.2067 0.383276C15.7078 0.512651 16.0092 1.02406 15.8803 1.52562C15.7509 2.02718 15.239 2.32812 14.738 2.19921C10.8886 1.20499 6.75702 2.54093 4.21592 5.60421C1.67342 8.66937 1.1428 13.1342 2.89545 16.7145C4.64155 20.2808 8.49327 22.6039 12.4467 22.4961C16.3997 22.3883 19.987 19.9841 21.5859 16.3714C22.5248 14.2498 22.7236 11.8475 22.1447 9.6064C22.0153 9.10531 22.3167 8.5939 22.8183 8.46406C23.3184 8.33421 23.8308 8.63609 23.9606 9.13765C24.644 11.7856 24.4101 14.6244 23.3011 17.1303C21.4111 21.4006 17.1703 24.2427 12.4983 24.3702C12.3876 24.3725 12.277 24.3739 12.1673 24.3739Z" fill="#FF4200"/>
<path d="M12.16 15.11C11.92 15.11 11.68 15.0186 11.4972 14.8353C11.1311 14.4692 11.1311 13.8758 11.4972 13.5097L22.7472 2.25968C23.1129 1.89358 23.7072 1.89358 24.0729 2.25968C24.4389 2.62577 24.4389 3.21921 24.0729 3.5853L12.8229 14.8353C12.64 15.0181 12.4 15.11 12.16 15.11Z" fill="#FF4200"/>
<path d="M12.1599 15.11C11.9198 15.11 11.6798 15.0186 11.497 14.8353L7.51969 10.858C7.15359 10.4919 7.15359 9.89848 7.51969 9.53238C7.88531 9.16629 8.47969 9.16629 8.84532 9.53238L12.8227 13.5097C13.1888 13.8758 13.1888 14.4693 12.8227 14.8353C12.6399 15.0182 12.3999 15.11 12.1599 15.11Z" fill="#FF4200"/>
</svg>
