<svg width="15" height="15" viewBox="0 0 15 15" fill="none" xmlns="http://www.w3.org/2000/svg">
<path d="M12.8851 4.71928H9.79698V2.60134C9.79698 1.58523 9.49398 0.847621 8.8941 0.409955C7.95144 -0.28174 6.66905 0.106956 6.61396 0.12532C6.39665 0.192653 6.24668 0.397713 6.24668 0.627258V3.18286C6.24668 5.07431 4.02163 5.73234 3.92675 5.75682C3.92063 5.75988 3.91451 5.75988 3.91145 5.76294L3.65742 5.84252C3.36972 5.57013 2.98408 5.40485 2.56172 5.40485H1.59763C0.71618 5.40179 0 6.11797 0 6.99943V12.4963C0 13.3777 0.71618 14.0939 1.59763 14.0939H2.56172C2.96878 14.0939 3.34218 13.9409 3.62375 13.6868C4.02775 14.1674 4.63375 14.4765 5.31014 14.4765H11.566C13.0167 14.4765 13.9808 13.6807 14.1492 12.3494L14.9265 7.4677L14.9694 7.20449C14.9878 7.08206 15 6.95658 15 6.83109C14.9969 5.66807 14.0482 4.71928 12.8851 4.71928ZM3.10957 12.4993C3.10957 12.8023 2.86472 13.0472 2.56172 13.0472H1.59763C1.29463 13.0472 1.04979 12.8023 1.04979 12.4993V6.99943C1.04979 6.69643 1.29463 6.45158 1.59763 6.45158H2.56172C2.86472 6.45158 3.10957 6.69643 3.10957 6.99943V12.4993ZM13.9319 7.04227L13.1116 12.1963C13.1116 12.2024 13.1085 12.2086 13.1085 12.2147C13.0718 12.5146 12.9616 13.4297 11.566 13.4297H5.31014C4.6766 13.4297 4.15936 12.9125 4.15936 12.279V6.99943C4.15936 6.92903 4.15323 6.85864 4.14405 6.78825L4.22057 6.76376C4.44399 6.69949 7.29647 5.82416 7.29647 3.1798V1.0588C7.59947 1.0282 7.99735 1.04962 8.27586 1.25774C8.58804 1.49035 8.74719 1.94026 8.74719 2.60134V5.2457C8.74719 5.53646 8.98286 5.77213 9.27362 5.77213H12.8851C13.4728 5.77213 13.9472 6.24958 13.9472 6.83415C13.9472 6.90149 13.941 6.97188 13.9319 7.04227Z" fill="white"/>
</svg>
