<svg width="20" height="22" viewBox="0 0 20 22" fill="none" xmlns="http://www.w3.org/2000/svg">
<path d="M19.3762 4.51758H17.5028C17.1583 4.51758 16.879 4.79686 16.879 5.14134C16.879 5.48582 17.1583 5.7651 17.5028 5.7651H19.3762C19.7207 5.7651 19.9999 5.48582 19.9999 5.14134C19.9999 4.79686 19.7207 4.51758 19.3762 4.51758V4.51758Z" fill="white"/>
<path d="M18.6865 8.34768L17.0641 7.40999C16.7658 7.23758 16.3842 7.33967 16.2119 7.63792C16.0395 7.93616 16.1416 8.3177 16.4398 8.49011L18.0622 9.42779C18.3605 9.6002 18.7421 9.49807 18.9144 9.19987C19.0868 8.90158 18.9848 8.52005 18.6865 8.34768Z" fill="white"/>
<path d="M17.0621 2.87307L18.6845 1.93538C18.9828 1.76297 19.0848 1.38148 18.9124 1.08319C18.74 0.78495 18.3585 0.682943 18.0602 0.855269L16.4378 1.79296C16.1396 1.96536 16.0375 2.34686 16.2099 2.64514C16.3824 2.94359 16.7641 3.04535 17.0621 2.87307Z" fill="white"/>
<path d="M14.3424 4.65744e-05C11.638 4.65744e-05 12.0154 -0.000244516 11.9668 0.000628754C10.3345 0.00437134 8.87978 0.778463 7.94676 1.97817H3.11462C2.77014 1.97817 2.49086 2.25745 2.49086 2.60193V3.22703H1.87025C0.839005 3.22703 0 4.06661 0 5.09861C0 6.13057 0.839005 6.97015 1.87025 6.97015H2.4909V7.59733C2.4909 7.94181 2.77018 8.22109 3.11466 8.22109H4.38402V10.0405C4.38402 10.385 4.6633 10.6643 5.00779 10.6643H5.57978V20.6674C5.57978 21.0119 5.85906 21.2912 6.20354 21.2912C6.54803 21.2912 6.82731 21.0119 6.82731 20.6674V10.6643H7.50696C7.85145 10.6643 8.13073 10.385 8.13073 10.0405V8.47027C9.0677 9.54459 10.4452 10.2246 11.9786 10.2246C11.9786 10.2246 11.8907 10.2213 14.3424 10.2213C14.6869 10.2213 14.9661 9.94206 14.9661 9.59757V0.623811C14.9661 0.279327 14.6869 4.65744e-05 14.3424 4.65744e-05V4.65744e-05ZM1.87025 5.72263C1.52689 5.72263 1.24753 5.44268 1.24753 5.09857C1.24753 4.7545 1.52689 4.47456 1.87025 4.47456H2.4909V5.72263H1.87025ZM3.73839 6.38781C3.7393 6.37404 3.74047 6.36036 3.74047 6.34639C3.74047 6.33242 3.73926 6.31874 3.73839 6.30497C3.73839 6.01255 3.73839 3.54091 3.73839 3.2257H7.23192C6.76755 4.39197 6.73811 5.73947 7.22169 6.97352H3.73839V6.38781ZM6.8832 9.41672H5.63151V8.2403H6.8832V9.41672ZM8.11879 5.11254C8.11879 3.19418 9.52197 1.5978 11.3548 1.29847V8.92661C9.52197 8.62729 8.11879 7.03091 8.11879 5.11254ZM13.7186 8.97381H12.6023V1.24757H13.7186V8.97381Z" fill="white"/>
</svg>
