<svg width="30" height="32" viewBox="0 0 30 32" fill="none" xmlns="http://www.w3.org/2000/svg">
<path d="M29.0643 6.77588H26.2543C25.7376 6.77588 25.3186 7.1948 25.3186 7.71152C25.3186 8.22825 25.7376 8.64717 26.2543 8.64717H29.0643C29.5811 8.64717 30 8.22825 30 7.71152C30 7.1948 29.5811 6.77588 29.0643 6.77588Z" fill="#FF9900"/>
<path d="M28.0298 12.5225L25.5962 11.116C25.1488 10.8574 24.5765 11.0105 24.3179 11.4579C24.0593 11.9052 24.2124 12.4775 24.6598 12.7361L27.0934 14.1427C27.5409 14.4013 28.1132 14.2481 28.3717 13.8008C28.6303 13.3534 28.4772 12.781 28.0298 12.5225Z" fill="#FF9900"/>
<path d="M25.5932 4.30862L28.0267 2.9021C28.4742 2.64348 28.6272 2.07124 28.3686 1.62381C28.1101 1.17645 27.5378 1.02344 27.0903 1.28193L24.6568 2.68846C24.2094 2.94707 24.0563 3.51931 24.3149 3.96674C24.5736 4.41442 25.1461 4.56705 25.5932 4.30862Z" fill="#FF9900"/>
<path d="M21.5136 6.98616e-05C17.457 6.98616e-05 18.023 -0.000366773 17.9501 0.000943131C15.5017 0.00655701 13.3197 1.16769 11.9201 2.96725H4.67193C4.15521 2.96725 3.73629 3.38617 3.73629 3.9029V4.84054H2.80538C1.25851 4.84054 0 6.09992 0 7.64792C0 9.19585 1.25851 10.4552 2.80538 10.4552H3.73635V11.396C3.73635 11.9127 4.15527 12.3316 4.67199 12.3316H6.57604V15.0607C6.57604 15.5775 6.99496 15.9964 7.51168 15.9964H8.36967V31.0012C8.36967 31.5179 8.78859 31.9368 9.30532 31.9368C9.82204 31.9368 10.241 31.5179 10.241 31.0012V15.9964H11.2604C11.7772 15.9964 12.1961 15.5775 12.1961 15.0607V12.7054C13.6016 14.3169 15.6678 15.3369 17.9678 15.3369C17.9678 15.3369 17.836 15.332 21.5136 15.332C22.0303 15.332 22.4492 14.9131 22.4492 14.3964V0.935716C22.4492 0.41899 22.0304 6.98616e-05 21.5136 6.98616e-05ZM2.80538 8.58394C2.29034 8.58394 1.87129 8.16402 1.87129 7.64786C1.87129 7.13175 2.29034 6.71183 2.80538 6.71183H3.73635V8.58394H2.80538ZM5.60758 9.58171C5.60895 9.56106 5.6107 9.54054 5.6107 9.51958C5.6107 9.49863 5.60889 9.4781 5.60758 9.45746C5.60758 9.01883 5.60758 5.31136 5.60758 4.83855H10.8479C10.1513 6.58796 10.1072 8.6092 10.8325 10.4603H5.60758V9.58171ZM10.3248 14.1251H8.44727V12.3605H10.3248V14.1251ZM12.1782 7.66881C12.1782 4.79127 14.283 2.3967 17.0322 1.94771V13.3899C14.283 12.9409 12.1782 10.5464 12.1782 7.66881ZM20.5779 13.4607H18.9035V1.87136H20.5779V13.4607Z" fill="#FF9900"/>
</svg>
