<svg width="27" height="27" viewBox="0 0 27 27" fill="none" xmlns="http://www.w3.org/2000/svg">
<path d="M13.125 0C10.5291 0 7.99154 0.769768 5.83315 2.21196C3.67475 3.65416 1.99249 5.704 0.999087 8.10228C0.00568684 10.5006 -0.254232 13.1396 0.252199 15.6856C0.75863 18.2316 2.00867 20.5702 3.84423 22.4058C5.67979 24.2413 8.01845 25.4914 10.5644 25.9978C13.1104 26.5042 15.7494 26.2443 18.1477 25.2509C20.546 24.2575 22.5959 22.5753 24.038 20.4169C25.4802 18.2585 26.25 15.7209 26.25 13.125C26.246 9.64525 24.862 6.30916 22.4014 3.84861C19.9408 1.38805 16.6048 0.00397005 13.125 0ZM13.125 24.375C10.9 24.375 8.72489 23.7152 6.87484 22.479C5.02479 21.2429 3.58285 19.4859 2.73136 17.4302C1.87988 15.3745 1.65709 13.1125 2.09117 10.9302C2.52526 8.74795 3.59671 6.74339 5.17005 5.17005C6.7434 3.59671 8.74795 2.52525 10.9302 2.09117C13.1125 1.65708 15.3745 1.87987 17.4302 2.73136C19.4859 3.58284 21.2429 5.02478 22.479 6.87484C23.7152 8.72489 24.375 10.9 24.375 13.125C24.3717 16.1077 23.1853 18.9672 21.0763 21.0763C18.9672 23.1853 16.1077 24.3717 13.125 24.375Z" fill="#FF4200"/>
<path d="M14.0625 8.4375H10.7812V10.3125H12.1875V18.75H10.7812V20.625H15.4688V18.75H14.0625V8.4375Z" fill="#FF4200"/>
<path d="M13.125 7.03125C13.6428 7.03125 14.0625 6.61152 14.0625 6.09375C14.0625 5.57598 13.6428 5.15625 13.125 5.15625C12.6072 5.15625 12.1875 5.57598 12.1875 6.09375C12.1875 6.61152 12.6072 7.03125 13.125 7.03125Z" fill="#FF4200"/>
</svg>
