<svg width="15" height="15" viewBox="0 0 15 15" fill="none" xmlns="http://www.w3.org/2000/svg">
<g clip-path="url(#clip0)">
<path d="M12.0117 15.0293H2.98828C2.19603 15.0284 1.43648 14.7132 0.876275 14.153C0.316065 13.5928 0.000930425 12.8333 0 12.041L0 3.01758C0.000930425 2.22532 0.316065 1.46578 0.876275 0.905572C1.43648 0.345362 2.19603 0.0302273 2.98828 0.0292969H12.0117C12.804 0.0302273 13.5635 0.345362 14.1237 0.905572C14.6839 1.46578 14.9991 2.22532 15 3.01758V12.041C14.9991 12.8333 14.6839 13.5928 14.1237 14.153C13.5635 14.7132 12.804 15.0284 12.0117 15.0293ZM2.98828 1.20117C2.50671 1.20171 2.04501 1.39326 1.70449 1.73378C1.36396 2.07431 1.17242 2.536 1.17188 3.01758V12.041C1.17242 12.5226 1.36396 12.9843 1.70449 13.3248C2.04501 13.6653 2.50671 13.8569 2.98828 13.8574H12.0117C12.4933 13.8569 12.955 13.6653 13.2955 13.3248C13.636 12.9843 13.8276 12.5226 13.8281 12.041V3.01758C13.8276 2.536 13.636 2.07431 13.2955 1.73378C12.955 1.39326 12.4933 1.20171 12.0117 1.20117H2.98828Z" fill="white"/>
<path d="M7.5 9.9498C7.3446 9.9498 7.19556 9.88807 7.08568 9.77819C6.9758 9.6683 6.91406 9.51927 6.91406 9.36387V3.9167C6.91406 3.7613 6.9758 3.61226 7.08568 3.50238C7.19556 3.39249 7.3446 3.33076 7.5 3.33076C7.6554 3.33076 7.80444 3.39249 7.91432 3.50238C8.02421 3.61226 8.08594 3.7613 8.08594 3.9167V9.36387C8.08594 9.51927 8.02421 9.6683 7.91432 9.77819C7.80444 9.88807 7.6554 9.9498 7.5 9.9498Z" fill="white"/>
<path d="M10.0582 6.47461C9.98119 6.47463 9.90495 6.45948 9.83382 6.43002C9.76269 6.40056 9.69806 6.35738 9.64363 6.30293L7.49998 4.16016L5.35633 6.3041C5.24642 6.41401 5.09735 6.47575 4.94192 6.47575C4.78649 6.47575 4.63742 6.41401 4.52752 6.3041C4.41761 6.19419 4.35587 6.04513 4.35587 5.8897C4.35587 5.73427 4.41761 5.5852 4.52752 5.47529L6.79978 3.20332C6.98568 3.01798 7.23747 2.9139 7.49998 2.9139C7.76248 2.9139 8.01428 3.01798 8.20017 3.20332L10.4724 5.47529C10.5541 5.55728 10.6096 5.6616 10.632 5.77509C10.6544 5.88859 10.6428 6.00618 10.5985 6.11305C10.5542 6.21992 10.4792 6.31129 10.3831 6.37563C10.2869 6.43997 10.1739 6.47441 10.0582 6.47461Z" fill="white"/>
<path d="M9.69727 12.0867H5.30273C5.14733 12.0867 4.9983 12.025 4.88841 11.9151C4.77853 11.8052 4.7168 11.6562 4.7168 11.5008C4.7168 11.3454 4.77853 11.1963 4.88841 11.0865C4.9983 10.9766 5.14733 10.9148 5.30273 10.9148H9.69727C9.85267 10.9148 10.0017 10.9766 10.1116 11.0865C10.2215 11.1963 10.2832 11.3454 10.2832 11.5008C10.2832 11.6562 10.2215 11.8052 10.1116 11.9151C10.0017 12.025 9.85267 12.0867 9.69727 12.0867Z" fill="white"/>
</g>
<defs>
<clipPath id="clip0">
<rect width="15" height="15" fill="white"/>
</clipPath>
</defs>
</svg>
