<svg width="20" height="20" viewBox="0 0 20 20" fill="none" xmlns="http://www.w3.org/2000/svg">
<path d="M20 10C20 9.54133 19.847 9.08691 19.5895 8.7375C19.7477 8.33336 19.7779 7.85473 19.6593 7.41145C19.5404 6.96852 19.275 6.56922 18.936 6.2984C18.9841 5.86723 18.8895 5.39727 18.6602 4.99996C18.4309 4.60281 18.0713 4.28574 17.6737 4.11184C17.6086 3.68266 17.3954 3.25316 17.0711 2.92918C16.7468 2.60461 16.3173 2.39133 15.8881 2.32629C15.7142 1.92875 15.3971 1.56906 14.9998 1.33957C14.6026 1.11051 14.1326 1.01578 13.7014 1.06398C13.4305 0.724727 13.0312 0.459297 12.5882 0.340625C12.145 0.221992 11.6665 0.252188 11.2625 0.410352C10.9132 0.152969 10.4587 0 10 0C9.54125 0 9.08687 0.152969 8.73754 0.410352C8.33348 0.252148 7.85504 0.222031 7.41176 0.340625C6.96879 0.459297 6.56945 0.724727 6.29859 1.06395C5.86727 1.01586 5.39727 1.11051 4.99996 1.33969C4.60281 1.56906 4.28578 1.92875 4.11188 2.32621C3.6827 2.39125 3.25328 2.60449 2.92926 2.92875C2.60469 3.25301 2.39141 3.68258 2.32633 4.11176C1.92875 4.2857 1.56906 4.60277 1.33961 5.00016C1.11055 5.3973 1.01586 5.86719 1.06398 6.29832C0.725039 6.56918 0.459609 6.96855 0.340625 7.41172C0.222031 7.85477 0.252266 8.33328 0.410469 8.73742C0.153047 9.08691 0 9.54137 0 10C0 10.4586 0.153008 10.913 0.410391 11.2624C0.252148 11.6664 0.221992 12.145 0.340742 12.5882C0.459648 13.0312 0.725039 13.4305 1.06402 13.7013C1.0159 14.1327 1.11055 14.6027 1.33977 15C1.56898 15.397 1.92863 15.714 2.32629 15.888C2.39129 16.3172 2.60453 16.7468 2.92887 17.0708C3.25305 17.3952 3.68254 17.6084 4.11184 17.6734C4.28574 18.0711 4.60285 18.4309 5.00023 18.6604C5.3975 18.8895 5.86734 18.9842 6.29871 18.9359C6.56949 19.2749 6.96871 19.5403 7.41184 19.6593C7.85496 19.778 8.3334 19.7477 8.73754 19.5895C9.08691 19.847 9.54137 20 10 20C10.4586 20 10.9131 19.847 11.2625 19.5895C11.6667 19.7477 12.1454 19.7779 12.5886 19.6593C13.0314 19.5404 13.4306 19.2749 13.7013 18.9359C14.1323 18.9841 14.6026 18.8895 15 18.6603C15.3973 18.4309 15.7143 18.0711 15.8882 17.6735C16.3174 17.6085 16.7469 17.3954 17.0707 17.0712C17.3954 16.7469 17.6087 16.3173 17.6737 15.888C18.0714 15.714 18.4311 15.397 18.6604 14.9998C18.8895 14.6027 18.9841 14.1327 18.936 13.7013C19.275 13.4305 19.5404 13.0312 19.6593 12.588C19.778 12.1449 19.7479 11.6664 19.5896 11.2624C19.847 10.913 20 10.4586 20 10ZM18.5255 10.6911C18.3937 10.7855 18.307 10.9303 18.2859 11.091C18.2647 11.2517 18.3111 11.414 18.414 11.5393C18.5313 11.6821 18.6079 11.984 18.5274 12.2845C18.4467 12.5854 18.2292 12.8088 18.0562 12.874C17.9046 12.9311 17.7835 13.0483 17.7214 13.1979C17.6594 13.3475 17.6621 13.5161 17.7288 13.6637C17.8051 13.8325 17.8009 14.1445 17.6455 14.414C17.4898 14.6835 17.2217 14.843 17.0374 14.8614C16.8762 14.8774 16.7289 14.9595 16.6304 15.088C16.5318 15.2165 16.4909 15.3801 16.5172 15.5399C16.5473 15.7224 16.4627 16.0222 16.2421 16.2425C16.0224 16.4625 15.7225 16.5472 15.5399 16.5169C15.38 16.4905 15.2163 16.5315 15.0877 16.6302C14.9591 16.7288 14.8771 16.8763 14.8613 17.0376C14.8432 17.2218 14.6837 17.4897 14.4142 17.6453C14.1444 17.8009 13.8325 17.805 13.6641 17.7287C13.5164 17.6618 13.3477 17.6591 13.198 17.7211C13.0483 17.7831 12.9309 17.9044 12.8739 18.0561C12.8087 18.2292 12.5854 18.4467 12.2851 18.5273C11.9843 18.6079 11.6821 18.5311 11.5389 18.4137C11.4136 18.311 11.2513 18.2647 11.0908 18.2858C10.9301 18.307 10.7854 18.3937 10.691 18.5254C10.5833 18.6759 10.3113 18.8281 10 18.8281C9.68871 18.8281 9.41668 18.6759 9.30895 18.5255C9.21453 18.3938 9.06984 18.307 8.90918 18.2859C8.69168 18.2573 8.5334 18.3544 8.46102 18.4138C8.31793 18.5312 8.01562 18.6079 7.71531 18.5275C7.41453 18.4467 7.19125 18.2292 7.12609 18.0561C7.06902 17.9044 6.95168 17.7831 6.80195 17.7211C6.65223 17.6591 6.48355 17.6618 6.33586 17.7287C6.16723 17.8051 5.85547 17.8009 5.58602 17.6455C5.31629 17.4897 5.1568 17.2218 5.13867 17.0377C5.12281 16.8764 5.04082 16.7289 4.91227 16.6302C4.78367 16.5315 4.62004 16.4905 4.46008 16.5169C4.27758 16.5471 3.97762 16.4625 3.75746 16.2421C3.5373 16.0222 3.45262 15.7224 3.48277 15.5399C3.50914 15.3801 3.4682 15.2165 3.36965 15.088C3.27109 14.9595 3.12379 14.8774 2.96262 14.8614C2.77824 14.8431 2.51016 14.6835 2.35469 14.4143C2.1991 14.1445 2.19492 13.8325 2.27121 13.6637C2.33793 13.5161 2.34059 13.3475 2.27855 13.1979C2.21652 13.0483 2.09535 12.9311 1.94379 12.874C1.77074 12.8088 1.55332 12.5854 1.47262 12.2848C1.39203 11.984 1.46863 11.682 1.58594 11.5393C1.68883 11.414 1.73523 11.2517 1.7141 11.091C1.69301 10.9303 1.60625 10.7855 1.47449 10.6911C1.3241 10.5833 1.17188 10.3113 1.17188 10C1.17188 9.68871 1.3241 9.41672 1.47453 9.30891C1.60621 9.21449 1.69297 9.06981 1.71414 8.90914C1.73527 8.74852 1.68895 8.58625 1.58621 8.46098C1.46883 8.31793 1.39211 8.0157 1.47258 7.7152C1.55332 7.41426 1.77078 7.19086 1.94379 7.1257C2.09539 7.06863 2.21656 6.95133 2.27859 6.80168C2.34063 6.65203 2.33793 6.4834 2.27113 6.33578C2.19488 6.16727 2.19906 5.85551 2.35453 5.58602C2.51031 5.31629 2.77813 5.1568 2.96215 5.13867C3.12344 5.12277 3.2709 5.04078 3.36953 4.91223C3.46816 4.78363 3.50918 4.62 3.48277 4.46012C3.45266 4.27762 3.5373 3.97781 3.75785 3.7575C3.97781 3.5373 4.27781 3.45258 4.46012 3.48277C4.62 3.50918 4.78371 3.4682 4.91227 3.36953C5.04086 3.2709 5.12285 3.1234 5.13871 2.96211C5.15684 2.77813 5.31633 2.51031 5.58578 2.35469C5.85551 2.19906 6.16754 2.19492 6.33629 2.27121C6.48391 2.33797 6.65258 2.34059 6.80211 2.27859C6.95172 2.21656 7.06898 2.09539 7.12609 1.94383C7.19133 1.77059 7.41453 1.55316 7.71488 1.4727C8.01598 1.39211 8.31797 1.46871 8.46074 1.58602C8.58609 1.68898 8.74867 1.73535 8.90914 1.71418C9.06988 1.69301 9.21473 1.60621 9.3091 1.47434C9.41668 1.32402 9.68855 1.17188 10 1.17188C10.3114 1.17188 10.5833 1.32402 10.6909 1.4743C10.7853 1.60613 10.9302 1.69297 11.0909 1.71414C11.2517 1.73527 11.414 1.68891 11.5393 1.58598C11.682 1.46867 11.9842 1.39211 12.2851 1.47266C12.5855 1.55313 12.8087 1.77059 12.8739 1.94383C12.9311 2.09539 13.0483 2.21656 13.1979 2.27859C13.3475 2.34063 13.5161 2.33797 13.6637 2.27121C13.8324 2.19492 14.1445 2.19914 14.414 2.35453C14.6837 2.51031 14.8432 2.77809 14.8613 2.96211C14.8772 3.12336 14.9592 3.27086 15.0878 3.36953C15.2164 3.4682 15.3801 3.50918 15.5399 3.48277C15.7225 3.45258 16.0222 3.53734 16.2425 3.75785C16.4627 3.97781 16.5474 4.27762 16.5172 4.46012C16.4908 4.62 16.5318 4.78367 16.6305 4.91223C16.7291 5.04078 16.8766 5.12277 17.0379 5.13867C17.2219 5.1568 17.4896 5.31629 17.6453 5.58574C17.8009 5.85551 17.8051 6.16727 17.7289 6.33578C17.6621 6.48336 17.6594 6.65203 17.7214 6.80168C17.7834 6.95133 17.9046 7.06863 18.0562 7.1257C18.2293 7.19086 18.4467 7.4143 18.5273 7.71484C18.6079 8.0157 18.5312 8.31793 18.4138 8.46102C18.3111 8.58629 18.2648 8.74852 18.2859 8.90918C18.3071 9.06984 18.3938 9.21453 18.5255 9.30895C18.6759 9.41676 18.8282 9.68875 18.8282 10C18.8282 10.3113 18.6759 10.5833 18.5255 10.6911Z" fill="white"/>
<path d="M13.7656 7.84513H12.4688V6.44091C12.4688 5.13884 11.4094 4.07947 10.1073 4.07947C9.379 4.07947 8.7865 4.67201 8.7865 5.40064C8.7865 6.31005 8.46037 7.16923 7.8638 7.84509H5.60681C5.28322 7.84509 5.02087 8.10744 5.02087 8.43103V14.0795C5.02087 14.4031 5.28322 14.6654 5.60681 14.6654H13.7656C14.7758 14.6654 15.6068 13.8489 15.6068 12.8243V9.68626C15.6068 8.66951 14.7842 7.84513 13.7656 7.84513ZM7.53126 13.4936H6.19271V9.01701H7.53126V13.4936ZM14.4349 12.8243C14.4349 13.197 14.1321 13.4936 13.7656 13.4936H8.70314V8.66501C9.51447 7.7683 9.95837 6.61861 9.95837 5.40041C9.95837 5.31822 10.0252 5.25142 10.1073 5.25142C10.7633 5.25142 11.2969 5.78505 11.2969 6.44099V8.43115C11.2969 8.75474 11.5592 9.01709 11.8828 9.01709H13.7656C14.1362 9.01709 14.4349 9.31693 14.4349 9.68634V12.8243Z" fill="white"/>
</svg>
