<svg width="20" height="20" viewBox="0 0 20 20" fill="none" xmlns="http://www.w3.org/2000/svg">
<path d="M10 20C9.54137 20 9.08691 19.847 8.7375 19.5895C8.33336 19.7477 7.85492 19.778 7.4118 19.6594C6.96867 19.5404 6.56945 19.2749 6.29867 18.9359C5.8673 18.9843 5.39746 18.8895 5.0002 18.6604C4.60281 18.4309 4.2857 18.0711 4.1118 17.6734C3.6825 17.6084 3.25301 17.3953 2.92883 17.0708C2.60449 16.7468 2.39125 16.3172 2.32625 15.888C1.92859 15.714 1.56895 15.397 1.33973 15.0001C1.11055 14.6028 1.01586 14.1327 1.06398 13.7014C0.725 13.4305 0.459609 13.0312 0.340703 12.5883C0.221953 12.145 0.252109 11.6665 0.410352 11.2624C0.153008 10.913 0 10.4586 0 10C0 9.54137 0.153047 9.08691 0.410469 8.7375C0.252266 8.33336 0.222031 7.85484 0.340625 7.4118C0.459609 6.96859 0.725039 6.56926 1.06398 6.2984C1.01586 5.86723 1.11051 5.39734 1.33961 5.00023C1.56906 4.60289 1.92875 4.28578 2.32633 4.11184C2.39141 3.68266 2.60469 3.25309 2.92926 2.92883C3.25328 2.60453 3.6827 2.39133 4.11188 2.32629C4.28578 1.92879 4.60281 1.5691 4.99996 1.33977C5.39727 1.11059 5.86727 1.0159 6.29859 1.06402C6.56949 0.724805 6.96879 0.459375 7.41176 0.340703C7.85508 0.22207 8.33352 0.252227 8.73754 0.41043C9.08687 0.152969 9.54125 0 10 0C10.4587 0 10.9132 0.152969 11.2625 0.410352C11.6665 0.252188 12.145 0.221992 12.5882 0.340625C13.0312 0.459297 13.4305 0.724727 13.7014 1.06398C14.1326 1.01578 14.6027 1.11047 14.9998 1.33957C15.3971 1.56906 15.7143 1.92875 15.8882 2.32629C16.3173 2.39137 16.7469 2.60461 17.0712 2.92918C17.3955 3.25316 17.6087 3.68266 17.6737 4.11184C18.0713 4.28574 18.4309 4.60277 18.6603 4.99996C18.8895 5.39727 18.9841 5.86723 18.9361 6.2984C19.275 6.56922 19.5404 6.96852 19.6593 7.41145C19.778 7.85473 19.7478 8.33336 19.5896 8.7375C19.847 9.08691 20 9.54133 20 10C20 10.4586 19.847 10.913 19.5896 11.2624C19.7479 11.6664 19.778 12.1449 19.6593 12.588C19.5404 13.0311 19.275 13.4305 18.936 13.7013C18.9841 14.1326 18.8895 14.6027 18.6604 14.9998C18.4311 15.3969 18.0714 15.7139 17.6737 15.888C17.6087 16.3172 17.3954 16.7468 17.0707 17.0712C16.7469 17.3954 16.3174 17.6085 15.8882 17.6734C15.7143 18.0711 15.3973 18.4309 15 18.6602C14.6026 18.8895 14.1323 18.9841 13.7013 18.9359C13.4305 19.2749 13.0314 19.5403 12.5886 19.6592C12.1453 19.7779 11.6666 19.7477 11.2625 19.5895C10.9131 19.847 10.4586 20 10 20Z" fill="#FF4200"/>
<path d="M11.2625 19.5895C11.6667 19.7477 12.1454 19.7779 12.5886 19.6593C13.0314 19.5404 13.4306 19.2749 13.7013 18.9359C14.1323 18.9841 14.6026 18.8895 15 18.6603C15.3973 18.4309 15.7143 18.0711 15.8882 17.6735C16.3174 17.6085 16.7469 17.3954 17.0707 17.0712C17.3954 16.7469 17.6087 16.3173 17.6737 15.888C18.0714 15.714 18.4311 15.397 18.6604 14.9998C18.8895 14.6027 18.9841 14.1327 18.936 13.7013C19.275 13.4305 19.5404 13.0312 19.6593 12.588C19.778 12.1449 19.7479 11.6664 19.5896 11.2624C19.847 10.913 20 10.4586 20 10C20 9.54133 19.847 9.08691 19.5895 8.7375C19.7477 8.33336 19.7779 7.85473 19.6593 7.41145C19.5404 6.96852 19.275 6.56922 18.936 6.2984C18.9841 5.86723 18.8895 5.39727 18.6602 4.99996C18.4309 4.60281 18.0713 4.28574 17.6737 4.11184C17.6086 3.68266 17.3954 3.25316 17.0711 2.92918C16.7468 2.60461 16.3173 2.39133 15.8881 2.32629C15.7142 1.92875 15.3971 1.56906 14.9998 1.33957C14.6026 1.11051 14.1326 1.01578 13.7014 1.06398C13.4305 0.724727 13.0312 0.459297 12.5882 0.340625C12.145 0.221992 11.6665 0.252188 11.2625 0.410352C10.9132 0.152969 10.4588 0 10 0V20C10.4586 20 10.9131 19.847 11.2625 19.5895Z" fill="#FF4200"/>
<path d="M5.60675 14.6653H7.7621C8.0857 14.6653 8.34804 14.4029 8.34804 14.0793V8.89966C8.34804 8.57606 8.0857 8.31372 7.7621 8.31372H5.60675C5.28316 8.31372 5.02081 8.57606 5.02081 8.89966V14.0793C5.02081 14.4029 5.28316 14.6653 5.60675 14.6653Z" fill="#FFAA8C"/>
<path d="M15.6008 9.72517C15.6008 8.94685 14.9697 8.31372 14.1894 8.31372H11.9965V6.07587C11.9965 4.97317 11.1027 4.07935 10 4.07935C9.54375 4.07935 9.17359 4.44915 9.17359 4.90575C9.17359 6.77286 8.13859 7.93728 7.76215 8.31372V14.6653H14.1894C14.9657 14.6653 15.6008 14.0354 15.6008 13.2538V9.72517Z" fill="white"/>
<path d="M14.1894 14.6652C14.9657 14.6652 15.6008 14.0354 15.6008 13.2538V9.72517C15.6008 8.94685 14.9697 8.31372 14.1894 8.31372H11.9965V6.07587C11.9965 4.97317 11.1027 4.07935 10 4.07935V14.6653H14.1894V14.6652Z" fill="white"/>
</svg>
