<svg width="30" height="30" viewBox="0 0 30 30" fill="none" xmlns="http://www.w3.org/2000/svg">
<g clip-path="url(#clip0)">
<path d="M5.15014 29.0734C4.89075 29.0734 4.68127 28.8637 4.68127 28.6046C4.68127 26.2776 6.57414 24.3848 8.90107 24.3848C9.16023 24.3848 9.36994 24.5942 9.36994 24.8536C9.36994 25.1128 9.16023 25.3225 8.90107 25.3225C7.09177 25.3225 5.61901 26.7953 5.61901 28.6046C5.61901 28.8633 5.4093 29.0734 5.15014 29.0734Z" fill="#FF4200"/>
<path d="M24.8424 29.0734C24.583 29.0734 24.3735 28.8637 24.3735 28.6046C24.3735 26.7953 22.9008 25.3225 21.0915 25.3225C20.8321 25.3225 20.6226 25.1128 20.6226 24.8536C20.6226 24.5942 20.8321 24.3848 21.0915 24.3848C23.4184 24.3848 25.3113 26.2776 25.3113 28.6046C25.3113 28.8633 25.1016 29.0734 24.8424 29.0734Z" fill="#FF4200"/>
<path d="M11.7143 25.3225H8.90106C8.64167 25.3225 8.43219 25.1128 8.43219 24.8536C8.43219 24.5942 8.64167 24.3848 8.90106 24.3848H11.7143C11.9734 24.3848 12.1831 24.5942 12.1831 24.8536C12.1831 25.1128 11.9734 25.3225 11.7143 25.3225Z" fill="#FF4200"/>
<path d="M21.0915 25.3229L18.2783 25.322C18.0189 25.322 17.8094 25.1118 17.8094 24.8531C17.8094 24.5938 18.0194 24.3843 18.2783 24.3843L21.0915 24.3852C21.3507 24.3852 21.5604 24.5951 21.5604 24.8541C21.5604 25.1128 21.3502 25.3229 21.0915 25.3229Z" fill="#FF4200"/>
<path d="M5.1506 30C4.89167 30 4.68173 29.7903 4.68173 29.5316L4.68127 28.6056C4.68127 28.3462 4.89075 28.1362 5.14968 28.1362H5.15014C5.40884 28.1362 5.61901 28.3457 5.61901 28.6046L5.61947 29.5312C5.61947 29.7899 5.40976 30 5.1506 30Z" fill="#FF4200"/>
<path d="M24.8425 30C24.5831 30 24.3737 29.7903 24.3737 29.5311V28.6046C24.3737 28.3452 24.5831 28.1357 24.8425 28.1357C25.1017 28.1357 25.3114 28.3452 25.3114 28.6046V29.5311C25.3114 29.7903 25.1017 30 24.8425 30Z" fill="#FF4200"/>
<path d="M11.7142 25.3229C11.4548 25.3229 11.2454 25.1132 11.2454 24.8541V22.6363C11.2454 22.377 11.4548 22.1675 11.7142 22.1675C11.9734 22.1675 12.1831 22.377 12.1831 22.6363V24.8541C12.1831 25.1128 11.9734 25.3229 11.7142 25.3229Z" fill="#FF4200"/>
<path d="M18.2783 25.322C18.0189 25.322 17.8094 25.1123 17.8094 24.8531V22.6359C17.8094 22.3765 18.0189 22.167 18.2783 22.167C18.5375 22.167 18.7472 22.3765 18.7472 22.6359V24.8531C18.7472 25.1118 18.5375 25.322 18.2783 25.322Z" fill="#FF4200"/>
<path d="M14.9963 23.9165C10.8598 23.9165 7.49445 20.5509 7.49445 16.4147C7.49445 16.1553 7.70392 15.9458 7.96331 15.9458C8.22247 15.9458 8.43218 16.1553 8.43218 16.4147C8.43218 20.0344 11.3766 22.9788 14.9963 22.9788C18.6158 22.9788 21.5604 20.0344 21.5604 16.4147C21.5604 16.1553 21.7699 15.9458 22.0293 15.9458C22.2884 15.9458 22.4981 16.1553 22.4981 16.4147C22.4981 20.5509 19.1325 23.9165 14.9963 23.9165Z" fill="#FF4200"/>
<path d="M22.0293 14.0709C21.7699 14.0709 21.5604 13.8614 21.5604 13.602C21.5604 11.3401 20.4173 9.26504 18.5025 8.05212C18.2834 7.91339 18.2188 7.62401 18.3571 7.40515C18.4954 7.18605 18.7848 7.12035 19.0041 7.25977C21.1918 8.64576 22.4981 11.0166 22.4981 13.602C22.4981 13.861 22.2884 14.0709 22.0293 14.0709Z" fill="#FF4200"/>
<path d="M7.96331 14.0707C7.70392 14.0707 7.49445 13.8612 7.49445 13.6018C7.49445 11.0086 8.80581 8.63407 11.0025 7.25105C11.2229 7.11278 11.5116 7.17871 11.649 7.3978C11.7873 7.61713 11.7213 7.9065 11.5022 8.04433C9.57985 9.25495 8.43218 11.3326 8.43218 13.6018C8.43218 13.8607 8.22247 14.0707 7.96331 14.0707Z" fill="#FF4200"/>
<path d="M7.96331 16.8834C7.70392 16.8834 7.49445 16.6736 7.49445 16.4145V13.6031C7.49445 13.344 7.70392 13.1343 7.96331 13.1343C8.22247 13.1343 8.43218 13.344 8.43218 13.6031V16.4145C8.43218 16.6732 8.22247 16.8834 7.96331 16.8834Z" fill="#FF4200"/>
<path d="M22.0293 16.8835C21.7699 16.8835 21.5604 16.6738 21.5604 16.4146V13.6051C21.5604 13.3459 21.7699 13.1362 22.0293 13.1362C22.2884 13.1362 22.4982 13.3459 22.4982 13.6051V16.4146C22.4982 16.6733 22.2884 16.8835 22.0293 16.8835Z" fill="#FF4200"/>
<path d="M22.0293 14.5389C21.9094 14.5389 21.7892 14.4929 21.6978 14.4016L19.8223 12.5261C19.639 12.3427 19.639 12.0465 19.8223 11.8631C20.0057 11.6797 20.302 11.6797 20.4854 11.8631L22.3608 13.7386C22.5442 13.922 22.5442 14.2182 22.3608 14.4016C22.2692 14.4929 22.1493 14.5389 22.0293 14.5389Z" fill="#FF4200"/>
<path d="M14.9963 14.0703C12.0865 14.0703 9.69753 12.6566 9.59726 12.5966C9.37542 12.4634 9.30376 12.1761 9.43655 11.9538C9.5691 11.7326 9.85619 11.6598 10.0792 11.7921C10.1018 11.8056 12.3537 13.1321 14.9959 13.1321C17.6378 13.1321 19.8899 11.8056 19.9123 11.7921C20.136 11.6598 20.4224 11.7326 20.5552 11.9538C20.6879 12.1761 20.6161 12.4634 20.3942 12.5966C20.2949 12.6566 17.9061 14.0703 14.9963 14.0703Z" fill="#FF4200"/>
<path d="M7.9633 14.5389C7.84334 14.5389 7.72314 14.4929 7.6318 14.4016C7.44842 14.2182 7.44842 13.922 7.6318 13.7386L9.50726 11.8631C9.69064 11.6797 9.98689 11.6797 10.1703 11.8631C10.3537 12.0465 10.3537 12.3427 10.1703 12.5261L8.2948 14.4016C8.20323 14.4929 8.08326 14.5389 7.9633 14.5389Z" fill="#FF4200"/>
<path d="M13.1204 26.2596C13.0313 26.2596 12.9407 26.2338 12.8605 26.1809L11.4539 25.2441C11.2387 25.1005 11.1801 24.8093 11.3241 24.5937C11.4677 24.378 11.7582 24.3198 11.9746 24.4638L13.3812 25.4007C13.5964 25.5442 13.655 25.8352 13.511 26.0508C13.421 26.1859 13.2717 26.2596 13.1204 26.2596Z" fill="#FF4200"/>
<path d="M13.1204 26.2598C12.9102 26.2598 12.7195 26.1172 12.6655 25.9043C12.6032 25.6531 12.7555 25.3985 13.0073 25.3356L14.8827 24.8676C15.1327 24.8077 15.3882 24.9583 15.4514 25.2094C15.5139 25.4608 15.3615 25.7154 15.1096 25.7784L13.2342 26.2461C13.1964 26.255 13.1579 26.2598 13.1204 26.2598Z" fill="#FF4200"/>
<path d="M16.8722 26.2596C16.7206 26.2596 16.5716 26.1864 16.4816 26.0508C16.3376 25.8352 16.3962 25.5442 16.6114 25.4007L18.018 24.4638C18.2341 24.3198 18.5249 24.378 18.6684 24.5937C18.8124 24.8093 18.7538 25.1005 18.5386 25.2441L17.132 26.1809C17.0517 26.2338 16.9612 26.2596 16.8722 26.2596Z" fill="#FF4200"/>
<path d="M16.8722 26.2598C16.8347 26.2598 16.7962 26.255 16.7582 26.2461L14.8828 25.7783C14.6316 25.7154 14.4792 25.4608 14.541 25.2094C14.6039 24.9587 14.8576 24.8076 15.1096 24.8676L16.9851 25.3356C17.2365 25.3985 17.3889 25.6531 17.3269 25.9042C17.2731 26.1172 17.0822 26.2598 16.8722 26.2598Z" fill="#FF4200"/>
<path d="M15.0103 27.6658C14.7511 27.6658 14.5391 27.4561 14.5391 27.1969C14.5391 26.9375 14.7463 26.728 15.0052 26.728H15.0103C15.2692 26.728 15.4792 26.9375 15.4792 27.1969C15.4792 27.4561 15.2692 27.6658 15.0103 27.6658Z" fill="#FF4200"/>
<path d="M15.0103 29.53C14.7511 29.53 14.5391 29.3203 14.5391 29.0612C14.5391 28.8018 14.7463 28.5923 15.0052 28.5923H15.0103C15.2692 28.5923 15.4792 28.8018 15.4792 29.0612C15.4792 29.3203 15.2692 29.53 15.0103 29.53Z" fill="#FF4200"/>
<path d="M19.2236 10.7869H10.7841C10.5247 10.7869 10.3152 10.5771 10.3152 10.318C10.3152 10.0586 10.5247 9.84912 10.7841 9.84912H19.2236C19.4828 9.84912 19.6925 10.0586 19.6925 10.318C19.6925 10.5771 19.4823 10.7869 19.2236 10.7869Z" fill="#FF4200"/>
<path d="M11.2529 10.7871C10.9935 10.7871 10.7841 10.5774 10.7841 10.3182V0.468865C10.7841 0.209478 10.9935 0 11.2529 0C11.5121 0 11.7218 0.209478 11.7218 0.468865V10.3182C11.7218 10.5769 11.5116 10.7871 11.2529 10.7871Z" fill="#FF4200"/>
<path d="M16.8773 0.937731H11.2529C10.9935 0.937731 10.7841 0.728023 10.7841 0.468865C10.7841 0.209478 10.9935 0 11.2529 0H16.8773C17.1366 0 17.3461 0.209478 17.3461 0.468865C17.3461 0.728023 17.1362 0.937731 16.8773 0.937731Z" fill="#FF4200"/>
<path d="M18.7548 10.7873C18.4954 10.7873 18.2859 10.5776 18.2859 10.3184V2.34631C18.2859 2.08692 18.4954 1.87744 18.7548 1.87744C19.014 1.87744 19.2237 2.08692 19.2237 2.34631V10.3184C19.2237 10.5771 19.0135 10.7873 18.7548 10.7873Z" fill="#FF4200"/>
<path d="M18.7548 2.81617C18.6346 2.81617 18.5147 2.77016 18.4233 2.67881L16.546 0.801287C16.3627 0.618137 16.3627 0.321662 16.546 0.138511C16.7292 -0.0448683 17.0257 -0.0448683 17.2088 0.138511L19.0863 2.0158C19.2695 2.19918 19.2695 2.49543 19.0863 2.67881C18.9943 2.77016 18.8743 2.81617 18.7548 2.81617Z" fill="#FF4200"/>
<path d="M16.8773 2.81411C16.6182 2.81411 16.4084 2.6044 16.4084 2.34524V0.468865C16.4084 0.209478 16.6182 0 16.8773 0C17.1367 0 17.3462 0.209478 17.3462 0.468865V2.34524C17.3462 2.6044 17.1362 2.81411 16.8773 2.81411Z" fill="#FF4200"/>
<path d="M18.7548 2.8142H16.8773C16.6182 2.8142 16.4084 2.60449 16.4084 2.34533C16.4084 2.08594 16.6182 1.87646 16.8773 1.87646H18.7548C19.014 1.87646 19.2237 2.08594 19.2237 2.34533C19.2237 2.60449 19.0135 2.8142 18.7548 2.8142Z" fill="#FF4200"/>
<path d="M15.0039 7.03421C14.8837 7.03421 14.7637 6.98819 14.6724 6.89685L14.2035 6.42798C14.0201 6.2446 14.0201 5.94813 14.2035 5.76498C14.3867 5.5816 14.6831 5.5816 14.8665 5.76498L15.3354 6.23384C15.5185 6.41699 15.5185 6.71347 15.3354 6.89685C15.2433 6.98819 15.1234 7.03421 15.0039 7.03421Z" fill="#FF4200"/>
<path d="M15.0039 7.03407C14.8837 7.03407 14.7637 6.98805 14.6724 6.8967C14.489 6.71332 14.489 6.41685 14.6724 6.2337L16.5479 4.35824C16.731 4.17486 17.0275 4.17486 17.2109 4.35824C17.394 4.54139 17.394 4.83786 17.2109 5.02124L15.3354 6.8967C15.2434 6.98805 15.1234 7.03407 15.0039 7.03407Z" fill="#FF4200"/>
<path d="M15.4731 4.68968H13.1283C12.869 4.68968 12.6595 4.47998 12.6595 4.22082C12.6595 3.96143 12.869 3.75195 13.1283 3.75195H15.4731C15.7323 3.75195 15.942 3.96143 15.942 4.22082C15.942 4.47998 15.7318 4.68968 15.4731 4.68968Z" fill="#FF4200"/>
<path d="M13.1284 8.44152C12.869 8.44152 12.6595 8.23182 12.6595 7.97266V4.22082C12.6595 3.96143 12.869 3.75195 13.1284 3.75195C13.3875 3.75195 13.5972 3.96143 13.5972 4.22082V7.97266C13.5972 8.23136 13.3871 8.44152 13.1284 8.44152Z" fill="#FF4200"/>
<path d="M16.8793 8.44115H13.1284C12.869 8.44115 12.6595 8.23144 12.6595 7.97228C12.6595 7.7129 12.869 7.50342 13.1284 7.50342H16.8793C17.1384 7.50342 17.3481 7.7129 17.3481 7.97228C17.3481 8.23144 17.138 8.44115 16.8793 8.44115Z" fill="#FF4200"/>
<path d="M16.8798 8.44149C16.6204 8.44149 16.4109 8.23178 16.4109 7.97262V6.56603C16.4109 6.30665 16.6204 6.09717 16.8798 6.09717C17.1389 6.09717 17.3486 6.30665 17.3486 6.56603V7.97262C17.3486 8.23132 17.1385 8.44149 16.8798 8.44149Z" fill="#FF4200"/>
</g>
<defs>
<clipPath id="clip0">
<rect width="30" height="30" fill="white"/>
</clipPath>
</defs>
</svg>
