<svg width="30" height="30" viewBox="0 0 30 30" fill="none" xmlns="http://www.w3.org/2000/svg">
<path d="M30 15C30 18.9908 28.4507 22.7467 25.6377 25.5762C22.8264 28.4033 19.0839 29.9741 15.0984 29.9993C15.0886 29.9993 15.0778 30 15.068 29.9993C15.0458 30 15.0229 30 15 30C10.9939 30 7.22694 28.4402 4.39384 25.6066C1.56029 22.7737 0 19.0066 0 15C0 10.9934 1.56029 7.22694 4.39384 4.39339C7.22694 1.56029 10.9939 0 15 0C15.0229 0 15.0451 0 15.068 0.000686648C15.0785 0.000686648 15.089 0.000686648 15.0996 0.00114441C19.0846 0.0270081 22.8268 1.59737 25.6377 4.42451C28.4507 7.25395 30 11.0097 30 15Z" fill="#FF0000"/>
<path d="M30 15C30 18.9908 28.4507 22.7467 25.6378 25.5762C22.8264 28.4033 19.084 29.9741 15.0984 29.9993C15.0886 29.9993 15.0778 30 15.068 29.9993V0.000684738C15.0785 0.000684738 15.0891 0.000684738 15.0996 0.0011425C19.0846 0.0270062 22.8269 1.59736 25.6378 4.42451C28.4507 7.25395 30 11.0097 30 15Z" fill="#FF0000"/>
<path d="M15.0742 6.31669C15.0987 6.31623 15.0529 6.31669 15.0742 6.31669V6.31669Z" fill="white"/>
<path d="M17.5736 8.81607V15.5214C17.5736 16.8997 16.4525 18.021 15.0744 18.021H15.068C14.4242 18.0022 13.7595 17.7422 13.3068 17.2893C12.8351 16.8171 12.5748 16.1895 12.5748 15.5214V8.81607C12.5748 7.45308 13.7064 6.35559 15.068 6.31645H15.0744C16.4525 6.31645 17.5736 7.43797 17.5736 8.81607Z" fill="white"/>
<path d="M15.0741 18.0212C15.0529 18.0212 15.0954 18.0217 15.0741 18.0212V18.0212Z" fill="white"/>
<path d="M17.4398 21.1899C17.4398 22.4947 16.3787 23.5558 15.0739 23.5558H15.0679C13.7665 23.5529 12.7084 22.4929 12.7084 21.1899C12.7084 19.8873 13.7665 18.8274 15.0679 18.8244H15.0739C16.3787 18.8244 17.4398 19.8855 17.4398 21.1899Z" fill="white"/>
<path d="M17.4399 21.1899C17.4399 22.4947 16.3788 23.5558 15.0739 23.5558H15.068V18.8244H15.0739C16.3788 18.8244 17.4399 19.8855 17.4399 21.1899Z" fill="white"/>
<path d="M17.5736 8.81607V15.5214C17.5736 16.8997 16.4525 18.021 15.0744 18.021H15.068V6.31645H15.0744C16.4525 6.31645 17.5736 7.43797 17.5736 8.81607Z" fill="white"/>
</svg>
